M48
METRIC,TZ
T1C0.650
T2C1.750
T3C3.000
T4C3.988
%
G90
G05
T1
X182848Y-31650
X188628Y-31650
T2
X199708Y-67469
X209867Y-67469
X180658Y-67469
X190818Y-67469
X180658Y-48419
X190818Y-48419
X161607Y-67469
X171767Y-67469
T3
X162878Y-64929
X169228Y-62389
X200978Y-64929
X207327Y-62389
X181928Y-64929
X188278Y-62389
X181928Y-45879
X188278Y-43339
T4
X166688Y-67469
X204788Y-67469
X185737Y-67469
X185737Y-48419
T0
M30
