G04 #@! TF.GenerationSoftware,KiCad,Pcbnew,(5.1.5)-3*
G04 #@! TF.CreationDate,2020-03-25T17:20:55+01:00*
G04 #@! TF.ProjectId,4Keys,344b6579-732e-46b6-9963-61645f706362,rev?*
G04 #@! TF.SameCoordinates,Original*
G04 #@! TF.FileFunction,Legend,Bot*
G04 #@! TF.FilePolarity,Positive*
%FSLAX46Y46*%
G04 Gerber Fmt 4.6, Leading zero omitted, Abs format (unit mm)*
G04 Created by KiCad (PCBNEW (5.1.5)-3) date 2020-03-25 17:20:55*
%MOMM*%
%LPD*%
G04 APERTURE LIST*
%ADD10C,0.120000*%
%ADD11C,0.150000*%
%ADD12O,1.802000X2.052000*%
%ADD13C,0.100000*%
%ADD14R,2.652000X2.602000*%
%ADD15C,1.852000*%
%ADD16C,3.102000*%
%ADD17C,4.089800*%
%ADD18R,1.302000X1.502000*%
%ADD19C,0.752000*%
%ADD20O,1.102000X2.202000*%
%ADD21O,1.102000X1.702000*%
%ADD22R,1.602000X0.652000*%
%ADD23R,0.652000X1.602000*%
%ADD24R,1.902000X1.202000*%
G04 APERTURE END LIST*
D10*
X188181250Y-53868750D02*
X188181250Y-57868750D01*
X184881250Y-53868750D02*
X188181250Y-53868750D01*
D11*
X205418750Y-58356250D02*
X205418750Y-59631250D01*
X205993750Y-48006250D02*
X205993750Y-48681250D01*
X195643750Y-48006250D02*
X195643750Y-48681250D01*
X195643750Y-58356250D02*
X195643750Y-57681250D01*
X205993750Y-58356250D02*
X205993750Y-57681250D01*
X195643750Y-58356250D02*
X196318750Y-58356250D01*
X195643750Y-48006250D02*
X196318750Y-48006250D01*
X205993750Y-48006250D02*
X205318750Y-48006250D01*
X205993750Y-58356250D02*
X205418750Y-58356250D01*
X193400000Y-75600000D02*
X198600000Y-75600000D01*
X198600000Y-75600000D02*
X198600000Y-70400000D01*
X198600000Y-70400000D02*
X193400000Y-70400000D01*
X193400000Y-70400000D02*
X193400000Y-75600000D01*
X197000000Y-73000000D02*
G75*
G03X197000000Y-73000000I-1000000J0D01*
G01*
D10*
X203196078Y-44710000D02*
X202678922Y-44710000D01*
X203196078Y-43290000D02*
X202678922Y-43290000D01*
X195290000Y-68321078D02*
X195290000Y-67803922D01*
X196710000Y-68321078D02*
X196710000Y-67803922D01*
X197321078Y-44710000D02*
X196803922Y-44710000D01*
X197321078Y-43290000D02*
X196803922Y-43290000D01*
X191060000Y-56568078D02*
X191060000Y-56050922D01*
X192480000Y-56568078D02*
X192480000Y-56050922D01*
X209958922Y-58800000D02*
X210476078Y-58800000D01*
X209958922Y-60220000D02*
X210476078Y-60220000D01*
X210710000Y-49803922D02*
X210710000Y-50321078D01*
X209290000Y-49803922D02*
X209290000Y-50321078D01*
X209290000Y-56441078D02*
X209290000Y-55923922D01*
X210710000Y-56441078D02*
X210710000Y-55923922D01*
X186806078Y-60080000D02*
X186288922Y-60080000D01*
X186806078Y-58660000D02*
X186288922Y-58660000D01*
D11*
X187999404Y-51919130D02*
X187999404Y-50919130D01*
X187666071Y-51633416D01*
X187332738Y-50919130D01*
X187332738Y-51919130D01*
X186951785Y-50919130D02*
X186285119Y-51919130D01*
X186285119Y-50919130D02*
X186951785Y-51919130D01*
X185904166Y-50919130D02*
X185904166Y-51728654D01*
X185856547Y-51823892D01*
X185808928Y-51871511D01*
X185713690Y-51919130D01*
X185523214Y-51919130D01*
X185427976Y-51871511D01*
X185380357Y-51823892D01*
X185332738Y-51728654D01*
X185332738Y-50919130D01*
X184856547Y-51252464D02*
X184856547Y-52252464D01*
X184856547Y-51300083D02*
X184761309Y-51252464D01*
X184570833Y-51252464D01*
X184475595Y-51300083D01*
X184427976Y-51347702D01*
X184380357Y-51442940D01*
X184380357Y-51728654D01*
X184427976Y-51823892D01*
X184475595Y-51871511D01*
X184570833Y-51919130D01*
X184761309Y-51919130D01*
X184856547Y-51871511D01*
X183427976Y-51919130D02*
X183999404Y-51919130D01*
X183713690Y-51919130D02*
X183713690Y-50919130D01*
X183808928Y-51061988D01*
X183904166Y-51157226D01*
X183999404Y-51204845D01*
X208001785Y-70969130D02*
X208001785Y-69969130D01*
X207668452Y-70683416D01*
X207335119Y-69969130D01*
X207335119Y-70969130D01*
X206954166Y-69969130D02*
X206287500Y-70969130D01*
X206287500Y-69969130D02*
X206954166Y-70969130D01*
X205335119Y-70969130D02*
X205668452Y-70492940D01*
X205906547Y-70969130D02*
X205906547Y-69969130D01*
X205525595Y-69969130D01*
X205430357Y-70016750D01*
X205382738Y-70064369D01*
X205335119Y-70159607D01*
X205335119Y-70302464D01*
X205382738Y-70397702D01*
X205430357Y-70445321D01*
X205525595Y-70492940D01*
X205906547Y-70492940D01*
X204906547Y-70969130D02*
X204906547Y-70302464D01*
X204906547Y-69969130D02*
X204954166Y-70016750D01*
X204906547Y-70064369D01*
X204858928Y-70016750D01*
X204906547Y-69969130D01*
X204906547Y-70064369D01*
X204001785Y-70302464D02*
X204001785Y-71111988D01*
X204049404Y-71207226D01*
X204097023Y-71254845D01*
X204192261Y-71302464D01*
X204335119Y-71302464D01*
X204430357Y-71254845D01*
X204001785Y-70921511D02*
X204097023Y-70969130D01*
X204287500Y-70969130D01*
X204382738Y-70921511D01*
X204430357Y-70873892D01*
X204477976Y-70778654D01*
X204477976Y-70492940D01*
X204430357Y-70397702D01*
X204382738Y-70350083D01*
X204287500Y-70302464D01*
X204097023Y-70302464D01*
X204001785Y-70350083D01*
X203525595Y-70969130D02*
X203525595Y-69969130D01*
X203097023Y-70969130D02*
X203097023Y-70445321D01*
X203144642Y-70350083D01*
X203239880Y-70302464D01*
X203382738Y-70302464D01*
X203477976Y-70350083D01*
X203525595Y-70397702D01*
X202763690Y-70302464D02*
X202382738Y-70302464D01*
X202620833Y-69969130D02*
X202620833Y-70826273D01*
X202573214Y-70921511D01*
X202477976Y-70969130D01*
X202382738Y-70969130D01*
X201525595Y-70969130D02*
X202097023Y-70969130D01*
X201811309Y-70969130D02*
X201811309Y-69969130D01*
X201906547Y-70111988D01*
X202001785Y-70207226D01*
X202097023Y-70254845D01*
X169377976Y-70969130D02*
X169377976Y-69969130D01*
X169044642Y-70683416D01*
X168711309Y-69969130D01*
X168711309Y-70969130D01*
X168330357Y-69969130D02*
X167663690Y-70969130D01*
X167663690Y-69969130D02*
X168330357Y-70969130D01*
X166806547Y-70969130D02*
X167282738Y-70969130D01*
X167282738Y-69969130D01*
X166092261Y-70921511D02*
X166187500Y-70969130D01*
X166377976Y-70969130D01*
X166473214Y-70921511D01*
X166520833Y-70826273D01*
X166520833Y-70445321D01*
X166473214Y-70350083D01*
X166377976Y-70302464D01*
X166187500Y-70302464D01*
X166092261Y-70350083D01*
X166044642Y-70445321D01*
X166044642Y-70540559D01*
X166520833Y-70635797D01*
X165758928Y-70302464D02*
X165377976Y-70302464D01*
X165616071Y-70969130D02*
X165616071Y-70111988D01*
X165568452Y-70016750D01*
X165473214Y-69969130D01*
X165377976Y-69969130D01*
X165187500Y-70302464D02*
X164806547Y-70302464D01*
X165044642Y-69969130D02*
X165044642Y-70826273D01*
X164997023Y-70921511D01*
X164901785Y-70969130D01*
X164806547Y-70969130D01*
X163949404Y-70969130D02*
X164520833Y-70969130D01*
X164235119Y-70969130D02*
X164235119Y-69969130D01*
X164330357Y-70111988D01*
X164425595Y-70207226D01*
X164520833Y-70254845D01*
X187975595Y-70969130D02*
X187975595Y-69969130D01*
X187642261Y-70683416D01*
X187308928Y-69969130D01*
X187308928Y-70969130D01*
X186927976Y-69969130D02*
X186261309Y-70969130D01*
X186261309Y-69969130D02*
X186927976Y-70969130D01*
X185880357Y-70969130D02*
X185880357Y-69969130D01*
X185642261Y-69969130D01*
X185499404Y-70016750D01*
X185404166Y-70111988D01*
X185356547Y-70207226D01*
X185308928Y-70397702D01*
X185308928Y-70540559D01*
X185356547Y-70731035D01*
X185404166Y-70826273D01*
X185499404Y-70921511D01*
X185642261Y-70969130D01*
X185880357Y-70969130D01*
X184880357Y-70302464D02*
X184880357Y-70969130D01*
X184880357Y-70397702D02*
X184832738Y-70350083D01*
X184737500Y-70302464D01*
X184594642Y-70302464D01*
X184499404Y-70350083D01*
X184451785Y-70445321D01*
X184451785Y-70969130D01*
X183451785Y-70969130D02*
X184023214Y-70969130D01*
X183737500Y-70969130D02*
X183737500Y-69969130D01*
X183832738Y-70111988D01*
X183927976Y-70207226D01*
X184023214Y-70254845D01*
X184057440Y-55392559D02*
X184533630Y-55392559D01*
X183533630Y-55059226D02*
X184057440Y-55392559D01*
X183533630Y-55725892D01*
X184533630Y-56583035D02*
X184533630Y-56011607D01*
X184533630Y-56297321D02*
X183533630Y-56297321D01*
X183676488Y-56202083D01*
X183771726Y-56106845D01*
X183819345Y-56011607D01*
X207721130Y-52419345D02*
X208530654Y-52419345D01*
X208625892Y-52466964D01*
X208673511Y-52514583D01*
X208721130Y-52609821D01*
X208721130Y-52800297D01*
X208673511Y-52895535D01*
X208625892Y-52943154D01*
X208530654Y-52990773D01*
X207721130Y-52990773D01*
X208721130Y-53990773D02*
X208721130Y-53419345D01*
X208721130Y-53705059D02*
X207721130Y-53705059D01*
X207863988Y-53609821D01*
X207959226Y-53514583D01*
X208006845Y-53419345D01*
X197333333Y-69340761D02*
X197190476Y-69388380D01*
X196952380Y-69388380D01*
X196857142Y-69340761D01*
X196809523Y-69293142D01*
X196761904Y-69197904D01*
X196761904Y-69102666D01*
X196809523Y-69007428D01*
X196857142Y-68959809D01*
X196952380Y-68912190D01*
X197142857Y-68864571D01*
X197238095Y-68816952D01*
X197285714Y-68769333D01*
X197333333Y-68674095D01*
X197333333Y-68578857D01*
X197285714Y-68483619D01*
X197238095Y-68436000D01*
X197142857Y-68388380D01*
X196904761Y-68388380D01*
X196761904Y-68436000D01*
X196428571Y-68388380D02*
X196190476Y-69388380D01*
X196000000Y-68674095D01*
X195809523Y-69388380D01*
X195571428Y-68388380D01*
X194666666Y-69388380D02*
X195238095Y-69388380D01*
X194952380Y-69388380D02*
X194952380Y-68388380D01*
X195047619Y-68531238D01*
X195142857Y-68626476D01*
X195238095Y-68674095D01*
X203104166Y-42802380D02*
X203437500Y-42326190D01*
X203675595Y-42802380D02*
X203675595Y-41802380D01*
X203294642Y-41802380D01*
X203199404Y-41850000D01*
X203151785Y-41897619D01*
X203104166Y-41992857D01*
X203104166Y-42135714D01*
X203151785Y-42230952D01*
X203199404Y-42278571D01*
X203294642Y-42326190D01*
X203675595Y-42326190D01*
X202247023Y-41802380D02*
X202437500Y-41802380D01*
X202532738Y-41850000D01*
X202580357Y-41897619D01*
X202675595Y-42040476D01*
X202723214Y-42230952D01*
X202723214Y-42611904D01*
X202675595Y-42707142D01*
X202627976Y-42754761D01*
X202532738Y-42802380D01*
X202342261Y-42802380D01*
X202247023Y-42754761D01*
X202199404Y-42707142D01*
X202151785Y-42611904D01*
X202151785Y-42373809D01*
X202199404Y-42278571D01*
X202247023Y-42230952D01*
X202342261Y-42183333D01*
X202532738Y-42183333D01*
X202627976Y-42230952D01*
X202675595Y-42278571D01*
X202723214Y-42373809D01*
X198102380Y-67895833D02*
X197626190Y-67562500D01*
X198102380Y-67324404D02*
X197102380Y-67324404D01*
X197102380Y-67705357D01*
X197150000Y-67800595D01*
X197197619Y-67848214D01*
X197292857Y-67895833D01*
X197435714Y-67895833D01*
X197530952Y-67848214D01*
X197578571Y-67800595D01*
X197626190Y-67705357D01*
X197626190Y-67324404D01*
X197102380Y-68229166D02*
X197102380Y-68848214D01*
X197483333Y-68514880D01*
X197483333Y-68657738D01*
X197530952Y-68752976D01*
X197578571Y-68800595D01*
X197673809Y-68848214D01*
X197911904Y-68848214D01*
X198007142Y-68800595D01*
X198054761Y-68752976D01*
X198102380Y-68657738D01*
X198102380Y-68372023D01*
X198054761Y-68276785D01*
X198007142Y-68229166D01*
X197229166Y-42707142D02*
X197276785Y-42754761D01*
X197419642Y-42802380D01*
X197514880Y-42802380D01*
X197657738Y-42754761D01*
X197752976Y-42659523D01*
X197800595Y-42564285D01*
X197848214Y-42373809D01*
X197848214Y-42230952D01*
X197800595Y-42040476D01*
X197752976Y-41945238D01*
X197657738Y-41850000D01*
X197514880Y-41802380D01*
X197419642Y-41802380D01*
X197276785Y-41850000D01*
X197229166Y-41897619D01*
X196895833Y-41802380D02*
X196229166Y-41802380D01*
X196657738Y-42802380D01*
X193777142Y-56142833D02*
X193824761Y-56095214D01*
X193872380Y-55952357D01*
X193872380Y-55857119D01*
X193824761Y-55714261D01*
X193729523Y-55619023D01*
X193634285Y-55571404D01*
X193443809Y-55523785D01*
X193300952Y-55523785D01*
X193110476Y-55571404D01*
X193015238Y-55619023D01*
X192920000Y-55714261D01*
X192872380Y-55857119D01*
X192872380Y-55952357D01*
X192920000Y-56095214D01*
X192967619Y-56142833D01*
X192872380Y-56999976D02*
X192872380Y-56809500D01*
X192920000Y-56714261D01*
X192967619Y-56666642D01*
X193110476Y-56571404D01*
X193300952Y-56523785D01*
X193681904Y-56523785D01*
X193777142Y-56571404D01*
X193824761Y-56619023D01*
X193872380Y-56714261D01*
X193872380Y-56904738D01*
X193824761Y-56999976D01*
X193777142Y-57047595D01*
X193681904Y-57095214D01*
X193443809Y-57095214D01*
X193348571Y-57047595D01*
X193300952Y-56999976D01*
X193253333Y-56904738D01*
X193253333Y-56714261D01*
X193300952Y-56619023D01*
X193348571Y-56571404D01*
X193443809Y-56523785D01*
X210384166Y-61517142D02*
X210431785Y-61564761D01*
X210574642Y-61612380D01*
X210669880Y-61612380D01*
X210812738Y-61564761D01*
X210907976Y-61469523D01*
X210955595Y-61374285D01*
X211003214Y-61183809D01*
X211003214Y-61040952D01*
X210955595Y-60850476D01*
X210907976Y-60755238D01*
X210812738Y-60660000D01*
X210669880Y-60612380D01*
X210574642Y-60612380D01*
X210431785Y-60660000D01*
X210384166Y-60707619D01*
X209479404Y-60612380D02*
X209955595Y-60612380D01*
X210003214Y-61088571D01*
X209955595Y-61040952D01*
X209860357Y-60993333D01*
X209622261Y-60993333D01*
X209527023Y-61040952D01*
X209479404Y-61088571D01*
X209431785Y-61183809D01*
X209431785Y-61421904D01*
X209479404Y-61517142D01*
X209527023Y-61564761D01*
X209622261Y-61612380D01*
X209860357Y-61612380D01*
X209955595Y-61564761D01*
X210003214Y-61517142D01*
X208707142Y-49895833D02*
X208754761Y-49848214D01*
X208802380Y-49705357D01*
X208802380Y-49610119D01*
X208754761Y-49467261D01*
X208659523Y-49372023D01*
X208564285Y-49324404D01*
X208373809Y-49276785D01*
X208230952Y-49276785D01*
X208040476Y-49324404D01*
X207945238Y-49372023D01*
X207850000Y-49467261D01*
X207802380Y-49610119D01*
X207802380Y-49705357D01*
X207850000Y-49848214D01*
X207897619Y-49895833D01*
X208135714Y-50752976D02*
X208802380Y-50752976D01*
X207754761Y-50514880D02*
X208469047Y-50276785D01*
X208469047Y-50895833D01*
X212007142Y-56015833D02*
X212054761Y-55968214D01*
X212102380Y-55825357D01*
X212102380Y-55730119D01*
X212054761Y-55587261D01*
X211959523Y-55492023D01*
X211864285Y-55444404D01*
X211673809Y-55396785D01*
X211530952Y-55396785D01*
X211340476Y-55444404D01*
X211245238Y-55492023D01*
X211150000Y-55587261D01*
X211102380Y-55730119D01*
X211102380Y-55825357D01*
X211150000Y-55968214D01*
X211197619Y-56015833D01*
X211102380Y-56349166D02*
X211102380Y-56968214D01*
X211483333Y-56634880D01*
X211483333Y-56777738D01*
X211530952Y-56872976D01*
X211578571Y-56920595D01*
X211673809Y-56968214D01*
X211911904Y-56968214D01*
X212007142Y-56920595D01*
X212054761Y-56872976D01*
X212102380Y-56777738D01*
X212102380Y-56492023D01*
X212054761Y-56396785D01*
X212007142Y-56349166D01*
X186714166Y-58077142D02*
X186761785Y-58124761D01*
X186904642Y-58172380D01*
X186999880Y-58172380D01*
X187142738Y-58124761D01*
X187237976Y-58029523D01*
X187285595Y-57934285D01*
X187333214Y-57743809D01*
X187333214Y-57600952D01*
X187285595Y-57410476D01*
X187237976Y-57315238D01*
X187142738Y-57220000D01*
X186999880Y-57172380D01*
X186904642Y-57172380D01*
X186761785Y-57220000D01*
X186714166Y-57267619D01*
X185761785Y-58172380D02*
X186333214Y-58172380D01*
X186047500Y-58172380D02*
X186047500Y-57172380D01*
X186142738Y-57315238D01*
X186237976Y-57410476D01*
X186333214Y-57458095D01*
%LPC*%
D12*
X235084000Y-74560000D03*
X232584000Y-74560000D03*
X230084000Y-74560000D03*
D13*
G36*
X228245975Y-73535276D02*
G01*
X228271699Y-73539092D01*
X228296925Y-73545411D01*
X228321411Y-73554172D01*
X228344920Y-73565291D01*
X228367226Y-73578661D01*
X228388114Y-73594152D01*
X228407383Y-73611617D01*
X228424848Y-73630886D01*
X228440339Y-73651774D01*
X228453709Y-73674080D01*
X228464828Y-73697589D01*
X228473589Y-73722075D01*
X228479908Y-73747301D01*
X228483724Y-73773025D01*
X228485000Y-73799000D01*
X228485000Y-75321000D01*
X228483724Y-75346975D01*
X228479908Y-75372699D01*
X228473589Y-75397925D01*
X228464828Y-75422411D01*
X228453709Y-75445920D01*
X228440339Y-75468226D01*
X228424848Y-75489114D01*
X228407383Y-75508383D01*
X228388114Y-75525848D01*
X228367226Y-75541339D01*
X228344920Y-75554709D01*
X228321411Y-75565828D01*
X228296925Y-75574589D01*
X228271699Y-75580908D01*
X228245975Y-75584724D01*
X228220000Y-75586000D01*
X226948000Y-75586000D01*
X226922025Y-75584724D01*
X226896301Y-75580908D01*
X226871075Y-75574589D01*
X226846589Y-75565828D01*
X226823080Y-75554709D01*
X226800774Y-75541339D01*
X226779886Y-75525848D01*
X226760617Y-75508383D01*
X226743152Y-75489114D01*
X226727661Y-75468226D01*
X226714291Y-75445920D01*
X226703172Y-75422411D01*
X226694411Y-75397925D01*
X226688092Y-75372699D01*
X226684276Y-75346975D01*
X226683000Y-75321000D01*
X226683000Y-73799000D01*
X226684276Y-73773025D01*
X226688092Y-73747301D01*
X226694411Y-73722075D01*
X226703172Y-73697589D01*
X226714291Y-73674080D01*
X226727661Y-73651774D01*
X226743152Y-73630886D01*
X226760617Y-73611617D01*
X226779886Y-73594152D01*
X226800774Y-73578661D01*
X226823080Y-73565291D01*
X226846589Y-73554172D01*
X226871075Y-73545411D01*
X226896301Y-73539092D01*
X226922025Y-73535276D01*
X226948000Y-73534000D01*
X228220000Y-73534000D01*
X228245975Y-73535276D01*
G37*
D14*
X191579500Y-43338750D03*
X178652500Y-45878750D03*
D15*
X190817500Y-48418750D03*
X180657500Y-48418750D03*
D16*
X181927500Y-45878750D03*
D17*
X185737500Y-48418750D03*
D16*
X188277500Y-43338750D03*
D14*
X210629500Y-62388750D03*
X197702500Y-64928750D03*
D15*
X209867500Y-67468750D03*
X199707500Y-67468750D03*
D16*
X200977500Y-64928750D03*
D17*
X204787500Y-67468750D03*
D16*
X207327500Y-62388750D03*
D14*
X172529500Y-62388750D03*
X159602500Y-64928750D03*
D15*
X171767500Y-67468750D03*
X161607500Y-67468750D03*
D16*
X162877500Y-64928750D03*
D17*
X166687500Y-67468750D03*
D16*
X169227500Y-62388750D03*
D14*
X191579500Y-62388750D03*
X178652500Y-64928750D03*
D15*
X190817500Y-67468750D03*
X180657500Y-67468750D03*
D16*
X181927500Y-64928750D03*
D17*
X185737500Y-67468750D03*
D16*
X188277500Y-62388750D03*
D18*
X185681250Y-54768750D03*
X185681250Y-56968750D03*
X187381250Y-56968750D03*
X187381250Y-54768750D03*
D19*
X182847500Y-31650000D03*
X188627500Y-31650000D03*
D20*
X190057500Y-32180000D03*
X181417500Y-32180000D03*
D21*
X190057500Y-28000000D03*
X181417500Y-28000000D03*
D22*
X206518750Y-57181250D03*
X206518750Y-56381250D03*
X206518750Y-55581250D03*
X206518750Y-54781250D03*
X206518750Y-53981250D03*
X206518750Y-53181250D03*
X206518750Y-52381250D03*
X206518750Y-51581250D03*
X206518750Y-50781250D03*
X206518750Y-49981250D03*
X206518750Y-49181250D03*
D23*
X204818750Y-47481250D03*
X204018750Y-47481250D03*
X203218750Y-47481250D03*
X202418750Y-47481250D03*
X201618750Y-47481250D03*
X200818750Y-47481250D03*
X200018750Y-47481250D03*
X199218750Y-47481250D03*
X198418750Y-47481250D03*
X197618750Y-47481250D03*
X196818750Y-47481250D03*
D22*
X195118750Y-49181250D03*
X195118750Y-49981250D03*
X195118750Y-50781250D03*
X195118750Y-51581250D03*
X195118750Y-52381250D03*
X195118750Y-53181250D03*
X195118750Y-53981250D03*
X195118750Y-54781250D03*
X195118750Y-55581250D03*
X195118750Y-56381250D03*
X195118750Y-57181250D03*
D23*
X196818750Y-58881250D03*
X197618750Y-58881250D03*
X198418750Y-58881250D03*
X199218750Y-58881250D03*
X200018750Y-58881250D03*
X200818750Y-58881250D03*
X201618750Y-58881250D03*
X202418750Y-58881250D03*
X203218750Y-58881250D03*
X204018750Y-58881250D03*
X204818750Y-58881250D03*
D24*
X192900000Y-71150000D03*
X199100000Y-74850000D03*
X192900000Y-74850000D03*
X199100000Y-71150000D03*
D13*
G36*
X202295641Y-43250297D02*
G01*
X202321778Y-43254174D01*
X202347409Y-43260594D01*
X202372288Y-43269495D01*
X202396174Y-43280793D01*
X202418837Y-43294377D01*
X202440060Y-43310117D01*
X202459639Y-43327861D01*
X202477383Y-43347440D01*
X202493123Y-43368663D01*
X202506707Y-43391326D01*
X202518005Y-43415212D01*
X202526906Y-43440091D01*
X202533326Y-43465722D01*
X202537203Y-43491859D01*
X202538500Y-43518250D01*
X202538500Y-44481750D01*
X202537203Y-44508141D01*
X202533326Y-44534278D01*
X202526906Y-44559909D01*
X202518005Y-44584788D01*
X202506707Y-44608674D01*
X202493123Y-44631337D01*
X202477383Y-44652560D01*
X202459639Y-44672139D01*
X202440060Y-44689883D01*
X202418837Y-44705623D01*
X202396174Y-44719207D01*
X202372288Y-44730505D01*
X202347409Y-44739406D01*
X202321778Y-44745826D01*
X202295641Y-44749703D01*
X202269250Y-44751000D01*
X201730750Y-44751000D01*
X201704359Y-44749703D01*
X201678222Y-44745826D01*
X201652591Y-44739406D01*
X201627712Y-44730505D01*
X201603826Y-44719207D01*
X201581163Y-44705623D01*
X201559940Y-44689883D01*
X201540361Y-44672139D01*
X201522617Y-44652560D01*
X201506877Y-44631337D01*
X201493293Y-44608674D01*
X201481995Y-44584788D01*
X201473094Y-44559909D01*
X201466674Y-44534278D01*
X201462797Y-44508141D01*
X201461500Y-44481750D01*
X201461500Y-43518250D01*
X201462797Y-43491859D01*
X201466674Y-43465722D01*
X201473094Y-43440091D01*
X201481995Y-43415212D01*
X201493293Y-43391326D01*
X201506877Y-43368663D01*
X201522617Y-43347440D01*
X201540361Y-43327861D01*
X201559940Y-43310117D01*
X201581163Y-43294377D01*
X201603826Y-43280793D01*
X201627712Y-43269495D01*
X201652591Y-43260594D01*
X201678222Y-43254174D01*
X201704359Y-43250297D01*
X201730750Y-43249000D01*
X202269250Y-43249000D01*
X202295641Y-43250297D01*
G37*
G36*
X204170641Y-43250297D02*
G01*
X204196778Y-43254174D01*
X204222409Y-43260594D01*
X204247288Y-43269495D01*
X204271174Y-43280793D01*
X204293837Y-43294377D01*
X204315060Y-43310117D01*
X204334639Y-43327861D01*
X204352383Y-43347440D01*
X204368123Y-43368663D01*
X204381707Y-43391326D01*
X204393005Y-43415212D01*
X204401906Y-43440091D01*
X204408326Y-43465722D01*
X204412203Y-43491859D01*
X204413500Y-43518250D01*
X204413500Y-44481750D01*
X204412203Y-44508141D01*
X204408326Y-44534278D01*
X204401906Y-44559909D01*
X204393005Y-44584788D01*
X204381707Y-44608674D01*
X204368123Y-44631337D01*
X204352383Y-44652560D01*
X204334639Y-44672139D01*
X204315060Y-44689883D01*
X204293837Y-44705623D01*
X204271174Y-44719207D01*
X204247288Y-44730505D01*
X204222409Y-44739406D01*
X204196778Y-44745826D01*
X204170641Y-44749703D01*
X204144250Y-44751000D01*
X203605750Y-44751000D01*
X203579359Y-44749703D01*
X203553222Y-44745826D01*
X203527591Y-44739406D01*
X203502712Y-44730505D01*
X203478826Y-44719207D01*
X203456163Y-44705623D01*
X203434940Y-44689883D01*
X203415361Y-44672139D01*
X203397617Y-44652560D01*
X203381877Y-44631337D01*
X203368293Y-44608674D01*
X203356995Y-44584788D01*
X203348094Y-44559909D01*
X203341674Y-44534278D01*
X203337797Y-44508141D01*
X203336500Y-44481750D01*
X203336500Y-43518250D01*
X203337797Y-43491859D01*
X203341674Y-43465722D01*
X203348094Y-43440091D01*
X203356995Y-43415212D01*
X203368293Y-43391326D01*
X203381877Y-43368663D01*
X203397617Y-43347440D01*
X203415361Y-43327861D01*
X203434940Y-43310117D01*
X203456163Y-43294377D01*
X203478826Y-43280793D01*
X203502712Y-43269495D01*
X203527591Y-43260594D01*
X203553222Y-43254174D01*
X203579359Y-43250297D01*
X203605750Y-43249000D01*
X204144250Y-43249000D01*
X204170641Y-43250297D01*
G37*
G36*
X196508141Y-66587797D02*
G01*
X196534278Y-66591674D01*
X196559909Y-66598094D01*
X196584788Y-66606995D01*
X196608674Y-66618293D01*
X196631337Y-66631877D01*
X196652560Y-66647617D01*
X196672139Y-66665361D01*
X196689883Y-66684940D01*
X196705623Y-66706163D01*
X196719207Y-66728826D01*
X196730505Y-66752712D01*
X196739406Y-66777591D01*
X196745826Y-66803222D01*
X196749703Y-66829359D01*
X196751000Y-66855750D01*
X196751000Y-67394250D01*
X196749703Y-67420641D01*
X196745826Y-67446778D01*
X196739406Y-67472409D01*
X196730505Y-67497288D01*
X196719207Y-67521174D01*
X196705623Y-67543837D01*
X196689883Y-67565060D01*
X196672139Y-67584639D01*
X196652560Y-67602383D01*
X196631337Y-67618123D01*
X196608674Y-67631707D01*
X196584788Y-67643005D01*
X196559909Y-67651906D01*
X196534278Y-67658326D01*
X196508141Y-67662203D01*
X196481750Y-67663500D01*
X195518250Y-67663500D01*
X195491859Y-67662203D01*
X195465722Y-67658326D01*
X195440091Y-67651906D01*
X195415212Y-67643005D01*
X195391326Y-67631707D01*
X195368663Y-67618123D01*
X195347440Y-67602383D01*
X195327861Y-67584639D01*
X195310117Y-67565060D01*
X195294377Y-67543837D01*
X195280793Y-67521174D01*
X195269495Y-67497288D01*
X195260594Y-67472409D01*
X195254174Y-67446778D01*
X195250297Y-67420641D01*
X195249000Y-67394250D01*
X195249000Y-66855750D01*
X195250297Y-66829359D01*
X195254174Y-66803222D01*
X195260594Y-66777591D01*
X195269495Y-66752712D01*
X195280793Y-66728826D01*
X195294377Y-66706163D01*
X195310117Y-66684940D01*
X195327861Y-66665361D01*
X195347440Y-66647617D01*
X195368663Y-66631877D01*
X195391326Y-66618293D01*
X195415212Y-66606995D01*
X195440091Y-66598094D01*
X195465722Y-66591674D01*
X195491859Y-66587797D01*
X195518250Y-66586500D01*
X196481750Y-66586500D01*
X196508141Y-66587797D01*
G37*
G36*
X196508141Y-68462797D02*
G01*
X196534278Y-68466674D01*
X196559909Y-68473094D01*
X196584788Y-68481995D01*
X196608674Y-68493293D01*
X196631337Y-68506877D01*
X196652560Y-68522617D01*
X196672139Y-68540361D01*
X196689883Y-68559940D01*
X196705623Y-68581163D01*
X196719207Y-68603826D01*
X196730505Y-68627712D01*
X196739406Y-68652591D01*
X196745826Y-68678222D01*
X196749703Y-68704359D01*
X196751000Y-68730750D01*
X196751000Y-69269250D01*
X196749703Y-69295641D01*
X196745826Y-69321778D01*
X196739406Y-69347409D01*
X196730505Y-69372288D01*
X196719207Y-69396174D01*
X196705623Y-69418837D01*
X196689883Y-69440060D01*
X196672139Y-69459639D01*
X196652560Y-69477383D01*
X196631337Y-69493123D01*
X196608674Y-69506707D01*
X196584788Y-69518005D01*
X196559909Y-69526906D01*
X196534278Y-69533326D01*
X196508141Y-69537203D01*
X196481750Y-69538500D01*
X195518250Y-69538500D01*
X195491859Y-69537203D01*
X195465722Y-69533326D01*
X195440091Y-69526906D01*
X195415212Y-69518005D01*
X195391326Y-69506707D01*
X195368663Y-69493123D01*
X195347440Y-69477383D01*
X195327861Y-69459639D01*
X195310117Y-69440060D01*
X195294377Y-69418837D01*
X195280793Y-69396174D01*
X195269495Y-69372288D01*
X195260594Y-69347409D01*
X195254174Y-69321778D01*
X195250297Y-69295641D01*
X195249000Y-69269250D01*
X195249000Y-68730750D01*
X195250297Y-68704359D01*
X195254174Y-68678222D01*
X195260594Y-68652591D01*
X195269495Y-68627712D01*
X195280793Y-68603826D01*
X195294377Y-68581163D01*
X195310117Y-68559940D01*
X195327861Y-68540361D01*
X195347440Y-68522617D01*
X195368663Y-68506877D01*
X195391326Y-68493293D01*
X195415212Y-68481995D01*
X195440091Y-68473094D01*
X195465722Y-68466674D01*
X195491859Y-68462797D01*
X195518250Y-68461500D01*
X196481750Y-68461500D01*
X196508141Y-68462797D01*
G37*
D12*
X144152000Y-74612500D03*
X141652000Y-74612500D03*
X139152000Y-74612500D03*
D13*
G36*
X137313975Y-73587776D02*
G01*
X137339699Y-73591592D01*
X137364925Y-73597911D01*
X137389411Y-73606672D01*
X137412920Y-73617791D01*
X137435226Y-73631161D01*
X137456114Y-73646652D01*
X137475383Y-73664117D01*
X137492848Y-73683386D01*
X137508339Y-73704274D01*
X137521709Y-73726580D01*
X137532828Y-73750089D01*
X137541589Y-73774575D01*
X137547908Y-73799801D01*
X137551724Y-73825525D01*
X137553000Y-73851500D01*
X137553000Y-75373500D01*
X137551724Y-75399475D01*
X137547908Y-75425199D01*
X137541589Y-75450425D01*
X137532828Y-75474911D01*
X137521709Y-75498420D01*
X137508339Y-75520726D01*
X137492848Y-75541614D01*
X137475383Y-75560883D01*
X137456114Y-75578348D01*
X137435226Y-75593839D01*
X137412920Y-75607209D01*
X137389411Y-75618328D01*
X137364925Y-75627089D01*
X137339699Y-75633408D01*
X137313975Y-75637224D01*
X137288000Y-75638500D01*
X136016000Y-75638500D01*
X135990025Y-75637224D01*
X135964301Y-75633408D01*
X135939075Y-75627089D01*
X135914589Y-75618328D01*
X135891080Y-75607209D01*
X135868774Y-75593839D01*
X135847886Y-75578348D01*
X135828617Y-75560883D01*
X135811152Y-75541614D01*
X135795661Y-75520726D01*
X135782291Y-75498420D01*
X135771172Y-75474911D01*
X135762411Y-75450425D01*
X135756092Y-75425199D01*
X135752276Y-75399475D01*
X135751000Y-75373500D01*
X135751000Y-73851500D01*
X135752276Y-73825525D01*
X135756092Y-73799801D01*
X135762411Y-73774575D01*
X135771172Y-73750089D01*
X135782291Y-73726580D01*
X135795661Y-73704274D01*
X135811152Y-73683386D01*
X135828617Y-73664117D01*
X135847886Y-73646652D01*
X135868774Y-73631161D01*
X135891080Y-73617791D01*
X135914589Y-73606672D01*
X135939075Y-73597911D01*
X135964301Y-73591592D01*
X135990025Y-73587776D01*
X136016000Y-73586500D01*
X137288000Y-73586500D01*
X137313975Y-73587776D01*
G37*
G36*
X196420641Y-43250297D02*
G01*
X196446778Y-43254174D01*
X196472409Y-43260594D01*
X196497288Y-43269495D01*
X196521174Y-43280793D01*
X196543837Y-43294377D01*
X196565060Y-43310117D01*
X196584639Y-43327861D01*
X196602383Y-43347440D01*
X196618123Y-43368663D01*
X196631707Y-43391326D01*
X196643005Y-43415212D01*
X196651906Y-43440091D01*
X196658326Y-43465722D01*
X196662203Y-43491859D01*
X196663500Y-43518250D01*
X196663500Y-44481750D01*
X196662203Y-44508141D01*
X196658326Y-44534278D01*
X196651906Y-44559909D01*
X196643005Y-44584788D01*
X196631707Y-44608674D01*
X196618123Y-44631337D01*
X196602383Y-44652560D01*
X196584639Y-44672139D01*
X196565060Y-44689883D01*
X196543837Y-44705623D01*
X196521174Y-44719207D01*
X196497288Y-44730505D01*
X196472409Y-44739406D01*
X196446778Y-44745826D01*
X196420641Y-44749703D01*
X196394250Y-44751000D01*
X195855750Y-44751000D01*
X195829359Y-44749703D01*
X195803222Y-44745826D01*
X195777591Y-44739406D01*
X195752712Y-44730505D01*
X195728826Y-44719207D01*
X195706163Y-44705623D01*
X195684940Y-44689883D01*
X195665361Y-44672139D01*
X195647617Y-44652560D01*
X195631877Y-44631337D01*
X195618293Y-44608674D01*
X195606995Y-44584788D01*
X195598094Y-44559909D01*
X195591674Y-44534278D01*
X195587797Y-44508141D01*
X195586500Y-44481750D01*
X195586500Y-43518250D01*
X195587797Y-43491859D01*
X195591674Y-43465722D01*
X195598094Y-43440091D01*
X195606995Y-43415212D01*
X195618293Y-43391326D01*
X195631877Y-43368663D01*
X195647617Y-43347440D01*
X195665361Y-43327861D01*
X195684940Y-43310117D01*
X195706163Y-43294377D01*
X195728826Y-43280793D01*
X195752712Y-43269495D01*
X195777591Y-43260594D01*
X195803222Y-43254174D01*
X195829359Y-43250297D01*
X195855750Y-43249000D01*
X196394250Y-43249000D01*
X196420641Y-43250297D01*
G37*
G36*
X198295641Y-43250297D02*
G01*
X198321778Y-43254174D01*
X198347409Y-43260594D01*
X198372288Y-43269495D01*
X198396174Y-43280793D01*
X198418837Y-43294377D01*
X198440060Y-43310117D01*
X198459639Y-43327861D01*
X198477383Y-43347440D01*
X198493123Y-43368663D01*
X198506707Y-43391326D01*
X198518005Y-43415212D01*
X198526906Y-43440091D01*
X198533326Y-43465722D01*
X198537203Y-43491859D01*
X198538500Y-43518250D01*
X198538500Y-44481750D01*
X198537203Y-44508141D01*
X198533326Y-44534278D01*
X198526906Y-44559909D01*
X198518005Y-44584788D01*
X198506707Y-44608674D01*
X198493123Y-44631337D01*
X198477383Y-44652560D01*
X198459639Y-44672139D01*
X198440060Y-44689883D01*
X198418837Y-44705623D01*
X198396174Y-44719207D01*
X198372288Y-44730505D01*
X198347409Y-44739406D01*
X198321778Y-44745826D01*
X198295641Y-44749703D01*
X198269250Y-44751000D01*
X197730750Y-44751000D01*
X197704359Y-44749703D01*
X197678222Y-44745826D01*
X197652591Y-44739406D01*
X197627712Y-44730505D01*
X197603826Y-44719207D01*
X197581163Y-44705623D01*
X197559940Y-44689883D01*
X197540361Y-44672139D01*
X197522617Y-44652560D01*
X197506877Y-44631337D01*
X197493293Y-44608674D01*
X197481995Y-44584788D01*
X197473094Y-44559909D01*
X197466674Y-44534278D01*
X197462797Y-44508141D01*
X197461500Y-44481750D01*
X197461500Y-43518250D01*
X197462797Y-43491859D01*
X197466674Y-43465722D01*
X197473094Y-43440091D01*
X197481995Y-43415212D01*
X197493293Y-43391326D01*
X197506877Y-43368663D01*
X197522617Y-43347440D01*
X197540361Y-43327861D01*
X197559940Y-43310117D01*
X197581163Y-43294377D01*
X197603826Y-43280793D01*
X197627712Y-43269495D01*
X197652591Y-43260594D01*
X197678222Y-43254174D01*
X197704359Y-43250297D01*
X197730750Y-43249000D01*
X198269250Y-43249000D01*
X198295641Y-43250297D01*
G37*
G36*
X192278141Y-54834797D02*
G01*
X192304278Y-54838674D01*
X192329909Y-54845094D01*
X192354788Y-54853995D01*
X192378674Y-54865293D01*
X192401337Y-54878877D01*
X192422560Y-54894617D01*
X192442139Y-54912361D01*
X192459883Y-54931940D01*
X192475623Y-54953163D01*
X192489207Y-54975826D01*
X192500505Y-54999712D01*
X192509406Y-55024591D01*
X192515826Y-55050222D01*
X192519703Y-55076359D01*
X192521000Y-55102750D01*
X192521000Y-55641250D01*
X192519703Y-55667641D01*
X192515826Y-55693778D01*
X192509406Y-55719409D01*
X192500505Y-55744288D01*
X192489207Y-55768174D01*
X192475623Y-55790837D01*
X192459883Y-55812060D01*
X192442139Y-55831639D01*
X192422560Y-55849383D01*
X192401337Y-55865123D01*
X192378674Y-55878707D01*
X192354788Y-55890005D01*
X192329909Y-55898906D01*
X192304278Y-55905326D01*
X192278141Y-55909203D01*
X192251750Y-55910500D01*
X191288250Y-55910500D01*
X191261859Y-55909203D01*
X191235722Y-55905326D01*
X191210091Y-55898906D01*
X191185212Y-55890005D01*
X191161326Y-55878707D01*
X191138663Y-55865123D01*
X191117440Y-55849383D01*
X191097861Y-55831639D01*
X191080117Y-55812060D01*
X191064377Y-55790837D01*
X191050793Y-55768174D01*
X191039495Y-55744288D01*
X191030594Y-55719409D01*
X191024174Y-55693778D01*
X191020297Y-55667641D01*
X191019000Y-55641250D01*
X191019000Y-55102750D01*
X191020297Y-55076359D01*
X191024174Y-55050222D01*
X191030594Y-55024591D01*
X191039495Y-54999712D01*
X191050793Y-54975826D01*
X191064377Y-54953163D01*
X191080117Y-54931940D01*
X191097861Y-54912361D01*
X191117440Y-54894617D01*
X191138663Y-54878877D01*
X191161326Y-54865293D01*
X191185212Y-54853995D01*
X191210091Y-54845094D01*
X191235722Y-54838674D01*
X191261859Y-54834797D01*
X191288250Y-54833500D01*
X192251750Y-54833500D01*
X192278141Y-54834797D01*
G37*
G36*
X192278141Y-56709797D02*
G01*
X192304278Y-56713674D01*
X192329909Y-56720094D01*
X192354788Y-56728995D01*
X192378674Y-56740293D01*
X192401337Y-56753877D01*
X192422560Y-56769617D01*
X192442139Y-56787361D01*
X192459883Y-56806940D01*
X192475623Y-56828163D01*
X192489207Y-56850826D01*
X192500505Y-56874712D01*
X192509406Y-56899591D01*
X192515826Y-56925222D01*
X192519703Y-56951359D01*
X192521000Y-56977750D01*
X192521000Y-57516250D01*
X192519703Y-57542641D01*
X192515826Y-57568778D01*
X192509406Y-57594409D01*
X192500505Y-57619288D01*
X192489207Y-57643174D01*
X192475623Y-57665837D01*
X192459883Y-57687060D01*
X192442139Y-57706639D01*
X192422560Y-57724383D01*
X192401337Y-57740123D01*
X192378674Y-57753707D01*
X192354788Y-57765005D01*
X192329909Y-57773906D01*
X192304278Y-57780326D01*
X192278141Y-57784203D01*
X192251750Y-57785500D01*
X191288250Y-57785500D01*
X191261859Y-57784203D01*
X191235722Y-57780326D01*
X191210091Y-57773906D01*
X191185212Y-57765005D01*
X191161326Y-57753707D01*
X191138663Y-57740123D01*
X191117440Y-57724383D01*
X191097861Y-57706639D01*
X191080117Y-57687060D01*
X191064377Y-57665837D01*
X191050793Y-57643174D01*
X191039495Y-57619288D01*
X191030594Y-57594409D01*
X191024174Y-57568778D01*
X191020297Y-57542641D01*
X191019000Y-57516250D01*
X191019000Y-56977750D01*
X191020297Y-56951359D01*
X191024174Y-56925222D01*
X191030594Y-56899591D01*
X191039495Y-56874712D01*
X191050793Y-56850826D01*
X191064377Y-56828163D01*
X191080117Y-56806940D01*
X191097861Y-56787361D01*
X191117440Y-56769617D01*
X191138663Y-56753877D01*
X191161326Y-56740293D01*
X191185212Y-56728995D01*
X191210091Y-56720094D01*
X191235722Y-56713674D01*
X191261859Y-56709797D01*
X191288250Y-56708500D01*
X192251750Y-56708500D01*
X192278141Y-56709797D01*
G37*
G36*
X211450641Y-58760297D02*
G01*
X211476778Y-58764174D01*
X211502409Y-58770594D01*
X211527288Y-58779495D01*
X211551174Y-58790793D01*
X211573837Y-58804377D01*
X211595060Y-58820117D01*
X211614639Y-58837861D01*
X211632383Y-58857440D01*
X211648123Y-58878663D01*
X211661707Y-58901326D01*
X211673005Y-58925212D01*
X211681906Y-58950091D01*
X211688326Y-58975722D01*
X211692203Y-59001859D01*
X211693500Y-59028250D01*
X211693500Y-59991750D01*
X211692203Y-60018141D01*
X211688326Y-60044278D01*
X211681906Y-60069909D01*
X211673005Y-60094788D01*
X211661707Y-60118674D01*
X211648123Y-60141337D01*
X211632383Y-60162560D01*
X211614639Y-60182139D01*
X211595060Y-60199883D01*
X211573837Y-60215623D01*
X211551174Y-60229207D01*
X211527288Y-60240505D01*
X211502409Y-60249406D01*
X211476778Y-60255826D01*
X211450641Y-60259703D01*
X211424250Y-60261000D01*
X210885750Y-60261000D01*
X210859359Y-60259703D01*
X210833222Y-60255826D01*
X210807591Y-60249406D01*
X210782712Y-60240505D01*
X210758826Y-60229207D01*
X210736163Y-60215623D01*
X210714940Y-60199883D01*
X210695361Y-60182139D01*
X210677617Y-60162560D01*
X210661877Y-60141337D01*
X210648293Y-60118674D01*
X210636995Y-60094788D01*
X210628094Y-60069909D01*
X210621674Y-60044278D01*
X210617797Y-60018141D01*
X210616500Y-59991750D01*
X210616500Y-59028250D01*
X210617797Y-59001859D01*
X210621674Y-58975722D01*
X210628094Y-58950091D01*
X210636995Y-58925212D01*
X210648293Y-58901326D01*
X210661877Y-58878663D01*
X210677617Y-58857440D01*
X210695361Y-58837861D01*
X210714940Y-58820117D01*
X210736163Y-58804377D01*
X210758826Y-58790793D01*
X210782712Y-58779495D01*
X210807591Y-58770594D01*
X210833222Y-58764174D01*
X210859359Y-58760297D01*
X210885750Y-58759000D01*
X211424250Y-58759000D01*
X211450641Y-58760297D01*
G37*
G36*
X209575641Y-58760297D02*
G01*
X209601778Y-58764174D01*
X209627409Y-58770594D01*
X209652288Y-58779495D01*
X209676174Y-58790793D01*
X209698837Y-58804377D01*
X209720060Y-58820117D01*
X209739639Y-58837861D01*
X209757383Y-58857440D01*
X209773123Y-58878663D01*
X209786707Y-58901326D01*
X209798005Y-58925212D01*
X209806906Y-58950091D01*
X209813326Y-58975722D01*
X209817203Y-59001859D01*
X209818500Y-59028250D01*
X209818500Y-59991750D01*
X209817203Y-60018141D01*
X209813326Y-60044278D01*
X209806906Y-60069909D01*
X209798005Y-60094788D01*
X209786707Y-60118674D01*
X209773123Y-60141337D01*
X209757383Y-60162560D01*
X209739639Y-60182139D01*
X209720060Y-60199883D01*
X209698837Y-60215623D01*
X209676174Y-60229207D01*
X209652288Y-60240505D01*
X209627409Y-60249406D01*
X209601778Y-60255826D01*
X209575641Y-60259703D01*
X209549250Y-60261000D01*
X209010750Y-60261000D01*
X208984359Y-60259703D01*
X208958222Y-60255826D01*
X208932591Y-60249406D01*
X208907712Y-60240505D01*
X208883826Y-60229207D01*
X208861163Y-60215623D01*
X208839940Y-60199883D01*
X208820361Y-60182139D01*
X208802617Y-60162560D01*
X208786877Y-60141337D01*
X208773293Y-60118674D01*
X208761995Y-60094788D01*
X208753094Y-60069909D01*
X208746674Y-60044278D01*
X208742797Y-60018141D01*
X208741500Y-59991750D01*
X208741500Y-59028250D01*
X208742797Y-59001859D01*
X208746674Y-58975722D01*
X208753094Y-58950091D01*
X208761995Y-58925212D01*
X208773293Y-58901326D01*
X208786877Y-58878663D01*
X208802617Y-58857440D01*
X208820361Y-58837861D01*
X208839940Y-58820117D01*
X208861163Y-58804377D01*
X208883826Y-58790793D01*
X208907712Y-58779495D01*
X208932591Y-58770594D01*
X208958222Y-58764174D01*
X208984359Y-58760297D01*
X209010750Y-58759000D01*
X209549250Y-58759000D01*
X209575641Y-58760297D01*
G37*
G36*
X210508141Y-50462797D02*
G01*
X210534278Y-50466674D01*
X210559909Y-50473094D01*
X210584788Y-50481995D01*
X210608674Y-50493293D01*
X210631337Y-50506877D01*
X210652560Y-50522617D01*
X210672139Y-50540361D01*
X210689883Y-50559940D01*
X210705623Y-50581163D01*
X210719207Y-50603826D01*
X210730505Y-50627712D01*
X210739406Y-50652591D01*
X210745826Y-50678222D01*
X210749703Y-50704359D01*
X210751000Y-50730750D01*
X210751000Y-51269250D01*
X210749703Y-51295641D01*
X210745826Y-51321778D01*
X210739406Y-51347409D01*
X210730505Y-51372288D01*
X210719207Y-51396174D01*
X210705623Y-51418837D01*
X210689883Y-51440060D01*
X210672139Y-51459639D01*
X210652560Y-51477383D01*
X210631337Y-51493123D01*
X210608674Y-51506707D01*
X210584788Y-51518005D01*
X210559909Y-51526906D01*
X210534278Y-51533326D01*
X210508141Y-51537203D01*
X210481750Y-51538500D01*
X209518250Y-51538500D01*
X209491859Y-51537203D01*
X209465722Y-51533326D01*
X209440091Y-51526906D01*
X209415212Y-51518005D01*
X209391326Y-51506707D01*
X209368663Y-51493123D01*
X209347440Y-51477383D01*
X209327861Y-51459639D01*
X209310117Y-51440060D01*
X209294377Y-51418837D01*
X209280793Y-51396174D01*
X209269495Y-51372288D01*
X209260594Y-51347409D01*
X209254174Y-51321778D01*
X209250297Y-51295641D01*
X209249000Y-51269250D01*
X209249000Y-50730750D01*
X209250297Y-50704359D01*
X209254174Y-50678222D01*
X209260594Y-50652591D01*
X209269495Y-50627712D01*
X209280793Y-50603826D01*
X209294377Y-50581163D01*
X209310117Y-50559940D01*
X209327861Y-50540361D01*
X209347440Y-50522617D01*
X209368663Y-50506877D01*
X209391326Y-50493293D01*
X209415212Y-50481995D01*
X209440091Y-50473094D01*
X209465722Y-50466674D01*
X209491859Y-50462797D01*
X209518250Y-50461500D01*
X210481750Y-50461500D01*
X210508141Y-50462797D01*
G37*
G36*
X210508141Y-48587797D02*
G01*
X210534278Y-48591674D01*
X210559909Y-48598094D01*
X210584788Y-48606995D01*
X210608674Y-48618293D01*
X210631337Y-48631877D01*
X210652560Y-48647617D01*
X210672139Y-48665361D01*
X210689883Y-48684940D01*
X210705623Y-48706163D01*
X210719207Y-48728826D01*
X210730505Y-48752712D01*
X210739406Y-48777591D01*
X210745826Y-48803222D01*
X210749703Y-48829359D01*
X210751000Y-48855750D01*
X210751000Y-49394250D01*
X210749703Y-49420641D01*
X210745826Y-49446778D01*
X210739406Y-49472409D01*
X210730505Y-49497288D01*
X210719207Y-49521174D01*
X210705623Y-49543837D01*
X210689883Y-49565060D01*
X210672139Y-49584639D01*
X210652560Y-49602383D01*
X210631337Y-49618123D01*
X210608674Y-49631707D01*
X210584788Y-49643005D01*
X210559909Y-49651906D01*
X210534278Y-49658326D01*
X210508141Y-49662203D01*
X210481750Y-49663500D01*
X209518250Y-49663500D01*
X209491859Y-49662203D01*
X209465722Y-49658326D01*
X209440091Y-49651906D01*
X209415212Y-49643005D01*
X209391326Y-49631707D01*
X209368663Y-49618123D01*
X209347440Y-49602383D01*
X209327861Y-49584639D01*
X209310117Y-49565060D01*
X209294377Y-49543837D01*
X209280793Y-49521174D01*
X209269495Y-49497288D01*
X209260594Y-49472409D01*
X209254174Y-49446778D01*
X209250297Y-49420641D01*
X209249000Y-49394250D01*
X209249000Y-48855750D01*
X209250297Y-48829359D01*
X209254174Y-48803222D01*
X209260594Y-48777591D01*
X209269495Y-48752712D01*
X209280793Y-48728826D01*
X209294377Y-48706163D01*
X209310117Y-48684940D01*
X209327861Y-48665361D01*
X209347440Y-48647617D01*
X209368663Y-48631877D01*
X209391326Y-48618293D01*
X209415212Y-48606995D01*
X209440091Y-48598094D01*
X209465722Y-48591674D01*
X209491859Y-48587797D01*
X209518250Y-48586500D01*
X210481750Y-48586500D01*
X210508141Y-48587797D01*
G37*
G36*
X210508141Y-54707797D02*
G01*
X210534278Y-54711674D01*
X210559909Y-54718094D01*
X210584788Y-54726995D01*
X210608674Y-54738293D01*
X210631337Y-54751877D01*
X210652560Y-54767617D01*
X210672139Y-54785361D01*
X210689883Y-54804940D01*
X210705623Y-54826163D01*
X210719207Y-54848826D01*
X210730505Y-54872712D01*
X210739406Y-54897591D01*
X210745826Y-54923222D01*
X210749703Y-54949359D01*
X210751000Y-54975750D01*
X210751000Y-55514250D01*
X210749703Y-55540641D01*
X210745826Y-55566778D01*
X210739406Y-55592409D01*
X210730505Y-55617288D01*
X210719207Y-55641174D01*
X210705623Y-55663837D01*
X210689883Y-55685060D01*
X210672139Y-55704639D01*
X210652560Y-55722383D01*
X210631337Y-55738123D01*
X210608674Y-55751707D01*
X210584788Y-55763005D01*
X210559909Y-55771906D01*
X210534278Y-55778326D01*
X210508141Y-55782203D01*
X210481750Y-55783500D01*
X209518250Y-55783500D01*
X209491859Y-55782203D01*
X209465722Y-55778326D01*
X209440091Y-55771906D01*
X209415212Y-55763005D01*
X209391326Y-55751707D01*
X209368663Y-55738123D01*
X209347440Y-55722383D01*
X209327861Y-55704639D01*
X209310117Y-55685060D01*
X209294377Y-55663837D01*
X209280793Y-55641174D01*
X209269495Y-55617288D01*
X209260594Y-55592409D01*
X209254174Y-55566778D01*
X209250297Y-55540641D01*
X209249000Y-55514250D01*
X209249000Y-54975750D01*
X209250297Y-54949359D01*
X209254174Y-54923222D01*
X209260594Y-54897591D01*
X209269495Y-54872712D01*
X209280793Y-54848826D01*
X209294377Y-54826163D01*
X209310117Y-54804940D01*
X209327861Y-54785361D01*
X209347440Y-54767617D01*
X209368663Y-54751877D01*
X209391326Y-54738293D01*
X209415212Y-54726995D01*
X209440091Y-54718094D01*
X209465722Y-54711674D01*
X209491859Y-54707797D01*
X209518250Y-54706500D01*
X210481750Y-54706500D01*
X210508141Y-54707797D01*
G37*
G36*
X210508141Y-56582797D02*
G01*
X210534278Y-56586674D01*
X210559909Y-56593094D01*
X210584788Y-56601995D01*
X210608674Y-56613293D01*
X210631337Y-56626877D01*
X210652560Y-56642617D01*
X210672139Y-56660361D01*
X210689883Y-56679940D01*
X210705623Y-56701163D01*
X210719207Y-56723826D01*
X210730505Y-56747712D01*
X210739406Y-56772591D01*
X210745826Y-56798222D01*
X210749703Y-56824359D01*
X210751000Y-56850750D01*
X210751000Y-57389250D01*
X210749703Y-57415641D01*
X210745826Y-57441778D01*
X210739406Y-57467409D01*
X210730505Y-57492288D01*
X210719207Y-57516174D01*
X210705623Y-57538837D01*
X210689883Y-57560060D01*
X210672139Y-57579639D01*
X210652560Y-57597383D01*
X210631337Y-57613123D01*
X210608674Y-57626707D01*
X210584788Y-57638005D01*
X210559909Y-57646906D01*
X210534278Y-57653326D01*
X210508141Y-57657203D01*
X210481750Y-57658500D01*
X209518250Y-57658500D01*
X209491859Y-57657203D01*
X209465722Y-57653326D01*
X209440091Y-57646906D01*
X209415212Y-57638005D01*
X209391326Y-57626707D01*
X209368663Y-57613123D01*
X209347440Y-57597383D01*
X209327861Y-57579639D01*
X209310117Y-57560060D01*
X209294377Y-57538837D01*
X209280793Y-57516174D01*
X209269495Y-57492288D01*
X209260594Y-57467409D01*
X209254174Y-57441778D01*
X209250297Y-57415641D01*
X209249000Y-57389250D01*
X209249000Y-56850750D01*
X209250297Y-56824359D01*
X209254174Y-56798222D01*
X209260594Y-56772591D01*
X209269495Y-56747712D01*
X209280793Y-56723826D01*
X209294377Y-56701163D01*
X209310117Y-56679940D01*
X209327861Y-56660361D01*
X209347440Y-56642617D01*
X209368663Y-56626877D01*
X209391326Y-56613293D01*
X209415212Y-56601995D01*
X209440091Y-56593094D01*
X209465722Y-56586674D01*
X209491859Y-56582797D01*
X209518250Y-56581500D01*
X210481750Y-56581500D01*
X210508141Y-56582797D01*
G37*
G36*
X185905641Y-58620297D02*
G01*
X185931778Y-58624174D01*
X185957409Y-58630594D01*
X185982288Y-58639495D01*
X186006174Y-58650793D01*
X186028837Y-58664377D01*
X186050060Y-58680117D01*
X186069639Y-58697861D01*
X186087383Y-58717440D01*
X186103123Y-58738663D01*
X186116707Y-58761326D01*
X186128005Y-58785212D01*
X186136906Y-58810091D01*
X186143326Y-58835722D01*
X186147203Y-58861859D01*
X186148500Y-58888250D01*
X186148500Y-59851750D01*
X186147203Y-59878141D01*
X186143326Y-59904278D01*
X186136906Y-59929909D01*
X186128005Y-59954788D01*
X186116707Y-59978674D01*
X186103123Y-60001337D01*
X186087383Y-60022560D01*
X186069639Y-60042139D01*
X186050060Y-60059883D01*
X186028837Y-60075623D01*
X186006174Y-60089207D01*
X185982288Y-60100505D01*
X185957409Y-60109406D01*
X185931778Y-60115826D01*
X185905641Y-60119703D01*
X185879250Y-60121000D01*
X185340750Y-60121000D01*
X185314359Y-60119703D01*
X185288222Y-60115826D01*
X185262591Y-60109406D01*
X185237712Y-60100505D01*
X185213826Y-60089207D01*
X185191163Y-60075623D01*
X185169940Y-60059883D01*
X185150361Y-60042139D01*
X185132617Y-60022560D01*
X185116877Y-60001337D01*
X185103293Y-59978674D01*
X185091995Y-59954788D01*
X185083094Y-59929909D01*
X185076674Y-59904278D01*
X185072797Y-59878141D01*
X185071500Y-59851750D01*
X185071500Y-58888250D01*
X185072797Y-58861859D01*
X185076674Y-58835722D01*
X185083094Y-58810091D01*
X185091995Y-58785212D01*
X185103293Y-58761326D01*
X185116877Y-58738663D01*
X185132617Y-58717440D01*
X185150361Y-58697861D01*
X185169940Y-58680117D01*
X185191163Y-58664377D01*
X185213826Y-58650793D01*
X185237712Y-58639495D01*
X185262591Y-58630594D01*
X185288222Y-58624174D01*
X185314359Y-58620297D01*
X185340750Y-58619000D01*
X185879250Y-58619000D01*
X185905641Y-58620297D01*
G37*
G36*
X187780641Y-58620297D02*
G01*
X187806778Y-58624174D01*
X187832409Y-58630594D01*
X187857288Y-58639495D01*
X187881174Y-58650793D01*
X187903837Y-58664377D01*
X187925060Y-58680117D01*
X187944639Y-58697861D01*
X187962383Y-58717440D01*
X187978123Y-58738663D01*
X187991707Y-58761326D01*
X188003005Y-58785212D01*
X188011906Y-58810091D01*
X188018326Y-58835722D01*
X188022203Y-58861859D01*
X188023500Y-58888250D01*
X188023500Y-59851750D01*
X188022203Y-59878141D01*
X188018326Y-59904278D01*
X188011906Y-59929909D01*
X188003005Y-59954788D01*
X187991707Y-59978674D01*
X187978123Y-60001337D01*
X187962383Y-60022560D01*
X187944639Y-60042139D01*
X187925060Y-60059883D01*
X187903837Y-60075623D01*
X187881174Y-60089207D01*
X187857288Y-60100505D01*
X187832409Y-60109406D01*
X187806778Y-60115826D01*
X187780641Y-60119703D01*
X187754250Y-60121000D01*
X187215750Y-60121000D01*
X187189359Y-60119703D01*
X187163222Y-60115826D01*
X187137591Y-60109406D01*
X187112712Y-60100505D01*
X187088826Y-60089207D01*
X187066163Y-60075623D01*
X187044940Y-60059883D01*
X187025361Y-60042139D01*
X187007617Y-60022560D01*
X186991877Y-60001337D01*
X186978293Y-59978674D01*
X186966995Y-59954788D01*
X186958094Y-59929909D01*
X186951674Y-59904278D01*
X186947797Y-59878141D01*
X186946500Y-59851750D01*
X186946500Y-58888250D01*
X186947797Y-58861859D01*
X186951674Y-58835722D01*
X186958094Y-58810091D01*
X186966995Y-58785212D01*
X186978293Y-58761326D01*
X186991877Y-58738663D01*
X187007617Y-58717440D01*
X187025361Y-58697861D01*
X187044940Y-58680117D01*
X187066163Y-58664377D01*
X187088826Y-58650793D01*
X187112712Y-58639495D01*
X187137591Y-58630594D01*
X187163222Y-58624174D01*
X187189359Y-58620297D01*
X187215750Y-58619000D01*
X187754250Y-58619000D01*
X187780641Y-58620297D01*
G37*
M02*
