G04 #@! TF.GenerationSoftware,KiCad,Pcbnew,(5.1.5)-3*
G04 #@! TF.CreationDate,2020-03-25T17:20:55+01:00*
G04 #@! TF.ProjectId,4Keys,344b6579-732e-46b6-9963-61645f706362,rev?*
G04 #@! TF.SameCoordinates,Original*
G04 #@! TF.FileFunction,Soldermask,Top*
G04 #@! TF.FilePolarity,Negative*
%FSLAX46Y46*%
G04 Gerber Fmt 4.6, Leading zero omitted, Abs format (unit mm)*
G04 Created by KiCad (PCBNEW (5.1.5)-3) date 2020-03-25 17:20:55*
%MOMM*%
%LPD*%
G04 APERTURE LIST*
%ADD10C,0.100000*%
G04 APERTURE END LIST*
D10*
G36*
X139328626Y-73599537D02*
G01*
X139498465Y-73651057D01*
X139498467Y-73651058D01*
X139654989Y-73734721D01*
X139792186Y-73847314D01*
X139861692Y-73932009D01*
X139904778Y-73984509D01*
X139904779Y-73984511D01*
X139960382Y-74088535D01*
X139988443Y-74141034D01*
X140039963Y-74310873D01*
X140053000Y-74443242D01*
X140053000Y-74781757D01*
X140039963Y-74914126D01*
X139988443Y-75083966D01*
X139904778Y-75240491D01*
X139875448Y-75276229D01*
X139792186Y-75377686D01*
X139718961Y-75437779D01*
X139654991Y-75490278D01*
X139654989Y-75490279D01*
X139500300Y-75572963D01*
X139498466Y-75573943D01*
X139328627Y-75625463D01*
X139152000Y-75642859D01*
X138975374Y-75625463D01*
X138805535Y-75573943D01*
X138803702Y-75572963D01*
X138649012Y-75490279D01*
X138649010Y-75490278D01*
X138511815Y-75377685D01*
X138399222Y-75240491D01*
X138315557Y-75083966D01*
X138264037Y-74914127D01*
X138251000Y-74781758D01*
X138251000Y-74443243D01*
X138264037Y-74310874D01*
X138315557Y-74141035D01*
X138343619Y-74088535D01*
X138399221Y-73984511D01*
X138511814Y-73847314D01*
X138613271Y-73764052D01*
X138649009Y-73734722D01*
X138781101Y-73664117D01*
X138805532Y-73651058D01*
X138805534Y-73651057D01*
X138975373Y-73599537D01*
X139152000Y-73582141D01*
X139328626Y-73599537D01*
G37*
G36*
X141828626Y-73599537D02*
G01*
X141998465Y-73651057D01*
X141998467Y-73651058D01*
X142154989Y-73734721D01*
X142292186Y-73847314D01*
X142361692Y-73932009D01*
X142404778Y-73984509D01*
X142404779Y-73984511D01*
X142460382Y-74088535D01*
X142488443Y-74141034D01*
X142539963Y-74310873D01*
X142553000Y-74443242D01*
X142553000Y-74781757D01*
X142539963Y-74914126D01*
X142488443Y-75083966D01*
X142404778Y-75240491D01*
X142375448Y-75276229D01*
X142292186Y-75377686D01*
X142218961Y-75437779D01*
X142154991Y-75490278D01*
X142154989Y-75490279D01*
X142000300Y-75572963D01*
X141998466Y-75573943D01*
X141828627Y-75625463D01*
X141652000Y-75642859D01*
X141475374Y-75625463D01*
X141305535Y-75573943D01*
X141303702Y-75572963D01*
X141149012Y-75490279D01*
X141149010Y-75490278D01*
X141011815Y-75377685D01*
X140899222Y-75240491D01*
X140815557Y-75083966D01*
X140764037Y-74914127D01*
X140751000Y-74781758D01*
X140751000Y-74443243D01*
X140764037Y-74310874D01*
X140815557Y-74141035D01*
X140843619Y-74088535D01*
X140899221Y-73984511D01*
X141011814Y-73847314D01*
X141113271Y-73764052D01*
X141149009Y-73734722D01*
X141281101Y-73664117D01*
X141305532Y-73651058D01*
X141305534Y-73651057D01*
X141475373Y-73599537D01*
X141652000Y-73582141D01*
X141828626Y-73599537D01*
G37*
G36*
X144328626Y-73599537D02*
G01*
X144498465Y-73651057D01*
X144498467Y-73651058D01*
X144654989Y-73734721D01*
X144792186Y-73847314D01*
X144861692Y-73932009D01*
X144904778Y-73984509D01*
X144904779Y-73984511D01*
X144960382Y-74088535D01*
X144988443Y-74141034D01*
X145039963Y-74310873D01*
X145053000Y-74443242D01*
X145053000Y-74781757D01*
X145039963Y-74914126D01*
X144988443Y-75083966D01*
X144904778Y-75240491D01*
X144875448Y-75276229D01*
X144792186Y-75377686D01*
X144718961Y-75437779D01*
X144654991Y-75490278D01*
X144654989Y-75490279D01*
X144500300Y-75572963D01*
X144498466Y-75573943D01*
X144328627Y-75625463D01*
X144152000Y-75642859D01*
X143975374Y-75625463D01*
X143805535Y-75573943D01*
X143803702Y-75572963D01*
X143649012Y-75490279D01*
X143649010Y-75490278D01*
X143511815Y-75377685D01*
X143399222Y-75240491D01*
X143315557Y-75083966D01*
X143264037Y-74914127D01*
X143251000Y-74781758D01*
X143251000Y-74443243D01*
X143264037Y-74310874D01*
X143315557Y-74141035D01*
X143343619Y-74088535D01*
X143399221Y-73984511D01*
X143511814Y-73847314D01*
X143613271Y-73764052D01*
X143649009Y-73734722D01*
X143781101Y-73664117D01*
X143805532Y-73651058D01*
X143805534Y-73651057D01*
X143975373Y-73599537D01*
X144152000Y-73582141D01*
X144328626Y-73599537D01*
G37*
G36*
X137410600Y-73590489D02*
G01*
X137443652Y-73600515D01*
X137474103Y-73616792D01*
X137500799Y-73638701D01*
X137522708Y-73665397D01*
X137538985Y-73695848D01*
X137549011Y-73728900D01*
X137553000Y-73769403D01*
X137553000Y-75455597D01*
X137549011Y-75496100D01*
X137538985Y-75529152D01*
X137522708Y-75559603D01*
X137500799Y-75586299D01*
X137474103Y-75608208D01*
X137443652Y-75624485D01*
X137410600Y-75634511D01*
X137370097Y-75638500D01*
X135933903Y-75638500D01*
X135893400Y-75634511D01*
X135860348Y-75624485D01*
X135829897Y-75608208D01*
X135803201Y-75586299D01*
X135781292Y-75559603D01*
X135765015Y-75529152D01*
X135754989Y-75496100D01*
X135751000Y-75455597D01*
X135751000Y-73769403D01*
X135754989Y-73728900D01*
X135765015Y-73695848D01*
X135781292Y-73665397D01*
X135803201Y-73638701D01*
X135829897Y-73616792D01*
X135860348Y-73600515D01*
X135893400Y-73590489D01*
X135933903Y-73586500D01*
X137370097Y-73586500D01*
X137410600Y-73590489D01*
G37*
G36*
X235260626Y-73547037D02*
G01*
X235430465Y-73598557D01*
X235430467Y-73598558D01*
X235586989Y-73682221D01*
X235724186Y-73794814D01*
X235770706Y-73851500D01*
X235836778Y-73932009D01*
X235920443Y-74088534D01*
X235971963Y-74258373D01*
X235985000Y-74390742D01*
X235985000Y-74729257D01*
X235971963Y-74861626D01*
X235920443Y-75031466D01*
X235836778Y-75187991D01*
X235807448Y-75223729D01*
X235724186Y-75325186D01*
X235629250Y-75403097D01*
X235586991Y-75437778D01*
X235586989Y-75437779D01*
X235431808Y-75520726D01*
X235430466Y-75521443D01*
X235260627Y-75572963D01*
X235084000Y-75590359D01*
X234907374Y-75572963D01*
X234737535Y-75521443D01*
X234736194Y-75520726D01*
X234581012Y-75437779D01*
X234581010Y-75437778D01*
X234443815Y-75325185D01*
X234331222Y-75187991D01*
X234247557Y-75031466D01*
X234196037Y-74861627D01*
X234183000Y-74729258D01*
X234183000Y-74390743D01*
X234196037Y-74258374D01*
X234247557Y-74088535D01*
X234331222Y-73932010D01*
X234331223Y-73932009D01*
X234443814Y-73794814D01*
X234554139Y-73704274D01*
X234581009Y-73682222D01*
X234733871Y-73600515D01*
X234737532Y-73598558D01*
X234737534Y-73598557D01*
X234907373Y-73547037D01*
X235084000Y-73529641D01*
X235260626Y-73547037D01*
G37*
G36*
X230260626Y-73547037D02*
G01*
X230430465Y-73598557D01*
X230430467Y-73598558D01*
X230586989Y-73682221D01*
X230724186Y-73794814D01*
X230770706Y-73851500D01*
X230836778Y-73932009D01*
X230920443Y-74088534D01*
X230971963Y-74258373D01*
X230985000Y-74390742D01*
X230985000Y-74729257D01*
X230971963Y-74861626D01*
X230920443Y-75031466D01*
X230836778Y-75187991D01*
X230807448Y-75223729D01*
X230724186Y-75325186D01*
X230629250Y-75403097D01*
X230586991Y-75437778D01*
X230586989Y-75437779D01*
X230431808Y-75520726D01*
X230430466Y-75521443D01*
X230260627Y-75572963D01*
X230084000Y-75590359D01*
X229907374Y-75572963D01*
X229737535Y-75521443D01*
X229736194Y-75520726D01*
X229581012Y-75437779D01*
X229581010Y-75437778D01*
X229443815Y-75325185D01*
X229331222Y-75187991D01*
X229247557Y-75031466D01*
X229196037Y-74861627D01*
X229183000Y-74729258D01*
X229183000Y-74390743D01*
X229196037Y-74258374D01*
X229247557Y-74088535D01*
X229331222Y-73932010D01*
X229331223Y-73932009D01*
X229443814Y-73794814D01*
X229554139Y-73704274D01*
X229581009Y-73682222D01*
X229733871Y-73600515D01*
X229737532Y-73598558D01*
X229737534Y-73598557D01*
X229907373Y-73547037D01*
X230084000Y-73529641D01*
X230260626Y-73547037D01*
G37*
G36*
X232760626Y-73547037D02*
G01*
X232930465Y-73598557D01*
X232930467Y-73598558D01*
X233086989Y-73682221D01*
X233224186Y-73794814D01*
X233270706Y-73851500D01*
X233336778Y-73932009D01*
X233420443Y-74088534D01*
X233471963Y-74258373D01*
X233485000Y-74390742D01*
X233485000Y-74729257D01*
X233471963Y-74861626D01*
X233420443Y-75031466D01*
X233336778Y-75187991D01*
X233307448Y-75223729D01*
X233224186Y-75325186D01*
X233129250Y-75403097D01*
X233086991Y-75437778D01*
X233086989Y-75437779D01*
X232931808Y-75520726D01*
X232930466Y-75521443D01*
X232760627Y-75572963D01*
X232584000Y-75590359D01*
X232407374Y-75572963D01*
X232237535Y-75521443D01*
X232236194Y-75520726D01*
X232081012Y-75437779D01*
X232081010Y-75437778D01*
X231943815Y-75325185D01*
X231831222Y-75187991D01*
X231747557Y-75031466D01*
X231696037Y-74861627D01*
X231683000Y-74729258D01*
X231683000Y-74390743D01*
X231696037Y-74258374D01*
X231747557Y-74088535D01*
X231831222Y-73932010D01*
X231831223Y-73932009D01*
X231943814Y-73794814D01*
X232054139Y-73704274D01*
X232081009Y-73682222D01*
X232233871Y-73600515D01*
X232237532Y-73598558D01*
X232237534Y-73598557D01*
X232407373Y-73547037D01*
X232584000Y-73529641D01*
X232760626Y-73547037D01*
G37*
G36*
X228342600Y-73537989D02*
G01*
X228375652Y-73548015D01*
X228406103Y-73564292D01*
X228432799Y-73586201D01*
X228454708Y-73612897D01*
X228470985Y-73643348D01*
X228481011Y-73676400D01*
X228485000Y-73716903D01*
X228485000Y-75403097D01*
X228481011Y-75443600D01*
X228470985Y-75476652D01*
X228454708Y-75507103D01*
X228432799Y-75533799D01*
X228406103Y-75555708D01*
X228375652Y-75571985D01*
X228342600Y-75582011D01*
X228302097Y-75586000D01*
X226865903Y-75586000D01*
X226825400Y-75582011D01*
X226792348Y-75571985D01*
X226761897Y-75555708D01*
X226735201Y-75533799D01*
X226713292Y-75507103D01*
X226697015Y-75476652D01*
X226686989Y-75443600D01*
X226683000Y-75403097D01*
X226683000Y-73716903D01*
X226686989Y-73676400D01*
X226697015Y-73643348D01*
X226713292Y-73612897D01*
X226735201Y-73586201D01*
X226761897Y-73564292D01*
X226792348Y-73548015D01*
X226825400Y-73537989D01*
X226865903Y-73534000D01*
X228302097Y-73534000D01*
X228342600Y-73537989D01*
G37*
G36*
X205383974Y-65502434D02*
G01*
X205601974Y-65592733D01*
X205756123Y-65656583D01*
X206091048Y-65880373D01*
X206375877Y-66165202D01*
X206599667Y-66500127D01*
X206632062Y-66578336D01*
X206753816Y-66872276D01*
X206832400Y-67267344D01*
X206832400Y-67670156D01*
X206753816Y-68065224D01*
X206702951Y-68188022D01*
X206599667Y-68437373D01*
X206375877Y-68772298D01*
X206091048Y-69057127D01*
X205756123Y-69280917D01*
X205601974Y-69344767D01*
X205383974Y-69435066D01*
X204988906Y-69513650D01*
X204586094Y-69513650D01*
X204191026Y-69435066D01*
X203973026Y-69344767D01*
X203818877Y-69280917D01*
X203483952Y-69057127D01*
X203199123Y-68772298D01*
X202975333Y-68437373D01*
X202872049Y-68188022D01*
X202821184Y-68065224D01*
X202742600Y-67670156D01*
X202742600Y-67267344D01*
X202821184Y-66872276D01*
X202942938Y-66578336D01*
X202975333Y-66500127D01*
X203199123Y-66165202D01*
X203483952Y-65880373D01*
X203818877Y-65656583D01*
X203973026Y-65592733D01*
X204191026Y-65502434D01*
X204586094Y-65423850D01*
X204988906Y-65423850D01*
X205383974Y-65502434D01*
G37*
G36*
X167283974Y-65502434D02*
G01*
X167501974Y-65592733D01*
X167656123Y-65656583D01*
X167991048Y-65880373D01*
X168275877Y-66165202D01*
X168499667Y-66500127D01*
X168532062Y-66578336D01*
X168653816Y-66872276D01*
X168732400Y-67267344D01*
X168732400Y-67670156D01*
X168653816Y-68065224D01*
X168602951Y-68188022D01*
X168499667Y-68437373D01*
X168275877Y-68772298D01*
X167991048Y-69057127D01*
X167656123Y-69280917D01*
X167501974Y-69344767D01*
X167283974Y-69435066D01*
X166888906Y-69513650D01*
X166486094Y-69513650D01*
X166091026Y-69435066D01*
X165873026Y-69344767D01*
X165718877Y-69280917D01*
X165383952Y-69057127D01*
X165099123Y-68772298D01*
X164875333Y-68437373D01*
X164772049Y-68188022D01*
X164721184Y-68065224D01*
X164642600Y-67670156D01*
X164642600Y-67267344D01*
X164721184Y-66872276D01*
X164842938Y-66578336D01*
X164875333Y-66500127D01*
X165099123Y-66165202D01*
X165383952Y-65880373D01*
X165718877Y-65656583D01*
X165873026Y-65592733D01*
X166091026Y-65502434D01*
X166486094Y-65423850D01*
X166888906Y-65423850D01*
X167283974Y-65502434D01*
G37*
G36*
X186333974Y-65502434D02*
G01*
X186551974Y-65592733D01*
X186706123Y-65656583D01*
X187041048Y-65880373D01*
X187325877Y-66165202D01*
X187549667Y-66500127D01*
X187582062Y-66578336D01*
X187703816Y-66872276D01*
X187782400Y-67267344D01*
X187782400Y-67670156D01*
X187703816Y-68065224D01*
X187652951Y-68188022D01*
X187549667Y-68437373D01*
X187325877Y-68772298D01*
X187041048Y-69057127D01*
X186706123Y-69280917D01*
X186551974Y-69344767D01*
X186333974Y-69435066D01*
X185938906Y-69513650D01*
X185536094Y-69513650D01*
X185141026Y-69435066D01*
X184923026Y-69344767D01*
X184768877Y-69280917D01*
X184433952Y-69057127D01*
X184149123Y-68772298D01*
X183925333Y-68437373D01*
X183822049Y-68188022D01*
X183771184Y-68065224D01*
X183692600Y-67670156D01*
X183692600Y-67267344D01*
X183771184Y-66872276D01*
X183892938Y-66578336D01*
X183925333Y-66500127D01*
X184149123Y-66165202D01*
X184433952Y-65880373D01*
X184768877Y-65656583D01*
X184923026Y-65592733D01*
X185141026Y-65502434D01*
X185536094Y-65423850D01*
X185938906Y-65423850D01*
X186333974Y-65502434D01*
G37*
G36*
X180927604Y-66578335D02*
G01*
X181096126Y-66648139D01*
X181247791Y-66749478D01*
X181376772Y-66878459D01*
X181478111Y-67030124D01*
X181547915Y-67198646D01*
X181583500Y-67377547D01*
X181583500Y-67559953D01*
X181547915Y-67738854D01*
X181478111Y-67907376D01*
X181376772Y-68059041D01*
X181247791Y-68188022D01*
X181096126Y-68289361D01*
X180927604Y-68359165D01*
X180748703Y-68394750D01*
X180566297Y-68394750D01*
X180387396Y-68359165D01*
X180218874Y-68289361D01*
X180067209Y-68188022D01*
X179938228Y-68059041D01*
X179836889Y-67907376D01*
X179767085Y-67738854D01*
X179731500Y-67559953D01*
X179731500Y-67377547D01*
X179767085Y-67198646D01*
X179836889Y-67030124D01*
X179938228Y-66878459D01*
X180067209Y-66749478D01*
X180218874Y-66648139D01*
X180387396Y-66578335D01*
X180566297Y-66542750D01*
X180748703Y-66542750D01*
X180927604Y-66578335D01*
G37*
G36*
X210137604Y-66578335D02*
G01*
X210306126Y-66648139D01*
X210457791Y-66749478D01*
X210586772Y-66878459D01*
X210688111Y-67030124D01*
X210757915Y-67198646D01*
X210793500Y-67377547D01*
X210793500Y-67559953D01*
X210757915Y-67738854D01*
X210688111Y-67907376D01*
X210586772Y-68059041D01*
X210457791Y-68188022D01*
X210306126Y-68289361D01*
X210137604Y-68359165D01*
X209958703Y-68394750D01*
X209776297Y-68394750D01*
X209597396Y-68359165D01*
X209428874Y-68289361D01*
X209277209Y-68188022D01*
X209148228Y-68059041D01*
X209046889Y-67907376D01*
X208977085Y-67738854D01*
X208941500Y-67559953D01*
X208941500Y-67377547D01*
X208977085Y-67198646D01*
X209046889Y-67030124D01*
X209148228Y-66878459D01*
X209277209Y-66749478D01*
X209428874Y-66648139D01*
X209597396Y-66578335D01*
X209776297Y-66542750D01*
X209958703Y-66542750D01*
X210137604Y-66578335D01*
G37*
G36*
X191087604Y-66578335D02*
G01*
X191256126Y-66648139D01*
X191407791Y-66749478D01*
X191536772Y-66878459D01*
X191638111Y-67030124D01*
X191707915Y-67198646D01*
X191743500Y-67377547D01*
X191743500Y-67559953D01*
X191707915Y-67738854D01*
X191638111Y-67907376D01*
X191536772Y-68059041D01*
X191407791Y-68188022D01*
X191256126Y-68289361D01*
X191087604Y-68359165D01*
X190908703Y-68394750D01*
X190726297Y-68394750D01*
X190547396Y-68359165D01*
X190378874Y-68289361D01*
X190227209Y-68188022D01*
X190098228Y-68059041D01*
X189996889Y-67907376D01*
X189927085Y-67738854D01*
X189891500Y-67559953D01*
X189891500Y-67377547D01*
X189927085Y-67198646D01*
X189996889Y-67030124D01*
X190098228Y-66878459D01*
X190227209Y-66749478D01*
X190378874Y-66648139D01*
X190547396Y-66578335D01*
X190726297Y-66542750D01*
X190908703Y-66542750D01*
X191087604Y-66578335D01*
G37*
G36*
X161877604Y-66578335D02*
G01*
X162046126Y-66648139D01*
X162197791Y-66749478D01*
X162326772Y-66878459D01*
X162428111Y-67030124D01*
X162497915Y-67198646D01*
X162533500Y-67377547D01*
X162533500Y-67559953D01*
X162497915Y-67738854D01*
X162428111Y-67907376D01*
X162326772Y-68059041D01*
X162197791Y-68188022D01*
X162046126Y-68289361D01*
X161877604Y-68359165D01*
X161698703Y-68394750D01*
X161516297Y-68394750D01*
X161337396Y-68359165D01*
X161168874Y-68289361D01*
X161017209Y-68188022D01*
X160888228Y-68059041D01*
X160786889Y-67907376D01*
X160717085Y-67738854D01*
X160681500Y-67559953D01*
X160681500Y-67377547D01*
X160717085Y-67198646D01*
X160786889Y-67030124D01*
X160888228Y-66878459D01*
X161017209Y-66749478D01*
X161168874Y-66648139D01*
X161337396Y-66578335D01*
X161516297Y-66542750D01*
X161698703Y-66542750D01*
X161877604Y-66578335D01*
G37*
G36*
X172037604Y-66578335D02*
G01*
X172206126Y-66648139D01*
X172357791Y-66749478D01*
X172486772Y-66878459D01*
X172588111Y-67030124D01*
X172657915Y-67198646D01*
X172693500Y-67377547D01*
X172693500Y-67559953D01*
X172657915Y-67738854D01*
X172588111Y-67907376D01*
X172486772Y-68059041D01*
X172357791Y-68188022D01*
X172206126Y-68289361D01*
X172037604Y-68359165D01*
X171858703Y-68394750D01*
X171676297Y-68394750D01*
X171497396Y-68359165D01*
X171328874Y-68289361D01*
X171177209Y-68188022D01*
X171048228Y-68059041D01*
X170946889Y-67907376D01*
X170877085Y-67738854D01*
X170841500Y-67559953D01*
X170841500Y-67377547D01*
X170877085Y-67198646D01*
X170946889Y-67030124D01*
X171048228Y-66878459D01*
X171177209Y-66749478D01*
X171328874Y-66648139D01*
X171497396Y-66578335D01*
X171676297Y-66542750D01*
X171858703Y-66542750D01*
X172037604Y-66578335D01*
G37*
G36*
X199977604Y-66578335D02*
G01*
X200146126Y-66648139D01*
X200297791Y-66749478D01*
X200426772Y-66878459D01*
X200528111Y-67030124D01*
X200597915Y-67198646D01*
X200633500Y-67377547D01*
X200633500Y-67559953D01*
X200597915Y-67738854D01*
X200528111Y-67907376D01*
X200426772Y-68059041D01*
X200297791Y-68188022D01*
X200146126Y-68289361D01*
X199977604Y-68359165D01*
X199798703Y-68394750D01*
X199616297Y-68394750D01*
X199437396Y-68359165D01*
X199268874Y-68289361D01*
X199117209Y-68188022D01*
X198988228Y-68059041D01*
X198886889Y-67907376D01*
X198817085Y-67738854D01*
X198781500Y-67559953D01*
X198781500Y-67377547D01*
X198817085Y-67198646D01*
X198886889Y-67030124D01*
X198988228Y-66878459D01*
X199117209Y-66749478D01*
X199268874Y-66648139D01*
X199437396Y-66578335D01*
X199616297Y-66542750D01*
X199798703Y-66542750D01*
X199977604Y-66578335D01*
G37*
G36*
X201280085Y-63407552D02*
G01*
X201429910Y-63437354D01*
X201712174Y-63554271D01*
X201966205Y-63724009D01*
X202182241Y-63940045D01*
X202351979Y-64194076D01*
X202468896Y-64476340D01*
X202468896Y-64476341D01*
X202525939Y-64763112D01*
X202528500Y-64775990D01*
X202528500Y-65081510D01*
X202468896Y-65381160D01*
X202351979Y-65663424D01*
X202182241Y-65917455D01*
X201966205Y-66133491D01*
X201712174Y-66303229D01*
X201429910Y-66420146D01*
X201280085Y-66449948D01*
X201130261Y-66479750D01*
X200824739Y-66479750D01*
X200674915Y-66449948D01*
X200525090Y-66420146D01*
X200242826Y-66303229D01*
X199988795Y-66133491D01*
X199772759Y-65917455D01*
X199603021Y-65663424D01*
X199486104Y-65381160D01*
X199426500Y-65081510D01*
X199426500Y-64775990D01*
X199429062Y-64763112D01*
X199486104Y-64476341D01*
X199486104Y-64476340D01*
X199603021Y-64194076D01*
X199772759Y-63940045D01*
X199988795Y-63724009D01*
X200242826Y-63554271D01*
X200525090Y-63437354D01*
X200674915Y-63407552D01*
X200824739Y-63377750D01*
X201130261Y-63377750D01*
X201280085Y-63407552D01*
G37*
G36*
X182230085Y-63407552D02*
G01*
X182379910Y-63437354D01*
X182662174Y-63554271D01*
X182916205Y-63724009D01*
X183132241Y-63940045D01*
X183301979Y-64194076D01*
X183418896Y-64476340D01*
X183418896Y-64476341D01*
X183475939Y-64763112D01*
X183478500Y-64775990D01*
X183478500Y-65081510D01*
X183418896Y-65381160D01*
X183301979Y-65663424D01*
X183132241Y-65917455D01*
X182916205Y-66133491D01*
X182662174Y-66303229D01*
X182379910Y-66420146D01*
X182230085Y-66449948D01*
X182080261Y-66479750D01*
X181774739Y-66479750D01*
X181624915Y-66449948D01*
X181475090Y-66420146D01*
X181192826Y-66303229D01*
X180938795Y-66133491D01*
X180722759Y-65917455D01*
X180553021Y-65663424D01*
X180436104Y-65381160D01*
X180376500Y-65081510D01*
X180376500Y-64775990D01*
X180379062Y-64763112D01*
X180436104Y-64476341D01*
X180436104Y-64476340D01*
X180553021Y-64194076D01*
X180722759Y-63940045D01*
X180938795Y-63724009D01*
X181192826Y-63554271D01*
X181475090Y-63437354D01*
X181624915Y-63407552D01*
X181774739Y-63377750D01*
X182080261Y-63377750D01*
X182230085Y-63407552D01*
G37*
G36*
X163180085Y-63407552D02*
G01*
X163329910Y-63437354D01*
X163612174Y-63554271D01*
X163866205Y-63724009D01*
X164082241Y-63940045D01*
X164251979Y-64194076D01*
X164368896Y-64476340D01*
X164368896Y-64476341D01*
X164425939Y-64763112D01*
X164428500Y-64775990D01*
X164428500Y-65081510D01*
X164368896Y-65381160D01*
X164251979Y-65663424D01*
X164082241Y-65917455D01*
X163866205Y-66133491D01*
X163612174Y-66303229D01*
X163329910Y-66420146D01*
X163180085Y-66449948D01*
X163030261Y-66479750D01*
X162724739Y-66479750D01*
X162574915Y-66449948D01*
X162425090Y-66420146D01*
X162142826Y-66303229D01*
X161888795Y-66133491D01*
X161672759Y-65917455D01*
X161503021Y-65663424D01*
X161386104Y-65381160D01*
X161326500Y-65081510D01*
X161326500Y-64775990D01*
X161329062Y-64763112D01*
X161386104Y-64476341D01*
X161386104Y-64476340D01*
X161503021Y-64194076D01*
X161672759Y-63940045D01*
X161888795Y-63724009D01*
X162142826Y-63554271D01*
X162425090Y-63437354D01*
X162574915Y-63407552D01*
X162724739Y-63377750D01*
X163030261Y-63377750D01*
X163180085Y-63407552D01*
G37*
G36*
X175209468Y-63903565D02*
G01*
X175248138Y-63915296D01*
X175283777Y-63934346D01*
X175315017Y-63959983D01*
X175340654Y-63991223D01*
X175359704Y-64026862D01*
X175371435Y-64065532D01*
X175376000Y-64111888D01*
X175376000Y-64763112D01*
X175371435Y-64809468D01*
X175359704Y-64848138D01*
X175340654Y-64883777D01*
X175315017Y-64915017D01*
X175283777Y-64940654D01*
X175248138Y-64959704D01*
X175209468Y-64971435D01*
X175163112Y-64976000D01*
X174086888Y-64976000D01*
X174040532Y-64971435D01*
X174001862Y-64959704D01*
X173966223Y-64940654D01*
X173934983Y-64915017D01*
X173909346Y-64883777D01*
X173890296Y-64848138D01*
X173878565Y-64809468D01*
X173874000Y-64763112D01*
X173874000Y-64111888D01*
X173878565Y-64065532D01*
X173890296Y-64026862D01*
X173909346Y-63991223D01*
X173934983Y-63959983D01*
X173966223Y-63934346D01*
X174001862Y-63915296D01*
X174040532Y-63903565D01*
X174086888Y-63899000D01*
X175163112Y-63899000D01*
X175209468Y-63903565D01*
G37*
G36*
X194259468Y-63903565D02*
G01*
X194298138Y-63915296D01*
X194333777Y-63934346D01*
X194365017Y-63959983D01*
X194390654Y-63991223D01*
X194409704Y-64026862D01*
X194421435Y-64065532D01*
X194426000Y-64111888D01*
X194426000Y-64763112D01*
X194421435Y-64809468D01*
X194409704Y-64848138D01*
X194390654Y-64883777D01*
X194365017Y-64915017D01*
X194333777Y-64940654D01*
X194298138Y-64959704D01*
X194259468Y-64971435D01*
X194213112Y-64976000D01*
X193136888Y-64976000D01*
X193090532Y-64971435D01*
X193051862Y-64959704D01*
X193016223Y-64940654D01*
X192984983Y-64915017D01*
X192959346Y-64883777D01*
X192940296Y-64848138D01*
X192928565Y-64809468D01*
X192924000Y-64763112D01*
X192924000Y-64111888D01*
X192928565Y-64065532D01*
X192940296Y-64026862D01*
X192959346Y-63991223D01*
X192984983Y-63959983D01*
X193016223Y-63934346D01*
X193051862Y-63915296D01*
X193090532Y-63903565D01*
X193136888Y-63899000D01*
X194213112Y-63899000D01*
X194259468Y-63903565D01*
G37*
G36*
X213309468Y-63903565D02*
G01*
X213348138Y-63915296D01*
X213383777Y-63934346D01*
X213415017Y-63959983D01*
X213440654Y-63991223D01*
X213459704Y-64026862D01*
X213471435Y-64065532D01*
X213476000Y-64111888D01*
X213476000Y-64763112D01*
X213471435Y-64809468D01*
X213459704Y-64848138D01*
X213440654Y-64883777D01*
X213415017Y-64915017D01*
X213383777Y-64940654D01*
X213348138Y-64959704D01*
X213309468Y-64971435D01*
X213263112Y-64976000D01*
X212186888Y-64976000D01*
X212140532Y-64971435D01*
X212101862Y-64959704D01*
X212066223Y-64940654D01*
X212034983Y-64915017D01*
X212009346Y-64883777D01*
X211990296Y-64848138D01*
X211978565Y-64809468D01*
X211974000Y-64763112D01*
X211974000Y-64111888D01*
X211978565Y-64065532D01*
X211990296Y-64026862D01*
X212009346Y-63991223D01*
X212034983Y-63959983D01*
X212066223Y-63934346D01*
X212101862Y-63915296D01*
X212140532Y-63903565D01*
X212186888Y-63899000D01*
X213263112Y-63899000D01*
X213309468Y-63903565D01*
G37*
G36*
X169530085Y-60867552D02*
G01*
X169679910Y-60897354D01*
X169962174Y-61014271D01*
X170216205Y-61184009D01*
X170432241Y-61400045D01*
X170601979Y-61654076D01*
X170718896Y-61936340D01*
X170778500Y-62235990D01*
X170778500Y-62541510D01*
X170718896Y-62841160D01*
X170601979Y-63123424D01*
X170432241Y-63377455D01*
X170216205Y-63593491D01*
X169962174Y-63763229D01*
X169679910Y-63880146D01*
X169559113Y-63904174D01*
X169380261Y-63939750D01*
X169074739Y-63939750D01*
X168895887Y-63904174D01*
X168775090Y-63880146D01*
X168492826Y-63763229D01*
X168238795Y-63593491D01*
X168022759Y-63377455D01*
X167853021Y-63123424D01*
X167736104Y-62841160D01*
X167676500Y-62541510D01*
X167676500Y-62235990D01*
X167736104Y-61936340D01*
X167853021Y-61654076D01*
X168022759Y-61400045D01*
X168238795Y-61184009D01*
X168492826Y-61014271D01*
X168775090Y-60897354D01*
X168924915Y-60867552D01*
X169074739Y-60837750D01*
X169380261Y-60837750D01*
X169530085Y-60867552D01*
G37*
G36*
X188580085Y-60867552D02*
G01*
X188729910Y-60897354D01*
X189012174Y-61014271D01*
X189266205Y-61184009D01*
X189482241Y-61400045D01*
X189651979Y-61654076D01*
X189768896Y-61936340D01*
X189828500Y-62235990D01*
X189828500Y-62541510D01*
X189768896Y-62841160D01*
X189651979Y-63123424D01*
X189482241Y-63377455D01*
X189266205Y-63593491D01*
X189012174Y-63763229D01*
X188729910Y-63880146D01*
X188609113Y-63904174D01*
X188430261Y-63939750D01*
X188124739Y-63939750D01*
X187945887Y-63904174D01*
X187825090Y-63880146D01*
X187542826Y-63763229D01*
X187288795Y-63593491D01*
X187072759Y-63377455D01*
X186903021Y-63123424D01*
X186786104Y-62841160D01*
X186726500Y-62541510D01*
X186726500Y-62235990D01*
X186786104Y-61936340D01*
X186903021Y-61654076D01*
X187072759Y-61400045D01*
X187288795Y-61184009D01*
X187542826Y-61014271D01*
X187825090Y-60897354D01*
X187974915Y-60867552D01*
X188124739Y-60837750D01*
X188430261Y-60837750D01*
X188580085Y-60867552D01*
G37*
G36*
X207630085Y-60867552D02*
G01*
X207779910Y-60897354D01*
X208062174Y-61014271D01*
X208316205Y-61184009D01*
X208532241Y-61400045D01*
X208701979Y-61654076D01*
X208818896Y-61936340D01*
X208878500Y-62235990D01*
X208878500Y-62541510D01*
X208818896Y-62841160D01*
X208701979Y-63123424D01*
X208532241Y-63377455D01*
X208316205Y-63593491D01*
X208062174Y-63763229D01*
X207779910Y-63880146D01*
X207659113Y-63904174D01*
X207480261Y-63939750D01*
X207174739Y-63939750D01*
X206995887Y-63904174D01*
X206875090Y-63880146D01*
X206592826Y-63763229D01*
X206338795Y-63593491D01*
X206122759Y-63377455D01*
X205953021Y-63123424D01*
X205836104Y-62841160D01*
X205776500Y-62541510D01*
X205776500Y-62235990D01*
X205836104Y-61936340D01*
X205953021Y-61654076D01*
X206122759Y-61400045D01*
X206338795Y-61184009D01*
X206592826Y-61014271D01*
X206875090Y-60897354D01*
X207024915Y-60867552D01*
X207174739Y-60837750D01*
X207480261Y-60837750D01*
X207630085Y-60867552D01*
G37*
G36*
X213309468Y-62028565D02*
G01*
X213348138Y-62040296D01*
X213383777Y-62059346D01*
X213415017Y-62084983D01*
X213440654Y-62116223D01*
X213459704Y-62151862D01*
X213471435Y-62190532D01*
X213476000Y-62236888D01*
X213476000Y-62888112D01*
X213471435Y-62934468D01*
X213459704Y-62973138D01*
X213440654Y-63008777D01*
X213415017Y-63040017D01*
X213383777Y-63065654D01*
X213348138Y-63084704D01*
X213309468Y-63096435D01*
X213263112Y-63101000D01*
X212186888Y-63101000D01*
X212140532Y-63096435D01*
X212101862Y-63084704D01*
X212066223Y-63065654D01*
X212034983Y-63040017D01*
X212009346Y-63008777D01*
X211990296Y-62973138D01*
X211978565Y-62934468D01*
X211974000Y-62888112D01*
X211974000Y-62236888D01*
X211978565Y-62190532D01*
X211990296Y-62151862D01*
X212009346Y-62116223D01*
X212034983Y-62084983D01*
X212066223Y-62059346D01*
X212101862Y-62040296D01*
X212140532Y-62028565D01*
X212186888Y-62024000D01*
X213263112Y-62024000D01*
X213309468Y-62028565D01*
G37*
G36*
X194259468Y-62028565D02*
G01*
X194298138Y-62040296D01*
X194333777Y-62059346D01*
X194365017Y-62084983D01*
X194390654Y-62116223D01*
X194409704Y-62151862D01*
X194421435Y-62190532D01*
X194426000Y-62236888D01*
X194426000Y-62888112D01*
X194421435Y-62934468D01*
X194409704Y-62973138D01*
X194390654Y-63008777D01*
X194365017Y-63040017D01*
X194333777Y-63065654D01*
X194298138Y-63084704D01*
X194259468Y-63096435D01*
X194213112Y-63101000D01*
X193136888Y-63101000D01*
X193090532Y-63096435D01*
X193051862Y-63084704D01*
X193016223Y-63065654D01*
X192984983Y-63040017D01*
X192959346Y-63008777D01*
X192940296Y-62973138D01*
X192928565Y-62934468D01*
X192924000Y-62888112D01*
X192924000Y-62236888D01*
X192928565Y-62190532D01*
X192940296Y-62151862D01*
X192959346Y-62116223D01*
X192984983Y-62084983D01*
X193016223Y-62059346D01*
X193051862Y-62040296D01*
X193090532Y-62028565D01*
X193136888Y-62024000D01*
X194213112Y-62024000D01*
X194259468Y-62028565D01*
G37*
G36*
X175209468Y-62028565D02*
G01*
X175248138Y-62040296D01*
X175283777Y-62059346D01*
X175315017Y-62084983D01*
X175340654Y-62116223D01*
X175359704Y-62151862D01*
X175371435Y-62190532D01*
X175376000Y-62236888D01*
X175376000Y-62888112D01*
X175371435Y-62934468D01*
X175359704Y-62973138D01*
X175340654Y-63008777D01*
X175315017Y-63040017D01*
X175283777Y-63065654D01*
X175248138Y-63084704D01*
X175209468Y-63096435D01*
X175163112Y-63101000D01*
X174086888Y-63101000D01*
X174040532Y-63096435D01*
X174001862Y-63084704D01*
X173966223Y-63065654D01*
X173934983Y-63040017D01*
X173909346Y-63008777D01*
X173890296Y-62973138D01*
X173878565Y-62934468D01*
X173874000Y-62888112D01*
X173874000Y-62236888D01*
X173878565Y-62190532D01*
X173890296Y-62151862D01*
X173909346Y-62116223D01*
X173934983Y-62084983D01*
X173966223Y-62059346D01*
X174001862Y-62040296D01*
X174040532Y-62028565D01*
X174086888Y-62024000D01*
X175163112Y-62024000D01*
X175209468Y-62028565D01*
G37*
G36*
X201584468Y-52466065D02*
G01*
X201623138Y-52477796D01*
X201658777Y-52496846D01*
X201690017Y-52522483D01*
X201715654Y-52553723D01*
X201734704Y-52589362D01*
X201746435Y-52628032D01*
X201751000Y-52674388D01*
X201751000Y-53325612D01*
X201746435Y-53371968D01*
X201734704Y-53410638D01*
X201715654Y-53446277D01*
X201690017Y-53477517D01*
X201658777Y-53503154D01*
X201623138Y-53522204D01*
X201584468Y-53533935D01*
X201538112Y-53538500D01*
X200461888Y-53538500D01*
X200415532Y-53533935D01*
X200376862Y-53522204D01*
X200341223Y-53503154D01*
X200309983Y-53477517D01*
X200284346Y-53446277D01*
X200265296Y-53410638D01*
X200253565Y-53371968D01*
X200249000Y-53325612D01*
X200249000Y-52674388D01*
X200253565Y-52628032D01*
X200265296Y-52589362D01*
X200284346Y-52553723D01*
X200309983Y-52522483D01*
X200341223Y-52496846D01*
X200376862Y-52477796D01*
X200415532Y-52466065D01*
X200461888Y-52461500D01*
X201538112Y-52461500D01*
X201584468Y-52466065D01*
G37*
G36*
X204584468Y-52403565D02*
G01*
X204623138Y-52415296D01*
X204658777Y-52434346D01*
X204690017Y-52459983D01*
X204715654Y-52491223D01*
X204734704Y-52526862D01*
X204746435Y-52565532D01*
X204751000Y-52611888D01*
X204751000Y-53263112D01*
X204746435Y-53309468D01*
X204734704Y-53348138D01*
X204715654Y-53383777D01*
X204690017Y-53415017D01*
X204658777Y-53440654D01*
X204623138Y-53459704D01*
X204584468Y-53471435D01*
X204538112Y-53476000D01*
X203461888Y-53476000D01*
X203415532Y-53471435D01*
X203376862Y-53459704D01*
X203341223Y-53440654D01*
X203309983Y-53415017D01*
X203284346Y-53383777D01*
X203265296Y-53348138D01*
X203253565Y-53309468D01*
X203249000Y-53263112D01*
X203249000Y-52611888D01*
X203253565Y-52565532D01*
X203265296Y-52526862D01*
X203284346Y-52491223D01*
X203309983Y-52459983D01*
X203341223Y-52434346D01*
X203376862Y-52415296D01*
X203415532Y-52403565D01*
X203461888Y-52399000D01*
X204538112Y-52399000D01*
X204584468Y-52403565D01*
G37*
G36*
X185976968Y-51683565D02*
G01*
X186015638Y-51695296D01*
X186051277Y-51714346D01*
X186082517Y-51739983D01*
X186108154Y-51771223D01*
X186127204Y-51806862D01*
X186138935Y-51845532D01*
X186143500Y-51891888D01*
X186143500Y-52968112D01*
X186138935Y-53014468D01*
X186127204Y-53053138D01*
X186108154Y-53088777D01*
X186082517Y-53120017D01*
X186051277Y-53145654D01*
X186015638Y-53164704D01*
X185976968Y-53176435D01*
X185930612Y-53181000D01*
X185279388Y-53181000D01*
X185233032Y-53176435D01*
X185194362Y-53164704D01*
X185158723Y-53145654D01*
X185127483Y-53120017D01*
X185101846Y-53088777D01*
X185082796Y-53053138D01*
X185071065Y-53014468D01*
X185066500Y-52968112D01*
X185066500Y-51891888D01*
X185071065Y-51845532D01*
X185082796Y-51806862D01*
X185101846Y-51771223D01*
X185127483Y-51739983D01*
X185158723Y-51714346D01*
X185194362Y-51695296D01*
X185233032Y-51683565D01*
X185279388Y-51679000D01*
X185930612Y-51679000D01*
X185976968Y-51683565D01*
G37*
G36*
X187851968Y-51683565D02*
G01*
X187890638Y-51695296D01*
X187926277Y-51714346D01*
X187957517Y-51739983D01*
X187983154Y-51771223D01*
X188002204Y-51806862D01*
X188013935Y-51845532D01*
X188018500Y-51891888D01*
X188018500Y-52968112D01*
X188013935Y-53014468D01*
X188002204Y-53053138D01*
X187983154Y-53088777D01*
X187957517Y-53120017D01*
X187926277Y-53145654D01*
X187890638Y-53164704D01*
X187851968Y-53176435D01*
X187805612Y-53181000D01*
X187154388Y-53181000D01*
X187108032Y-53176435D01*
X187069362Y-53164704D01*
X187033723Y-53145654D01*
X187002483Y-53120017D01*
X186976846Y-53088777D01*
X186957796Y-53053138D01*
X186946065Y-53014468D01*
X186941500Y-52968112D01*
X186941500Y-51891888D01*
X186946065Y-51845532D01*
X186957796Y-51806862D01*
X186976846Y-51771223D01*
X187002483Y-51739983D01*
X187033723Y-51714346D01*
X187069362Y-51695296D01*
X187108032Y-51683565D01*
X187154388Y-51679000D01*
X187805612Y-51679000D01*
X187851968Y-51683565D01*
G37*
G36*
X201584468Y-50591065D02*
G01*
X201623138Y-50602796D01*
X201658777Y-50621846D01*
X201690017Y-50647483D01*
X201715654Y-50678723D01*
X201734704Y-50714362D01*
X201746435Y-50753032D01*
X201751000Y-50799388D01*
X201751000Y-51450612D01*
X201746435Y-51496968D01*
X201734704Y-51535638D01*
X201715654Y-51571277D01*
X201690017Y-51602517D01*
X201658777Y-51628154D01*
X201623138Y-51647204D01*
X201584468Y-51658935D01*
X201538112Y-51663500D01*
X200461888Y-51663500D01*
X200415532Y-51658935D01*
X200376862Y-51647204D01*
X200341223Y-51628154D01*
X200309983Y-51602517D01*
X200284346Y-51571277D01*
X200265296Y-51535638D01*
X200253565Y-51496968D01*
X200249000Y-51450612D01*
X200249000Y-50799388D01*
X200253565Y-50753032D01*
X200265296Y-50714362D01*
X200284346Y-50678723D01*
X200309983Y-50647483D01*
X200341223Y-50621846D01*
X200376862Y-50602796D01*
X200415532Y-50591065D01*
X200461888Y-50586500D01*
X201538112Y-50586500D01*
X201584468Y-50591065D01*
G37*
G36*
X204584468Y-50528565D02*
G01*
X204623138Y-50540296D01*
X204658777Y-50559346D01*
X204690017Y-50584983D01*
X204715654Y-50616223D01*
X204734704Y-50651862D01*
X204746435Y-50690532D01*
X204751000Y-50736888D01*
X204751000Y-51388112D01*
X204746435Y-51434468D01*
X204734704Y-51473138D01*
X204715654Y-51508777D01*
X204690017Y-51540017D01*
X204658777Y-51565654D01*
X204623138Y-51584704D01*
X204584468Y-51596435D01*
X204538112Y-51601000D01*
X203461888Y-51601000D01*
X203415532Y-51596435D01*
X203376862Y-51584704D01*
X203341223Y-51565654D01*
X203309983Y-51540017D01*
X203284346Y-51508777D01*
X203265296Y-51473138D01*
X203253565Y-51434468D01*
X203249000Y-51388112D01*
X203249000Y-50736888D01*
X203253565Y-50690532D01*
X203265296Y-50651862D01*
X203284346Y-50616223D01*
X203309983Y-50584983D01*
X203341223Y-50559346D01*
X203376862Y-50540296D01*
X203415532Y-50528565D01*
X203461888Y-50524000D01*
X204538112Y-50524000D01*
X204584468Y-50528565D01*
G37*
G36*
X186333974Y-46452434D02*
G01*
X186551974Y-46542733D01*
X186706123Y-46606583D01*
X187041048Y-46830373D01*
X187325877Y-47115202D01*
X187549667Y-47450127D01*
X187582062Y-47528336D01*
X187703816Y-47822276D01*
X187782400Y-48217344D01*
X187782400Y-48620156D01*
X187703816Y-49015224D01*
X187652951Y-49138022D01*
X187549667Y-49387373D01*
X187325877Y-49722298D01*
X187041048Y-50007127D01*
X186706123Y-50230917D01*
X186551974Y-50294767D01*
X186333974Y-50385066D01*
X185938906Y-50463650D01*
X185536094Y-50463650D01*
X185141026Y-50385066D01*
X184923026Y-50294767D01*
X184768877Y-50230917D01*
X184433952Y-50007127D01*
X184149123Y-49722298D01*
X183925333Y-49387373D01*
X183822049Y-49138022D01*
X183771184Y-49015224D01*
X183692600Y-48620156D01*
X183692600Y-48217344D01*
X183771184Y-47822276D01*
X183892938Y-47528336D01*
X183925333Y-47450127D01*
X184149123Y-47115202D01*
X184433952Y-46830373D01*
X184768877Y-46606583D01*
X184923026Y-46542733D01*
X185141026Y-46452434D01*
X185536094Y-46373850D01*
X185938906Y-46373850D01*
X186333974Y-46452434D01*
G37*
G36*
X180927604Y-47528335D02*
G01*
X181096126Y-47598139D01*
X181247791Y-47699478D01*
X181376772Y-47828459D01*
X181478111Y-47980124D01*
X181547915Y-48148646D01*
X181583500Y-48327547D01*
X181583500Y-48509953D01*
X181547915Y-48688854D01*
X181478111Y-48857376D01*
X181376772Y-49009041D01*
X181247791Y-49138022D01*
X181096126Y-49239361D01*
X180927604Y-49309165D01*
X180748703Y-49344750D01*
X180566297Y-49344750D01*
X180387396Y-49309165D01*
X180218874Y-49239361D01*
X180067209Y-49138022D01*
X179938228Y-49009041D01*
X179836889Y-48857376D01*
X179767085Y-48688854D01*
X179731500Y-48509953D01*
X179731500Y-48327547D01*
X179767085Y-48148646D01*
X179836889Y-47980124D01*
X179938228Y-47828459D01*
X180067209Y-47699478D01*
X180218874Y-47598139D01*
X180387396Y-47528335D01*
X180566297Y-47492750D01*
X180748703Y-47492750D01*
X180927604Y-47528335D01*
G37*
G36*
X191087604Y-47528335D02*
G01*
X191256126Y-47598139D01*
X191407791Y-47699478D01*
X191536772Y-47828459D01*
X191638111Y-47980124D01*
X191707915Y-48148646D01*
X191743500Y-48327547D01*
X191743500Y-48509953D01*
X191707915Y-48688854D01*
X191638111Y-48857376D01*
X191536772Y-49009041D01*
X191407791Y-49138022D01*
X191256126Y-49239361D01*
X191087604Y-49309165D01*
X190908703Y-49344750D01*
X190726297Y-49344750D01*
X190547396Y-49309165D01*
X190378874Y-49239361D01*
X190227209Y-49138022D01*
X190098228Y-49009041D01*
X189996889Y-48857376D01*
X189927085Y-48688854D01*
X189891500Y-48509953D01*
X189891500Y-48327547D01*
X189927085Y-48148646D01*
X189996889Y-47980124D01*
X190098228Y-47828459D01*
X190227209Y-47699478D01*
X190378874Y-47598139D01*
X190547396Y-47528335D01*
X190726297Y-47492750D01*
X190908703Y-47492750D01*
X191087604Y-47528335D01*
G37*
G36*
X182230085Y-44357552D02*
G01*
X182379910Y-44387354D01*
X182662174Y-44504271D01*
X182916205Y-44674009D01*
X183132241Y-44890045D01*
X183301979Y-45144076D01*
X183418896Y-45426340D01*
X183418896Y-45426341D01*
X183475939Y-45713112D01*
X183478500Y-45725990D01*
X183478500Y-46031510D01*
X183418896Y-46331160D01*
X183301979Y-46613424D01*
X183132241Y-46867455D01*
X182916205Y-47083491D01*
X182662174Y-47253229D01*
X182379910Y-47370146D01*
X182230085Y-47399948D01*
X182080261Y-47429750D01*
X181774739Y-47429750D01*
X181624915Y-47399948D01*
X181475090Y-47370146D01*
X181192826Y-47253229D01*
X180938795Y-47083491D01*
X180722759Y-46867455D01*
X180553021Y-46613424D01*
X180436104Y-46331160D01*
X180376500Y-46031510D01*
X180376500Y-45725990D01*
X180379062Y-45713112D01*
X180436104Y-45426341D01*
X180436104Y-45426340D01*
X180553021Y-45144076D01*
X180722759Y-44890045D01*
X180938795Y-44674009D01*
X181192826Y-44504271D01*
X181475090Y-44387354D01*
X181624915Y-44357552D01*
X181774739Y-44327750D01*
X182080261Y-44327750D01*
X182230085Y-44357552D01*
G37*
G36*
X194259468Y-44853565D02*
G01*
X194298138Y-44865296D01*
X194333777Y-44884346D01*
X194365017Y-44909983D01*
X194390654Y-44941223D01*
X194409704Y-44976862D01*
X194421435Y-45015532D01*
X194426000Y-45061888D01*
X194426000Y-45713112D01*
X194421435Y-45759468D01*
X194409704Y-45798138D01*
X194390654Y-45833777D01*
X194365017Y-45865017D01*
X194333777Y-45890654D01*
X194298138Y-45909704D01*
X194259468Y-45921435D01*
X194213112Y-45926000D01*
X193136888Y-45926000D01*
X193090532Y-45921435D01*
X193051862Y-45909704D01*
X193016223Y-45890654D01*
X192984983Y-45865017D01*
X192959346Y-45833777D01*
X192940296Y-45798138D01*
X192928565Y-45759468D01*
X192924000Y-45713112D01*
X192924000Y-45061888D01*
X192928565Y-45015532D01*
X192940296Y-44976862D01*
X192959346Y-44941223D01*
X192984983Y-44909983D01*
X193016223Y-44884346D01*
X193051862Y-44865296D01*
X193090532Y-44853565D01*
X193136888Y-44849000D01*
X194213112Y-44849000D01*
X194259468Y-44853565D01*
G37*
G36*
X188580085Y-41817552D02*
G01*
X188729910Y-41847354D01*
X189012174Y-41964271D01*
X189266205Y-42134009D01*
X189482241Y-42350045D01*
X189651979Y-42604076D01*
X189768896Y-42886340D01*
X189828500Y-43185990D01*
X189828500Y-43491510D01*
X189768896Y-43791160D01*
X189651979Y-44073424D01*
X189482241Y-44327455D01*
X189266205Y-44543491D01*
X189012174Y-44713229D01*
X188729910Y-44830146D01*
X188609113Y-44854174D01*
X188430261Y-44889750D01*
X188124739Y-44889750D01*
X187945887Y-44854174D01*
X187825090Y-44830146D01*
X187542826Y-44713229D01*
X187288795Y-44543491D01*
X187072759Y-44327455D01*
X186903021Y-44073424D01*
X186786104Y-43791160D01*
X186726500Y-43491510D01*
X186726500Y-43185990D01*
X186786104Y-42886340D01*
X186903021Y-42604076D01*
X187072759Y-42350045D01*
X187288795Y-42134009D01*
X187542826Y-41964271D01*
X187825090Y-41847354D01*
X187974915Y-41817552D01*
X188124739Y-41787750D01*
X188430261Y-41787750D01*
X188580085Y-41817552D01*
G37*
G36*
X194259468Y-42978565D02*
G01*
X194298138Y-42990296D01*
X194333777Y-43009346D01*
X194365017Y-43034983D01*
X194390654Y-43066223D01*
X194409704Y-43101862D01*
X194421435Y-43140532D01*
X194426000Y-43186888D01*
X194426000Y-43838112D01*
X194421435Y-43884468D01*
X194409704Y-43923138D01*
X194390654Y-43958777D01*
X194365017Y-43990017D01*
X194333777Y-44015654D01*
X194298138Y-44034704D01*
X194259468Y-44046435D01*
X194213112Y-44051000D01*
X193136888Y-44051000D01*
X193090532Y-44046435D01*
X193051862Y-44034704D01*
X193016223Y-44015654D01*
X192984983Y-43990017D01*
X192959346Y-43958777D01*
X192940296Y-43923138D01*
X192928565Y-43884468D01*
X192924000Y-43838112D01*
X192924000Y-43186888D01*
X192928565Y-43140532D01*
X192940296Y-43101862D01*
X192959346Y-43066223D01*
X192984983Y-43034983D01*
X193016223Y-43009346D01*
X193051862Y-42990296D01*
X193090532Y-42978565D01*
X193136888Y-42974000D01*
X194213112Y-42974000D01*
X194259468Y-42978565D01*
G37*
G36*
X183604468Y-37461065D02*
G01*
X183643138Y-37472796D01*
X183678777Y-37491846D01*
X183710017Y-37517483D01*
X183735654Y-37548723D01*
X183754704Y-37584362D01*
X183766435Y-37623032D01*
X183771000Y-37669388D01*
X183771000Y-38320612D01*
X183766435Y-38366968D01*
X183754704Y-38405638D01*
X183735654Y-38441277D01*
X183710017Y-38472517D01*
X183678777Y-38498154D01*
X183643138Y-38517204D01*
X183604468Y-38528935D01*
X183558112Y-38533500D01*
X182481888Y-38533500D01*
X182435532Y-38528935D01*
X182396862Y-38517204D01*
X182361223Y-38498154D01*
X182329983Y-38472517D01*
X182304346Y-38441277D01*
X182285296Y-38405638D01*
X182273565Y-38366968D01*
X182269000Y-38320612D01*
X182269000Y-37669388D01*
X182273565Y-37623032D01*
X182285296Y-37584362D01*
X182304346Y-37548723D01*
X182329983Y-37517483D01*
X182361223Y-37491846D01*
X182396862Y-37472796D01*
X182435532Y-37461065D01*
X182481888Y-37456500D01*
X183558112Y-37456500D01*
X183604468Y-37461065D01*
G37*
G36*
X186174468Y-37431065D02*
G01*
X186213138Y-37442796D01*
X186248777Y-37461846D01*
X186280017Y-37487483D01*
X186305654Y-37518723D01*
X186324704Y-37554362D01*
X186336435Y-37593032D01*
X186341000Y-37639388D01*
X186341000Y-38290612D01*
X186336435Y-38336968D01*
X186324704Y-38375638D01*
X186305654Y-38411277D01*
X186280017Y-38442517D01*
X186248777Y-38468154D01*
X186213138Y-38487204D01*
X186174468Y-38498935D01*
X186128112Y-38503500D01*
X185051888Y-38503500D01*
X185005532Y-38498935D01*
X184966862Y-38487204D01*
X184931223Y-38468154D01*
X184899983Y-38442517D01*
X184874346Y-38411277D01*
X184855296Y-38375638D01*
X184843565Y-38336968D01*
X184839000Y-38290612D01*
X184839000Y-37639388D01*
X184843565Y-37593032D01*
X184855296Y-37554362D01*
X184874346Y-37518723D01*
X184899983Y-37487483D01*
X184931223Y-37461846D01*
X184966862Y-37442796D01*
X185005532Y-37431065D01*
X185051888Y-37426500D01*
X186128112Y-37426500D01*
X186174468Y-37431065D01*
G37*
G36*
X193751000Y-38271000D02*
G01*
X192249000Y-38271000D01*
X192249000Y-37169000D01*
X193751000Y-37169000D01*
X193751000Y-38271000D01*
G37*
G36*
X195951000Y-38271000D02*
G01*
X194449000Y-38271000D01*
X194449000Y-37169000D01*
X195951000Y-37169000D01*
X195951000Y-38271000D01*
G37*
G36*
X178268604Y-36128347D02*
G01*
X178305144Y-36139432D01*
X178338821Y-36157433D01*
X178368341Y-36181659D01*
X178392567Y-36211179D01*
X178410568Y-36244856D01*
X178421653Y-36281396D01*
X178426000Y-36325538D01*
X178426000Y-37274462D01*
X178421653Y-37318604D01*
X178410568Y-37355144D01*
X178392567Y-37388821D01*
X178368341Y-37418341D01*
X178338821Y-37442567D01*
X178305144Y-37460568D01*
X178268604Y-37471653D01*
X178224462Y-37476000D01*
X176775538Y-37476000D01*
X176731396Y-37471653D01*
X176694856Y-37460568D01*
X176661179Y-37442567D01*
X176631659Y-37418341D01*
X176607433Y-37388821D01*
X176589432Y-37355144D01*
X176578347Y-37318604D01*
X176574000Y-37274462D01*
X176574000Y-36325538D01*
X176578347Y-36281396D01*
X176589432Y-36244856D01*
X176607433Y-36211179D01*
X176631659Y-36181659D01*
X176661179Y-36157433D01*
X176694856Y-36139432D01*
X176731396Y-36128347D01*
X176775538Y-36124000D01*
X178224462Y-36124000D01*
X178268604Y-36128347D01*
G37*
G36*
X183604468Y-35586065D02*
G01*
X183643138Y-35597796D01*
X183678777Y-35616846D01*
X183710017Y-35642483D01*
X183735654Y-35673723D01*
X183754704Y-35709362D01*
X183766435Y-35748032D01*
X183771000Y-35794388D01*
X183771000Y-36445612D01*
X183766435Y-36491968D01*
X183754704Y-36530638D01*
X183735654Y-36566277D01*
X183710017Y-36597517D01*
X183678777Y-36623154D01*
X183643138Y-36642204D01*
X183604468Y-36653935D01*
X183558112Y-36658500D01*
X182481888Y-36658500D01*
X182435532Y-36653935D01*
X182396862Y-36642204D01*
X182361223Y-36623154D01*
X182329983Y-36597517D01*
X182304346Y-36566277D01*
X182285296Y-36530638D01*
X182273565Y-36491968D01*
X182269000Y-36445612D01*
X182269000Y-35794388D01*
X182273565Y-35748032D01*
X182285296Y-35709362D01*
X182304346Y-35673723D01*
X182329983Y-35642483D01*
X182361223Y-35616846D01*
X182396862Y-35597796D01*
X182435532Y-35586065D01*
X182481888Y-35581500D01*
X183558112Y-35581500D01*
X183604468Y-35586065D01*
G37*
G36*
X193751000Y-36651000D02*
G01*
X192249000Y-36651000D01*
X192249000Y-35349000D01*
X193751000Y-35349000D01*
X193751000Y-36651000D01*
G37*
G36*
X186174468Y-35556065D02*
G01*
X186213138Y-35567796D01*
X186248777Y-35586846D01*
X186280017Y-35612483D01*
X186305654Y-35643723D01*
X186324704Y-35679362D01*
X186336435Y-35718032D01*
X186341000Y-35764388D01*
X186341000Y-36415612D01*
X186336435Y-36461968D01*
X186324704Y-36500638D01*
X186305654Y-36536277D01*
X186280017Y-36567517D01*
X186248777Y-36593154D01*
X186213138Y-36612204D01*
X186174468Y-36623935D01*
X186128112Y-36628500D01*
X185051888Y-36628500D01*
X185005532Y-36623935D01*
X184966862Y-36612204D01*
X184931223Y-36593154D01*
X184899983Y-36567517D01*
X184874346Y-36536277D01*
X184855296Y-36500638D01*
X184843565Y-36461968D01*
X184839000Y-36415612D01*
X184839000Y-35764388D01*
X184843565Y-35718032D01*
X184855296Y-35679362D01*
X184874346Y-35643723D01*
X184899983Y-35612483D01*
X184931223Y-35586846D01*
X184966862Y-35567796D01*
X185005532Y-35556065D01*
X185051888Y-35551500D01*
X186128112Y-35551500D01*
X186174468Y-35556065D01*
G37*
G36*
X195951000Y-36371000D02*
G01*
X194449000Y-36371000D01*
X194449000Y-35269000D01*
X195951000Y-35269000D01*
X195951000Y-36371000D01*
G37*
G36*
X178268604Y-33328347D02*
G01*
X178305144Y-33339432D01*
X178338821Y-33357433D01*
X178368341Y-33381659D01*
X178392567Y-33411179D01*
X178410568Y-33444856D01*
X178421653Y-33481396D01*
X178426000Y-33525538D01*
X178426000Y-34474462D01*
X178421653Y-34518604D01*
X178410568Y-34555144D01*
X178392567Y-34588821D01*
X178368341Y-34618341D01*
X178338821Y-34642567D01*
X178305144Y-34660568D01*
X178268604Y-34671653D01*
X178224462Y-34676000D01*
X176775538Y-34676000D01*
X176731396Y-34671653D01*
X176694856Y-34660568D01*
X176661179Y-34642567D01*
X176631659Y-34618341D01*
X176607433Y-34588821D01*
X176589432Y-34555144D01*
X176578347Y-34518604D01*
X176574000Y-34474462D01*
X176574000Y-33525538D01*
X176578347Y-33481396D01*
X176589432Y-33444856D01*
X176607433Y-33411179D01*
X176631659Y-33381659D01*
X176661179Y-33357433D01*
X176694856Y-33339432D01*
X176731396Y-33328347D01*
X176775538Y-33324000D01*
X178224462Y-33324000D01*
X178268604Y-33328347D01*
G37*
G36*
X189313500Y-34421000D02*
G01*
X182161500Y-34421000D01*
X182161500Y-32319000D01*
X189313500Y-32319000D01*
X189313500Y-34421000D01*
G37*
G36*
X182957172Y-31288449D02*
G01*
X182957174Y-31288450D01*
X182957175Y-31288450D01*
X183025603Y-31316793D01*
X183087186Y-31357942D01*
X183139558Y-31410314D01*
X183180707Y-31471897D01*
X183209050Y-31540325D01*
X183223500Y-31612967D01*
X183223500Y-31687033D01*
X183209050Y-31759675D01*
X183180707Y-31828103D01*
X183139558Y-31889686D01*
X183087186Y-31942058D01*
X183025603Y-31983207D01*
X182957175Y-32011550D01*
X182957174Y-32011550D01*
X182957172Y-32011551D01*
X182884534Y-32026000D01*
X182810466Y-32026000D01*
X182737828Y-32011551D01*
X182737826Y-32011550D01*
X182737825Y-32011550D01*
X182669397Y-31983207D01*
X182607814Y-31942058D01*
X182555442Y-31889686D01*
X182514293Y-31828103D01*
X182485950Y-31759675D01*
X182471500Y-31687033D01*
X182471500Y-31612967D01*
X182485950Y-31540325D01*
X182514293Y-31471897D01*
X182555442Y-31410314D01*
X182607814Y-31357942D01*
X182669397Y-31316793D01*
X182737825Y-31288450D01*
X182737826Y-31288450D01*
X182737828Y-31288449D01*
X182810466Y-31274000D01*
X182884534Y-31274000D01*
X182957172Y-31288449D01*
G37*
G36*
X188737172Y-31288449D02*
G01*
X188737174Y-31288450D01*
X188737175Y-31288450D01*
X188805603Y-31316793D01*
X188867186Y-31357942D01*
X188919558Y-31410314D01*
X188960707Y-31471897D01*
X188989050Y-31540325D01*
X189003500Y-31612967D01*
X189003500Y-31687033D01*
X188989050Y-31759675D01*
X188960707Y-31828103D01*
X188919558Y-31889686D01*
X188867186Y-31942058D01*
X188805603Y-31983207D01*
X188737175Y-32011550D01*
X188737174Y-32011550D01*
X188737172Y-32011551D01*
X188664534Y-32026000D01*
X188590466Y-32026000D01*
X188517828Y-32011551D01*
X188517826Y-32011550D01*
X188517825Y-32011550D01*
X188449397Y-31983207D01*
X188387814Y-31942058D01*
X188335442Y-31889686D01*
X188294293Y-31828103D01*
X188265950Y-31759675D01*
X188251500Y-31687033D01*
X188251500Y-31612967D01*
X188265950Y-31540325D01*
X188294293Y-31471897D01*
X188335442Y-31410314D01*
X188387814Y-31357942D01*
X188449397Y-31316793D01*
X188517825Y-31288450D01*
X188517826Y-31288450D01*
X188517828Y-31288449D01*
X188590466Y-31274000D01*
X188664534Y-31274000D01*
X188737172Y-31288449D01*
G37*
M02*
