G04 #@! TF.GenerationSoftware,KiCad,Pcbnew,(5.1.5)-3*
G04 #@! TF.CreationDate,2020-03-25T17:20:55+01:00*
G04 #@! TF.ProjectId,4Keys,344b6579-732e-46b6-9963-61645f706362,rev?*
G04 #@! TF.SameCoordinates,Original*
G04 #@! TF.FileFunction,Paste,Top*
G04 #@! TF.FilePolarity,Positive*
%FSLAX46Y46*%
G04 Gerber Fmt 4.6, Leading zero omitted, Abs format (unit mm)*
G04 Created by KiCad (PCBNEW (5.1.5)-3) date 2020-03-25 17:20:55*
%MOMM*%
%LPD*%
G04 APERTURE LIST*
%ADD10R,0.600000X2.000000*%
%ADD11R,0.300000X2.000000*%
%ADD12C,0.100000*%
%ADD13R,1.400000X1.000000*%
%ADD14R,1.400000X1.200000*%
G04 APERTURE END LIST*
D10*
X182512500Y-33370000D03*
X188962500Y-33370000D03*
X183287500Y-33370000D03*
X188187500Y-33370000D03*
D11*
X187487500Y-33370000D03*
X183987500Y-33370000D03*
X186987500Y-33370000D03*
X184487500Y-33370000D03*
X186487500Y-33370000D03*
X184987500Y-33370000D03*
X185487500Y-33370000D03*
X185987500Y-33370000D03*
D12*
G36*
X183500142Y-37508674D02*
G01*
X183523803Y-37512184D01*
X183547007Y-37517996D01*
X183569529Y-37526054D01*
X183591153Y-37536282D01*
X183611670Y-37548579D01*
X183630883Y-37562829D01*
X183648607Y-37578893D01*
X183664671Y-37596617D01*
X183678921Y-37615830D01*
X183691218Y-37636347D01*
X183701446Y-37657971D01*
X183709504Y-37680493D01*
X183715316Y-37703697D01*
X183718826Y-37727358D01*
X183720000Y-37751250D01*
X183720000Y-38238750D01*
X183718826Y-38262642D01*
X183715316Y-38286303D01*
X183709504Y-38309507D01*
X183701446Y-38332029D01*
X183691218Y-38353653D01*
X183678921Y-38374170D01*
X183664671Y-38393383D01*
X183648607Y-38411107D01*
X183630883Y-38427171D01*
X183611670Y-38441421D01*
X183591153Y-38453718D01*
X183569529Y-38463946D01*
X183547007Y-38472004D01*
X183523803Y-38477816D01*
X183500142Y-38481326D01*
X183476250Y-38482500D01*
X182563750Y-38482500D01*
X182539858Y-38481326D01*
X182516197Y-38477816D01*
X182492993Y-38472004D01*
X182470471Y-38463946D01*
X182448847Y-38453718D01*
X182428330Y-38441421D01*
X182409117Y-38427171D01*
X182391393Y-38411107D01*
X182375329Y-38393383D01*
X182361079Y-38374170D01*
X182348782Y-38353653D01*
X182338554Y-38332029D01*
X182330496Y-38309507D01*
X182324684Y-38286303D01*
X182321174Y-38262642D01*
X182320000Y-38238750D01*
X182320000Y-37751250D01*
X182321174Y-37727358D01*
X182324684Y-37703697D01*
X182330496Y-37680493D01*
X182338554Y-37657971D01*
X182348782Y-37636347D01*
X182361079Y-37615830D01*
X182375329Y-37596617D01*
X182391393Y-37578893D01*
X182409117Y-37562829D01*
X182428330Y-37548579D01*
X182448847Y-37536282D01*
X182470471Y-37526054D01*
X182492993Y-37517996D01*
X182516197Y-37512184D01*
X182539858Y-37508674D01*
X182563750Y-37507500D01*
X183476250Y-37507500D01*
X183500142Y-37508674D01*
G37*
G36*
X183500142Y-35633674D02*
G01*
X183523803Y-35637184D01*
X183547007Y-35642996D01*
X183569529Y-35651054D01*
X183591153Y-35661282D01*
X183611670Y-35673579D01*
X183630883Y-35687829D01*
X183648607Y-35703893D01*
X183664671Y-35721617D01*
X183678921Y-35740830D01*
X183691218Y-35761347D01*
X183701446Y-35782971D01*
X183709504Y-35805493D01*
X183715316Y-35828697D01*
X183718826Y-35852358D01*
X183720000Y-35876250D01*
X183720000Y-36363750D01*
X183718826Y-36387642D01*
X183715316Y-36411303D01*
X183709504Y-36434507D01*
X183701446Y-36457029D01*
X183691218Y-36478653D01*
X183678921Y-36499170D01*
X183664671Y-36518383D01*
X183648607Y-36536107D01*
X183630883Y-36552171D01*
X183611670Y-36566421D01*
X183591153Y-36578718D01*
X183569529Y-36588946D01*
X183547007Y-36597004D01*
X183523803Y-36602816D01*
X183500142Y-36606326D01*
X183476250Y-36607500D01*
X182563750Y-36607500D01*
X182539858Y-36606326D01*
X182516197Y-36602816D01*
X182492993Y-36597004D01*
X182470471Y-36588946D01*
X182448847Y-36578718D01*
X182428330Y-36566421D01*
X182409117Y-36552171D01*
X182391393Y-36536107D01*
X182375329Y-36518383D01*
X182361079Y-36499170D01*
X182348782Y-36478653D01*
X182338554Y-36457029D01*
X182330496Y-36434507D01*
X182324684Y-36411303D01*
X182321174Y-36387642D01*
X182320000Y-36363750D01*
X182320000Y-35876250D01*
X182321174Y-35852358D01*
X182324684Y-35828697D01*
X182330496Y-35805493D01*
X182338554Y-35782971D01*
X182348782Y-35761347D01*
X182361079Y-35740830D01*
X182375329Y-35721617D01*
X182391393Y-35703893D01*
X182409117Y-35687829D01*
X182428330Y-35673579D01*
X182448847Y-35661282D01*
X182470471Y-35651054D01*
X182492993Y-35642996D01*
X182516197Y-35637184D01*
X182539858Y-35633674D01*
X182563750Y-35632500D01*
X183476250Y-35632500D01*
X183500142Y-35633674D01*
G37*
G36*
X186070142Y-35603674D02*
G01*
X186093803Y-35607184D01*
X186117007Y-35612996D01*
X186139529Y-35621054D01*
X186161153Y-35631282D01*
X186181670Y-35643579D01*
X186200883Y-35657829D01*
X186218607Y-35673893D01*
X186234671Y-35691617D01*
X186248921Y-35710830D01*
X186261218Y-35731347D01*
X186271446Y-35752971D01*
X186279504Y-35775493D01*
X186285316Y-35798697D01*
X186288826Y-35822358D01*
X186290000Y-35846250D01*
X186290000Y-36333750D01*
X186288826Y-36357642D01*
X186285316Y-36381303D01*
X186279504Y-36404507D01*
X186271446Y-36427029D01*
X186261218Y-36448653D01*
X186248921Y-36469170D01*
X186234671Y-36488383D01*
X186218607Y-36506107D01*
X186200883Y-36522171D01*
X186181670Y-36536421D01*
X186161153Y-36548718D01*
X186139529Y-36558946D01*
X186117007Y-36567004D01*
X186093803Y-36572816D01*
X186070142Y-36576326D01*
X186046250Y-36577500D01*
X185133750Y-36577500D01*
X185109858Y-36576326D01*
X185086197Y-36572816D01*
X185062993Y-36567004D01*
X185040471Y-36558946D01*
X185018847Y-36548718D01*
X184998330Y-36536421D01*
X184979117Y-36522171D01*
X184961393Y-36506107D01*
X184945329Y-36488383D01*
X184931079Y-36469170D01*
X184918782Y-36448653D01*
X184908554Y-36427029D01*
X184900496Y-36404507D01*
X184894684Y-36381303D01*
X184891174Y-36357642D01*
X184890000Y-36333750D01*
X184890000Y-35846250D01*
X184891174Y-35822358D01*
X184894684Y-35798697D01*
X184900496Y-35775493D01*
X184908554Y-35752971D01*
X184918782Y-35731347D01*
X184931079Y-35710830D01*
X184945329Y-35691617D01*
X184961393Y-35673893D01*
X184979117Y-35657829D01*
X184998330Y-35643579D01*
X185018847Y-35631282D01*
X185040471Y-35621054D01*
X185062993Y-35612996D01*
X185086197Y-35607184D01*
X185109858Y-35603674D01*
X185133750Y-35602500D01*
X186046250Y-35602500D01*
X186070142Y-35603674D01*
G37*
G36*
X186070142Y-37478674D02*
G01*
X186093803Y-37482184D01*
X186117007Y-37487996D01*
X186139529Y-37496054D01*
X186161153Y-37506282D01*
X186181670Y-37518579D01*
X186200883Y-37532829D01*
X186218607Y-37548893D01*
X186234671Y-37566617D01*
X186248921Y-37585830D01*
X186261218Y-37606347D01*
X186271446Y-37627971D01*
X186279504Y-37650493D01*
X186285316Y-37673697D01*
X186288826Y-37697358D01*
X186290000Y-37721250D01*
X186290000Y-38208750D01*
X186288826Y-38232642D01*
X186285316Y-38256303D01*
X186279504Y-38279507D01*
X186271446Y-38302029D01*
X186261218Y-38323653D01*
X186248921Y-38344170D01*
X186234671Y-38363383D01*
X186218607Y-38381107D01*
X186200883Y-38397171D01*
X186181670Y-38411421D01*
X186161153Y-38423718D01*
X186139529Y-38433946D01*
X186117007Y-38442004D01*
X186093803Y-38447816D01*
X186070142Y-38451326D01*
X186046250Y-38452500D01*
X185133750Y-38452500D01*
X185109858Y-38451326D01*
X185086197Y-38447816D01*
X185062993Y-38442004D01*
X185040471Y-38433946D01*
X185018847Y-38423718D01*
X184998330Y-38411421D01*
X184979117Y-38397171D01*
X184961393Y-38381107D01*
X184945329Y-38363383D01*
X184931079Y-38344170D01*
X184918782Y-38323653D01*
X184908554Y-38302029D01*
X184900496Y-38279507D01*
X184894684Y-38256303D01*
X184891174Y-38232642D01*
X184890000Y-38208750D01*
X184890000Y-37721250D01*
X184891174Y-37697358D01*
X184894684Y-37673697D01*
X184900496Y-37650493D01*
X184908554Y-37627971D01*
X184918782Y-37606347D01*
X184931079Y-37585830D01*
X184945329Y-37566617D01*
X184961393Y-37548893D01*
X184979117Y-37532829D01*
X184998330Y-37518579D01*
X185018847Y-37506282D01*
X185040471Y-37496054D01*
X185062993Y-37487996D01*
X185086197Y-37482184D01*
X185109858Y-37478674D01*
X185133750Y-37477500D01*
X186046250Y-37477500D01*
X186070142Y-37478674D01*
G37*
G36*
X201480142Y-50638674D02*
G01*
X201503803Y-50642184D01*
X201527007Y-50647996D01*
X201549529Y-50656054D01*
X201571153Y-50666282D01*
X201591670Y-50678579D01*
X201610883Y-50692829D01*
X201628607Y-50708893D01*
X201644671Y-50726617D01*
X201658921Y-50745830D01*
X201671218Y-50766347D01*
X201681446Y-50787971D01*
X201689504Y-50810493D01*
X201695316Y-50833697D01*
X201698826Y-50857358D01*
X201700000Y-50881250D01*
X201700000Y-51368750D01*
X201698826Y-51392642D01*
X201695316Y-51416303D01*
X201689504Y-51439507D01*
X201681446Y-51462029D01*
X201671218Y-51483653D01*
X201658921Y-51504170D01*
X201644671Y-51523383D01*
X201628607Y-51541107D01*
X201610883Y-51557171D01*
X201591670Y-51571421D01*
X201571153Y-51583718D01*
X201549529Y-51593946D01*
X201527007Y-51602004D01*
X201503803Y-51607816D01*
X201480142Y-51611326D01*
X201456250Y-51612500D01*
X200543750Y-51612500D01*
X200519858Y-51611326D01*
X200496197Y-51607816D01*
X200472993Y-51602004D01*
X200450471Y-51593946D01*
X200428847Y-51583718D01*
X200408330Y-51571421D01*
X200389117Y-51557171D01*
X200371393Y-51541107D01*
X200355329Y-51523383D01*
X200341079Y-51504170D01*
X200328782Y-51483653D01*
X200318554Y-51462029D01*
X200310496Y-51439507D01*
X200304684Y-51416303D01*
X200301174Y-51392642D01*
X200300000Y-51368750D01*
X200300000Y-50881250D01*
X200301174Y-50857358D01*
X200304684Y-50833697D01*
X200310496Y-50810493D01*
X200318554Y-50787971D01*
X200328782Y-50766347D01*
X200341079Y-50745830D01*
X200355329Y-50726617D01*
X200371393Y-50708893D01*
X200389117Y-50692829D01*
X200408330Y-50678579D01*
X200428847Y-50666282D01*
X200450471Y-50656054D01*
X200472993Y-50647996D01*
X200496197Y-50642184D01*
X200519858Y-50638674D01*
X200543750Y-50637500D01*
X201456250Y-50637500D01*
X201480142Y-50638674D01*
G37*
G36*
X201480142Y-52513674D02*
G01*
X201503803Y-52517184D01*
X201527007Y-52522996D01*
X201549529Y-52531054D01*
X201571153Y-52541282D01*
X201591670Y-52553579D01*
X201610883Y-52567829D01*
X201628607Y-52583893D01*
X201644671Y-52601617D01*
X201658921Y-52620830D01*
X201671218Y-52641347D01*
X201681446Y-52662971D01*
X201689504Y-52685493D01*
X201695316Y-52708697D01*
X201698826Y-52732358D01*
X201700000Y-52756250D01*
X201700000Y-53243750D01*
X201698826Y-53267642D01*
X201695316Y-53291303D01*
X201689504Y-53314507D01*
X201681446Y-53337029D01*
X201671218Y-53358653D01*
X201658921Y-53379170D01*
X201644671Y-53398383D01*
X201628607Y-53416107D01*
X201610883Y-53432171D01*
X201591670Y-53446421D01*
X201571153Y-53458718D01*
X201549529Y-53468946D01*
X201527007Y-53477004D01*
X201503803Y-53482816D01*
X201480142Y-53486326D01*
X201456250Y-53487500D01*
X200543750Y-53487500D01*
X200519858Y-53486326D01*
X200496197Y-53482816D01*
X200472993Y-53477004D01*
X200450471Y-53468946D01*
X200428847Y-53458718D01*
X200408330Y-53446421D01*
X200389117Y-53432171D01*
X200371393Y-53416107D01*
X200355329Y-53398383D01*
X200341079Y-53379170D01*
X200328782Y-53358653D01*
X200318554Y-53337029D01*
X200310496Y-53314507D01*
X200304684Y-53291303D01*
X200301174Y-53267642D01*
X200300000Y-53243750D01*
X200300000Y-52756250D01*
X200301174Y-52732358D01*
X200304684Y-52708697D01*
X200310496Y-52685493D01*
X200318554Y-52662971D01*
X200328782Y-52641347D01*
X200341079Y-52620830D01*
X200355329Y-52601617D01*
X200371393Y-52583893D01*
X200389117Y-52567829D01*
X200408330Y-52553579D01*
X200428847Y-52541282D01*
X200450471Y-52531054D01*
X200472993Y-52522996D01*
X200496197Y-52517184D01*
X200519858Y-52513674D01*
X200543750Y-52512500D01*
X201456250Y-52512500D01*
X201480142Y-52513674D01*
G37*
G36*
X204480142Y-50576174D02*
G01*
X204503803Y-50579684D01*
X204527007Y-50585496D01*
X204549529Y-50593554D01*
X204571153Y-50603782D01*
X204591670Y-50616079D01*
X204610883Y-50630329D01*
X204628607Y-50646393D01*
X204644671Y-50664117D01*
X204658921Y-50683330D01*
X204671218Y-50703847D01*
X204681446Y-50725471D01*
X204689504Y-50747993D01*
X204695316Y-50771197D01*
X204698826Y-50794858D01*
X204700000Y-50818750D01*
X204700000Y-51306250D01*
X204698826Y-51330142D01*
X204695316Y-51353803D01*
X204689504Y-51377007D01*
X204681446Y-51399529D01*
X204671218Y-51421153D01*
X204658921Y-51441670D01*
X204644671Y-51460883D01*
X204628607Y-51478607D01*
X204610883Y-51494671D01*
X204591670Y-51508921D01*
X204571153Y-51521218D01*
X204549529Y-51531446D01*
X204527007Y-51539504D01*
X204503803Y-51545316D01*
X204480142Y-51548826D01*
X204456250Y-51550000D01*
X203543750Y-51550000D01*
X203519858Y-51548826D01*
X203496197Y-51545316D01*
X203472993Y-51539504D01*
X203450471Y-51531446D01*
X203428847Y-51521218D01*
X203408330Y-51508921D01*
X203389117Y-51494671D01*
X203371393Y-51478607D01*
X203355329Y-51460883D01*
X203341079Y-51441670D01*
X203328782Y-51421153D01*
X203318554Y-51399529D01*
X203310496Y-51377007D01*
X203304684Y-51353803D01*
X203301174Y-51330142D01*
X203300000Y-51306250D01*
X203300000Y-50818750D01*
X203301174Y-50794858D01*
X203304684Y-50771197D01*
X203310496Y-50747993D01*
X203318554Y-50725471D01*
X203328782Y-50703847D01*
X203341079Y-50683330D01*
X203355329Y-50664117D01*
X203371393Y-50646393D01*
X203389117Y-50630329D01*
X203408330Y-50616079D01*
X203428847Y-50603782D01*
X203450471Y-50593554D01*
X203472993Y-50585496D01*
X203496197Y-50579684D01*
X203519858Y-50576174D01*
X203543750Y-50575000D01*
X204456250Y-50575000D01*
X204480142Y-50576174D01*
G37*
G36*
X204480142Y-52451174D02*
G01*
X204503803Y-52454684D01*
X204527007Y-52460496D01*
X204549529Y-52468554D01*
X204571153Y-52478782D01*
X204591670Y-52491079D01*
X204610883Y-52505329D01*
X204628607Y-52521393D01*
X204644671Y-52539117D01*
X204658921Y-52558330D01*
X204671218Y-52578847D01*
X204681446Y-52600471D01*
X204689504Y-52622993D01*
X204695316Y-52646197D01*
X204698826Y-52669858D01*
X204700000Y-52693750D01*
X204700000Y-53181250D01*
X204698826Y-53205142D01*
X204695316Y-53228803D01*
X204689504Y-53252007D01*
X204681446Y-53274529D01*
X204671218Y-53296153D01*
X204658921Y-53316670D01*
X204644671Y-53335883D01*
X204628607Y-53353607D01*
X204610883Y-53369671D01*
X204591670Y-53383921D01*
X204571153Y-53396218D01*
X204549529Y-53406446D01*
X204527007Y-53414504D01*
X204503803Y-53420316D01*
X204480142Y-53423826D01*
X204456250Y-53425000D01*
X203543750Y-53425000D01*
X203519858Y-53423826D01*
X203496197Y-53420316D01*
X203472993Y-53414504D01*
X203450471Y-53406446D01*
X203428847Y-53396218D01*
X203408330Y-53383921D01*
X203389117Y-53369671D01*
X203371393Y-53353607D01*
X203355329Y-53335883D01*
X203341079Y-53316670D01*
X203328782Y-53296153D01*
X203318554Y-53274529D01*
X203310496Y-53252007D01*
X203304684Y-53228803D01*
X203301174Y-53205142D01*
X203300000Y-53181250D01*
X203300000Y-52693750D01*
X203301174Y-52669858D01*
X203304684Y-52646197D01*
X203310496Y-52622993D01*
X203318554Y-52600471D01*
X203328782Y-52578847D01*
X203341079Y-52558330D01*
X203355329Y-52539117D01*
X203371393Y-52521393D01*
X203389117Y-52505329D01*
X203408330Y-52491079D01*
X203428847Y-52478782D01*
X203450471Y-52468554D01*
X203472993Y-52460496D01*
X203496197Y-52454684D01*
X203519858Y-52451174D01*
X203543750Y-52450000D01*
X204456250Y-52450000D01*
X204480142Y-52451174D01*
G37*
G36*
X178149504Y-33376204D02*
G01*
X178173773Y-33379804D01*
X178197571Y-33385765D01*
X178220671Y-33394030D01*
X178242849Y-33404520D01*
X178263893Y-33417133D01*
X178283598Y-33431747D01*
X178301777Y-33448223D01*
X178318253Y-33466402D01*
X178332867Y-33486107D01*
X178345480Y-33507151D01*
X178355970Y-33529329D01*
X178364235Y-33552429D01*
X178370196Y-33576227D01*
X178373796Y-33600496D01*
X178375000Y-33625000D01*
X178375000Y-34375000D01*
X178373796Y-34399504D01*
X178370196Y-34423773D01*
X178364235Y-34447571D01*
X178355970Y-34470671D01*
X178345480Y-34492849D01*
X178332867Y-34513893D01*
X178318253Y-34533598D01*
X178301777Y-34551777D01*
X178283598Y-34568253D01*
X178263893Y-34582867D01*
X178242849Y-34595480D01*
X178220671Y-34605970D01*
X178197571Y-34614235D01*
X178173773Y-34620196D01*
X178149504Y-34623796D01*
X178125000Y-34625000D01*
X176875000Y-34625000D01*
X176850496Y-34623796D01*
X176826227Y-34620196D01*
X176802429Y-34614235D01*
X176779329Y-34605970D01*
X176757151Y-34595480D01*
X176736107Y-34582867D01*
X176716402Y-34568253D01*
X176698223Y-34551777D01*
X176681747Y-34533598D01*
X176667133Y-34513893D01*
X176654520Y-34492849D01*
X176644030Y-34470671D01*
X176635765Y-34447571D01*
X176629804Y-34423773D01*
X176626204Y-34399504D01*
X176625000Y-34375000D01*
X176625000Y-33625000D01*
X176626204Y-33600496D01*
X176629804Y-33576227D01*
X176635765Y-33552429D01*
X176644030Y-33529329D01*
X176654520Y-33507151D01*
X176667133Y-33486107D01*
X176681747Y-33466402D01*
X176698223Y-33448223D01*
X176716402Y-33431747D01*
X176736107Y-33417133D01*
X176757151Y-33404520D01*
X176779329Y-33394030D01*
X176802429Y-33385765D01*
X176826227Y-33379804D01*
X176850496Y-33376204D01*
X176875000Y-33375000D01*
X178125000Y-33375000D01*
X178149504Y-33376204D01*
G37*
G36*
X178149504Y-36176204D02*
G01*
X178173773Y-36179804D01*
X178197571Y-36185765D01*
X178220671Y-36194030D01*
X178242849Y-36204520D01*
X178263893Y-36217133D01*
X178283598Y-36231747D01*
X178301777Y-36248223D01*
X178318253Y-36266402D01*
X178332867Y-36286107D01*
X178345480Y-36307151D01*
X178355970Y-36329329D01*
X178364235Y-36352429D01*
X178370196Y-36376227D01*
X178373796Y-36400496D01*
X178375000Y-36425000D01*
X178375000Y-37175000D01*
X178373796Y-37199504D01*
X178370196Y-37223773D01*
X178364235Y-37247571D01*
X178355970Y-37270671D01*
X178345480Y-37292849D01*
X178332867Y-37313893D01*
X178318253Y-37333598D01*
X178301777Y-37351777D01*
X178283598Y-37368253D01*
X178263893Y-37382867D01*
X178242849Y-37395480D01*
X178220671Y-37405970D01*
X178197571Y-37414235D01*
X178173773Y-37420196D01*
X178149504Y-37423796D01*
X178125000Y-37425000D01*
X176875000Y-37425000D01*
X176850496Y-37423796D01*
X176826227Y-37420196D01*
X176802429Y-37414235D01*
X176779329Y-37405970D01*
X176757151Y-37395480D01*
X176736107Y-37382867D01*
X176716402Y-37368253D01*
X176698223Y-37351777D01*
X176681747Y-37333598D01*
X176667133Y-37313893D01*
X176654520Y-37292849D01*
X176644030Y-37270671D01*
X176635765Y-37247571D01*
X176629804Y-37223773D01*
X176626204Y-37199504D01*
X176625000Y-37175000D01*
X176625000Y-36425000D01*
X176626204Y-36400496D01*
X176629804Y-36376227D01*
X176635765Y-36352429D01*
X176644030Y-36329329D01*
X176654520Y-36307151D01*
X176667133Y-36286107D01*
X176681747Y-36266402D01*
X176698223Y-36248223D01*
X176716402Y-36231747D01*
X176736107Y-36217133D01*
X176757151Y-36204520D01*
X176779329Y-36194030D01*
X176802429Y-36185765D01*
X176826227Y-36179804D01*
X176850496Y-36176204D01*
X176875000Y-36175000D01*
X178125000Y-36175000D01*
X178149504Y-36176204D01*
G37*
G36*
X213205142Y-62076174D02*
G01*
X213228803Y-62079684D01*
X213252007Y-62085496D01*
X213274529Y-62093554D01*
X213296153Y-62103782D01*
X213316670Y-62116079D01*
X213335883Y-62130329D01*
X213353607Y-62146393D01*
X213369671Y-62164117D01*
X213383921Y-62183330D01*
X213396218Y-62203847D01*
X213406446Y-62225471D01*
X213414504Y-62247993D01*
X213420316Y-62271197D01*
X213423826Y-62294858D01*
X213425000Y-62318750D01*
X213425000Y-62806250D01*
X213423826Y-62830142D01*
X213420316Y-62853803D01*
X213414504Y-62877007D01*
X213406446Y-62899529D01*
X213396218Y-62921153D01*
X213383921Y-62941670D01*
X213369671Y-62960883D01*
X213353607Y-62978607D01*
X213335883Y-62994671D01*
X213316670Y-63008921D01*
X213296153Y-63021218D01*
X213274529Y-63031446D01*
X213252007Y-63039504D01*
X213228803Y-63045316D01*
X213205142Y-63048826D01*
X213181250Y-63050000D01*
X212268750Y-63050000D01*
X212244858Y-63048826D01*
X212221197Y-63045316D01*
X212197993Y-63039504D01*
X212175471Y-63031446D01*
X212153847Y-63021218D01*
X212133330Y-63008921D01*
X212114117Y-62994671D01*
X212096393Y-62978607D01*
X212080329Y-62960883D01*
X212066079Y-62941670D01*
X212053782Y-62921153D01*
X212043554Y-62899529D01*
X212035496Y-62877007D01*
X212029684Y-62853803D01*
X212026174Y-62830142D01*
X212025000Y-62806250D01*
X212025000Y-62318750D01*
X212026174Y-62294858D01*
X212029684Y-62271197D01*
X212035496Y-62247993D01*
X212043554Y-62225471D01*
X212053782Y-62203847D01*
X212066079Y-62183330D01*
X212080329Y-62164117D01*
X212096393Y-62146393D01*
X212114117Y-62130329D01*
X212133330Y-62116079D01*
X212153847Y-62103782D01*
X212175471Y-62093554D01*
X212197993Y-62085496D01*
X212221197Y-62079684D01*
X212244858Y-62076174D01*
X212268750Y-62075000D01*
X213181250Y-62075000D01*
X213205142Y-62076174D01*
G37*
G36*
X213205142Y-63951174D02*
G01*
X213228803Y-63954684D01*
X213252007Y-63960496D01*
X213274529Y-63968554D01*
X213296153Y-63978782D01*
X213316670Y-63991079D01*
X213335883Y-64005329D01*
X213353607Y-64021393D01*
X213369671Y-64039117D01*
X213383921Y-64058330D01*
X213396218Y-64078847D01*
X213406446Y-64100471D01*
X213414504Y-64122993D01*
X213420316Y-64146197D01*
X213423826Y-64169858D01*
X213425000Y-64193750D01*
X213425000Y-64681250D01*
X213423826Y-64705142D01*
X213420316Y-64728803D01*
X213414504Y-64752007D01*
X213406446Y-64774529D01*
X213396218Y-64796153D01*
X213383921Y-64816670D01*
X213369671Y-64835883D01*
X213353607Y-64853607D01*
X213335883Y-64869671D01*
X213316670Y-64883921D01*
X213296153Y-64896218D01*
X213274529Y-64906446D01*
X213252007Y-64914504D01*
X213228803Y-64920316D01*
X213205142Y-64923826D01*
X213181250Y-64925000D01*
X212268750Y-64925000D01*
X212244858Y-64923826D01*
X212221197Y-64920316D01*
X212197993Y-64914504D01*
X212175471Y-64906446D01*
X212153847Y-64896218D01*
X212133330Y-64883921D01*
X212114117Y-64869671D01*
X212096393Y-64853607D01*
X212080329Y-64835883D01*
X212066079Y-64816670D01*
X212053782Y-64796153D01*
X212043554Y-64774529D01*
X212035496Y-64752007D01*
X212029684Y-64728803D01*
X212026174Y-64705142D01*
X212025000Y-64681250D01*
X212025000Y-64193750D01*
X212026174Y-64169858D01*
X212029684Y-64146197D01*
X212035496Y-64122993D01*
X212043554Y-64100471D01*
X212053782Y-64078847D01*
X212066079Y-64058330D01*
X212080329Y-64039117D01*
X212096393Y-64021393D01*
X212114117Y-64005329D01*
X212133330Y-63991079D01*
X212153847Y-63978782D01*
X212175471Y-63968554D01*
X212197993Y-63960496D01*
X212221197Y-63954684D01*
X212244858Y-63951174D01*
X212268750Y-63950000D01*
X213181250Y-63950000D01*
X213205142Y-63951174D01*
G37*
G36*
X175105142Y-62076174D02*
G01*
X175128803Y-62079684D01*
X175152007Y-62085496D01*
X175174529Y-62093554D01*
X175196153Y-62103782D01*
X175216670Y-62116079D01*
X175235883Y-62130329D01*
X175253607Y-62146393D01*
X175269671Y-62164117D01*
X175283921Y-62183330D01*
X175296218Y-62203847D01*
X175306446Y-62225471D01*
X175314504Y-62247993D01*
X175320316Y-62271197D01*
X175323826Y-62294858D01*
X175325000Y-62318750D01*
X175325000Y-62806250D01*
X175323826Y-62830142D01*
X175320316Y-62853803D01*
X175314504Y-62877007D01*
X175306446Y-62899529D01*
X175296218Y-62921153D01*
X175283921Y-62941670D01*
X175269671Y-62960883D01*
X175253607Y-62978607D01*
X175235883Y-62994671D01*
X175216670Y-63008921D01*
X175196153Y-63021218D01*
X175174529Y-63031446D01*
X175152007Y-63039504D01*
X175128803Y-63045316D01*
X175105142Y-63048826D01*
X175081250Y-63050000D01*
X174168750Y-63050000D01*
X174144858Y-63048826D01*
X174121197Y-63045316D01*
X174097993Y-63039504D01*
X174075471Y-63031446D01*
X174053847Y-63021218D01*
X174033330Y-63008921D01*
X174014117Y-62994671D01*
X173996393Y-62978607D01*
X173980329Y-62960883D01*
X173966079Y-62941670D01*
X173953782Y-62921153D01*
X173943554Y-62899529D01*
X173935496Y-62877007D01*
X173929684Y-62853803D01*
X173926174Y-62830142D01*
X173925000Y-62806250D01*
X173925000Y-62318750D01*
X173926174Y-62294858D01*
X173929684Y-62271197D01*
X173935496Y-62247993D01*
X173943554Y-62225471D01*
X173953782Y-62203847D01*
X173966079Y-62183330D01*
X173980329Y-62164117D01*
X173996393Y-62146393D01*
X174014117Y-62130329D01*
X174033330Y-62116079D01*
X174053847Y-62103782D01*
X174075471Y-62093554D01*
X174097993Y-62085496D01*
X174121197Y-62079684D01*
X174144858Y-62076174D01*
X174168750Y-62075000D01*
X175081250Y-62075000D01*
X175105142Y-62076174D01*
G37*
G36*
X175105142Y-63951174D02*
G01*
X175128803Y-63954684D01*
X175152007Y-63960496D01*
X175174529Y-63968554D01*
X175196153Y-63978782D01*
X175216670Y-63991079D01*
X175235883Y-64005329D01*
X175253607Y-64021393D01*
X175269671Y-64039117D01*
X175283921Y-64058330D01*
X175296218Y-64078847D01*
X175306446Y-64100471D01*
X175314504Y-64122993D01*
X175320316Y-64146197D01*
X175323826Y-64169858D01*
X175325000Y-64193750D01*
X175325000Y-64681250D01*
X175323826Y-64705142D01*
X175320316Y-64728803D01*
X175314504Y-64752007D01*
X175306446Y-64774529D01*
X175296218Y-64796153D01*
X175283921Y-64816670D01*
X175269671Y-64835883D01*
X175253607Y-64853607D01*
X175235883Y-64869671D01*
X175216670Y-64883921D01*
X175196153Y-64896218D01*
X175174529Y-64906446D01*
X175152007Y-64914504D01*
X175128803Y-64920316D01*
X175105142Y-64923826D01*
X175081250Y-64925000D01*
X174168750Y-64925000D01*
X174144858Y-64923826D01*
X174121197Y-64920316D01*
X174097993Y-64914504D01*
X174075471Y-64906446D01*
X174053847Y-64896218D01*
X174033330Y-64883921D01*
X174014117Y-64869671D01*
X173996393Y-64853607D01*
X173980329Y-64835883D01*
X173966079Y-64816670D01*
X173953782Y-64796153D01*
X173943554Y-64774529D01*
X173935496Y-64752007D01*
X173929684Y-64728803D01*
X173926174Y-64705142D01*
X173925000Y-64681250D01*
X173925000Y-64193750D01*
X173926174Y-64169858D01*
X173929684Y-64146197D01*
X173935496Y-64122993D01*
X173943554Y-64100471D01*
X173953782Y-64078847D01*
X173966079Y-64058330D01*
X173980329Y-64039117D01*
X173996393Y-64021393D01*
X174014117Y-64005329D01*
X174033330Y-63991079D01*
X174053847Y-63978782D01*
X174075471Y-63968554D01*
X174097993Y-63960496D01*
X174121197Y-63954684D01*
X174144858Y-63951174D01*
X174168750Y-63950000D01*
X175081250Y-63950000D01*
X175105142Y-63951174D01*
G37*
G36*
X194155142Y-62076174D02*
G01*
X194178803Y-62079684D01*
X194202007Y-62085496D01*
X194224529Y-62093554D01*
X194246153Y-62103782D01*
X194266670Y-62116079D01*
X194285883Y-62130329D01*
X194303607Y-62146393D01*
X194319671Y-62164117D01*
X194333921Y-62183330D01*
X194346218Y-62203847D01*
X194356446Y-62225471D01*
X194364504Y-62247993D01*
X194370316Y-62271197D01*
X194373826Y-62294858D01*
X194375000Y-62318750D01*
X194375000Y-62806250D01*
X194373826Y-62830142D01*
X194370316Y-62853803D01*
X194364504Y-62877007D01*
X194356446Y-62899529D01*
X194346218Y-62921153D01*
X194333921Y-62941670D01*
X194319671Y-62960883D01*
X194303607Y-62978607D01*
X194285883Y-62994671D01*
X194266670Y-63008921D01*
X194246153Y-63021218D01*
X194224529Y-63031446D01*
X194202007Y-63039504D01*
X194178803Y-63045316D01*
X194155142Y-63048826D01*
X194131250Y-63050000D01*
X193218750Y-63050000D01*
X193194858Y-63048826D01*
X193171197Y-63045316D01*
X193147993Y-63039504D01*
X193125471Y-63031446D01*
X193103847Y-63021218D01*
X193083330Y-63008921D01*
X193064117Y-62994671D01*
X193046393Y-62978607D01*
X193030329Y-62960883D01*
X193016079Y-62941670D01*
X193003782Y-62921153D01*
X192993554Y-62899529D01*
X192985496Y-62877007D01*
X192979684Y-62853803D01*
X192976174Y-62830142D01*
X192975000Y-62806250D01*
X192975000Y-62318750D01*
X192976174Y-62294858D01*
X192979684Y-62271197D01*
X192985496Y-62247993D01*
X192993554Y-62225471D01*
X193003782Y-62203847D01*
X193016079Y-62183330D01*
X193030329Y-62164117D01*
X193046393Y-62146393D01*
X193064117Y-62130329D01*
X193083330Y-62116079D01*
X193103847Y-62103782D01*
X193125471Y-62093554D01*
X193147993Y-62085496D01*
X193171197Y-62079684D01*
X193194858Y-62076174D01*
X193218750Y-62075000D01*
X194131250Y-62075000D01*
X194155142Y-62076174D01*
G37*
G36*
X194155142Y-63951174D02*
G01*
X194178803Y-63954684D01*
X194202007Y-63960496D01*
X194224529Y-63968554D01*
X194246153Y-63978782D01*
X194266670Y-63991079D01*
X194285883Y-64005329D01*
X194303607Y-64021393D01*
X194319671Y-64039117D01*
X194333921Y-64058330D01*
X194346218Y-64078847D01*
X194356446Y-64100471D01*
X194364504Y-64122993D01*
X194370316Y-64146197D01*
X194373826Y-64169858D01*
X194375000Y-64193750D01*
X194375000Y-64681250D01*
X194373826Y-64705142D01*
X194370316Y-64728803D01*
X194364504Y-64752007D01*
X194356446Y-64774529D01*
X194346218Y-64796153D01*
X194333921Y-64816670D01*
X194319671Y-64835883D01*
X194303607Y-64853607D01*
X194285883Y-64869671D01*
X194266670Y-64883921D01*
X194246153Y-64896218D01*
X194224529Y-64906446D01*
X194202007Y-64914504D01*
X194178803Y-64920316D01*
X194155142Y-64923826D01*
X194131250Y-64925000D01*
X193218750Y-64925000D01*
X193194858Y-64923826D01*
X193171197Y-64920316D01*
X193147993Y-64914504D01*
X193125471Y-64906446D01*
X193103847Y-64896218D01*
X193083330Y-64883921D01*
X193064117Y-64869671D01*
X193046393Y-64853607D01*
X193030329Y-64835883D01*
X193016079Y-64816670D01*
X193003782Y-64796153D01*
X192993554Y-64774529D01*
X192985496Y-64752007D01*
X192979684Y-64728803D01*
X192976174Y-64705142D01*
X192975000Y-64681250D01*
X192975000Y-64193750D01*
X192976174Y-64169858D01*
X192979684Y-64146197D01*
X192985496Y-64122993D01*
X192993554Y-64100471D01*
X193003782Y-64078847D01*
X193016079Y-64058330D01*
X193030329Y-64039117D01*
X193046393Y-64021393D01*
X193064117Y-64005329D01*
X193083330Y-63991079D01*
X193103847Y-63978782D01*
X193125471Y-63968554D01*
X193147993Y-63960496D01*
X193171197Y-63954684D01*
X193194858Y-63951174D01*
X193218750Y-63950000D01*
X194131250Y-63950000D01*
X194155142Y-63951174D01*
G37*
G36*
X194155142Y-43026174D02*
G01*
X194178803Y-43029684D01*
X194202007Y-43035496D01*
X194224529Y-43043554D01*
X194246153Y-43053782D01*
X194266670Y-43066079D01*
X194285883Y-43080329D01*
X194303607Y-43096393D01*
X194319671Y-43114117D01*
X194333921Y-43133330D01*
X194346218Y-43153847D01*
X194356446Y-43175471D01*
X194364504Y-43197993D01*
X194370316Y-43221197D01*
X194373826Y-43244858D01*
X194375000Y-43268750D01*
X194375000Y-43756250D01*
X194373826Y-43780142D01*
X194370316Y-43803803D01*
X194364504Y-43827007D01*
X194356446Y-43849529D01*
X194346218Y-43871153D01*
X194333921Y-43891670D01*
X194319671Y-43910883D01*
X194303607Y-43928607D01*
X194285883Y-43944671D01*
X194266670Y-43958921D01*
X194246153Y-43971218D01*
X194224529Y-43981446D01*
X194202007Y-43989504D01*
X194178803Y-43995316D01*
X194155142Y-43998826D01*
X194131250Y-44000000D01*
X193218750Y-44000000D01*
X193194858Y-43998826D01*
X193171197Y-43995316D01*
X193147993Y-43989504D01*
X193125471Y-43981446D01*
X193103847Y-43971218D01*
X193083330Y-43958921D01*
X193064117Y-43944671D01*
X193046393Y-43928607D01*
X193030329Y-43910883D01*
X193016079Y-43891670D01*
X193003782Y-43871153D01*
X192993554Y-43849529D01*
X192985496Y-43827007D01*
X192979684Y-43803803D01*
X192976174Y-43780142D01*
X192975000Y-43756250D01*
X192975000Y-43268750D01*
X192976174Y-43244858D01*
X192979684Y-43221197D01*
X192985496Y-43197993D01*
X192993554Y-43175471D01*
X193003782Y-43153847D01*
X193016079Y-43133330D01*
X193030329Y-43114117D01*
X193046393Y-43096393D01*
X193064117Y-43080329D01*
X193083330Y-43066079D01*
X193103847Y-43053782D01*
X193125471Y-43043554D01*
X193147993Y-43035496D01*
X193171197Y-43029684D01*
X193194858Y-43026174D01*
X193218750Y-43025000D01*
X194131250Y-43025000D01*
X194155142Y-43026174D01*
G37*
G36*
X194155142Y-44901174D02*
G01*
X194178803Y-44904684D01*
X194202007Y-44910496D01*
X194224529Y-44918554D01*
X194246153Y-44928782D01*
X194266670Y-44941079D01*
X194285883Y-44955329D01*
X194303607Y-44971393D01*
X194319671Y-44989117D01*
X194333921Y-45008330D01*
X194346218Y-45028847D01*
X194356446Y-45050471D01*
X194364504Y-45072993D01*
X194370316Y-45096197D01*
X194373826Y-45119858D01*
X194375000Y-45143750D01*
X194375000Y-45631250D01*
X194373826Y-45655142D01*
X194370316Y-45678803D01*
X194364504Y-45702007D01*
X194356446Y-45724529D01*
X194346218Y-45746153D01*
X194333921Y-45766670D01*
X194319671Y-45785883D01*
X194303607Y-45803607D01*
X194285883Y-45819671D01*
X194266670Y-45833921D01*
X194246153Y-45846218D01*
X194224529Y-45856446D01*
X194202007Y-45864504D01*
X194178803Y-45870316D01*
X194155142Y-45873826D01*
X194131250Y-45875000D01*
X193218750Y-45875000D01*
X193194858Y-45873826D01*
X193171197Y-45870316D01*
X193147993Y-45864504D01*
X193125471Y-45856446D01*
X193103847Y-45846218D01*
X193083330Y-45833921D01*
X193064117Y-45819671D01*
X193046393Y-45803607D01*
X193030329Y-45785883D01*
X193016079Y-45766670D01*
X193003782Y-45746153D01*
X192993554Y-45724529D01*
X192985496Y-45702007D01*
X192979684Y-45678803D01*
X192976174Y-45655142D01*
X192975000Y-45631250D01*
X192975000Y-45143750D01*
X192976174Y-45119858D01*
X192979684Y-45096197D01*
X192985496Y-45072993D01*
X192993554Y-45050471D01*
X193003782Y-45028847D01*
X193016079Y-45008330D01*
X193030329Y-44989117D01*
X193046393Y-44971393D01*
X193064117Y-44955329D01*
X193083330Y-44941079D01*
X193103847Y-44928782D01*
X193125471Y-44918554D01*
X193147993Y-44910496D01*
X193171197Y-44904684D01*
X193194858Y-44901174D01*
X193218750Y-44900000D01*
X194131250Y-44900000D01*
X194155142Y-44901174D01*
G37*
D13*
X195200000Y-35820000D03*
X195200000Y-37720000D03*
X193000000Y-37720000D03*
D14*
X193000000Y-36000000D03*
D12*
G36*
X185872642Y-51731174D02*
G01*
X185896303Y-51734684D01*
X185919507Y-51740496D01*
X185942029Y-51748554D01*
X185963653Y-51758782D01*
X185984170Y-51771079D01*
X186003383Y-51785329D01*
X186021107Y-51801393D01*
X186037171Y-51819117D01*
X186051421Y-51838330D01*
X186063718Y-51858847D01*
X186073946Y-51880471D01*
X186082004Y-51902993D01*
X186087816Y-51926197D01*
X186091326Y-51949858D01*
X186092500Y-51973750D01*
X186092500Y-52886250D01*
X186091326Y-52910142D01*
X186087816Y-52933803D01*
X186082004Y-52957007D01*
X186073946Y-52979529D01*
X186063718Y-53001153D01*
X186051421Y-53021670D01*
X186037171Y-53040883D01*
X186021107Y-53058607D01*
X186003383Y-53074671D01*
X185984170Y-53088921D01*
X185963653Y-53101218D01*
X185942029Y-53111446D01*
X185919507Y-53119504D01*
X185896303Y-53125316D01*
X185872642Y-53128826D01*
X185848750Y-53130000D01*
X185361250Y-53130000D01*
X185337358Y-53128826D01*
X185313697Y-53125316D01*
X185290493Y-53119504D01*
X185267971Y-53111446D01*
X185246347Y-53101218D01*
X185225830Y-53088921D01*
X185206617Y-53074671D01*
X185188893Y-53058607D01*
X185172829Y-53040883D01*
X185158579Y-53021670D01*
X185146282Y-53001153D01*
X185136054Y-52979529D01*
X185127996Y-52957007D01*
X185122184Y-52933803D01*
X185118674Y-52910142D01*
X185117500Y-52886250D01*
X185117500Y-51973750D01*
X185118674Y-51949858D01*
X185122184Y-51926197D01*
X185127996Y-51902993D01*
X185136054Y-51880471D01*
X185146282Y-51858847D01*
X185158579Y-51838330D01*
X185172829Y-51819117D01*
X185188893Y-51801393D01*
X185206617Y-51785329D01*
X185225830Y-51771079D01*
X185246347Y-51758782D01*
X185267971Y-51748554D01*
X185290493Y-51740496D01*
X185313697Y-51734684D01*
X185337358Y-51731174D01*
X185361250Y-51730000D01*
X185848750Y-51730000D01*
X185872642Y-51731174D01*
G37*
G36*
X187747642Y-51731174D02*
G01*
X187771303Y-51734684D01*
X187794507Y-51740496D01*
X187817029Y-51748554D01*
X187838653Y-51758782D01*
X187859170Y-51771079D01*
X187878383Y-51785329D01*
X187896107Y-51801393D01*
X187912171Y-51819117D01*
X187926421Y-51838330D01*
X187938718Y-51858847D01*
X187948946Y-51880471D01*
X187957004Y-51902993D01*
X187962816Y-51926197D01*
X187966326Y-51949858D01*
X187967500Y-51973750D01*
X187967500Y-52886250D01*
X187966326Y-52910142D01*
X187962816Y-52933803D01*
X187957004Y-52957007D01*
X187948946Y-52979529D01*
X187938718Y-53001153D01*
X187926421Y-53021670D01*
X187912171Y-53040883D01*
X187896107Y-53058607D01*
X187878383Y-53074671D01*
X187859170Y-53088921D01*
X187838653Y-53101218D01*
X187817029Y-53111446D01*
X187794507Y-53119504D01*
X187771303Y-53125316D01*
X187747642Y-53128826D01*
X187723750Y-53130000D01*
X187236250Y-53130000D01*
X187212358Y-53128826D01*
X187188697Y-53125316D01*
X187165493Y-53119504D01*
X187142971Y-53111446D01*
X187121347Y-53101218D01*
X187100830Y-53088921D01*
X187081617Y-53074671D01*
X187063893Y-53058607D01*
X187047829Y-53040883D01*
X187033579Y-53021670D01*
X187021282Y-53001153D01*
X187011054Y-52979529D01*
X187002996Y-52957007D01*
X186997184Y-52933803D01*
X186993674Y-52910142D01*
X186992500Y-52886250D01*
X186992500Y-51973750D01*
X186993674Y-51949858D01*
X186997184Y-51926197D01*
X187002996Y-51902993D01*
X187011054Y-51880471D01*
X187021282Y-51858847D01*
X187033579Y-51838330D01*
X187047829Y-51819117D01*
X187063893Y-51801393D01*
X187081617Y-51785329D01*
X187100830Y-51771079D01*
X187121347Y-51758782D01*
X187142971Y-51748554D01*
X187165493Y-51740496D01*
X187188697Y-51734684D01*
X187212358Y-51731174D01*
X187236250Y-51730000D01*
X187723750Y-51730000D01*
X187747642Y-51731174D01*
G37*
M02*
