M48
METRIC,TZ
T1C0.400
T2C0.600
T3C0.950
%
G90
G05
T1
X174498Y-60452
X177450Y-38700
X177450Y-38700
X182626Y-43434
X184300Y-56800
X186261Y-35000
X187381Y-56969
X191570Y-37720
X191770Y-55372
X192750Y-39050
X192800Y-54050
X193548Y-60452
X193802Y-42227
X196500Y-36850
X196840Y-49260
X197612Y-56642
X198120Y-49022
X198882Y-62484
X199644Y-45974
X199750Y-43150
X202350Y-57300
X203400Y-57250
X204216Y-64770
X204727Y-54356
X204727Y-55372
X208880Y-56270
X211070Y-59480
X211328Y-57404
X212598Y-60706
X227330Y-66294
X228854Y-78550
X231648Y-66294
T3
X136652Y-74613
X139152Y-74613
X141652Y-74613
X144152Y-74613
X227584Y-74560
X230084Y-74560
X232584Y-74560
X235084Y-74560
T2
G00X181418Y-28300
M15
G01X181418Y-27700
M16
G05
G00X181418Y-32730
M15
G01X181418Y-31630
M16
G05
G00X190058Y-28300
M15
G01X190058Y-27700
M16
G05
G00X190058Y-32730
M15
G01X190058Y-31630
M16
G05
T0
M30
