G04 #@! TF.GenerationSoftware,KiCad,Pcbnew,(5.1.5)-3*
G04 #@! TF.CreationDate,2020-03-25T17:20:55+01:00*
G04 #@! TF.ProjectId,4Keys,344b6579-732e-46b6-9963-61645f706362,rev?*
G04 #@! TF.SameCoordinates,Original*
G04 #@! TF.FileFunction,Legend,Top*
G04 #@! TF.FilePolarity,Positive*
%FSLAX46Y46*%
G04 Gerber Fmt 4.6, Leading zero omitted, Abs format (unit mm)*
G04 Created by KiCad (PCBNEW (5.1.5)-3) date 2020-03-25 17:20:55*
%MOMM*%
%LPD*%
G04 APERTURE LIST*
%ADD10C,0.100000*%
%ADD11C,0.120000*%
%ADD12C,0.150000*%
%ADD13O,1.802000X2.052000*%
%ADD14C,1.852000*%
%ADD15C,3.102000*%
%ADD16C,4.089800*%
%ADD17R,0.702000X2.102000*%
%ADD18R,0.402000X2.102000*%
%ADD19C,0.752000*%
%ADD20R,1.502000X1.102000*%
%ADD21R,1.502000X1.302000*%
G04 APERTURE END LIST*
D10*
G36*
X155247843Y-50363252D02*
G01*
X155418660Y-50394796D01*
X155544379Y-50422440D01*
X155747511Y-50467285D01*
X155935641Y-50507085D01*
X156078619Y-50535525D01*
X156117815Y-50542540D01*
X156251938Y-50575568D01*
X156419662Y-50630753D01*
X156512576Y-50666636D01*
X156749432Y-50764401D01*
X156749432Y-59819807D01*
X156548592Y-59702107D01*
X156430163Y-59640059D01*
X156319462Y-59605847D01*
X156183379Y-59592963D01*
X156001352Y-59594522D01*
X155654951Y-59604636D01*
X155491623Y-59383233D01*
X155328295Y-59161829D01*
X155302425Y-59477637D01*
X155284320Y-59654899D01*
X155262210Y-59810387D01*
X155241944Y-59906234D01*
X155155991Y-60155001D01*
X155048933Y-60418209D01*
X154931961Y-60671890D01*
X154816267Y-60892082D01*
X154713043Y-61054817D01*
X154694170Y-61079236D01*
X154644854Y-61153539D01*
X154571641Y-61278963D01*
X154502401Y-61405895D01*
X154430476Y-61528516D01*
X154373226Y-61601476D01*
X154342995Y-61609063D01*
X154342934Y-61608915D01*
X154323290Y-61595266D01*
X154316759Y-61633787D01*
X154284591Y-61726443D01*
X154227944Y-61806134D01*
X154162512Y-61906973D01*
X154102100Y-62048358D01*
X154086963Y-62096679D01*
X154043860Y-62212980D01*
X154000944Y-62267514D01*
X153984785Y-62267005D01*
X153959922Y-62267579D01*
X153969478Y-62288691D01*
X153966914Y-62360870D01*
X153916190Y-62494706D01*
X153822609Y-62679169D01*
X153691473Y-62903230D01*
X153618296Y-63019200D01*
X153523959Y-63159191D01*
X153472763Y-63220928D01*
X153465173Y-63205659D01*
X153501655Y-63114630D01*
X153582675Y-62949089D01*
X153588148Y-62938400D01*
X153671569Y-62767475D01*
X153755013Y-62582526D01*
X153830751Y-62402631D01*
X153891053Y-62246864D01*
X153928192Y-62134303D01*
X153934439Y-62084023D01*
X153934339Y-62083919D01*
X153907188Y-62111372D01*
X153853973Y-62200577D01*
X153793346Y-62317964D01*
X153721260Y-62455269D01*
X153658325Y-62557833D01*
X153623773Y-62598448D01*
X153599132Y-62597947D01*
X153609600Y-62575017D01*
X153623214Y-62528070D01*
X153614683Y-62522930D01*
X153574841Y-62563002D01*
X153515513Y-62671006D01*
X153443720Y-62828622D01*
X153366483Y-63017533D01*
X153290822Y-63219421D01*
X153223758Y-63415966D01*
X153172313Y-63588851D01*
X153143506Y-63719758D01*
X153139781Y-63762042D01*
X153122809Y-63857630D01*
X153077045Y-64013514D01*
X153009687Y-64207246D01*
X152936762Y-64394909D01*
X152857348Y-64593958D01*
X152792544Y-64765243D01*
X152749205Y-64890027D01*
X152734156Y-64948665D01*
X152716820Y-64965563D01*
X152659507Y-64978905D01*
X152554262Y-64989004D01*
X152393132Y-64996174D01*
X152168161Y-65000728D01*
X151871394Y-65002982D01*
X151494877Y-65003249D01*
X151358135Y-65002971D01*
X149982114Y-64999478D01*
X149982114Y-64896332D01*
X149940358Y-64791416D01*
X149869325Y-64741797D01*
X149777471Y-64677727D01*
X149769314Y-64601331D01*
X149845090Y-64503676D01*
X149873755Y-64477933D01*
X150177614Y-64477933D01*
X150183807Y-64504754D01*
X150207691Y-64508010D01*
X150244826Y-64491503D01*
X150237768Y-64477933D01*
X150184227Y-64472534D01*
X150177614Y-64477933D01*
X149873755Y-64477933D01*
X149876342Y-64475610D01*
X149951408Y-64407243D01*
X149960677Y-64378653D01*
X149908354Y-64372679D01*
X149901563Y-64372664D01*
X149807481Y-64354158D01*
X149784172Y-64312208D01*
X149839419Y-64267167D01*
X149858554Y-64260222D01*
X149923944Y-64233557D01*
X149906931Y-64214491D01*
X149880604Y-64206670D01*
X149802499Y-64174231D01*
X149805935Y-64144222D01*
X149882229Y-64120047D01*
X150022696Y-64105113D01*
X150147601Y-64101971D01*
X150370710Y-64094415D01*
X150608899Y-64074718D01*
X150789707Y-64050398D01*
X150970895Y-64010912D01*
X151093169Y-63959951D01*
X151187806Y-63883266D01*
X151210588Y-63858657D01*
X151291319Y-63768927D01*
X151356522Y-63701059D01*
X151385622Y-63673374D01*
X152914618Y-63673374D01*
X152937176Y-63695932D01*
X152959734Y-63673374D01*
X152937176Y-63650817D01*
X152914618Y-63673374D01*
X151385622Y-63673374D01*
X151434472Y-63626900D01*
X151457681Y-63605701D01*
X153004849Y-63605701D01*
X153021356Y-63642836D01*
X153034926Y-63635778D01*
X153040326Y-63582237D01*
X153034926Y-63575624D01*
X153008105Y-63581817D01*
X153004849Y-63605701D01*
X151457681Y-63605701D01*
X151541878Y-63528800D01*
X151582043Y-63485393D01*
X152072463Y-63485393D01*
X152078656Y-63512214D01*
X152102540Y-63515470D01*
X152139675Y-63498963D01*
X152132617Y-63485393D01*
X152079076Y-63479994D01*
X152072463Y-63485393D01*
X151582043Y-63485393D01*
X151626695Y-63437137D01*
X151647065Y-63381586D01*
X151602978Y-63372415D01*
X151542029Y-63395106D01*
X151477257Y-63441139D01*
X151479172Y-63475453D01*
X151501725Y-63512978D01*
X151461176Y-63539261D01*
X151384647Y-63541937D01*
X151350928Y-63533919D01*
X151297182Y-63520603D01*
X151323030Y-63546495D01*
X151335577Y-63555639D01*
X151367562Y-63589992D01*
X151324740Y-63603518D01*
X151274356Y-63605010D01*
X151184884Y-63616862D01*
X151167367Y-63658956D01*
X151173358Y-63678398D01*
X151176850Y-63730130D01*
X151133069Y-63724929D01*
X151074569Y-63721866D01*
X151064885Y-63738498D01*
X151023309Y-63782735D01*
X150907367Y-63805051D01*
X150730241Y-63805372D01*
X150505108Y-63783628D01*
X150260769Y-63742864D01*
X150059290Y-63704472D01*
X149885253Y-63673929D01*
X149761229Y-63655050D01*
X149716241Y-63650817D01*
X149634948Y-63620113D01*
X149591859Y-63583144D01*
X150703961Y-63583144D01*
X150726519Y-63605701D01*
X150749076Y-63583144D01*
X150726519Y-63560586D01*
X150703961Y-63583144D01*
X149591859Y-63583144D01*
X149549378Y-63546698D01*
X149484236Y-63458614D01*
X149464227Y-63383903D01*
X149469255Y-63370467D01*
X149468963Y-63338708D01*
X149424528Y-63348884D01*
X149373450Y-63358870D01*
X149383129Y-63314147D01*
X149395613Y-63289893D01*
X149420673Y-63226719D01*
X149389409Y-63222386D01*
X149380328Y-63225672D01*
X149326642Y-63204844D01*
X149261723Y-63101935D01*
X149214862Y-62995930D01*
X149163686Y-62881191D01*
X150117460Y-62881191D01*
X150150210Y-62927133D01*
X150162576Y-62928969D01*
X150206518Y-62913577D01*
X150207691Y-62909074D01*
X150176077Y-62870556D01*
X150162576Y-62861296D01*
X150121002Y-62864873D01*
X150117460Y-62881191D01*
X149163686Y-62881191D01*
X149157697Y-62867765D01*
X149108788Y-62801231D01*
X149060385Y-62801134D01*
X149004738Y-62872279D01*
X148934100Y-63019472D01*
X148851054Y-63221560D01*
X148732151Y-63597908D01*
X148690614Y-63950012D01*
X148725896Y-64299139D01*
X148815420Y-64608190D01*
X148874546Y-64772576D01*
X148919417Y-64901859D01*
X148942736Y-64974840D01*
X148944458Y-64983022D01*
X148901943Y-64990420D01*
X148784794Y-64996698D01*
X148608606Y-65001367D01*
X148388974Y-65003936D01*
X148267727Y-65004280D01*
X148032222Y-65002403D01*
X147832362Y-64997232D01*
X147683741Y-64989453D01*
X147601953Y-64979757D01*
X147590995Y-64974404D01*
X147604770Y-64922040D01*
X147642107Y-64803047D01*
X147697019Y-64636052D01*
X147752295Y-64472460D01*
X147913595Y-64000392D01*
X147745848Y-63862122D01*
X147552780Y-63667148D01*
X147410462Y-63450131D01*
X147331787Y-63233381D01*
X147320302Y-63125819D01*
X147309290Y-63000200D01*
X147281709Y-62916015D01*
X147269578Y-62902946D01*
X147215934Y-62837668D01*
X147161726Y-62737721D01*
X150227258Y-62737721D01*
X150271605Y-62744946D01*
X150330120Y-62736651D01*
X150330819Y-62721250D01*
X150270437Y-62710481D01*
X150244347Y-62717689D01*
X150227258Y-62737721D01*
X147161726Y-62737721D01*
X147148116Y-62712629D01*
X147077368Y-62554643D01*
X147022398Y-62410142D01*
X150252807Y-62410142D01*
X150275364Y-62432700D01*
X150297922Y-62410142D01*
X150275364Y-62387584D01*
X150252807Y-62410142D01*
X147022398Y-62410142D01*
X147014935Y-62390525D01*
X147005065Y-62357507D01*
X149726460Y-62357507D01*
X149732653Y-62384328D01*
X149756537Y-62387584D01*
X149793672Y-62371077D01*
X149786613Y-62357507D01*
X149733072Y-62352108D01*
X149726460Y-62357507D01*
X147005065Y-62357507D01*
X146972058Y-62247092D01*
X146959378Y-62163127D01*
X147001911Y-62009742D01*
X147020334Y-61984295D01*
X149156244Y-61984295D01*
X149163946Y-62071175D01*
X149229934Y-62117779D01*
X149360546Y-62148102D01*
X149480958Y-62138696D01*
X149558253Y-62093647D01*
X149567473Y-62075866D01*
X149560344Y-62032070D01*
X149520021Y-62038516D01*
X149461099Y-62026718D01*
X149404186Y-61939092D01*
X149485844Y-61939092D01*
X149520255Y-61980330D01*
X149530959Y-61981545D01*
X149570553Y-61944823D01*
X149576075Y-61911209D01*
X149554203Y-61864512D01*
X149530959Y-61868756D01*
X149487565Y-61926435D01*
X149485844Y-61939092D01*
X149404186Y-61939092D01*
X149403155Y-61937505D01*
X149382148Y-61887801D01*
X149329365Y-61784982D01*
X149275358Y-61721938D01*
X149235718Y-61708031D01*
X149226033Y-61752619D01*
X149237709Y-61801083D01*
X149243618Y-61872511D01*
X149223453Y-61891314D01*
X149179177Y-61928988D01*
X149156244Y-61984295D01*
X147020334Y-61984295D01*
X147112053Y-61857607D01*
X147264728Y-61688295D01*
X147204138Y-61600061D01*
X148420911Y-61600061D01*
X148428073Y-61669666D01*
X148428602Y-61670544D01*
X148474301Y-61696655D01*
X148513992Y-61655807D01*
X148525948Y-61574618D01*
X148507411Y-61501638D01*
X148500448Y-61495603D01*
X148925289Y-61495603D01*
X148941702Y-61528931D01*
X148977244Y-61557050D01*
X149071321Y-61602795D01*
X149171354Y-61617705D01*
X149243822Y-61600217D01*
X149260267Y-61570244D01*
X149224560Y-61539226D01*
X149170036Y-61543463D01*
X149095059Y-61540426D01*
X149079805Y-61507833D01*
X149045304Y-61467686D01*
X148988523Y-61472478D01*
X148925289Y-61495603D01*
X148500448Y-61495603D01*
X148488530Y-61485275D01*
X148446374Y-61522180D01*
X148420911Y-61600061D01*
X147204138Y-61600061D01*
X147157169Y-61531664D01*
X147089851Y-61422584D01*
X147085865Y-61413842D01*
X148271288Y-61413842D01*
X148279583Y-61472358D01*
X148294984Y-61473056D01*
X148305754Y-61412674D01*
X148298546Y-61386585D01*
X148278513Y-61369496D01*
X148271288Y-61413842D01*
X147085865Y-61413842D01*
X147052374Y-61340400D01*
X147049609Y-61325149D01*
X147085951Y-61284014D01*
X147185321Y-61207096D01*
X147203265Y-61194686D01*
X148336761Y-61194686D01*
X148346915Y-61282255D01*
X148383079Y-61375584D01*
X148433959Y-61388822D01*
X148470960Y-61349583D01*
X148469262Y-61327371D01*
X148899343Y-61327371D01*
X148921901Y-61349929D01*
X148944458Y-61327371D01*
X148921901Y-61304813D01*
X148899343Y-61327371D01*
X148469262Y-61327371D01*
X148466056Y-61285443D01*
X148458502Y-61274736D01*
X148688804Y-61274736D01*
X148694997Y-61301557D01*
X148718881Y-61304813D01*
X148756016Y-61288306D01*
X148748958Y-61274736D01*
X148695417Y-61269337D01*
X148688804Y-61274736D01*
X148458502Y-61274736D01*
X148431730Y-61236794D01*
X148361431Y-61177483D01*
X148336761Y-61194686D01*
X147203265Y-61194686D01*
X147333235Y-61104802D01*
X147442817Y-61034186D01*
X148683832Y-61034186D01*
X148699989Y-61095077D01*
X148743373Y-61145057D01*
X148770915Y-61142633D01*
X148783501Y-61091525D01*
X148759758Y-61051571D01*
X148702007Y-61004144D01*
X148683832Y-61034186D01*
X147442817Y-61034186D01*
X147515208Y-60987537D01*
X147546969Y-60967802D01*
X147777868Y-60822327D01*
X147930878Y-60719336D01*
X148007161Y-60657810D01*
X148007878Y-60636731D01*
X147934194Y-60655082D01*
X147882722Y-60673776D01*
X147763613Y-60701932D01*
X147680555Y-60690944D01*
X147654174Y-60646204D01*
X147665895Y-60617121D01*
X147700225Y-60536603D01*
X147703780Y-60515293D01*
X147706178Y-60491861D01*
X148315749Y-60491861D01*
X148329407Y-60555613D01*
X148384123Y-60667576D01*
X148391794Y-60680803D01*
X148448826Y-60761535D01*
X148479807Y-60761550D01*
X148485326Y-60744192D01*
X148469326Y-60662035D01*
X148423904Y-60582966D01*
X150952096Y-60582966D01*
X150969725Y-60614918D01*
X151057501Y-60628060D01*
X151062222Y-60628081D01*
X151158398Y-60615246D01*
X151200177Y-60584236D01*
X151200231Y-60582966D01*
X151267904Y-60582966D01*
X151281350Y-60618810D01*
X151330252Y-60628081D01*
X151417725Y-60607949D01*
X151448366Y-60582966D01*
X151434921Y-60547122D01*
X151386018Y-60537850D01*
X151298545Y-60557983D01*
X151267904Y-60582966D01*
X151200231Y-60582966D01*
X151161705Y-60548757D01*
X151090105Y-60537850D01*
X150994578Y-60554485D01*
X150952096Y-60582966D01*
X148423904Y-60582966D01*
X148410630Y-60559861D01*
X148406374Y-60554358D01*
X148341840Y-60487663D01*
X148315749Y-60491861D01*
X147706178Y-60491861D01*
X147715639Y-60399445D01*
X147738884Y-60244435D01*
X147769048Y-60073334D01*
X147801662Y-59909212D01*
X147832259Y-59775140D01*
X147856369Y-59694188D01*
X147865430Y-59680657D01*
X147899254Y-59718551D01*
X147959075Y-59819358D01*
X148033739Y-59963762D01*
X148058240Y-60014540D01*
X148137572Y-60173397D01*
X148207818Y-60299398D01*
X148256664Y-60370868D01*
X148264782Y-60378126D01*
X148306843Y-60389804D01*
X148299952Y-60338727D01*
X148247659Y-60226857D01*
X148194133Y-60088050D01*
X148158275Y-59927361D01*
X148142875Y-59772007D01*
X148150724Y-59649205D01*
X148182127Y-59587564D01*
X148218693Y-59547876D01*
X148204620Y-59530358D01*
X148312842Y-59530358D01*
X148340409Y-59593985D01*
X148409870Y-59679911D01*
X148501368Y-59770311D01*
X148595046Y-59847361D01*
X148671044Y-59893238D01*
X148709507Y-59890117D01*
X148710376Y-59887177D01*
X148761392Y-59821718D01*
X148800607Y-59805171D01*
X148893005Y-59810185D01*
X149014358Y-59844542D01*
X149023410Y-59848118D01*
X149127199Y-59878781D01*
X149169729Y-59865135D01*
X149170036Y-59861724D01*
X149170525Y-59861119D01*
X149936998Y-59861119D01*
X149953505Y-59898254D01*
X149967075Y-59891196D01*
X149972475Y-59837654D01*
X149967075Y-59831042D01*
X149940254Y-59837235D01*
X149936998Y-59861119D01*
X149170525Y-59861119D01*
X149205133Y-59818379D01*
X149221456Y-59816003D01*
X149287895Y-59783806D01*
X149334356Y-59737051D01*
X149379117Y-59682944D01*
X149380538Y-59700773D01*
X149368339Y-59737051D01*
X149366043Y-59801968D01*
X149387798Y-59816003D01*
X149415948Y-59778539D01*
X149414401Y-59703768D01*
X149426638Y-59591509D01*
X149489484Y-59414959D01*
X149575293Y-59231058D01*
X149656416Y-59063665D01*
X149718850Y-58923335D01*
X149753108Y-58831902D01*
X149756814Y-58813186D01*
X149776932Y-58736000D01*
X149825329Y-58627127D01*
X149828836Y-58620444D01*
X149893366Y-58488098D01*
X149942143Y-58372309D01*
X149959184Y-58314116D01*
X149940705Y-58314108D01*
X149877182Y-58376671D01*
X149836205Y-58421099D01*
X149722684Y-58562437D01*
X149620841Y-58716324D01*
X149598553Y-58756554D01*
X149522549Y-58886766D01*
X149446068Y-58993599D01*
X149429449Y-59012293D01*
X149368328Y-59098212D01*
X149350497Y-59155282D01*
X149317188Y-59230554D01*
X149231959Y-59336446D01*
X149116857Y-59451901D01*
X148993932Y-59555864D01*
X148885232Y-59627279D01*
X148837137Y-59645538D01*
X148750749Y-59649662D01*
X148718881Y-59629285D01*
X148682694Y-59593906D01*
X148657292Y-59590426D01*
X148580434Y-59564244D01*
X148482872Y-59501673D01*
X148381824Y-59443098D01*
X148325823Y-59462339D01*
X148312842Y-59530358D01*
X148204620Y-59530358D01*
X148179865Y-59499545D01*
X148168526Y-59490698D01*
X148130777Y-59450037D01*
X148112952Y-59387528D01*
X148113118Y-59303191D01*
X148222611Y-59303191D01*
X148244855Y-59369343D01*
X148289428Y-59395110D01*
X148306075Y-59386655D01*
X148299848Y-59340304D01*
X148275998Y-59309958D01*
X148230576Y-59284525D01*
X148222611Y-59303191D01*
X148113118Y-59303191D01*
X148113161Y-59281661D01*
X148129511Y-59110927D01*
X148132681Y-59083216D01*
X148147536Y-58831959D01*
X148131839Y-58623465D01*
X148087774Y-58474363D01*
X148045258Y-58417424D01*
X148017675Y-58362883D01*
X147979252Y-58251708D01*
X147939311Y-58115213D01*
X147907176Y-57984714D01*
X147893637Y-57908183D01*
X147850145Y-57814836D01*
X147816572Y-57784115D01*
X147771584Y-57742472D01*
X147807488Y-57702323D01*
X147816572Y-57696268D01*
X147856914Y-57661086D01*
X147813268Y-57651338D01*
X147801069Y-57651152D01*
X147723287Y-57612606D01*
X147694431Y-57560738D01*
X147660134Y-57498923D01*
X147631660Y-57495308D01*
X147611881Y-57475359D01*
X147617542Y-57393860D01*
X147618777Y-57387483D01*
X147623991Y-57285069D01*
X147599775Y-57227291D01*
X147573743Y-57166947D01*
X147577023Y-57131634D01*
X147636110Y-57131634D01*
X147658668Y-57154192D01*
X147681226Y-57131634D01*
X147658668Y-57109076D01*
X147636110Y-57131634D01*
X147577023Y-57131634D01*
X147579779Y-57101976D01*
X147582400Y-57077792D01*
X147874937Y-57077792D01*
X147892440Y-57109315D01*
X147968839Y-57149037D01*
X148093664Y-57178246D01*
X148134176Y-57183041D01*
X148261591Y-57199342D01*
X148349914Y-57219341D01*
X148363573Y-57225335D01*
X148392862Y-57269360D01*
X148354498Y-57304495D01*
X148270884Y-57316197D01*
X148231125Y-57311323D01*
X148109822Y-57287662D01*
X148222611Y-57339123D01*
X148352449Y-57398848D01*
X148439844Y-57439485D01*
X148540287Y-57463953D01*
X148575190Y-57443006D01*
X148633664Y-57395445D01*
X148738755Y-57335734D01*
X148763997Y-57323501D01*
X148894321Y-57242109D01*
X149000157Y-57143183D01*
X149007172Y-57134111D01*
X149009386Y-57131634D01*
X149079805Y-57131634D01*
X149102362Y-57154192D01*
X149124920Y-57131634D01*
X149102362Y-57109076D01*
X149079805Y-57131634D01*
X149009386Y-57131634D01*
X149090566Y-57040812D01*
X149147930Y-57028865D01*
X149188604Y-57096614D01*
X149190228Y-57101623D01*
X149222097Y-57151784D01*
X149291395Y-57171161D01*
X149423207Y-57166474D01*
X149430124Y-57165881D01*
X149556575Y-57165750D01*
X149601154Y-57188539D01*
X149560895Y-57225752D01*
X149463286Y-57260847D01*
X149443667Y-57271446D01*
X149501175Y-57268274D01*
X149542238Y-57263182D01*
X149650297Y-57258339D01*
X149708288Y-57274731D01*
X149711421Y-57282353D01*
X149672693Y-57328083D01*
X149573988Y-57387706D01*
X149441525Y-57448433D01*
X149301521Y-57497473D01*
X149237709Y-57513444D01*
X149147658Y-57545042D01*
X149115893Y-57583083D01*
X149116304Y-57584638D01*
X149090022Y-57628003D01*
X149026073Y-57657243D01*
X148957943Y-57679283D01*
X148974213Y-57688502D01*
X149013695Y-57691080D01*
X149104951Y-57678965D01*
X149245314Y-57642982D01*
X149362213Y-57605346D01*
X149506080Y-57557150D01*
X149571892Y-57537673D01*
X150252807Y-57537673D01*
X150275364Y-57560231D01*
X150297922Y-57537673D01*
X150275364Y-57515115D01*
X150252807Y-57537673D01*
X149571892Y-57537673D01*
X149616705Y-57524411D01*
X149662242Y-57515115D01*
X149735010Y-57500264D01*
X149809994Y-57475405D01*
X149906059Y-57443974D01*
X149954512Y-57434142D01*
X150011700Y-57397171D01*
X150060848Y-57321665D01*
X150071654Y-57278259D01*
X150035645Y-57248219D01*
X150004672Y-57244422D01*
X149944899Y-57219096D01*
X149944918Y-57163576D01*
X149997926Y-57108552D01*
X150038508Y-57091781D01*
X150106085Y-57064695D01*
X150093126Y-57030862D01*
X150072345Y-57014590D01*
X150032534Y-56980430D01*
X150071550Y-56987018D01*
X150087313Y-56992032D01*
X150177638Y-57014896D01*
X150211381Y-57018845D01*
X150248150Y-57055442D01*
X150252807Y-57086518D01*
X150288920Y-57146331D01*
X150320480Y-57154192D01*
X150360830Y-57152210D01*
X150380368Y-57134274D01*
X150378599Y-57082396D01*
X150355027Y-56978586D01*
X150311045Y-56811952D01*
X150267559Y-56657469D01*
X150230805Y-56570868D01*
X150185489Y-56532529D01*
X150116318Y-56522833D01*
X150085468Y-56522575D01*
X149984908Y-56510578D01*
X149937537Y-56481307D01*
X149936998Y-56477460D01*
X149911577Y-56437780D01*
X149903162Y-56437687D01*
X149807415Y-56434091D01*
X149776526Y-56373299D01*
X149784111Y-56305750D01*
X149787157Y-56206767D01*
X149846767Y-56206767D01*
X149863274Y-56243902D01*
X149876844Y-56236844D01*
X149879877Y-56206767D01*
X151245346Y-56206767D01*
X151261854Y-56243902D01*
X151275423Y-56236844D01*
X151280823Y-56183302D01*
X151275423Y-56176690D01*
X151248602Y-56182883D01*
X151245346Y-56206767D01*
X149879877Y-56206767D01*
X149882244Y-56183302D01*
X149876844Y-56176690D01*
X149850023Y-56182883D01*
X149846767Y-56206767D01*
X149787157Y-56206767D01*
X149787362Y-56200122D01*
X149742269Y-56126177D01*
X149640012Y-56081088D01*
X149471771Y-56062028D01*
X149228725Y-56066170D01*
X149069184Y-56076605D01*
X148965249Y-56093249D01*
X148947154Y-56119954D01*
X148956395Y-56128014D01*
X148953219Y-56148917D01*
X148872357Y-56155645D01*
X148802139Y-56152827D01*
X148683925Y-56151194D01*
X148618198Y-56162419D01*
X148613061Y-56172930D01*
X148600036Y-56204657D01*
X148584018Y-56206767D01*
X148515753Y-56225183D01*
X148401818Y-56271639D01*
X148347195Y-56297051D01*
X148222872Y-56349311D01*
X148152112Y-56355228D01*
X148120841Y-56330887D01*
X148099112Y-56316899D01*
X148109907Y-56375950D01*
X148114448Y-56458327D01*
X148085478Y-56477460D01*
X148052396Y-56510033D01*
X148057910Y-56543688D01*
X148057341Y-56616339D01*
X148040013Y-56636684D01*
X148015552Y-56698148D01*
X148032911Y-56800017D01*
X148082312Y-56908677D01*
X148139594Y-56979022D01*
X148207459Y-57048080D01*
X148204782Y-57081835D01*
X148124908Y-57086254D01*
X148030870Y-57076525D01*
X147915313Y-57066476D01*
X147874937Y-57077792D01*
X147582400Y-57077792D01*
X147587035Y-57035036D01*
X147549485Y-57039236D01*
X147545319Y-57041749D01*
X147505100Y-57052042D01*
X147515655Y-56999999D01*
X147541726Y-56910204D01*
X147545879Y-56877146D01*
X147570234Y-56849845D01*
X147579716Y-56853917D01*
X147599200Y-56825088D01*
X147614455Y-56728913D01*
X147620699Y-56624940D01*
X147622719Y-56601720D01*
X147771457Y-56601720D01*
X147793542Y-56675561D01*
X147847188Y-56779914D01*
X147913476Y-56884059D01*
X147973491Y-56957273D01*
X148000523Y-56973730D01*
X148012539Y-56938712D01*
X147987019Y-56854012D01*
X147985111Y-56849662D01*
X147929448Y-56746830D01*
X147864605Y-56656167D01*
X147807291Y-56597065D01*
X147774215Y-56588914D01*
X147771457Y-56601720D01*
X147622719Y-56601720D01*
X147631570Y-56500017D01*
X147726341Y-56500017D01*
X147748899Y-56522575D01*
X147906803Y-56522575D01*
X147923310Y-56559710D01*
X147936880Y-56552652D01*
X147942279Y-56499111D01*
X147936880Y-56492498D01*
X147910059Y-56498691D01*
X147906803Y-56522575D01*
X147748899Y-56522575D01*
X147771457Y-56500017D01*
X147748899Y-56477460D01*
X147726341Y-56500017D01*
X147631570Y-56500017D01*
X147633179Y-56481537D01*
X147657731Y-56377235D01*
X147678648Y-56343706D01*
X147698331Y-56290140D01*
X147711783Y-56172767D01*
X147719128Y-56014232D01*
X147720492Y-55837175D01*
X147715999Y-55664241D01*
X147705774Y-55518071D01*
X147689942Y-55421310D01*
X147673419Y-55394689D01*
X147643689Y-55356613D01*
X147636110Y-55298934D01*
X147627289Y-55233167D01*
X147585595Y-55245076D01*
X147559777Y-55265097D01*
X147506670Y-55303637D01*
X147510082Y-55280386D01*
X147521524Y-55259342D01*
X147584351Y-55164809D01*
X147616198Y-55123996D01*
X147648944Y-55056130D01*
X147618257Y-55011208D01*
X153049965Y-55011208D01*
X153072522Y-55033765D01*
X153095080Y-55011208D01*
X153072522Y-54988650D01*
X153049965Y-55011208D01*
X147618257Y-55011208D01*
X147609336Y-54998150D01*
X147560662Y-54967599D01*
X147546206Y-55014020D01*
X147545879Y-55034952D01*
X147527331Y-55152072D01*
X147507005Y-55205914D01*
X147468899Y-55305607D01*
X147438712Y-55417247D01*
X147424274Y-55500271D01*
X147436998Y-55504012D01*
X147457155Y-55473848D01*
X147507048Y-55421919D01*
X147564319Y-55449717D01*
X147566038Y-55451290D01*
X147601174Y-55523111D01*
X147582586Y-55561896D01*
X147559031Y-55636437D01*
X147567465Y-55663809D01*
X147580534Y-55734357D01*
X147562267Y-55814163D01*
X147525572Y-55865849D01*
X147497516Y-55866394D01*
X147473163Y-55857491D01*
X147457623Y-55877261D01*
X147448904Y-55940871D01*
X147445014Y-56063486D01*
X147443964Y-56260273D01*
X147443948Y-56274440D01*
X147441333Y-56407703D01*
X147434695Y-56475974D01*
X147425348Y-56467873D01*
X147423088Y-56454902D01*
X147394001Y-56339355D01*
X147357698Y-56265326D01*
X147334323Y-56183117D01*
X147343799Y-56107422D01*
X147361988Y-56036781D01*
X147343155Y-56046330D01*
X147310933Y-56087297D01*
X147269542Y-56134190D01*
X147256721Y-56114890D01*
X147264969Y-56017920D01*
X147265063Y-56017116D01*
X147258286Y-55878648D01*
X147202765Y-55798220D01*
X147152040Y-55765607D01*
X147156351Y-55789370D01*
X147158166Y-55864396D01*
X147119896Y-55946034D01*
X147069081Y-56002826D01*
X147051357Y-55987440D01*
X147065687Y-55911225D01*
X147111035Y-55785532D01*
X147133800Y-55733055D01*
X147455648Y-55733055D01*
X147478206Y-55755612D01*
X147500764Y-55733055D01*
X147478206Y-55710497D01*
X147455648Y-55733055D01*
X147133800Y-55733055D01*
X147140831Y-55716849D01*
X147173794Y-55642824D01*
X147329097Y-55642824D01*
X147333974Y-55719873D01*
X147348097Y-55726657D01*
X147349895Y-55722635D01*
X147358820Y-55633072D01*
X147351567Y-55587288D01*
X147337206Y-55568890D01*
X147329395Y-55628814D01*
X147329097Y-55642824D01*
X147173794Y-55642824D01*
X147199705Y-55584636D01*
X147223750Y-55515962D01*
X147215718Y-55492337D01*
X147178361Y-55495268D01*
X147173677Y-55496199D01*
X147133545Y-55468872D01*
X147131541Y-55394689D01*
X147132787Y-55372131D01*
X147230071Y-55372131D01*
X147252629Y-55394689D01*
X147275187Y-55372131D01*
X147252629Y-55349573D01*
X147230071Y-55372131D01*
X147132787Y-55372131D01*
X147134821Y-55335323D01*
X147114822Y-55328377D01*
X147058510Y-55379590D01*
X146984915Y-55459279D01*
X146896928Y-55546841D01*
X146838491Y-55586896D01*
X146824032Y-55579028D01*
X146847602Y-55495964D01*
X146906856Y-55372540D01*
X146984615Y-55241516D01*
X147045074Y-55157556D01*
X147075766Y-55101438D01*
X147230071Y-55101438D01*
X147252629Y-55123996D01*
X147275187Y-55101438D01*
X147252629Y-55078881D01*
X147230071Y-55101438D01*
X147075766Y-55101438D01*
X147084720Y-55085067D01*
X147081434Y-55050552D01*
X147084691Y-54998427D01*
X147122547Y-54893730D01*
X147164422Y-54804193D01*
X147234873Y-54661487D01*
X147267448Y-54580991D01*
X147266965Y-54545421D01*
X147238780Y-54537495D01*
X147197388Y-54574458D01*
X147150249Y-54661563D01*
X147121206Y-54719710D01*
X147117847Y-54700750D01*
X147120131Y-54690079D01*
X147121471Y-54572676D01*
X147100706Y-54485554D01*
X147096418Y-54424707D01*
X147184956Y-54424707D01*
X147207513Y-54447264D01*
X147230071Y-54424707D01*
X147207513Y-54402149D01*
X147184956Y-54424707D01*
X147096418Y-54424707D01*
X147093803Y-54387616D01*
X147105574Y-54334476D01*
X147139840Y-54334476D01*
X147162398Y-54357033D01*
X147184956Y-54334476D01*
X147230071Y-54334476D01*
X147252629Y-54357033D01*
X147275187Y-54334476D01*
X147252629Y-54311918D01*
X147230071Y-54334476D01*
X147184956Y-54334476D01*
X147162398Y-54311918D01*
X147139840Y-54334476D01*
X147105574Y-54334476D01*
X147121843Y-54261031D01*
X147173095Y-54133444D01*
X147235822Y-54032497D01*
X147298292Y-53985836D01*
X147312768Y-53985949D01*
X147351024Y-53973785D01*
X147345477Y-53955230D01*
X147351860Y-53897131D01*
X147371223Y-53879733D01*
X147399651Y-53873595D01*
X147404711Y-53913236D01*
X147385037Y-54012214D01*
X147341356Y-54176572D01*
X147310010Y-54289360D01*
X147410533Y-54289360D01*
X147433091Y-54311918D01*
X147455648Y-54289360D01*
X147433091Y-54266803D01*
X147410533Y-54289360D01*
X147310010Y-54289360D01*
X147376984Y-54199129D01*
X147455648Y-54199129D01*
X147478206Y-54221687D01*
X147500764Y-54199129D01*
X147478206Y-54176572D01*
X147455648Y-54199129D01*
X147376984Y-54199129D01*
X147385916Y-54187096D01*
X147460334Y-54114563D01*
X147508790Y-54124507D01*
X147526345Y-54211657D01*
X147516037Y-54325920D01*
X147500546Y-54440881D01*
X147507725Y-54482757D01*
X147543351Y-54467098D01*
X147562738Y-54451622D01*
X147617545Y-54362851D01*
X147616244Y-54242126D01*
X147619535Y-54191610D01*
X152704079Y-54191610D01*
X152710272Y-54218431D01*
X152734156Y-54221687D01*
X152771292Y-54205180D01*
X152764233Y-54191610D01*
X152710692Y-54186211D01*
X152704079Y-54191610D01*
X147619535Y-54191610D01*
X147627111Y-54075333D01*
X147673446Y-53989633D01*
X147737283Y-53865356D01*
X147752677Y-53799106D01*
X152463464Y-53799106D01*
X152485707Y-53865258D01*
X152530281Y-53891025D01*
X152546927Y-53882569D01*
X152540701Y-53836219D01*
X152516850Y-53805873D01*
X152471429Y-53780439D01*
X152463464Y-53799106D01*
X147752677Y-53799106D01*
X147762286Y-53757758D01*
X147785318Y-53644648D01*
X147819586Y-53577296D01*
X147870611Y-53505482D01*
X147940749Y-53390247D01*
X147968028Y-53341936D01*
X150884423Y-53341936D01*
X150906981Y-53364493D01*
X150929538Y-53341936D01*
X150906981Y-53319378D01*
X150884423Y-53341936D01*
X147968028Y-53341936D01*
X148041272Y-53233444D01*
X148070203Y-53206589D01*
X149846767Y-53206589D01*
X149869325Y-53229147D01*
X149891883Y-53206589D01*
X149869325Y-53184032D01*
X149846767Y-53206589D01*
X148070203Y-53206589D01*
X148110591Y-53169100D01*
X148133816Y-53161474D01*
X148211416Y-53138333D01*
X148228152Y-53122979D01*
X148284043Y-53111778D01*
X148351205Y-53135302D01*
X148418385Y-53164012D01*
X148426874Y-53138105D01*
X148419592Y-53116891D01*
X148417453Y-53068897D01*
X148470971Y-53077572D01*
X148522837Y-53089124D01*
X148516526Y-53048869D01*
X148496965Y-53010411D01*
X148472255Y-52932410D01*
X148505081Y-52917507D01*
X148581130Y-52969733D01*
X148623145Y-53003561D01*
X148611291Y-52971943D01*
X148610049Y-52969733D01*
X148609657Y-52963029D01*
X149227932Y-52963029D01*
X149237398Y-53008235D01*
X149240609Y-53016794D01*
X149276350Y-53072040D01*
X149296669Y-53072437D01*
X149291608Y-53024711D01*
X149265865Y-52991539D01*
X149227932Y-52963029D01*
X148609657Y-52963029D01*
X148607143Y-52920148D01*
X148625988Y-52913339D01*
X148641527Y-52890781D01*
X149170036Y-52890781D01*
X149192593Y-52913339D01*
X149215151Y-52890781D01*
X149192593Y-52868223D01*
X149170036Y-52890781D01*
X148641527Y-52890781D01*
X148654233Y-52872336D01*
X148671148Y-52765352D01*
X148673302Y-52702800D01*
X148914381Y-52702800D01*
X148920574Y-52729621D01*
X148944458Y-52732877D01*
X148981594Y-52716370D01*
X148974535Y-52702800D01*
X148920994Y-52697401D01*
X148914381Y-52702800D01*
X148673302Y-52702800D01*
X148673766Y-52689349D01*
X148678907Y-52600250D01*
X149041858Y-52600250D01*
X149042964Y-52622121D01*
X149053841Y-52657615D01*
X149078006Y-52755046D01*
X149083366Y-52792961D01*
X149094277Y-52819311D01*
X149109117Y-52790971D01*
X149108475Y-52777993D01*
X149260267Y-52777993D01*
X149276774Y-52815128D01*
X149290344Y-52808070D01*
X149295743Y-52754528D01*
X149290344Y-52747916D01*
X149263522Y-52754109D01*
X149260267Y-52777993D01*
X149108475Y-52777993D01*
X149105197Y-52711789D01*
X149079591Y-52655625D01*
X149041858Y-52600250D01*
X148678907Y-52600250D01*
X148682247Y-52542388D01*
X148686891Y-52529858D01*
X148944458Y-52529858D01*
X148967016Y-52552415D01*
X148989574Y-52529858D01*
X148967016Y-52507300D01*
X148944458Y-52529858D01*
X148686891Y-52529858D01*
X148713371Y-52458425D01*
X148762317Y-52417968D01*
X148827188Y-52346835D01*
X148825734Y-52292313D01*
X148816203Y-52244911D01*
X148842562Y-52272396D01*
X148902623Y-52293955D01*
X148987172Y-52248660D01*
X149081897Y-52151119D01*
X149172488Y-52015942D01*
X149242250Y-51864405D01*
X149285475Y-51793019D01*
X149320592Y-51806880D01*
X149331162Y-51875684D01*
X149318452Y-51949077D01*
X149300903Y-51965914D01*
X149257671Y-51999690D01*
X149195072Y-52081267D01*
X149192991Y-52084428D01*
X149133872Y-52191180D01*
X149088514Y-52301535D01*
X149064151Y-52391790D01*
X149068015Y-52438241D01*
X149085722Y-52435970D01*
X149119262Y-52443371D01*
X149119093Y-52468936D01*
X149123601Y-52556752D01*
X149144252Y-52639493D01*
X149168721Y-52698820D01*
X149191085Y-52696910D01*
X149222599Y-52623993D01*
X149248185Y-52549262D01*
X149308969Y-52407429D01*
X149381267Y-52291099D01*
X149405578Y-52263927D01*
X149469081Y-52207350D01*
X149480865Y-52218691D01*
X149460134Y-52286485D01*
X149440717Y-52386082D01*
X149427964Y-52530959D01*
X149422182Y-52694521D01*
X149423680Y-52850176D01*
X149432766Y-52971330D01*
X149449748Y-53031391D01*
X149451490Y-53032781D01*
X149467020Y-53017825D01*
X149457612Y-52982494D01*
X149450118Y-52941668D01*
X149487429Y-52947154D01*
X149570632Y-52991429D01*
X149664165Y-53060486D01*
X149710162Y-53125458D01*
X149711136Y-53133161D01*
X149724247Y-53171688D01*
X149776442Y-53141108D01*
X149779094Y-53138916D01*
X149825900Y-53071243D01*
X149891883Y-53071243D01*
X149914441Y-53093801D01*
X149936998Y-53071243D01*
X149914441Y-53048685D01*
X149891883Y-53071243D01*
X149825900Y-53071243D01*
X149836361Y-53056120D01*
X149846077Y-53009325D01*
X149837106Y-52962920D01*
X149806601Y-52997108D01*
X149761405Y-53030673D01*
X149725773Y-52980190D01*
X149702202Y-52851563D01*
X149694656Y-52732616D01*
X149696492Y-52618290D01*
X149709111Y-52562835D01*
X149721255Y-52566783D01*
X149746642Y-52649074D01*
X149755846Y-52748983D01*
X149769172Y-52839646D01*
X149813212Y-52855638D01*
X149822765Y-52852463D01*
X149895361Y-52852944D01*
X149915658Y-52870194D01*
X149963081Y-52917813D01*
X149989458Y-52891129D01*
X149987337Y-52805037D01*
X149975188Y-52751204D01*
X149952238Y-52639486D01*
X149952466Y-52569652D01*
X149955954Y-52563537D01*
X149980721Y-52583931D01*
X150007290Y-52667655D01*
X150009998Y-52680556D01*
X150042177Y-52791866D01*
X150071097Y-52819192D01*
X150088536Y-52768646D01*
X150086272Y-52646338D01*
X150084101Y-52625481D01*
X150081198Y-52483483D01*
X150100943Y-52368042D01*
X150111773Y-52343509D01*
X150145556Y-52296333D01*
X150156270Y-52322711D01*
X150153897Y-52394511D01*
X150149386Y-52591561D01*
X150162019Y-52714683D01*
X150190809Y-52757885D01*
X150211871Y-52746744D01*
X150237184Y-52677569D01*
X150208215Y-52598510D01*
X150179905Y-52513880D01*
X150190291Y-52465806D01*
X150228455Y-52475465D01*
X150254569Y-52508606D01*
X150284732Y-52534833D01*
X150299200Y-52482229D01*
X150301728Y-52439627D01*
X150306853Y-52350137D01*
X150317471Y-52346007D01*
X150340250Y-52417069D01*
X150384137Y-52496364D01*
X150431518Y-52516734D01*
X150469342Y-52534331D01*
X150461361Y-52576818D01*
X150436460Y-52656307D01*
X150432577Y-52680173D01*
X150411791Y-52675733D01*
X150385037Y-52642646D01*
X150351294Y-52604585D01*
X150349760Y-52646845D01*
X150352509Y-52665204D01*
X150390492Y-52738666D01*
X150429339Y-52755435D01*
X150493440Y-52792692D01*
X150524733Y-52845666D01*
X150550911Y-52900262D01*
X150578024Y-52885203D01*
X150593829Y-52854096D01*
X150676313Y-52854096D01*
X150725959Y-52945473D01*
X150731837Y-52952440D01*
X150794075Y-53014864D01*
X150831666Y-53009289D01*
X150854756Y-52974362D01*
X150865288Y-52898553D01*
X150822499Y-52859714D01*
X150758008Y-52787020D01*
X150746023Y-52741914D01*
X150736726Y-52699573D01*
X150708620Y-52736882D01*
X150696527Y-52761081D01*
X150676313Y-52854096D01*
X150593829Y-52854096D01*
X150616946Y-52808598D01*
X150650138Y-52696904D01*
X150630432Y-52650694D01*
X150586178Y-52601383D01*
X150553981Y-52536551D01*
X150545608Y-52487990D01*
X150569131Y-52485062D01*
X150610773Y-52476689D01*
X150616590Y-52453568D01*
X150631778Y-52442889D01*
X150660251Y-52496021D01*
X150708606Y-52574181D01*
X150747623Y-52597531D01*
X150782627Y-52636131D01*
X150794192Y-52710319D01*
X150807574Y-52795136D01*
X150833250Y-52823108D01*
X150849666Y-52783827D01*
X150846503Y-52710319D01*
X150884423Y-52710319D01*
X150906981Y-52732877D01*
X150929538Y-52710319D01*
X150906981Y-52687762D01*
X150884423Y-52710319D01*
X150846503Y-52710319D01*
X150845403Y-52684784D01*
X150837165Y-52631367D01*
X150835294Y-52618461D01*
X150991111Y-52618461D01*
X151011608Y-52642646D01*
X151047458Y-52603420D01*
X151074283Y-52508766D01*
X151074716Y-52505882D01*
X151077961Y-52419371D01*
X151056692Y-52411873D01*
X151020549Y-52478885D01*
X150999242Y-52541136D01*
X150991111Y-52618461D01*
X150835294Y-52618461D01*
X150819598Y-52510223D01*
X150817010Y-52432487D01*
X150820665Y-52420829D01*
X150838012Y-52436745D01*
X150839307Y-52454665D01*
X150869517Y-52504330D01*
X150884423Y-52507300D01*
X150915524Y-52467831D01*
X150930738Y-52371705D01*
X150930973Y-52360675D01*
X150953270Y-52227457D01*
X151001621Y-52123819D01*
X151050161Y-52064935D01*
X151057805Y-52081578D01*
X151042298Y-52150136D01*
X151034336Y-52238318D01*
X151076170Y-52266428D01*
X151084439Y-52266684D01*
X151142169Y-52228112D01*
X151155116Y-52159966D01*
X151172555Y-52046910D01*
X151215287Y-51909893D01*
X151222789Y-51891283D01*
X151276979Y-51744930D01*
X151285516Y-51672643D01*
X151248709Y-51670840D01*
X151241620Y-51674967D01*
X151225231Y-51674018D01*
X151242204Y-51625918D01*
X151297036Y-51521323D01*
X151394227Y-51350885D01*
X151413864Y-51317128D01*
X151455395Y-51258192D01*
X151470259Y-51257642D01*
X151502040Y-51256485D01*
X151580980Y-51210424D01*
X151617549Y-51184274D01*
X151760392Y-51096072D01*
X151912466Y-51027534D01*
X151925916Y-51023031D01*
X152067182Y-50953831D01*
X152124215Y-50910532D01*
X152258168Y-50910532D01*
X152291889Y-50959477D01*
X152342059Y-50969813D01*
X152368536Y-50958795D01*
X152339115Y-50943402D01*
X152304971Y-50895335D01*
X152312249Y-50872320D01*
X152313748Y-50845648D01*
X152289237Y-50856733D01*
X152258168Y-50910532D01*
X152124215Y-50910532D01*
X152201100Y-50852163D01*
X152216328Y-50836985D01*
X152336810Y-50739672D01*
X152466258Y-50706756D01*
X152505741Y-50706346D01*
X152666483Y-50710010D01*
X152395791Y-50841138D01*
X152553695Y-50810803D01*
X152728359Y-50789928D01*
X152931835Y-50784095D01*
X153131617Y-50792376D01*
X153295196Y-50813839D01*
X153365773Y-50834023D01*
X153406022Y-50857149D01*
X153377860Y-50866686D01*
X153273295Y-50863466D01*
X153162753Y-50855106D01*
X152976343Y-50845073D01*
X152837555Y-50856565D01*
X152705073Y-50895887D01*
X152598810Y-50941148D01*
X152433295Y-51009184D01*
X152273717Y-51063642D01*
X152192771Y-51084575D01*
X152026286Y-51126072D01*
X151851148Y-51183371D01*
X151696674Y-51245522D01*
X151592178Y-51301570D01*
X151575212Y-51315309D01*
X151530584Y-51379871D01*
X151462683Y-51501742D01*
X151385314Y-51655966D01*
X151376361Y-51674802D01*
X151307763Y-51828389D01*
X151264527Y-51957022D01*
X151240596Y-52091420D01*
X151229915Y-52262301D01*
X151226958Y-52432478D01*
X151229527Y-52648891D01*
X151240967Y-52805019D01*
X151260143Y-52888434D01*
X151269541Y-52898597D01*
X151309798Y-52874589D01*
X151323132Y-52823654D01*
X151313726Y-52750224D01*
X151293874Y-52732877D01*
X151277052Y-52693050D01*
X151269400Y-52593619D01*
X151270123Y-52464658D01*
X151278431Y-52336243D01*
X151293529Y-52238449D01*
X151307809Y-52204222D01*
X151322758Y-52201683D01*
X151334025Y-52237598D01*
X151343087Y-52325409D01*
X151351422Y-52478560D01*
X151359038Y-52670128D01*
X151372064Y-52846308D01*
X151403556Y-52948075D01*
X151466246Y-52991067D01*
X151572864Y-52990918D01*
X151615257Y-52984808D01*
X151732668Y-52974617D01*
X151768340Y-52994115D01*
X151764832Y-53002506D01*
X151767412Y-53044840D01*
X151784069Y-53048685D01*
X151822737Y-53010365D01*
X151835409Y-52947176D01*
X151845375Y-52888611D01*
X151860225Y-52897555D01*
X151918399Y-52928291D01*
X152003288Y-52916269D01*
X152161022Y-52915403D01*
X152320974Y-53001027D01*
X152363432Y-53037406D01*
X152444784Y-53088096D01*
X152499142Y-53079688D01*
X152508579Y-53048685D01*
X152545121Y-53008660D01*
X152576252Y-53003570D01*
X152636279Y-53028680D01*
X152643926Y-53050101D01*
X152607872Y-53105041D01*
X152576252Y-53122601D01*
X152512548Y-53175616D01*
X152521888Y-53235425D01*
X152594863Y-53272170D01*
X152624030Y-53274263D01*
X152700789Y-53288584D01*
X152711599Y-53319378D01*
X152647965Y-53357278D01*
X152596147Y-53364493D01*
X152524335Y-53386292D01*
X152508579Y-53415248D01*
X152547461Y-53446241D01*
X152643926Y-53438934D01*
X152743802Y-53431084D01*
X152778616Y-53465817D01*
X152779272Y-53476168D01*
X152814336Y-53549971D01*
X152858224Y-53586457D01*
X152903005Y-53625198D01*
X152892061Y-53639018D01*
X152804849Y-53655383D01*
X152801830Y-53656076D01*
X152714713Y-53672016D01*
X152704544Y-53673430D01*
X152675852Y-53712410D01*
X152679838Y-53786055D01*
X152709095Y-53848192D01*
X152734591Y-53860763D01*
X152778845Y-53824872D01*
X152796684Y-53790231D01*
X152838183Y-53741562D01*
X152880220Y-53760738D01*
X152901773Y-53827985D01*
X152896009Y-53883651D01*
X152897879Y-53996955D01*
X152937191Y-54115585D01*
X152983694Y-54251801D01*
X153004497Y-54405660D01*
X153004571Y-54413045D01*
X153026599Y-54557198D01*
X153092786Y-54636764D01*
X153151358Y-54691752D01*
X153131912Y-54750400D01*
X153128326Y-54754817D01*
X153102952Y-54818271D01*
X153151114Y-54872929D01*
X153194185Y-54916085D01*
X153203126Y-54976255D01*
X153179423Y-55082494D01*
X153164436Y-55133463D01*
X153130036Y-55278201D01*
X153135502Y-55363001D01*
X153152965Y-55389412D01*
X153177662Y-55431660D01*
X153144328Y-55439804D01*
X153105377Y-55472315D01*
X153113606Y-55552593D01*
X153127789Y-55631430D01*
X153106572Y-55658936D01*
X153033869Y-55638605D01*
X152931733Y-55592102D01*
X152836514Y-55552340D01*
X152758132Y-55543988D01*
X152661207Y-55569119D01*
X152546696Y-55614659D01*
X152380009Y-55670481D01*
X152214522Y-55705029D01*
X152144302Y-55710497D01*
X152025756Y-55721930D01*
X151950309Y-55750201D01*
X151943164Y-55757994D01*
X151881248Y-55789927D01*
X151861550Y-55786209D01*
X151786873Y-55793921D01*
X151679041Y-55839866D01*
X151569830Y-55905674D01*
X151491013Y-55972973D01*
X151470924Y-56012055D01*
X151443647Y-56066555D01*
X151425808Y-56071421D01*
X151383238Y-56036176D01*
X151380693Y-56018786D01*
X151364499Y-55986364D01*
X151354480Y-55992364D01*
X151353419Y-56046874D01*
X151382776Y-56120429D01*
X151409189Y-56190853D01*
X151388938Y-56250473D01*
X151309799Y-56327804D01*
X151284922Y-56348657D01*
X151180678Y-56426548D01*
X151100210Y-56471764D01*
X151082420Y-56476246D01*
X151051201Y-56514766D01*
X151053333Y-56587582D01*
X151050283Y-56696482D01*
X151017730Y-56840191D01*
X150998470Y-56896483D01*
X150954379Y-57026955D01*
X150947044Y-57120342D01*
X150975928Y-57221724D01*
X150994073Y-57266427D01*
X151042270Y-57416156D01*
X151082101Y-57598502D01*
X151094007Y-57679373D01*
X151117772Y-57825448D01*
X151150365Y-57899852D01*
X151200049Y-57921142D01*
X151201691Y-57921154D01*
X151250933Y-57933490D01*
X151261645Y-57986413D01*
X151243151Y-58088794D01*
X151226606Y-58209465D01*
X151233937Y-58293790D01*
X151238661Y-58303092D01*
X151259357Y-58383727D01*
X151265768Y-58537241D01*
X151257427Y-58747344D01*
X151253057Y-58805874D01*
X151218663Y-58893267D01*
X151139932Y-59008076D01*
X151088378Y-59067507D01*
X150986283Y-59166766D01*
X150907004Y-59209941D01*
X150817175Y-59211552D01*
X150773870Y-59204387D01*
X150641948Y-59162018D01*
X150485060Y-59087829D01*
X150410444Y-59044264D01*
X150258601Y-58963446D01*
X150128891Y-58921118D01*
X150034385Y-58915818D01*
X149988155Y-58946080D01*
X150003273Y-59010443D01*
X150065532Y-59082877D01*
X150259834Y-59262701D01*
X150410230Y-59390118D01*
X150534857Y-59478241D01*
X150651851Y-59540181D01*
X150753309Y-59580104D01*
X150933795Y-59633610D01*
X151056764Y-59641734D01*
X151143146Y-59603684D01*
X151181769Y-59563880D01*
X151227711Y-59530947D01*
X151297789Y-59541646D01*
X151397019Y-59587249D01*
X151610139Y-59652610D01*
X151737662Y-59655083D01*
X151855021Y-59651675D01*
X151913289Y-59679584D01*
X151938253Y-59737635D01*
X151967649Y-59803921D01*
X152010806Y-59790021D01*
X152019855Y-59781389D01*
X152085898Y-59734127D01*
X152127634Y-59731122D01*
X152119978Y-59771040D01*
X152108629Y-59786109D01*
X152034773Y-59825582D01*
X151911023Y-59850948D01*
X151866248Y-59854286D01*
X151708679Y-59872637D01*
X151521606Y-59910653D01*
X151425808Y-59936333D01*
X151269337Y-59975052D01*
X151084945Y-60003860D01*
X150858130Y-60023928D01*
X150574384Y-60036428D01*
X150219203Y-60042533D01*
X150102166Y-60043268D01*
X149899597Y-60045779D01*
X149773849Y-60052699D01*
X149711538Y-60066344D01*
X149699279Y-60089028D01*
X149712568Y-60110635D01*
X149798701Y-60154869D01*
X149863209Y-60152714D01*
X149959587Y-60150865D01*
X150103911Y-60171131D01*
X150207550Y-60194546D01*
X150383765Y-60230559D01*
X150488268Y-60225988D01*
X150511022Y-60213677D01*
X150573928Y-60198568D01*
X150696226Y-60191313D01*
X150847443Y-60191617D01*
X150997108Y-60199185D01*
X151114750Y-60213723D01*
X151140529Y-60219763D01*
X151157067Y-60258425D01*
X151169583Y-60300994D01*
X151189149Y-60348187D01*
X151211159Y-60314686D01*
X151222545Y-60281202D01*
X151271958Y-60210243D01*
X151378932Y-60159683D01*
X151477683Y-60134576D01*
X151637926Y-60101812D01*
X151721142Y-60090146D01*
X151737981Y-60099360D01*
X151699092Y-60129235D01*
X151697808Y-60130049D01*
X151654853Y-60178486D01*
X151659485Y-60200065D01*
X151711534Y-60196620D01*
X151816905Y-60158570D01*
X151916092Y-60112287D01*
X152045548Y-60052078D01*
X152153025Y-60011198D01*
X152223056Y-59993600D01*
X152240171Y-60003237D01*
X152192771Y-60041581D01*
X152154808Y-60077747D01*
X152165927Y-60086005D01*
X152170262Y-60114121D01*
X152125098Y-60176927D01*
X152042889Y-60244787D01*
X151982759Y-60267158D01*
X151929481Y-60303569D01*
X151922078Y-60336800D01*
X151882610Y-60439474D01*
X151780359Y-60544893D01*
X151639556Y-60631922D01*
X151542831Y-60667563D01*
X151423612Y-60692710D01*
X151343318Y-60697111D01*
X151332318Y-60693740D01*
X151270278Y-60694049D01*
X151170180Y-60724371D01*
X151051019Y-60765150D01*
X150963397Y-60784826D01*
X150872356Y-60812195D01*
X150839700Y-60857475D01*
X150851853Y-60881243D01*
X150911821Y-60897267D01*
X151035614Y-60906754D01*
X151197074Y-60909833D01*
X151370042Y-60906631D01*
X151528360Y-60897276D01*
X151645869Y-60881896D01*
X151665314Y-60877262D01*
X151762307Y-60828828D01*
X151893399Y-60736089D01*
X151914222Y-60718312D01*
X152666483Y-60718312D01*
X152676711Y-60756936D01*
X152708936Y-60763428D01*
X152770664Y-60739873D01*
X152779272Y-60718312D01*
X152746891Y-60674488D01*
X152736819Y-60673197D01*
X152675717Y-60705991D01*
X152666483Y-60718312D01*
X151914222Y-60718312D01*
X152026238Y-60622687D01*
X152146180Y-60514410D01*
X152241504Y-60435893D01*
X152292798Y-60403053D01*
X152294281Y-60402876D01*
X152320334Y-60364109D01*
X152324572Y-60327400D01*
X152662479Y-60327400D01*
X152670531Y-60387312D01*
X152720381Y-60416040D01*
X152811892Y-60435042D01*
X152859898Y-60436775D01*
X152843239Y-60420929D01*
X152835666Y-60417740D01*
X152784678Y-60358323D01*
X152779272Y-60327312D01*
X152751844Y-60277445D01*
X152725697Y-60277497D01*
X152662479Y-60327400D01*
X152324572Y-60327400D01*
X152328117Y-60296708D01*
X152360594Y-60184625D01*
X152414027Y-60113165D01*
X152493163Y-60061964D01*
X152569201Y-60079374D01*
X152589987Y-60091656D01*
X152651281Y-60159909D01*
X152655141Y-60212774D01*
X152650229Y-60253945D01*
X152699611Y-60240073D01*
X152724803Y-60227048D01*
X152811341Y-60168396D01*
X152848229Y-60129734D01*
X152908603Y-60104096D01*
X152969180Y-60112252D01*
X153033542Y-60120299D01*
X153030394Y-60091529D01*
X152964353Y-60050251D01*
X152907129Y-60041581D01*
X152839618Y-60020422D01*
X152840148Y-59975352D01*
X152837575Y-59901457D01*
X152818487Y-59880030D01*
X152788661Y-59817893D01*
X152792658Y-59769687D01*
X152780068Y-59703215D01*
X152959734Y-59703215D01*
X152982291Y-59725772D01*
X153004849Y-59703215D01*
X152982291Y-59680657D01*
X152959734Y-59703215D01*
X152780068Y-59703215D01*
X152778000Y-59692302D01*
X152728915Y-59666214D01*
X152658485Y-59622665D01*
X152643926Y-59587130D01*
X152660359Y-59552080D01*
X152672415Y-59558762D01*
X152729741Y-59563276D01*
X152785204Y-59542136D01*
X152854712Y-59520490D01*
X152869503Y-59546386D01*
X152897500Y-59573772D01*
X152918074Y-59565733D01*
X152979953Y-59573292D01*
X153055686Y-59631290D01*
X153112398Y-59701993D01*
X153105616Y-59738423D01*
X153074789Y-59753703D01*
X153021851Y-59799764D01*
X153005930Y-59859833D01*
X153030468Y-59897669D01*
X153061243Y-59896258D01*
X153125684Y-59838777D01*
X153193855Y-59722130D01*
X153252733Y-59575816D01*
X153289294Y-59429331D01*
X153295114Y-59366546D01*
X153327324Y-59215158D01*
X153406069Y-59133840D01*
X153514865Y-59128911D01*
X153637229Y-59206688D01*
X153657384Y-59227691D01*
X153703587Y-59306006D01*
X153692386Y-59401673D01*
X153680048Y-59436553D01*
X153653952Y-59540732D01*
X153678406Y-59581848D01*
X153702488Y-59623598D01*
X153677565Y-59688160D01*
X153647598Y-59777327D01*
X153674168Y-59804586D01*
X153745031Y-59758907D01*
X153750328Y-59753701D01*
X153834456Y-59689060D01*
X153877651Y-59698480D01*
X153873270Y-59777943D01*
X153867665Y-59845707D01*
X153900051Y-59842953D01*
X153935582Y-59779649D01*
X153952121Y-59668709D01*
X153952274Y-59656853D01*
X153962902Y-59551865D01*
X153998660Y-59522862D01*
X154014419Y-59526874D01*
X154058514Y-59514318D01*
X154091823Y-59429809D01*
X154109889Y-59333718D01*
X154131096Y-59223868D01*
X154153000Y-59182083D01*
X154178557Y-59213249D01*
X154210729Y-59322249D01*
X154252472Y-59513969D01*
X154268831Y-59596112D01*
X154295150Y-59748336D01*
X154303933Y-59874091D01*
X154293513Y-60004627D01*
X154262229Y-60171196D01*
X154230832Y-60309665D01*
X154180770Y-60510603D01*
X154129407Y-60694173D01*
X154085137Y-60831138D01*
X154070593Y-60867923D01*
X154018428Y-60986335D01*
X153979156Y-61076306D01*
X153977892Y-61079236D01*
X153926166Y-61185356D01*
X153872239Y-61276451D01*
X153831020Y-61329506D01*
X153817111Y-61327371D01*
X153789230Y-61334484D01*
X153717099Y-61396091D01*
X153616114Y-61498980D01*
X153612378Y-61503024D01*
X153508230Y-61611699D01*
X153430668Y-61684629D01*
X153396438Y-61706073D01*
X153396417Y-61706044D01*
X153367232Y-61648355D01*
X153326225Y-61553102D01*
X153290106Y-61460824D01*
X153275542Y-61412816D01*
X153303122Y-61407092D01*
X153309378Y-61410544D01*
X153335729Y-61387029D01*
X153352606Y-61301450D01*
X153352875Y-61297906D01*
X153379534Y-61188332D01*
X153439464Y-61030973D01*
X153519079Y-60855151D01*
X153604791Y-60690190D01*
X153683013Y-60565414D01*
X153705048Y-60537850D01*
X153750562Y-60457379D01*
X153795565Y-60333702D01*
X153831960Y-60197656D01*
X153851651Y-60080075D01*
X153846543Y-60011796D01*
X153844023Y-60008522D01*
X153795628Y-60015680D01*
X153719538Y-60073828D01*
X153716671Y-60076670D01*
X153657626Y-60153779D01*
X153649822Y-60205237D01*
X153650717Y-60206217D01*
X153697601Y-60199882D01*
X153747476Y-60151076D01*
X153794159Y-60093098D01*
X153799341Y-60112888D01*
X153786503Y-60167028D01*
X153734871Y-60273454D01*
X153687237Y-60324932D01*
X153634702Y-60389395D01*
X153558695Y-60513135D01*
X153472928Y-60673214D01*
X153443999Y-60731805D01*
X153363653Y-60886594D01*
X153293670Y-61000532D01*
X153245050Y-61056533D01*
X153233554Y-61058611D01*
X153184439Y-61066310D01*
X153177885Y-61078955D01*
X153169402Y-61065448D01*
X153163912Y-60981930D01*
X153162753Y-60899273D01*
X153173921Y-60748826D01*
X153204717Y-60663599D01*
X153219148Y-60652554D01*
X153272611Y-60605357D01*
X153246986Y-60552500D01*
X153185311Y-60524778D01*
X153108934Y-60464314D01*
X153095080Y-60406728D01*
X153067847Y-60329945D01*
X153027407Y-60312273D01*
X152972679Y-60350967D01*
X152959734Y-60416039D01*
X152941815Y-60517150D01*
X152915389Y-60564149D01*
X152894114Y-60642088D01*
X152903333Y-60798704D01*
X152914632Y-60876301D01*
X152935758Y-61041504D01*
X152930384Y-61160239D01*
X152894069Y-61273534D01*
X152864721Y-61337249D01*
X152801474Y-61450736D01*
X152746754Y-61520187D01*
X152727974Y-61530390D01*
X152676346Y-61560918D01*
X152585710Y-61640279D01*
X152493921Y-61732380D01*
X152272406Y-61916908D01*
X152049390Y-62021664D01*
X151889451Y-62082567D01*
X151748768Y-62146080D01*
X151684524Y-62181780D01*
X151554600Y-62233414D01*
X151441910Y-62244585D01*
X151326641Y-62248690D01*
X151253193Y-62269946D01*
X151168386Y-62282095D01*
X151023892Y-62263686D01*
X150842800Y-62220069D01*
X150648202Y-62156595D01*
X150497885Y-62094918D01*
X150351756Y-62009502D01*
X150180949Y-61882280D01*
X150020214Y-61739344D01*
X150007437Y-61726608D01*
X149880490Y-61600418D01*
X149827449Y-61552948D01*
X149936998Y-61552948D01*
X149959556Y-61575506D01*
X149982114Y-61552948D01*
X149959556Y-61530390D01*
X149936998Y-61552948D01*
X149827449Y-61552948D01*
X149805388Y-61533205D01*
X149771396Y-61518943D01*
X149767779Y-61551605D01*
X149777140Y-61597315D01*
X149837385Y-61726654D01*
X149957486Y-61888103D01*
X150121957Y-62064114D01*
X150315315Y-62237142D01*
X150401289Y-62304609D01*
X150518841Y-62394888D01*
X150571777Y-62446389D01*
X150568008Y-62474015D01*
X150515442Y-62492669D01*
X150502799Y-62495875D01*
X150422672Y-62539008D01*
X150388680Y-62598910D01*
X150409099Y-62646959D01*
X150455826Y-62658277D01*
X150512122Y-62689813D01*
X150522294Y-62760301D01*
X150490183Y-62833558D01*
X150433268Y-62870782D01*
X150360130Y-62906491D01*
X150343037Y-62934231D01*
X150305179Y-62966553D01*
X150252194Y-62974085D01*
X150134005Y-62995303D01*
X150083011Y-63016246D01*
X149986736Y-63062421D01*
X149862273Y-63115782D01*
X149858046Y-63117490D01*
X149749306Y-63180020D01*
X149714230Y-63242765D01*
X149757620Y-63292501D01*
X149790373Y-63303909D01*
X149828748Y-63320178D01*
X149780493Y-63328902D01*
X149765153Y-63329775D01*
X149694203Y-63350306D01*
X149690764Y-63383200D01*
X149752652Y-63413992D01*
X149778551Y-63409133D01*
X149818345Y-63419003D01*
X149813077Y-63476652D01*
X149806429Y-63524406D01*
X149830836Y-63547891D01*
X149904782Y-63551183D01*
X150046745Y-63538361D01*
X150049821Y-63538028D01*
X150839307Y-63538028D01*
X150861865Y-63560586D01*
X150884423Y-63538028D01*
X150861865Y-63515470D01*
X150839307Y-63538028D01*
X150049821Y-63538028D01*
X150077598Y-63535022D01*
X150289143Y-63506239D01*
X150523318Y-63466028D01*
X150658846Y-63438446D01*
X150829352Y-63400993D01*
X150979344Y-63368802D01*
X151064885Y-63351150D01*
X151177673Y-63329021D01*
X151053606Y-63410138D01*
X150968495Y-63475520D01*
X150929762Y-63524495D01*
X150929538Y-63526779D01*
X150966978Y-63543260D01*
X151059988Y-63533239D01*
X151179606Y-63501765D01*
X151267904Y-63467776D01*
X151392446Y-63416253D01*
X151527969Y-63366428D01*
X151627948Y-63335393D01*
X151628828Y-63335184D01*
X151688285Y-63300843D01*
X151783556Y-63227392D01*
X151821823Y-63194710D01*
X151962856Y-63085756D01*
X152116255Y-62987581D01*
X152137631Y-62975876D01*
X152283888Y-62880788D01*
X152423605Y-62763610D01*
X152440906Y-62746239D01*
X152550744Y-62646704D01*
X152702156Y-62527408D01*
X152842995Y-62427456D01*
X153067220Y-62270900D01*
X153251287Y-62128868D01*
X153385604Y-62009758D01*
X153460578Y-61921967D01*
X153470453Y-61878194D01*
X153471137Y-61854295D01*
X153498033Y-61866849D01*
X153555051Y-61852702D01*
X153655057Y-61779795D01*
X153785860Y-61660763D01*
X153935270Y-61508238D01*
X154091097Y-61334855D01*
X154241150Y-61153246D01*
X154373238Y-60976047D01*
X154410384Y-60921332D01*
X154621827Y-60595797D01*
X154786305Y-60327180D01*
X154910138Y-60099583D01*
X154999649Y-59897108D01*
X155061159Y-59703858D01*
X155100988Y-59503934D01*
X155125460Y-59281440D01*
X155137395Y-59092982D01*
X155158782Y-58915188D01*
X155207065Y-58796313D01*
X155250517Y-58743337D01*
X155335491Y-58623959D01*
X155338820Y-58501400D01*
X155297012Y-58403179D01*
X155254534Y-58281478D01*
X155225650Y-58114357D01*
X155211817Y-57930892D01*
X155214489Y-57760159D01*
X155235121Y-57631234D01*
X155256147Y-57586750D01*
X155278950Y-57520283D01*
X155302600Y-57390205D01*
X155322427Y-57222969D01*
X155324529Y-57199307D01*
X155355461Y-56847062D01*
X155381951Y-56574991D01*
X155405694Y-56373246D01*
X155428387Y-56231978D01*
X155451723Y-56141339D01*
X155477400Y-56091482D01*
X155507112Y-56072559D01*
X155518706Y-56071421D01*
X155548290Y-56060872D01*
X155565614Y-56019385D01*
X155571722Y-55932195D01*
X155567659Y-55784541D01*
X155554614Y-55563872D01*
X155541470Y-55353651D01*
X155531333Y-55172952D01*
X155525325Y-55043049D01*
X155524294Y-54988650D01*
X155537610Y-54664454D01*
X155545773Y-54418062D01*
X155548766Y-54237195D01*
X155546575Y-54109573D01*
X155539185Y-54022917D01*
X155526578Y-53964945D01*
X155522988Y-53954508D01*
X155492282Y-53840639D01*
X155464889Y-53689395D01*
X155458563Y-53641469D01*
X155430816Y-53487264D01*
X155390916Y-53351870D01*
X155378186Y-53322147D01*
X155329796Y-53205973D01*
X155276737Y-53054611D01*
X155260795Y-53003570D01*
X155216726Y-52873186D01*
X155176019Y-52778941D01*
X155162546Y-52757691D01*
X155128684Y-52676939D01*
X155125275Y-52643162D01*
X155108360Y-52567166D01*
X155066946Y-52462716D01*
X155015031Y-52358025D01*
X154966612Y-52281307D01*
X154935686Y-52260775D01*
X154935603Y-52260856D01*
X154902601Y-52241655D01*
X154854546Y-52168866D01*
X154798035Y-52086917D01*
X154754066Y-52056145D01*
X154733441Y-52028474D01*
X154739886Y-52014117D01*
X154727866Y-51960043D01*
X154675163Y-51908560D01*
X154615557Y-51851915D01*
X154609882Y-51819615D01*
X154608942Y-51764016D01*
X154567252Y-51663121D01*
X154499325Y-51542957D01*
X154419673Y-51429557D01*
X154351424Y-51356045D01*
X154213544Y-51245573D01*
X154077677Y-51149892D01*
X153966963Y-51084297D01*
X153908985Y-51063605D01*
X153863706Y-51030375D01*
X153862043Y-51018490D01*
X153898518Y-50978312D01*
X153928787Y-50973374D01*
X153993043Y-50942137D01*
X154091982Y-50861060D01*
X154182668Y-50770355D01*
X154288005Y-50663099D01*
X154372647Y-50589519D01*
X154412397Y-50567335D01*
X154477212Y-50538657D01*
X154515705Y-50506620D01*
X154590406Y-50465365D01*
X154722628Y-50419960D01*
X154852634Y-50387287D01*
X154995135Y-50361038D01*
X155116769Y-50352513D01*
X155247843Y-50363252D01*
G37*
G36*
X149707655Y-63794844D02*
G01*
X149880604Y-63810850D01*
X150077939Y-63830744D01*
X150265920Y-63847912D01*
X150405424Y-63858793D01*
X150410711Y-63859125D01*
X150561151Y-63869046D01*
X150636933Y-63877934D01*
X150653467Y-63890210D01*
X150626161Y-63910296D01*
X150613730Y-63917372D01*
X150524427Y-63944596D01*
X150376669Y-63966697D01*
X150194278Y-63982678D01*
X150001075Y-63991546D01*
X149820885Y-63992306D01*
X149677528Y-63983963D01*
X149594828Y-63965522D01*
X149587354Y-63960231D01*
X149537755Y-63876211D01*
X149530959Y-63838590D01*
X149544964Y-63806868D01*
X149598235Y-63792732D01*
X149707655Y-63794844D01*
G37*
G36*
X150027229Y-63357566D02*
G01*
X150004672Y-63380124D01*
X149982114Y-63357566D01*
X150004672Y-63335009D01*
X150027229Y-63357566D01*
G37*
G36*
X151245346Y-63312451D02*
G01*
X151222789Y-63335009D01*
X151200231Y-63312451D01*
X151222789Y-63289893D01*
X151245346Y-63312451D01*
G37*
G36*
X152012309Y-62725950D02*
G01*
X151989751Y-62748508D01*
X151967194Y-62725950D01*
X151989751Y-62703392D01*
X152012309Y-62725950D01*
G37*
G36*
X152102540Y-62680835D02*
G01*
X152079982Y-62703392D01*
X152057425Y-62680835D01*
X152079982Y-62658277D01*
X152102540Y-62680835D01*
G37*
G36*
X151019769Y-62635719D02*
G01*
X150997211Y-62658277D01*
X150974654Y-62635719D01*
X150997211Y-62613161D01*
X151019769Y-62635719D01*
G37*
G36*
X150568615Y-62590604D02*
G01*
X150546057Y-62613161D01*
X150523499Y-62590604D01*
X150546057Y-62568046D01*
X150568615Y-62590604D01*
G37*
G36*
X150884423Y-62590604D02*
G01*
X150861865Y-62613161D01*
X150839307Y-62590604D01*
X150861865Y-62568046D01*
X150884423Y-62590604D01*
G37*
G36*
X150734038Y-62537969D02*
G01*
X150727845Y-62564790D01*
X150703961Y-62568046D01*
X150666826Y-62551539D01*
X150673884Y-62537969D01*
X150727426Y-62532569D01*
X150734038Y-62537969D01*
G37*
G36*
X152283002Y-62500373D02*
G01*
X152260444Y-62522930D01*
X152237886Y-62500373D01*
X152260444Y-62477815D01*
X152283002Y-62500373D01*
G37*
G36*
X152011792Y-62151797D02*
G01*
X152012309Y-62162007D01*
X151977627Y-62205389D01*
X151964531Y-62207122D01*
X151937587Y-62179483D01*
X151944636Y-62162007D01*
X151985177Y-62118967D01*
X151992414Y-62116891D01*
X152011792Y-62151797D01*
G37*
G36*
X152147656Y-62094334D02*
G01*
X152125098Y-62116891D01*
X152102540Y-62094334D01*
X152125098Y-62071776D01*
X152147656Y-62094334D01*
G37*
G36*
X153591350Y-61823641D02*
G01*
X153568792Y-61846199D01*
X153546235Y-61823641D01*
X153568792Y-61801083D01*
X153591350Y-61823641D01*
G37*
G36*
X153185311Y-61733410D02*
G01*
X153162753Y-61755968D01*
X153140195Y-61733410D01*
X153162753Y-61710852D01*
X153185311Y-61733410D01*
G37*
G36*
X153771812Y-61598064D02*
G01*
X153749254Y-61620621D01*
X153726696Y-61598064D01*
X153749254Y-61575506D01*
X153771812Y-61598064D01*
G37*
G36*
X153125157Y-60823582D02*
G01*
X153130556Y-60877123D01*
X153125157Y-60883736D01*
X153098336Y-60877543D01*
X153095080Y-60853659D01*
X153111587Y-60816524D01*
X153125157Y-60823582D01*
G37*
G36*
X154403428Y-60831101D02*
G01*
X154380870Y-60853659D01*
X154358313Y-60831101D01*
X154380870Y-60808543D01*
X154403428Y-60831101D01*
G37*
G36*
X152012309Y-60425062D02*
G01*
X151989751Y-60447620D01*
X151967194Y-60425062D01*
X151989751Y-60402504D01*
X152012309Y-60425062D01*
G37*
G36*
X152696491Y-59898454D02*
G01*
X152730127Y-59985333D01*
X152719416Y-60051371D01*
X152698639Y-60084622D01*
X152692603Y-60052859D01*
X152650298Y-60012454D01*
X152553695Y-59996465D01*
X152458646Y-59984615D01*
X152418358Y-59956066D01*
X152418348Y-59955573D01*
X152454594Y-59933270D01*
X152515634Y-59940122D01*
X152583399Y-59945727D01*
X152580645Y-59913341D01*
X152584761Y-59868752D01*
X152620121Y-59861119D01*
X152696491Y-59898454D01*
G37*
G36*
X152321147Y-59969599D02*
G01*
X152369200Y-60011538D01*
X152373233Y-60021685D01*
X152351822Y-60040228D01*
X152307245Y-59998678D01*
X152301251Y-59989494D01*
X152295934Y-59958622D01*
X152321147Y-59969599D01*
G37*
G36*
X152823870Y-59354639D02*
G01*
X152824387Y-59364849D01*
X152789705Y-59408230D01*
X152776609Y-59409964D01*
X152749665Y-59382325D01*
X152756714Y-59364849D01*
X152797255Y-59321809D01*
X152804492Y-59319733D01*
X152823870Y-59354639D01*
G37*
G36*
X152119913Y-58457640D02*
G01*
X152263178Y-58543377D01*
X152339331Y-58601781D01*
X152514876Y-58742510D01*
X152710474Y-58899334D01*
X152840912Y-59003925D01*
X152957661Y-59103916D01*
X153032755Y-59180951D01*
X153052097Y-59220292D01*
X153049467Y-59221983D01*
X153012235Y-59273498D01*
X153004849Y-59323493D01*
X152982891Y-59398563D01*
X152935225Y-59397179D01*
X152896339Y-59337172D01*
X152835558Y-59284605D01*
X152778133Y-59287988D01*
X152685873Y-59275340D01*
X152635711Y-59214154D01*
X152623906Y-59189214D01*
X152689041Y-59189214D01*
X152704770Y-59227039D01*
X152756097Y-59188472D01*
X152780129Y-59160796D01*
X152813046Y-59111885D01*
X152777401Y-59115193D01*
X152763095Y-59120508D01*
X152699541Y-59164568D01*
X152689041Y-59189214D01*
X152623906Y-59189214D01*
X152598680Y-59135924D01*
X152591186Y-59105435D01*
X152592091Y-59047174D01*
X152509854Y-59007053D01*
X152444071Y-58995732D01*
X152348120Y-58992678D01*
X152309825Y-59008296D01*
X152311387Y-59013354D01*
X152303417Y-59043828D01*
X152243244Y-59043312D01*
X152162763Y-59013512D01*
X152147656Y-59004584D01*
X152119416Y-58971813D01*
X152165353Y-58946324D01*
X152208489Y-58936252D01*
X152463464Y-58936252D01*
X152486021Y-58958810D01*
X152508579Y-58936252D01*
X152486021Y-58913694D01*
X152463464Y-58936252D01*
X152208489Y-58936252D01*
X152228370Y-58931610D01*
X152330006Y-58892508D01*
X152354894Y-58846361D01*
X152304240Y-58815028D01*
X152221875Y-58813892D01*
X152134545Y-58807427D01*
X152102540Y-58777015D01*
X152067413Y-58747705D01*
X152009149Y-58756793D01*
X151946387Y-58766489D01*
X151925755Y-58725399D01*
X151928879Y-58665559D01*
X152237886Y-58665559D01*
X152260444Y-58688117D01*
X152283002Y-58665559D01*
X152260444Y-58643001D01*
X152237886Y-58665559D01*
X151928879Y-58665559D01*
X151930197Y-58640316D01*
X151944515Y-58576213D01*
X152068070Y-58576213D01*
X152113595Y-58628296D01*
X152155842Y-58643001D01*
X152174028Y-58617224D01*
X152146751Y-58574238D01*
X152091583Y-58526944D01*
X152069036Y-58526121D01*
X152068070Y-58576213D01*
X151944515Y-58576213D01*
X151960319Y-58505459D01*
X152021259Y-58444784D01*
X152119913Y-58457640D01*
G37*
G36*
X154041987Y-59309523D02*
G01*
X154042505Y-59319733D01*
X154007822Y-59363115D01*
X153994727Y-59364849D01*
X153967782Y-59337209D01*
X153974831Y-59319733D01*
X154015372Y-59276694D01*
X154022609Y-59274618D01*
X154041987Y-59309523D01*
G37*
G36*
X151606270Y-59297176D02*
G01*
X151583712Y-59319733D01*
X151561155Y-59297176D01*
X151583712Y-59274618D01*
X151606270Y-59297176D01*
G37*
G36*
X151606270Y-59116714D02*
G01*
X151583712Y-59139271D01*
X151561155Y-59116714D01*
X151583712Y-59094156D01*
X151606270Y-59116714D01*
G37*
G36*
X153844509Y-56738851D02*
G01*
X153876427Y-56798286D01*
X153874635Y-56875526D01*
X153806098Y-56928357D01*
X153772065Y-56942329D01*
X153685940Y-56978344D01*
X153677883Y-57004056D01*
X153740740Y-57039954D01*
X153836326Y-57131135D01*
X153856442Y-57259159D01*
X153837470Y-57326010D01*
X153818962Y-57418559D01*
X153813140Y-57553254D01*
X153814258Y-57590056D01*
X153807681Y-57729730D01*
X153766195Y-57806728D01*
X153744526Y-57821842D01*
X153665935Y-57907432D01*
X153633717Y-58056733D01*
X153632919Y-58138896D01*
X153609300Y-58249768D01*
X153572588Y-58307285D01*
X153530829Y-58402548D01*
X153534945Y-58469356D01*
X153541980Y-58539517D01*
X153499096Y-58543973D01*
X153485813Y-58539238D01*
X153422243Y-58540189D01*
X153410888Y-58575328D01*
X153439719Y-58618950D01*
X153489721Y-58609918D01*
X153523329Y-58608980D01*
X153486938Y-58660107D01*
X153454508Y-58693714D01*
X153300243Y-58808394D01*
X153155095Y-58837284D01*
X153068028Y-58809221D01*
X152965576Y-58767190D01*
X152913278Y-58756522D01*
X152816911Y-58724266D01*
X152672209Y-58645927D01*
X152498910Y-58534648D01*
X152316752Y-58403570D01*
X152145474Y-58265835D01*
X152057425Y-58186685D01*
X151951050Y-58080493D01*
X151888459Y-58006930D01*
X151879739Y-57978320D01*
X151888242Y-57980012D01*
X151954960Y-57979819D01*
X151967194Y-57944683D01*
X151954356Y-57898596D01*
X153410888Y-57898596D01*
X153433446Y-57921154D01*
X153456004Y-57898596D01*
X153433446Y-57876039D01*
X153410888Y-57898596D01*
X151954356Y-57898596D01*
X151944531Y-57863331D01*
X151884526Y-57730176D01*
X151799152Y-57568974D01*
X151700382Y-57403484D01*
X151673498Y-57361946D01*
X151587318Y-57231335D01*
X151799840Y-57263205D01*
X151959044Y-57280175D01*
X152148192Y-57290162D01*
X152345147Y-57293344D01*
X152527768Y-57289902D01*
X152673916Y-57280017D01*
X152761451Y-57263867D01*
X152775399Y-57255279D01*
X152846823Y-57190198D01*
X152959767Y-57120893D01*
X153081731Y-57063673D01*
X153180212Y-57034849D01*
X153211357Y-57036499D01*
X153256972Y-57039023D01*
X153252665Y-57018328D01*
X153268691Y-56985032D01*
X153335028Y-56973730D01*
X153438209Y-56948636D01*
X153513811Y-56889177D01*
X153535497Y-56819091D01*
X153527820Y-56799972D01*
X153538470Y-56752741D01*
X153618018Y-56717300D01*
X153745159Y-56703042D01*
X153747682Y-56703037D01*
X153844509Y-56738851D01*
G37*
G36*
X147756418Y-58748271D02*
G01*
X147761818Y-58801812D01*
X147756418Y-58808425D01*
X147729597Y-58802232D01*
X147726341Y-58778348D01*
X147742848Y-58741213D01*
X147756418Y-58748271D01*
G37*
G36*
X147726341Y-58530213D02*
G01*
X147703783Y-58552771D01*
X147681226Y-58530213D01*
X147703783Y-58507655D01*
X147726341Y-58530213D01*
G37*
G36*
X147667279Y-58141969D02*
G01*
X147681226Y-58236962D01*
X147665801Y-58341317D01*
X147629638Y-58368062D01*
X147587905Y-58312397D01*
X147574315Y-58270799D01*
X147550164Y-58161007D01*
X147560978Y-58112590D01*
X147612308Y-58101618D01*
X147613553Y-58101616D01*
X147667279Y-58141969D01*
G37*
G36*
X147621814Y-57957811D02*
G01*
X147627192Y-58028321D01*
X147618252Y-58044282D01*
X147597747Y-58030827D01*
X147594557Y-57985068D01*
X147605575Y-57936928D01*
X147621814Y-57957811D01*
G37*
G36*
X151643445Y-57800367D02*
G01*
X151673693Y-57830647D01*
X151718176Y-57895399D01*
X151709017Y-57921154D01*
X151644177Y-57889971D01*
X151605365Y-57852391D01*
X151564156Y-57782542D01*
X151582965Y-57763254D01*
X151643445Y-57800367D01*
G37*
G36*
X147636110Y-57853481D02*
G01*
X147613553Y-57876039D01*
X147590995Y-57853481D01*
X147613553Y-57830923D01*
X147636110Y-57853481D01*
G37*
G36*
X151275423Y-57800846D02*
G01*
X151280823Y-57854388D01*
X151275423Y-57861000D01*
X151248602Y-57854807D01*
X151245346Y-57830923D01*
X151261854Y-57793788D01*
X151275423Y-57800846D01*
G37*
G36*
X155217770Y-56952571D02*
G01*
X155241357Y-57010129D01*
X155254089Y-57126495D01*
X155255770Y-57270875D01*
X155246201Y-57412479D01*
X155225184Y-57520512D01*
X155221490Y-57530768D01*
X155187200Y-57586210D01*
X155143871Y-57559876D01*
X155136820Y-57551583D01*
X155095193Y-57460266D01*
X155078248Y-57334262D01*
X155082867Y-57196648D01*
X155105932Y-57070502D01*
X155144323Y-56978902D01*
X155194922Y-56944926D01*
X155217770Y-56952571D01*
G37*
G36*
X151606270Y-57447442D02*
G01*
X151583712Y-57470000D01*
X151561155Y-57447442D01*
X151583712Y-57424884D01*
X151606270Y-57447442D01*
G37*
G36*
X153952274Y-57357211D02*
G01*
X153995668Y-57414889D01*
X153997389Y-57427547D01*
X153962978Y-57468785D01*
X153952274Y-57470000D01*
X153912680Y-57433277D01*
X153907158Y-57399664D01*
X153929030Y-57352967D01*
X153952274Y-57357211D01*
G37*
G36*
X151651386Y-57176749D02*
G01*
X151628828Y-57199307D01*
X151606270Y-57176749D01*
X151628828Y-57154192D01*
X151651386Y-57176749D01*
G37*
G36*
X152057470Y-56689977D02*
G01*
X152130765Y-56735301D01*
X152147656Y-56775972D01*
X152186264Y-56821162D01*
X152305722Y-56841552D01*
X152339396Y-56842813D01*
X152531137Y-56847242D01*
X152328117Y-56907051D01*
X152125098Y-56966861D01*
X152452185Y-56943143D01*
X152623700Y-56933528D01*
X152723475Y-56937307D01*
X152769341Y-56957012D01*
X152779272Y-56989572D01*
X152737952Y-57047607D01*
X152629159Y-57099320D01*
X152475644Y-57137202D01*
X152300155Y-57153746D01*
X152281262Y-57153940D01*
X152136554Y-57132671D01*
X151977968Y-57079624D01*
X151943331Y-57063295D01*
X151815348Y-57011887D01*
X151716397Y-56996558D01*
X151665283Y-57017283D01*
X151673746Y-57063642D01*
X151689689Y-57099214D01*
X151662871Y-57104039D01*
X151575567Y-57077775D01*
X151526389Y-57060808D01*
X151402106Y-57004706D01*
X151365579Y-56957748D01*
X151414409Y-56925263D01*
X151546202Y-56912579D01*
X151592789Y-56913153D01*
X151733949Y-56921642D01*
X151834853Y-56935903D01*
X151865261Y-56946990D01*
X151921948Y-56975973D01*
X151950502Y-56954071D01*
X151936113Y-56917335D01*
X151899037Y-56815932D01*
X151926209Y-56729349D01*
X152002517Y-56685900D01*
X152057470Y-56689977D01*
G37*
G36*
X153628689Y-56536464D02*
G01*
X153636465Y-56567691D01*
X153604841Y-56611522D01*
X153595040Y-56612806D01*
X153519992Y-56625411D01*
X153470972Y-56639047D01*
X153417577Y-56652470D01*
X153433617Y-56629286D01*
X153475905Y-56593931D01*
X153574781Y-56530936D01*
X153628689Y-56536464D01*
G37*
G36*
X147320302Y-56590248D02*
G01*
X147297744Y-56612806D01*
X147275187Y-56590248D01*
X147297744Y-56567691D01*
X147320302Y-56590248D01*
G37*
G36*
X152474222Y-56087529D02*
G01*
X152656242Y-56121496D01*
X152752416Y-56169457D01*
X152766542Y-56235123D01*
X152708376Y-56316333D01*
X152671442Y-56370529D01*
X152685818Y-56387229D01*
X152732246Y-56415539D01*
X152734156Y-56426434D01*
X152692549Y-56444864D01*
X152581743Y-56459753D01*
X152422767Y-56468647D01*
X152361954Y-56469865D01*
X152164392Y-56477638D01*
X151981499Y-56494339D01*
X151847983Y-56516625D01*
X151832145Y-56520890D01*
X151676781Y-56560976D01*
X151599171Y-56563642D01*
X151594155Y-56527070D01*
X151621450Y-56492498D01*
X151666424Y-56492498D01*
X151672617Y-56519319D01*
X151696501Y-56522575D01*
X151733636Y-56506068D01*
X151726578Y-56492498D01*
X151673036Y-56487099D01*
X151666424Y-56492498D01*
X151621450Y-56492498D01*
X151649802Y-56456588D01*
X151776766Y-56352852D01*
X151949782Y-56251201D01*
X152140353Y-56164393D01*
X152319986Y-56105183D01*
X152460183Y-56086327D01*
X152474222Y-56087529D01*
G37*
G36*
X153771812Y-56545133D02*
G01*
X153749254Y-56567691D01*
X153726696Y-56545133D01*
X153749254Y-56522575D01*
X153771812Y-56545133D01*
G37*
G36*
X147049609Y-56093978D02*
G01*
X147027052Y-56116536D01*
X147004494Y-56093978D01*
X147027052Y-56071421D01*
X147049609Y-56093978D01*
G37*
G36*
X154659082Y-56041344D02*
G01*
X154664482Y-56094885D01*
X154659082Y-56101498D01*
X154632261Y-56095305D01*
X154629005Y-56071421D01*
X154645512Y-56034286D01*
X154659082Y-56041344D01*
G37*
G36*
X153636465Y-55868401D02*
G01*
X153613908Y-55890959D01*
X153591350Y-55868401D01*
X153613908Y-55845843D01*
X153636465Y-55868401D01*
G37*
G36*
X146989455Y-55635305D02*
G01*
X146994855Y-55688846D01*
X146989455Y-55695459D01*
X146962634Y-55689266D01*
X146959378Y-55665382D01*
X146975885Y-55628246D01*
X146989455Y-55635305D01*
G37*
G36*
X147003977Y-55068671D02*
G01*
X147004494Y-55078881D01*
X146969811Y-55122262D01*
X146956716Y-55123996D01*
X146929771Y-55096357D01*
X146936821Y-55078881D01*
X146977362Y-55035841D01*
X146984599Y-55033765D01*
X147003977Y-55068671D01*
G37*
G36*
X146989455Y-54913457D02*
G01*
X146994855Y-54966999D01*
X146989455Y-54973611D01*
X146962634Y-54967418D01*
X146959378Y-54943534D01*
X146975885Y-54906399D01*
X146989455Y-54913457D01*
G37*
G36*
X146959378Y-54785630D02*
G01*
X146936821Y-54808188D01*
X146914263Y-54785630D01*
X146936821Y-54763073D01*
X146959378Y-54785630D01*
G37*
G36*
X154042505Y-54785630D02*
G01*
X154019947Y-54808188D01*
X153997389Y-54785630D01*
X154019947Y-54763073D01*
X154042505Y-54785630D01*
G37*
G36*
X153790592Y-54180331D02*
G01*
X153818740Y-54231498D01*
X153861759Y-54331981D01*
X153909154Y-54453945D01*
X153950431Y-54569551D01*
X153975092Y-54650964D01*
X153976284Y-54672842D01*
X153948452Y-54635405D01*
X153898931Y-54539657D01*
X153864154Y-54464087D01*
X153807045Y-54323331D01*
X153775130Y-54220758D01*
X153772666Y-54172785D01*
X153790592Y-54180331D01*
G37*
G36*
X153713091Y-54215622D02*
G01*
X153711827Y-54309355D01*
X153711265Y-54322995D01*
X153702466Y-54446607D01*
X153687786Y-54487214D01*
X153663611Y-54452011D01*
X153655978Y-54433040D01*
X153653807Y-54348277D01*
X153675800Y-54263857D01*
X153702681Y-54203122D01*
X153713091Y-54215622D01*
G37*
G36*
X154038242Y-54261901D02*
G01*
X154087620Y-54311918D01*
X154157349Y-54408569D01*
X154178793Y-54474734D01*
X154157851Y-54492380D01*
X154120328Y-54459821D01*
X154067621Y-54392110D01*
X154010308Y-54295262D01*
X154001474Y-54248013D01*
X154038242Y-54261901D01*
G37*
G36*
X154403428Y-54424707D02*
G01*
X154380870Y-54447264D01*
X154358313Y-54424707D01*
X154380870Y-54402149D01*
X154403428Y-54424707D01*
G37*
G36*
X153456004Y-54379591D02*
G01*
X153433446Y-54402149D01*
X153410888Y-54379591D01*
X153433446Y-54357033D01*
X153456004Y-54379591D01*
G37*
G36*
X153220267Y-54165282D02*
G01*
X153222456Y-54206670D01*
X153184781Y-54281873D01*
X153132652Y-54298675D01*
X153097571Y-54252435D01*
X153095080Y-54225447D01*
X153123740Y-54147890D01*
X153166061Y-54131456D01*
X153220267Y-54165282D01*
G37*
G36*
X153410371Y-54256593D02*
G01*
X153410888Y-54266803D01*
X153376206Y-54310184D01*
X153363110Y-54311918D01*
X153336166Y-54284279D01*
X153343215Y-54266803D01*
X153383756Y-54223763D01*
X153390993Y-54221687D01*
X153410371Y-54256593D01*
G37*
G36*
X154210909Y-54156337D02*
G01*
X154240453Y-54197721D01*
X154279682Y-54276462D01*
X154272841Y-54311776D01*
X154270709Y-54311918D01*
X154217077Y-54276609D01*
X154175783Y-54217823D01*
X154140840Y-54128682D01*
X154157011Y-54106800D01*
X154210909Y-54156337D01*
G37*
G36*
X154403428Y-54244245D02*
G01*
X154380870Y-54266803D01*
X154358313Y-54244245D01*
X154380870Y-54221687D01*
X154403428Y-54244245D01*
G37*
G36*
X147034571Y-54146495D02*
G01*
X147039970Y-54200036D01*
X147034571Y-54206649D01*
X147007750Y-54200456D01*
X147004494Y-54176572D01*
X147021001Y-54139436D01*
X147034571Y-54146495D01*
G37*
G36*
X153576114Y-53984831D02*
G01*
X153582072Y-54077198D01*
X153576114Y-54097620D01*
X153559647Y-54103287D01*
X153553358Y-54041225D01*
X153560448Y-53977178D01*
X153576114Y-53984831D01*
G37*
G36*
X147368990Y-53709013D02*
G01*
X147338915Y-53773059D01*
X147273070Y-53865875D01*
X147208734Y-53940378D01*
X147121403Y-54026698D01*
X147064824Y-54068003D01*
X147052721Y-54063783D01*
X147069868Y-54005905D01*
X147110542Y-53917542D01*
X147160096Y-53825539D01*
X147203884Y-53756737D01*
X147227259Y-53737981D01*
X147228180Y-53742220D01*
X147257302Y-53750980D01*
X147297744Y-53725417D01*
X147357275Y-53688284D01*
X147368990Y-53709013D01*
G37*
G36*
X153119884Y-53825414D02*
G01*
X153128422Y-53884980D01*
X153107687Y-53980848D01*
X153076797Y-54062638D01*
X153057502Y-54064221D01*
X153040844Y-54011219D01*
X153036282Y-53920625D01*
X153060055Y-53845088D01*
X153099288Y-53814875D01*
X153119884Y-53825414D01*
G37*
G36*
X153801889Y-54011148D02*
G01*
X153807288Y-54064690D01*
X153801889Y-54071302D01*
X153775068Y-54065109D01*
X153771812Y-54041225D01*
X153788319Y-54004090D01*
X153801889Y-54011148D01*
G37*
G36*
X154072582Y-54011148D02*
G01*
X154077981Y-54064690D01*
X154072582Y-54071302D01*
X154045760Y-54065109D01*
X154042505Y-54041225D01*
X154059012Y-54004090D01*
X154072582Y-54011148D01*
G37*
G36*
X154177064Y-53850864D02*
G01*
X154241621Y-53945288D01*
X154259845Y-54026490D01*
X154235631Y-54041029D01*
X154188411Y-53974639D01*
X154162743Y-53923601D01*
X154079961Y-53747975D01*
X154177064Y-53850864D01*
G37*
G36*
X154042505Y-53928437D02*
G01*
X154019947Y-53950994D01*
X153997389Y-53928437D01*
X154019947Y-53905879D01*
X154042505Y-53928437D01*
G37*
G36*
X147681226Y-53883321D02*
G01*
X147658668Y-53905879D01*
X147636110Y-53883321D01*
X147658668Y-53860763D01*
X147681226Y-53883321D01*
G37*
G36*
X153997389Y-53838206D02*
G01*
X153974831Y-53860763D01*
X153952274Y-53838206D01*
X153974831Y-53815648D01*
X153997389Y-53838206D01*
G37*
G36*
X153952274Y-53747975D02*
G01*
X153929716Y-53770533D01*
X153907158Y-53747975D01*
X153929716Y-53725417D01*
X153952274Y-53747975D01*
G37*
G36*
X147376696Y-53372557D02*
G01*
X147306830Y-53461105D01*
X147275331Y-53525654D01*
X147275187Y-53528228D01*
X147238258Y-53574641D01*
X147146495Y-53633880D01*
X147115752Y-53649388D01*
X146968829Y-53710729D01*
X146889163Y-53721227D01*
X146869456Y-53691581D01*
X146903630Y-53647808D01*
X146989259Y-53577571D01*
X147032724Y-53546743D01*
X147119685Y-53477398D01*
X147152808Y-53429238D01*
X147145204Y-53418916D01*
X147097068Y-53371817D01*
X147094725Y-53357694D01*
X147129857Y-53333493D01*
X147183252Y-53341395D01*
X147290734Y-53343172D01*
X147374992Y-53315754D01*
X147478206Y-53262017D01*
X147376696Y-53372557D01*
G37*
G36*
X154087620Y-53702859D02*
G01*
X154065062Y-53725417D01*
X154042505Y-53702859D01*
X154065062Y-53680302D01*
X154087620Y-53702859D01*
G37*
G36*
X153125157Y-53605109D02*
G01*
X153118964Y-53631930D01*
X153095080Y-53635186D01*
X153057945Y-53618679D01*
X153065003Y-53605109D01*
X153118545Y-53599710D01*
X153125157Y-53605109D01*
G37*
G36*
X154493659Y-53612628D02*
G01*
X154471101Y-53635186D01*
X154448544Y-53612628D01*
X154471101Y-53590071D01*
X154493659Y-53612628D01*
G37*
G36*
X146945224Y-53528982D02*
G01*
X146936821Y-53544955D01*
X146894312Y-53588041D01*
X146886380Y-53590071D01*
X146883302Y-53560929D01*
X146891705Y-53544955D01*
X146934214Y-53501870D01*
X146942146Y-53499840D01*
X146945224Y-53528982D01*
G37*
G36*
X153040553Y-53071607D02*
G01*
X153037458Y-53136753D01*
X153032741Y-53214072D01*
X153047774Y-53238263D01*
X153081690Y-53287340D01*
X153111518Y-53375772D01*
X153121569Y-53468900D01*
X153084747Y-53499539D01*
X153077141Y-53499840D01*
X153007472Y-53531747D01*
X152994331Y-53553953D01*
X152968642Y-53570137D01*
X152946872Y-53531395D01*
X152934614Y-53428722D01*
X152943419Y-53387051D01*
X152939944Y-53329190D01*
X152916223Y-53319378D01*
X152830339Y-53282309D01*
X152758008Y-53197543D01*
X152734156Y-53119581D01*
X152759586Y-53056411D01*
X152810058Y-53062510D01*
X152837546Y-53105080D01*
X152867672Y-53138850D01*
X152918002Y-53105080D01*
X152998205Y-53052762D01*
X153040553Y-53071607D01*
G37*
G36*
X154319666Y-53523685D02*
G01*
X154358313Y-53544955D01*
X154394424Y-53580703D01*
X154380870Y-53588689D01*
X154306729Y-53566226D01*
X154268082Y-53544955D01*
X154231970Y-53509207D01*
X154245524Y-53501222D01*
X154319666Y-53523685D01*
G37*
G36*
X153990418Y-53472974D02*
G01*
X154038852Y-53518400D01*
X154028916Y-53544516D01*
X154022609Y-53544955D01*
X153984450Y-53512911D01*
X153970523Y-53492869D01*
X153965206Y-53461997D01*
X153990418Y-53472974D01*
G37*
G36*
X154177851Y-53477282D02*
G01*
X154155293Y-53499840D01*
X154132735Y-53477282D01*
X154155293Y-53454724D01*
X154177851Y-53477282D01*
G37*
G36*
X154087620Y-53432167D02*
G01*
X154065062Y-53454724D01*
X154042505Y-53432167D01*
X154065062Y-53409609D01*
X154087620Y-53432167D01*
G37*
G36*
X153907158Y-53296820D02*
G01*
X153884600Y-53319378D01*
X153862043Y-53296820D01*
X153884600Y-53274263D01*
X153907158Y-53296820D01*
G37*
G36*
X154177851Y-53296820D02*
G01*
X154155293Y-53319378D01*
X154132735Y-53296820D01*
X154155293Y-53274263D01*
X154177851Y-53296820D01*
G37*
G36*
X147230071Y-53251705D02*
G01*
X147207513Y-53274263D01*
X147184956Y-53251705D01*
X147207513Y-53229147D01*
X147230071Y-53251705D01*
G37*
G36*
X147320302Y-53206589D02*
G01*
X147297744Y-53229147D01*
X147275187Y-53206589D01*
X147297744Y-53184032D01*
X147320302Y-53206589D01*
G37*
G36*
X147410533Y-53161474D02*
G01*
X147387975Y-53184032D01*
X147365418Y-53161474D01*
X147387975Y-53138916D01*
X147410533Y-53161474D01*
G37*
G36*
X154403428Y-53161474D02*
G01*
X154380870Y-53184032D01*
X154358313Y-53161474D01*
X154380870Y-53138916D01*
X154403428Y-53161474D01*
G37*
G36*
X147275187Y-53116358D02*
G01*
X147252629Y-53138916D01*
X147230071Y-53116358D01*
X147252629Y-53093801D01*
X147275187Y-53116358D01*
G37*
G36*
X147410533Y-53026128D02*
G01*
X147387975Y-53048685D01*
X147365418Y-53026128D01*
X147387975Y-53003570D01*
X147410533Y-53026128D01*
G37*
G36*
X148254784Y-52688760D02*
G01*
X148292182Y-52760411D01*
X148298295Y-52776040D01*
X148331257Y-52880018D01*
X148326982Y-52909691D01*
X148288794Y-52860421D01*
X148266388Y-52820607D01*
X148232934Y-52729920D01*
X148231615Y-52683308D01*
X148254784Y-52688760D01*
G37*
G36*
X151546116Y-52838147D02*
G01*
X151551516Y-52891688D01*
X151546116Y-52898300D01*
X151519295Y-52892107D01*
X151516039Y-52868223D01*
X151532546Y-52831088D01*
X151546116Y-52838147D01*
G37*
G36*
X152463464Y-52890781D02*
G01*
X152440906Y-52913339D01*
X152418348Y-52890781D01*
X152440906Y-52868223D01*
X152463464Y-52890781D01*
G37*
G36*
X148433892Y-52769533D02*
G01*
X148439270Y-52840043D01*
X148430330Y-52856005D01*
X148409825Y-52842550D01*
X148406635Y-52796791D01*
X148417653Y-52748651D01*
X148433892Y-52769533D01*
G37*
G36*
X149629358Y-52740732D02*
G01*
X149630026Y-52744156D01*
X149641049Y-52840815D01*
X149627962Y-52865594D01*
X149596127Y-52810117D01*
X149592961Y-52802039D01*
X149581283Y-52706910D01*
X149586911Y-52677971D01*
X149607162Y-52672939D01*
X149629358Y-52740732D01*
G37*
G36*
X154346094Y-52840966D02*
G01*
X154332639Y-52861472D01*
X154286880Y-52864662D01*
X154238740Y-52853644D01*
X154259623Y-52837404D01*
X154330133Y-52832026D01*
X154346094Y-52840966D01*
G37*
G36*
X147365418Y-52800550D02*
G01*
X147342860Y-52823108D01*
X147320302Y-52800550D01*
X147342860Y-52777993D01*
X147365418Y-52800550D01*
G37*
G36*
X151559992Y-52279713D02*
G01*
X151561331Y-52281723D01*
X151579807Y-52358641D01*
X151583963Y-52483730D01*
X151575612Y-52619819D01*
X151556570Y-52729740D01*
X151537409Y-52771661D01*
X151526638Y-52742027D01*
X151519196Y-52643723D01*
X151516730Y-52503540D01*
X151521491Y-52346357D01*
X151535545Y-52273569D01*
X151559992Y-52279713D01*
G37*
G36*
X151966676Y-52677552D02*
G01*
X151967194Y-52687762D01*
X151932511Y-52731143D01*
X151919416Y-52732877D01*
X151892471Y-52705238D01*
X151899521Y-52687762D01*
X151940062Y-52644722D01*
X151947299Y-52642646D01*
X151966676Y-52677552D01*
G37*
G36*
X154764352Y-52710319D02*
G01*
X154741794Y-52732877D01*
X154719236Y-52710319D01*
X154741794Y-52687762D01*
X154764352Y-52710319D01*
G37*
G36*
X148212053Y-51364479D02*
G01*
X148293725Y-51392998D01*
X148316018Y-51418141D01*
X148319351Y-51476576D01*
X148324318Y-51593387D01*
X148327297Y-51672664D01*
X148337998Y-51807263D01*
X148356302Y-51900300D01*
X148368119Y-51922771D01*
X148402424Y-51999215D01*
X148413383Y-52154299D01*
X148410221Y-52250549D01*
X148391735Y-52338316D01*
X148348262Y-52344328D01*
X148346679Y-52343398D01*
X148316702Y-52333990D01*
X148349939Y-52383123D01*
X148388090Y-52480895D01*
X148390535Y-52583524D01*
X148376374Y-52656322D01*
X148367455Y-52641978D01*
X148364717Y-52611472D01*
X148344645Y-52535327D01*
X148308728Y-52482055D01*
X148276908Y-52473078D01*
X148267727Y-52507300D01*
X148240498Y-52537276D01*
X148224381Y-52530951D01*
X148218874Y-52479131D01*
X148256217Y-52375337D01*
X148292054Y-52305308D01*
X148365256Y-52170379D01*
X148394872Y-52095781D01*
X148382391Y-52063681D01*
X148329300Y-52056243D01*
X148312842Y-52056145D01*
X148239665Y-52030247D01*
X148222611Y-51993996D01*
X148190806Y-51914224D01*
X148157620Y-51877909D01*
X148108426Y-51807226D01*
X148105110Y-51770875D01*
X148105382Y-51742521D01*
X148098575Y-51751897D01*
X148050686Y-51764846D01*
X148031325Y-51756205D01*
X148004603Y-51754769D01*
X148015283Y-51778482D01*
X148021086Y-51825050D01*
X148005953Y-51830568D01*
X147980783Y-51868920D01*
X147979894Y-51954636D01*
X147989356Y-52039295D01*
X147981551Y-52037235D01*
X147955577Y-51965914D01*
X147923048Y-51830406D01*
X147912593Y-51691776D01*
X147924641Y-51582503D01*
X147949948Y-51538535D01*
X147975645Y-51479589D01*
X147969913Y-51451464D01*
X147984834Y-51387158D01*
X148020584Y-51362718D01*
X148107710Y-51351891D01*
X148212053Y-51364479D01*
G37*
G36*
X154358313Y-52665204D02*
G01*
X154335755Y-52687762D01*
X154313197Y-52665204D01*
X154335755Y-52642646D01*
X154358313Y-52665204D01*
G37*
G36*
X154478621Y-52657685D02*
G01*
X154472428Y-52684506D01*
X154448544Y-52687762D01*
X154411409Y-52671255D01*
X154418467Y-52657685D01*
X154472008Y-52652285D01*
X154478621Y-52657685D01*
G37*
G36*
X154613967Y-52657685D02*
G01*
X154607774Y-52684506D01*
X154583890Y-52687762D01*
X154546755Y-52671255D01*
X154553813Y-52657685D01*
X154607355Y-52652285D01*
X154613967Y-52657685D01*
G37*
G36*
X148563705Y-52131437D02*
G01*
X148564764Y-52243494D01*
X148561394Y-52300118D01*
X148543741Y-52451357D01*
X148517884Y-52567032D01*
X148496409Y-52612472D01*
X148471891Y-52606271D01*
X148468878Y-52515660D01*
X148478018Y-52413614D01*
X148502152Y-52246449D01*
X148527646Y-52139385D01*
X148549748Y-52098891D01*
X148563705Y-52131437D01*
G37*
G36*
X154132735Y-52620088D02*
G01*
X154110178Y-52642646D01*
X154087620Y-52620088D01*
X154110178Y-52597531D01*
X154132735Y-52620088D01*
G37*
G36*
X147423434Y-52540128D02*
G01*
X147433091Y-52552415D01*
X147448970Y-52592993D01*
X147406286Y-52577710D01*
X147365418Y-52552415D01*
X147330734Y-52516198D01*
X147351476Y-52507991D01*
X147423434Y-52540128D01*
G37*
G36*
X154420130Y-52395847D02*
G01*
X154467206Y-52445745D01*
X154485645Y-52514013D01*
X154483442Y-52530486D01*
X154435818Y-52538303D01*
X154321457Y-52549474D01*
X154163683Y-52561764D01*
X154139270Y-52563460D01*
X153982052Y-52570137D01*
X153886016Y-52565600D01*
X153864404Y-52550631D01*
X153868578Y-52547422D01*
X153956554Y-52518650D01*
X154065062Y-52507300D01*
X154149651Y-52498400D01*
X154148798Y-52484742D01*
X154222966Y-52484742D01*
X154245524Y-52507300D01*
X154268082Y-52484742D01*
X154245524Y-52462184D01*
X154222966Y-52484742D01*
X154148798Y-52484742D01*
X154148082Y-52473289D01*
X154139198Y-52467133D01*
X154117313Y-52439627D01*
X154358313Y-52439627D01*
X154380870Y-52462184D01*
X154403428Y-52439627D01*
X154380870Y-52417069D01*
X154358313Y-52439627D01*
X154117313Y-52439627D01*
X154105558Y-52424853D01*
X154159759Y-52395676D01*
X154296962Y-52379481D01*
X154420130Y-52395847D01*
G37*
G36*
X147636110Y-52529858D02*
G01*
X147613553Y-52552415D01*
X147590995Y-52529858D01*
X147613553Y-52507300D01*
X147636110Y-52529858D01*
G37*
G36*
X148628650Y-52529858D02*
G01*
X148606092Y-52552415D01*
X148583535Y-52529858D01*
X148606092Y-52507300D01*
X148628650Y-52529858D01*
G37*
G36*
X149967075Y-52432107D02*
G01*
X149972475Y-52485649D01*
X149967075Y-52492261D01*
X149940254Y-52486068D01*
X149936998Y-52462184D01*
X149953505Y-52425049D01*
X149967075Y-52432107D01*
G37*
G36*
X150410485Y-52170289D02*
G01*
X150433132Y-52204068D01*
X150466811Y-52313164D01*
X150464938Y-52384530D01*
X150448274Y-52436502D01*
X150438796Y-52417069D01*
X150423935Y-52320936D01*
X150406990Y-52236607D01*
X150394085Y-52163465D01*
X150410485Y-52170289D01*
G37*
G36*
X151770649Y-52286103D02*
G01*
X151772881Y-52293860D01*
X151779486Y-52392136D01*
X151771209Y-52429206D01*
X151756399Y-52430706D01*
X151750350Y-52360080D01*
X151750412Y-52349396D01*
X151756917Y-52279424D01*
X151770649Y-52286103D01*
G37*
G36*
X147500764Y-52394511D02*
G01*
X147478206Y-52417069D01*
X147455648Y-52394511D01*
X147478206Y-52371954D01*
X147500764Y-52394511D01*
G37*
G36*
X147726341Y-52394511D02*
G01*
X147703783Y-52417069D01*
X147681226Y-52394511D01*
X147703783Y-52371954D01*
X147726341Y-52394511D01*
G37*
G36*
X149666306Y-52394511D02*
G01*
X149643748Y-52417069D01*
X149621190Y-52394511D01*
X149643748Y-52371954D01*
X149666306Y-52394511D01*
G37*
G36*
X149756537Y-52394511D02*
G01*
X149733979Y-52417069D01*
X149711421Y-52394511D01*
X149733979Y-52371954D01*
X149756537Y-52394511D01*
G37*
G36*
X150252807Y-52349396D02*
G01*
X150230249Y-52371954D01*
X150207691Y-52349396D01*
X150230249Y-52326838D01*
X150252807Y-52349396D01*
G37*
G36*
X151681463Y-52296761D02*
G01*
X151686862Y-52350303D01*
X151681463Y-52356915D01*
X151654641Y-52350722D01*
X151651386Y-52326838D01*
X151667893Y-52289703D01*
X151681463Y-52296761D01*
G37*
G36*
X152012309Y-52349396D02*
G01*
X151989751Y-52371954D01*
X151967194Y-52349396D01*
X151989751Y-52326838D01*
X152012309Y-52349396D01*
G37*
G36*
X147384395Y-51960121D02*
G01*
X147385050Y-52005684D01*
X147366323Y-52011030D01*
X147357650Y-52038334D01*
X147404006Y-52104575D01*
X147408775Y-52109768D01*
X147473286Y-52192528D01*
X147500728Y-52253743D01*
X147484231Y-52272857D01*
X147459502Y-52261546D01*
X147410832Y-52270837D01*
X147400089Y-52290498D01*
X147374342Y-52320119D01*
X147346602Y-52287778D01*
X147329828Y-52221584D01*
X147337951Y-52203920D01*
X147337033Y-52152063D01*
X147316347Y-52119053D01*
X147293728Y-52028581D01*
X147310495Y-51985041D01*
X147356427Y-51939117D01*
X147384395Y-51960121D01*
G37*
G36*
X147331581Y-51808455D02*
G01*
X147413299Y-51851135D01*
X147509967Y-51927326D01*
X147602845Y-52017701D01*
X147673191Y-52102929D01*
X147702265Y-52163683D01*
X147692143Y-52180333D01*
X147660388Y-52229121D01*
X147666029Y-52262080D01*
X147680294Y-52314671D01*
X147656651Y-52307077D01*
X147588867Y-52234708D01*
X147533415Y-52168934D01*
X147590995Y-52168934D01*
X147613553Y-52191492D01*
X147636110Y-52168934D01*
X147613553Y-52146376D01*
X147590995Y-52168934D01*
X147533415Y-52168934D01*
X147523322Y-52156963D01*
X147448896Y-52061275D01*
X147433035Y-52020806D01*
X147472045Y-52025463D01*
X147475677Y-52026815D01*
X147534548Y-52046068D01*
X147530364Y-52025431D01*
X147479963Y-51967856D01*
X147388549Y-51898457D01*
X147313310Y-51875684D01*
X147243906Y-51854031D01*
X147230071Y-51827528D01*
X147266208Y-51799793D01*
X147331581Y-51808455D01*
G37*
G36*
X147962420Y-52180960D02*
G01*
X147997034Y-52236607D01*
X148026076Y-52306361D01*
X148022766Y-52326838D01*
X147986532Y-52292254D01*
X147951918Y-52236607D01*
X147922876Y-52166853D01*
X147926186Y-52146376D01*
X147962420Y-52180960D01*
G37*
G36*
X148154816Y-52124757D02*
G01*
X148177282Y-52159355D01*
X148210126Y-52248696D01*
X148206808Y-52294701D01*
X148186337Y-52323476D01*
X148181057Y-52296691D01*
X148165110Y-52210243D01*
X148151531Y-52161345D01*
X148135773Y-52104272D01*
X148154816Y-52124757D01*
G37*
G36*
X154252752Y-52264404D02*
G01*
X154245524Y-52281723D01*
X154185759Y-52325154D01*
X154172526Y-52326838D01*
X154148066Y-52299041D01*
X154155293Y-52281723D01*
X154215058Y-52238291D01*
X154228292Y-52236607D01*
X154252752Y-52264404D01*
G37*
G36*
X149741498Y-52206530D02*
G01*
X149746897Y-52260072D01*
X149741498Y-52266684D01*
X149714677Y-52260491D01*
X149711421Y-52236607D01*
X149727928Y-52199472D01*
X149741498Y-52206530D01*
G37*
G36*
X153892120Y-52206530D02*
G01*
X153885927Y-52233351D01*
X153862043Y-52236607D01*
X153824908Y-52220100D01*
X153831966Y-52206530D01*
X153885507Y-52201131D01*
X153892120Y-52206530D01*
G37*
G36*
X154213281Y-51949784D02*
G01*
X154213626Y-51950129D01*
X154297520Y-52002384D01*
X154339360Y-52011030D01*
X154380347Y-52025316D01*
X154359188Y-52082776D01*
X154350654Y-52096759D01*
X154287252Y-52156131D01*
X154242046Y-52161357D01*
X154172404Y-52171895D01*
X154157194Y-52188416D01*
X154090823Y-52235075D01*
X154027368Y-52206432D01*
X154029671Y-52168934D01*
X154087620Y-52168934D01*
X154110178Y-52191492D01*
X154132735Y-52168934D01*
X154110178Y-52146376D01*
X154087620Y-52168934D01*
X154029671Y-52168934D01*
X154030534Y-52154891D01*
X154071956Y-52093643D01*
X154081657Y-52078703D01*
X154177851Y-52078703D01*
X154200409Y-52101261D01*
X154222966Y-52078703D01*
X154200409Y-52056145D01*
X154177851Y-52078703D01*
X154081657Y-52078703D01*
X154113646Y-52029440D01*
X154092834Y-52011030D01*
X154063591Y-51995242D01*
X154095837Y-51950129D01*
X154153353Y-51911787D01*
X154213281Y-51949784D01*
G37*
G36*
X148312842Y-52168934D02*
G01*
X148290284Y-52191492D01*
X148267727Y-52168934D01*
X148290284Y-52146376D01*
X148312842Y-52168934D01*
G37*
G36*
X148854227Y-52168934D02*
G01*
X148831670Y-52191492D01*
X148809112Y-52168934D01*
X148831670Y-52146376D01*
X148854227Y-52168934D01*
G37*
G36*
X148989574Y-52168934D02*
G01*
X148967016Y-52191492D01*
X148944458Y-52168934D01*
X148967016Y-52146376D01*
X148989574Y-52168934D01*
G37*
G36*
X150207691Y-52168934D02*
G01*
X150185133Y-52191492D01*
X150162576Y-52168934D01*
X150185133Y-52146376D01*
X150207691Y-52168934D01*
G37*
G36*
X154674121Y-52168934D02*
G01*
X154651563Y-52191492D01*
X154629005Y-52168934D01*
X154651563Y-52146376D01*
X154674121Y-52168934D01*
G37*
G36*
X149756537Y-52123819D02*
G01*
X149733979Y-52146376D01*
X149711421Y-52123819D01*
X149733979Y-52101261D01*
X149756537Y-52123819D01*
G37*
G36*
X151457339Y-51975545D02*
G01*
X151455462Y-52024080D01*
X151447115Y-52120076D01*
X151431971Y-52139785D01*
X151403471Y-52101618D01*
X151399928Y-52029368D01*
X151419184Y-51979354D01*
X151449093Y-51938718D01*
X151457339Y-51975545D01*
G37*
G36*
X152012309Y-52123819D02*
G01*
X151989751Y-52146376D01*
X151967194Y-52123819D01*
X151989751Y-52101261D01*
X152012309Y-52123819D01*
G37*
G36*
X154493659Y-52123819D02*
G01*
X154471101Y-52146376D01*
X154448544Y-52123819D01*
X154471101Y-52101261D01*
X154493659Y-52123819D01*
G37*
G36*
X149059810Y-51996053D02*
G01*
X149051903Y-52031244D01*
X149015497Y-52094747D01*
X148991956Y-52084109D01*
X148989574Y-52058808D01*
X149022340Y-51997630D01*
X149034173Y-51988792D01*
X149059810Y-51996053D01*
G37*
G36*
X150973810Y-51964271D02*
G01*
X150973963Y-51974531D01*
X150950974Y-52056105D01*
X150929538Y-52078703D01*
X150888141Y-52081694D01*
X150885114Y-52070087D01*
X150907783Y-52004261D01*
X150929538Y-51965914D01*
X150964576Y-51923636D01*
X150973810Y-51964271D01*
G37*
G36*
X151876963Y-52033588D02*
G01*
X151854405Y-52056145D01*
X151831847Y-52033588D01*
X151854405Y-52011030D01*
X151876963Y-52033588D01*
G37*
G36*
X153862043Y-52033588D02*
G01*
X153839485Y-52056145D01*
X153816927Y-52033588D01*
X153839485Y-52011030D01*
X153862043Y-52033588D01*
G37*
G36*
X147618952Y-51857413D02*
G01*
X147680420Y-51915800D01*
X147717627Y-51972503D01*
X147716397Y-51990897D01*
X147675229Y-51977192D01*
X147613803Y-51921076D01*
X147564912Y-51855904D01*
X147564667Y-51830568D01*
X147618952Y-51857413D01*
G37*
G36*
X151179060Y-51770973D02*
G01*
X151150969Y-51861744D01*
X151150082Y-51864405D01*
X151105922Y-51976306D01*
X151076321Y-52008362D01*
X151064912Y-51956836D01*
X151064885Y-51951980D01*
X151090556Y-51872071D01*
X151131938Y-51805354D01*
X151173697Y-51755369D01*
X151179060Y-51770973D01*
G37*
G36*
X149652009Y-51867224D02*
G01*
X149657388Y-51937734D01*
X149648447Y-51953696D01*
X149627942Y-51940241D01*
X149624752Y-51894482D01*
X149635770Y-51846342D01*
X149652009Y-51867224D01*
G37*
G36*
X151380693Y-51943357D02*
G01*
X151358135Y-51965914D01*
X151335577Y-51943357D01*
X151358135Y-51920799D01*
X151380693Y-51943357D01*
G37*
G36*
X148898999Y-51812708D02*
G01*
X148904941Y-51818537D01*
X148940577Y-51877689D01*
X148935745Y-51899435D01*
X148902185Y-51885896D01*
X148879686Y-51843793D01*
X148865950Y-51791085D01*
X148898999Y-51812708D01*
G37*
G36*
X151802624Y-50455329D02*
G01*
X151845291Y-50492180D01*
X151821358Y-50549207D01*
X151714661Y-50614699D01*
X151672053Y-50633337D01*
X151550984Y-50679876D01*
X151467768Y-50705603D01*
X151449886Y-50707552D01*
X151402125Y-50730093D01*
X151326194Y-50791972D01*
X151245111Y-50857421D01*
X151192883Y-50883144D01*
X151141458Y-50923679D01*
X151084986Y-51029503D01*
X151033502Y-51176942D01*
X150997041Y-51342324D01*
X150996372Y-51346726D01*
X150968661Y-51482004D01*
X150938644Y-51563795D01*
X150914378Y-51583614D01*
X150903922Y-51532976D01*
X150910818Y-51436819D01*
X150920376Y-51337338D01*
X150912160Y-51319281D01*
X150888026Y-51365472D01*
X150859356Y-51468759D01*
X150836827Y-51617479D01*
X150830467Y-51692551D01*
X150815743Y-51822139D01*
X150793022Y-51904837D01*
X150777793Y-51920790D01*
X150756294Y-51882277D01*
X150758162Y-51789223D01*
X150758700Y-51785453D01*
X150763702Y-51691025D01*
X150748313Y-51650151D01*
X150747519Y-51650106D01*
X150731479Y-51612493D01*
X150737721Y-51538955D01*
X150741508Y-51458876D01*
X150696220Y-51441245D01*
X150665504Y-51445804D01*
X150603150Y-51447129D01*
X150586001Y-51401535D01*
X150595616Y-51320099D01*
X150609498Y-51225388D01*
X150600488Y-51212710D01*
X150560552Y-51275100D01*
X150554825Y-51284734D01*
X150502045Y-51349185D01*
X150471655Y-51336669D01*
X150447128Y-51346018D01*
X150400083Y-51423343D01*
X150340252Y-51552350D01*
X150334260Y-51566695D01*
X150269727Y-51714045D01*
X150226797Y-51786332D01*
X150197598Y-51793774D01*
X150181004Y-51765600D01*
X150172575Y-51685051D01*
X150197040Y-51661176D01*
X150228435Y-51612455D01*
X150222667Y-51578944D01*
X150226856Y-51491346D01*
X150249492Y-51451080D01*
X150279148Y-51367525D01*
X150285702Y-51241742D01*
X150283671Y-51215854D01*
X150289120Y-51054586D01*
X150296414Y-51024121D01*
X150597726Y-51024121D01*
X150599593Y-51042703D01*
X150629235Y-51022200D01*
X150715792Y-50931376D01*
X150720638Y-50924132D01*
X150794267Y-50924132D01*
X150822490Y-50914986D01*
X150828029Y-50911699D01*
X150876632Y-50902177D01*
X150876952Y-50943853D01*
X150830284Y-51009467D01*
X150800333Y-51054936D01*
X150809963Y-51063605D01*
X150858668Y-51034345D01*
X150946611Y-50959409D01*
X151010727Y-50898313D01*
X151093415Y-50812813D01*
X151131448Y-50765794D01*
X151124396Y-50763702D01*
X151059275Y-50764717D01*
X151042782Y-50748533D01*
X151050358Y-50707542D01*
X151073927Y-50702682D01*
X151142289Y-50668078D01*
X151189761Y-50612451D01*
X151219656Y-50539127D01*
X151197603Y-50522220D01*
X151135337Y-50545998D01*
X151044498Y-50603962D01*
X150950953Y-50676059D01*
X150880569Y-50742232D01*
X150859213Y-50782428D01*
X150860246Y-50783774D01*
X150855425Y-50832581D01*
X150827637Y-50876374D01*
X150794267Y-50924132D01*
X150720638Y-50924132D01*
X150753127Y-50875575D01*
X150783550Y-50804982D01*
X150767928Y-50800270D01*
X150715192Y-50855770D01*
X150652401Y-50939538D01*
X150597726Y-51024121D01*
X150296414Y-51024121D01*
X150326463Y-50898620D01*
X150329697Y-50890601D01*
X150365346Y-50784828D01*
X150371814Y-50718893D01*
X150368830Y-50713436D01*
X150335775Y-50727752D01*
X150293911Y-50805628D01*
X150251817Y-50922083D01*
X150218073Y-51052138D01*
X150201259Y-51170812D01*
X150200861Y-51202468D01*
X150186651Y-51337192D01*
X150144587Y-51445351D01*
X150140824Y-51450603D01*
X150091414Y-51497134D01*
X150073780Y-51480923D01*
X150052147Y-51427474D01*
X150007324Y-51442295D01*
X149962508Y-51516260D01*
X149959091Y-51526039D01*
X149933250Y-51595767D01*
X149918188Y-51582446D01*
X149904373Y-51514760D01*
X149864789Y-51414397D01*
X149819869Y-51365893D01*
X149775425Y-51291572D01*
X149756940Y-51139194D01*
X149756537Y-51106479D01*
X149748501Y-50978535D01*
X149747191Y-50973374D01*
X150117460Y-50973374D01*
X150133967Y-51010510D01*
X150147537Y-51003451D01*
X150152937Y-50949910D01*
X150147537Y-50943297D01*
X150120716Y-50949490D01*
X150117460Y-50973374D01*
X149747191Y-50973374D01*
X149727976Y-50897730D01*
X149712284Y-50883144D01*
X149689420Y-50923637D01*
X149689480Y-51031657D01*
X149694978Y-51079736D01*
X149700445Y-51245486D01*
X149657701Y-51372673D01*
X149642047Y-51398236D01*
X149579486Y-51475348D01*
X149536791Y-51476223D01*
X149524698Y-51461058D01*
X149495664Y-51442890D01*
X149483510Y-51510798D01*
X149483364Y-51514760D01*
X149477529Y-51589580D01*
X149461409Y-51579864D01*
X149443179Y-51537318D01*
X149415063Y-51479519D01*
X149397552Y-51501173D01*
X149384821Y-51559875D01*
X149373109Y-51577209D01*
X149362911Y-51517204D01*
X149356287Y-51392753D01*
X149355951Y-51379414D01*
X149347867Y-51220845D01*
X149332195Y-51146482D01*
X149307631Y-51150517D01*
X149305382Y-51153836D01*
X149269655Y-51192771D01*
X149260957Y-51162453D01*
X149235160Y-51125075D01*
X149215151Y-51131279D01*
X149186735Y-51190078D01*
X149170176Y-51303478D01*
X149168601Y-51348240D01*
X149151264Y-51490996D01*
X149110068Y-51608103D01*
X149097428Y-51627549D01*
X149048117Y-51678268D01*
X149040228Y-51650106D01*
X149039442Y-51564367D01*
X149021812Y-51436278D01*
X149015107Y-51401971D01*
X148977447Y-51221509D01*
X148939841Y-51354761D01*
X148919749Y-51492545D01*
X148925920Y-51602896D01*
X148949607Y-51717779D01*
X148876532Y-51604991D01*
X148826560Y-51531375D01*
X148813630Y-51531728D01*
X148824635Y-51593774D01*
X148826434Y-51661803D01*
X148804905Y-51670064D01*
X148770539Y-51683660D01*
X148763997Y-51720641D01*
X148746363Y-51768161D01*
X148697647Y-51740179D01*
X148624126Y-51643326D01*
X148532080Y-51484233D01*
X148522077Y-51465115D01*
X148462021Y-51346721D01*
X148622601Y-51346721D01*
X148632698Y-51446315D01*
X148653846Y-51555226D01*
X148679781Y-51642608D01*
X148704237Y-51677616D01*
X148708649Y-51675377D01*
X148712542Y-51624788D01*
X148703191Y-51515544D01*
X148693903Y-51446672D01*
X148669911Y-51335106D01*
X148643486Y-51282645D01*
X148629822Y-51287287D01*
X148622601Y-51346721D01*
X148462021Y-51346721D01*
X148447063Y-51317234D01*
X148411722Y-51235566D01*
X148412244Y-51207265D01*
X148444815Y-51219482D01*
X148450165Y-51222731D01*
X148520609Y-51223950D01*
X148582749Y-51171055D01*
X148602309Y-51096344D01*
X148598584Y-51082865D01*
X148602381Y-51026967D01*
X148623823Y-51018490D01*
X148664382Y-51056229D01*
X148673766Y-51108721D01*
X148691052Y-51186668D01*
X148735344Y-51188718D01*
X148795288Y-51120645D01*
X148801389Y-51108721D01*
X148944458Y-51108721D01*
X148960965Y-51145856D01*
X148974535Y-51138798D01*
X148979935Y-51085256D01*
X148974535Y-51078644D01*
X148947714Y-51084837D01*
X148944458Y-51108721D01*
X148801389Y-51108721D01*
X148846299Y-51020961D01*
X148932289Y-50877000D01*
X149029895Y-50816870D01*
X149126500Y-50839005D01*
X149162490Y-50904916D01*
X149156901Y-50942530D01*
X149166425Y-51014246D01*
X149195442Y-51035898D01*
X149236247Y-51031659D01*
X149255907Y-50967369D01*
X149256690Y-50947057D01*
X149354059Y-50947057D01*
X149362354Y-51005573D01*
X149377755Y-51006271D01*
X149388525Y-50945889D01*
X149381316Y-50919800D01*
X149361284Y-50902711D01*
X149354059Y-50947057D01*
X149256690Y-50947057D01*
X149260267Y-50854343D01*
X149265596Y-50728478D01*
X149286350Y-50674529D01*
X149329676Y-50674561D01*
X149331630Y-50675297D01*
X149402717Y-50699156D01*
X149420445Y-50702682D01*
X149422500Y-50736767D01*
X149411928Y-50770355D01*
X149413913Y-50828296D01*
X149435902Y-50838028D01*
X149470303Y-50812928D01*
X150117963Y-50812928D01*
X150158433Y-50837996D01*
X150160988Y-50838028D01*
X150213839Y-50802757D01*
X150254634Y-50744382D01*
X150283782Y-50679131D01*
X150254149Y-50678998D01*
X150211106Y-50700854D01*
X150138655Y-50758636D01*
X150117963Y-50812928D01*
X149470303Y-50812928D01*
X149479954Y-50805887D01*
X149476885Y-50745135D01*
X149621190Y-50745135D01*
X149653940Y-50791077D01*
X149666306Y-50792913D01*
X149710248Y-50777520D01*
X149711421Y-50773018D01*
X149679807Y-50734499D01*
X149666306Y-50725239D01*
X149624732Y-50728816D01*
X149621190Y-50745135D01*
X149476885Y-50745135D01*
X149476341Y-50734372D01*
X149436797Y-50671681D01*
X149429080Y-50654629D01*
X150534561Y-50654629D01*
X150540732Y-50657566D01*
X150581903Y-50625806D01*
X150591172Y-50612451D01*
X150602669Y-50570273D01*
X150596498Y-50567335D01*
X150555326Y-50599096D01*
X150546057Y-50612451D01*
X150534561Y-50654629D01*
X149429080Y-50654629D01*
X149412150Y-50617224D01*
X149436797Y-50592323D01*
X149481373Y-50587408D01*
X149485844Y-50600765D01*
X149525467Y-50626592D01*
X149622647Y-50639259D01*
X149640617Y-50639520D01*
X149764418Y-50620917D01*
X149796968Y-50589893D01*
X150117460Y-50589893D01*
X150140018Y-50612451D01*
X150162576Y-50589893D01*
X150158816Y-50586133D01*
X150391715Y-50586133D01*
X150400009Y-50644649D01*
X150415410Y-50645348D01*
X150426180Y-50584965D01*
X150418972Y-50558876D01*
X150398939Y-50541787D01*
X150391715Y-50586133D01*
X150158816Y-50586133D01*
X150140018Y-50567335D01*
X150117460Y-50589893D01*
X149796968Y-50589893D01*
X149833057Y-50555496D01*
X149840608Y-50540280D01*
X149870822Y-50489500D01*
X149917812Y-50462042D01*
X150003494Y-50453425D01*
X150149782Y-50459163D01*
X150215941Y-50463501D01*
X150393923Y-50474738D01*
X150547749Y-50482912D01*
X150645114Y-50486312D01*
X150647268Y-50486324D01*
X150716713Y-50500062D01*
X150725484Y-50523894D01*
X150735354Y-50576679D01*
X150755311Y-50593746D01*
X150787324Y-50599823D01*
X150778864Y-50579034D01*
X150786839Y-50530260D01*
X150846239Y-50495863D01*
X150918388Y-50495053D01*
X150933610Y-50502178D01*
X150972389Y-50500190D01*
X150974654Y-50488988D01*
X151014385Y-50460808D01*
X151112058Y-50441503D01*
X151132558Y-50439797D01*
X151236646Y-50444400D01*
X151288993Y-50469455D01*
X151290462Y-50475691D01*
X151327010Y-50510554D01*
X151408936Y-50521086D01*
X151494664Y-50507050D01*
X151538597Y-50477104D01*
X151604126Y-50440569D01*
X151706798Y-50434031D01*
X151802624Y-50455329D01*
G37*
G36*
X147816572Y-51853126D02*
G01*
X147794014Y-51875684D01*
X147771457Y-51853126D01*
X147794014Y-51830568D01*
X147816572Y-51853126D01*
G37*
G36*
X151692481Y-51423724D02*
G01*
X151651050Y-51499808D01*
X151577346Y-51614939D01*
X151479102Y-51760291D01*
X151420563Y-51842467D01*
X151391487Y-51873437D01*
X151381637Y-51865173D01*
X151380693Y-51844856D01*
X151406333Y-51782912D01*
X151470004Y-51679897D01*
X151551833Y-51563940D01*
X151631944Y-51463169D01*
X151690464Y-51405714D01*
X151691365Y-51405145D01*
X151692481Y-51423724D01*
G37*
G36*
X153266968Y-50942201D02*
G01*
X153248459Y-50962786D01*
X153190159Y-51026221D01*
X153144686Y-51098706D01*
X153091358Y-51166821D01*
X153050818Y-51176922D01*
X152995159Y-51184321D01*
X152981612Y-51200051D01*
X152920025Y-51228446D01*
X152872076Y-51222326D01*
X152778574Y-51231356D01*
X152738513Y-51261375D01*
X152673044Y-51305341D01*
X152545471Y-51366085D01*
X152379553Y-51432660D01*
X152320178Y-51454134D01*
X152039336Y-51572007D01*
X151839691Y-51700695D01*
X151796112Y-51740337D01*
X151710134Y-51821147D01*
X151661106Y-51858340D01*
X151656509Y-51853126D01*
X151742884Y-51693852D01*
X151843842Y-51565192D01*
X151939183Y-51491911D01*
X151955915Y-51486050D01*
X152034818Y-51452975D01*
X152057425Y-51425730D01*
X152096003Y-51393698D01*
X152198838Y-51337898D01*
X152346576Y-51268492D01*
X152407069Y-51242115D01*
X152620147Y-51148759D01*
X152757869Y-51081440D01*
X152829119Y-51033865D01*
X152842780Y-50999740D01*
X152807738Y-50972773D01*
X152794925Y-50967391D01*
X152758531Y-50944756D01*
X152803415Y-50933673D01*
X152856808Y-50931430D01*
X152955526Y-50939068D01*
X152981781Y-50973821D01*
X152976049Y-50995932D01*
X152975040Y-51053435D01*
X153020860Y-51055853D01*
X153088868Y-51003187D01*
X153095080Y-50995932D01*
X153177876Y-50938666D01*
X153224672Y-50928950D01*
X153266968Y-50942201D01*
G37*
G36*
X154523736Y-51800491D02*
G01*
X154517543Y-51827312D01*
X154493659Y-51830568D01*
X154456524Y-51814061D01*
X154463582Y-51800491D01*
X154517124Y-51795092D01*
X154523736Y-51800491D01*
G37*
G36*
X147726341Y-51762895D02*
G01*
X147703783Y-51785453D01*
X147681226Y-51762895D01*
X147703783Y-51740337D01*
X147726341Y-51762895D01*
G37*
G36*
X152854232Y-51581130D02*
G01*
X152869503Y-51583616D01*
X152837331Y-51610257D01*
X152757746Y-51670586D01*
X152735410Y-51687161D01*
X152648979Y-51742787D01*
X152622729Y-51736158D01*
X152627448Y-51718204D01*
X152673169Y-51658205D01*
X152696530Y-51650106D01*
X152721883Y-51624212D01*
X152717574Y-51614658D01*
X152735781Y-51585999D01*
X152782584Y-51579211D01*
X152854232Y-51581130D01*
G37*
G36*
X149562301Y-51628965D02*
G01*
X149536558Y-51662137D01*
X149498624Y-51690647D01*
X149508090Y-51645441D01*
X149511302Y-51636882D01*
X149547042Y-51581636D01*
X149567362Y-51581239D01*
X149562301Y-51628965D01*
G37*
G36*
X153049965Y-51672664D02*
G01*
X153027407Y-51695222D01*
X153004849Y-51672664D01*
X153027407Y-51650106D01*
X153049965Y-51672664D01*
G37*
G36*
X153886687Y-51532317D02*
G01*
X153905667Y-51557721D01*
X153929018Y-51640683D01*
X153873622Y-51682039D01*
X153791962Y-51684677D01*
X153681238Y-51675513D01*
X153773126Y-51583858D01*
X153843756Y-51525158D01*
X153886687Y-51532317D01*
G37*
G36*
X154493659Y-51627549D02*
G01*
X154536699Y-51668090D01*
X154538775Y-51675327D01*
X154503869Y-51694704D01*
X154493659Y-51695222D01*
X154450277Y-51660539D01*
X154448544Y-51647444D01*
X154476183Y-51620499D01*
X154493659Y-51627549D01*
G37*
G36*
X150644549Y-51551416D02*
G01*
X150649928Y-51621926D01*
X150640987Y-51637887D01*
X150620482Y-51624432D01*
X150617292Y-51578673D01*
X150628310Y-51530534D01*
X150644549Y-51551416D01*
G37*
G36*
X153632268Y-51356820D02*
G01*
X153627935Y-51408604D01*
X153576787Y-51465983D01*
X153491955Y-51505288D01*
X153480525Y-51507598D01*
X153378580Y-51554511D01*
X153330554Y-51597829D01*
X153291237Y-51639036D01*
X153300716Y-51606552D01*
X153301466Y-51604991D01*
X153370566Y-51499213D01*
X153461749Y-51402395D01*
X153462348Y-51401971D01*
X153546235Y-51401971D01*
X153568792Y-51424529D01*
X153591350Y-51401971D01*
X153568792Y-51379414D01*
X153546235Y-51401971D01*
X153462348Y-51401971D01*
X153546956Y-51342139D01*
X153576657Y-51334298D01*
X153632268Y-51356820D01*
G37*
G36*
X150072345Y-51582433D02*
G01*
X150049787Y-51604991D01*
X150027229Y-51582433D01*
X150049787Y-51559875D01*
X150072345Y-51582433D01*
G37*
G36*
X153254354Y-51459388D02*
G01*
X153248274Y-51466041D01*
X153183946Y-51504803D01*
X153091640Y-51531623D01*
X153001607Y-51542286D01*
X152944094Y-51532578D01*
X152940816Y-51508870D01*
X153003113Y-51478608D01*
X153048648Y-51482372D01*
X153152488Y-51479226D01*
X153212740Y-51457688D01*
X153268210Y-51433371D01*
X153254354Y-51459388D01*
G37*
G36*
X153321647Y-51117276D02*
G01*
X153335777Y-51161666D01*
X153345672Y-51259499D01*
X153323266Y-51311905D01*
X153279842Y-51299177D01*
X153266468Y-51282720D01*
X153224710Y-51246365D01*
X153200850Y-51277378D01*
X153148954Y-51327028D01*
X153042381Y-51390689D01*
X152972972Y-51424003D01*
X152838604Y-51482330D01*
X152766935Y-51508755D01*
X152738611Y-51508923D01*
X152734156Y-51493643D01*
X152769313Y-51459879D01*
X152854299Y-51407358D01*
X152858224Y-51405218D01*
X152925124Y-51355705D01*
X152907696Y-51329168D01*
X152809705Y-51329066D01*
X152779272Y-51332723D01*
X152737100Y-51326660D01*
X152763149Y-51288774D01*
X152826054Y-51258529D01*
X152916042Y-51289944D01*
X152988691Y-51316819D01*
X153048080Y-51293254D01*
X153124963Y-51206716D01*
X153127175Y-51203893D01*
X153220358Y-51098818D01*
X153281469Y-51070698D01*
X153321647Y-51117276D01*
G37*
G36*
X149846767Y-51447087D02*
G01*
X149824210Y-51469644D01*
X149801652Y-51447087D01*
X149824210Y-51424529D01*
X149846767Y-51447087D01*
G37*
G36*
X153771812Y-51401971D02*
G01*
X153749254Y-51424529D01*
X153726696Y-51401971D01*
X153749254Y-51379414D01*
X153771812Y-51401971D01*
G37*
G36*
X153034926Y-51213990D02*
G01*
X153040326Y-51267532D01*
X153034926Y-51274144D01*
X153008105Y-51267951D01*
X153004849Y-51244067D01*
X153021356Y-51206932D01*
X153034926Y-51213990D01*
G37*
G36*
X151457150Y-51087580D02*
G01*
X151431407Y-51120752D01*
X151393473Y-51149262D01*
X151402939Y-51104055D01*
X151406151Y-51095496D01*
X151441891Y-51040250D01*
X151462211Y-51039854D01*
X151457150Y-51087580D01*
G37*
G36*
X151362161Y-50866356D02*
G01*
X151304176Y-50936012D01*
X151290462Y-50950817D01*
X151213273Y-51026695D01*
X151164672Y-51063061D01*
X151161945Y-51063605D01*
X151173647Y-51035278D01*
X151231633Y-50965622D01*
X151245346Y-50950817D01*
X151322535Y-50874938D01*
X151371136Y-50838572D01*
X151373864Y-50838028D01*
X151362161Y-50866356D01*
G37*
G36*
X152033774Y-50775261D02*
G01*
X151989751Y-50838028D01*
X151913556Y-50905427D01*
X151862978Y-50928259D01*
X151855498Y-50900795D01*
X151899521Y-50838028D01*
X151975716Y-50770629D01*
X152026294Y-50747797D01*
X152033774Y-50775261D01*
G37*
G36*
X152057425Y-50905701D02*
G01*
X152034867Y-50928259D01*
X152012309Y-50905701D01*
X152034867Y-50883144D01*
X152057425Y-50905701D01*
G37*
G36*
X151786732Y-50860586D02*
G01*
X151764174Y-50883144D01*
X151741616Y-50860586D01*
X151764174Y-50838028D01*
X151786732Y-50860586D01*
G37*
G36*
X151636347Y-50717720D02*
G01*
X151641747Y-50771262D01*
X151636347Y-50777874D01*
X151609526Y-50771681D01*
X151606270Y-50747797D01*
X151622777Y-50710662D01*
X151636347Y-50717720D01*
G37*
G36*
X151967194Y-50544778D02*
G01*
X151944636Y-50567335D01*
X151922078Y-50544778D01*
X151944636Y-50522220D01*
X151967194Y-50544778D01*
G37*
G36*
X149200113Y-57575269D02*
G01*
X149193920Y-57602090D01*
X149170036Y-57605346D01*
X149132901Y-57588839D01*
X149139959Y-57575269D01*
X149193500Y-57569870D01*
X149200113Y-57575269D01*
G37*
G36*
X149497037Y-56434409D02*
G01*
X149566861Y-56460970D01*
X149568746Y-56463502D01*
X149624157Y-56506797D01*
X149734471Y-56568439D01*
X149824210Y-56611478D01*
X149940265Y-56671785D01*
X149994864Y-56717604D01*
X149988175Y-56736172D01*
X149913702Y-56724309D01*
X149886665Y-56697257D01*
X149840534Y-56661893D01*
X149812931Y-56685496D01*
X149751644Y-56720559D01*
X149633016Y-56754214D01*
X149553517Y-56768590D01*
X149395529Y-56802184D01*
X149205220Y-56857950D01*
X149005928Y-56927126D01*
X148820989Y-57000950D01*
X148673739Y-57070659D01*
X148587515Y-57127491D01*
X148582132Y-57133324D01*
X148521704Y-57187954D01*
X148452135Y-57183599D01*
X148414352Y-57169428D01*
X148356576Y-57125616D01*
X148372441Y-57088028D01*
X148446411Y-57076661D01*
X148482025Y-57082319D01*
X148564402Y-57098047D01*
X148568126Y-57083091D01*
X148521671Y-57044401D01*
X148460679Y-56957221D01*
X148461466Y-56943653D01*
X148508342Y-56943653D01*
X148514535Y-56970474D01*
X148538419Y-56973730D01*
X148575554Y-56957223D01*
X148568496Y-56943653D01*
X148514955Y-56938253D01*
X148508342Y-56943653D01*
X148461466Y-56943653D01*
X148466136Y-56863247D01*
X148472006Y-56770497D01*
X148440215Y-56748152D01*
X148425345Y-56731788D01*
X148473966Y-56689639D01*
X148566923Y-56632125D01*
X148685058Y-56569664D01*
X148809213Y-56512676D01*
X148920231Y-56471580D01*
X148971907Y-56458990D01*
X149178849Y-56433263D01*
X149360796Y-56425121D01*
X149497037Y-56434409D01*
G37*
G36*
X149891883Y-57176749D02*
G01*
X149869325Y-57199307D01*
X149846767Y-57176749D01*
X149869325Y-57154192D01*
X149891883Y-57176749D01*
G37*
G36*
X149891883Y-57041403D02*
G01*
X149869325Y-57063961D01*
X149846767Y-57041403D01*
X149869325Y-57018845D01*
X149891883Y-57041403D01*
G37*
G36*
X149695913Y-56324637D02*
G01*
X149688863Y-56342113D01*
X149648322Y-56385153D01*
X149641085Y-56387229D01*
X149621707Y-56352323D01*
X149621190Y-56342113D01*
X149655873Y-56298732D01*
X149668968Y-56296998D01*
X149695913Y-56324637D01*
G37*
G36*
X149704450Y-56179901D02*
G01*
X149752504Y-56221840D01*
X149756537Y-56231987D01*
X149735126Y-56250530D01*
X149690549Y-56208980D01*
X149684555Y-56199796D01*
X149679238Y-56168924D01*
X149704450Y-56179901D01*
G37*
G36*
X150996892Y-50838545D02*
G01*
X150948638Y-50875944D01*
X150896927Y-50882220D01*
X150884423Y-50865413D01*
X150919812Y-50836438D01*
X150954439Y-50820814D01*
X151001011Y-50817661D01*
X150996892Y-50838545D01*
G37*
G36*
X150960499Y-50731824D02*
G01*
X150952096Y-50747797D01*
X150909588Y-50790883D01*
X150901655Y-50792913D01*
X150898577Y-50763770D01*
X150906981Y-50747797D01*
X150949489Y-50704712D01*
X150957421Y-50702682D01*
X150960499Y-50731824D01*
G37*
D11*
X227884000Y-76660000D02*
X227584000Y-76060000D01*
X227284000Y-76660000D02*
X227884000Y-76660000D01*
X227584000Y-76060000D02*
X227284000Y-76660000D01*
X235404000Y-72970000D02*
X235084000Y-72970000D01*
X235404000Y-69550000D02*
X235404000Y-72970000D01*
X235084000Y-69470000D02*
X235404000Y-69550000D01*
X234764000Y-69550000D02*
X235084000Y-69470000D01*
X234764000Y-72970000D02*
X234764000Y-69550000D01*
X235084000Y-72970000D02*
X234764000Y-72970000D01*
X233754000Y-73970000D02*
X233914000Y-73970000D01*
X232904000Y-72970000D02*
X232584000Y-72970000D01*
X232904000Y-69550000D02*
X232904000Y-72970000D01*
X232584000Y-69470000D02*
X232904000Y-69550000D01*
X232264000Y-69550000D02*
X232584000Y-69470000D01*
X232264000Y-72970000D02*
X232264000Y-69550000D01*
X232584000Y-72970000D02*
X232264000Y-72970000D01*
X231254000Y-73970000D02*
X231414000Y-73970000D01*
X230404000Y-72970000D02*
X230084000Y-72970000D01*
X230404000Y-69550000D02*
X230404000Y-72970000D01*
X230084000Y-69470000D02*
X230404000Y-69550000D01*
X229764000Y-69550000D02*
X230084000Y-69470000D01*
X229764000Y-72970000D02*
X229764000Y-69550000D01*
X230084000Y-72970000D02*
X229764000Y-72970000D01*
X228754000Y-73970000D02*
X228914000Y-73970000D01*
X227904000Y-72970000D02*
X227584000Y-72970000D01*
X227904000Y-69550000D02*
X227904000Y-72970000D01*
X227584000Y-69470000D02*
X227904000Y-69550000D01*
X227264000Y-69550000D02*
X227584000Y-69470000D01*
X227264000Y-72970000D02*
X227264000Y-69550000D01*
X227584000Y-72970000D02*
X227264000Y-72970000D01*
X226194000Y-72970000D02*
X236474000Y-72970000D01*
X236474000Y-73970000D02*
X237694000Y-73970000D01*
X236474000Y-68970000D02*
X236474000Y-73970000D01*
X237694000Y-68970000D02*
X236474000Y-68970000D01*
X226194000Y-73970000D02*
X224974000Y-73970000D01*
X226194000Y-68970000D02*
X226194000Y-73970000D01*
X224974000Y-68970000D02*
X226194000Y-68970000D01*
X236474000Y-76170000D02*
X236474000Y-73970000D01*
X237694000Y-76170000D02*
X236474000Y-76170000D01*
X237694000Y-67750000D02*
X237694000Y-76170000D01*
X224974000Y-67750000D02*
X237694000Y-67750000D01*
X224974000Y-76170000D02*
X224974000Y-67750000D01*
X226194000Y-76170000D02*
X224974000Y-76170000D01*
X226194000Y-73970000D02*
X226194000Y-76170000D01*
X182310000Y-36798922D02*
X182310000Y-37316078D01*
X183730000Y-36798922D02*
X183730000Y-37316078D01*
X186300000Y-37286078D02*
X186300000Y-36768922D01*
X184880000Y-37286078D02*
X184880000Y-36768922D01*
X201710000Y-52321078D02*
X201710000Y-51803922D01*
X200290000Y-52321078D02*
X200290000Y-51803922D01*
X204710000Y-52258578D02*
X204710000Y-51741422D01*
X203290000Y-52258578D02*
X203290000Y-51741422D01*
X136952000Y-76712500D02*
X136652000Y-76112500D01*
X136352000Y-76712500D02*
X136952000Y-76712500D01*
X136652000Y-76112500D02*
X136352000Y-76712500D01*
X144472000Y-73022500D02*
X144152000Y-73022500D01*
X144472000Y-69602500D02*
X144472000Y-73022500D01*
X144152000Y-69522500D02*
X144472000Y-69602500D01*
X143832000Y-69602500D02*
X144152000Y-69522500D01*
X143832000Y-73022500D02*
X143832000Y-69602500D01*
X144152000Y-73022500D02*
X143832000Y-73022500D01*
X142822000Y-74022500D02*
X142982000Y-74022500D01*
X141972000Y-73022500D02*
X141652000Y-73022500D01*
X141972000Y-69602500D02*
X141972000Y-73022500D01*
X141652000Y-69522500D02*
X141972000Y-69602500D01*
X141332000Y-69602500D02*
X141652000Y-69522500D01*
X141332000Y-73022500D02*
X141332000Y-69602500D01*
X141652000Y-73022500D02*
X141332000Y-73022500D01*
X140322000Y-74022500D02*
X140482000Y-74022500D01*
X139472000Y-73022500D02*
X139152000Y-73022500D01*
X139472000Y-69602500D02*
X139472000Y-73022500D01*
X139152000Y-69522500D02*
X139472000Y-69602500D01*
X138832000Y-69602500D02*
X139152000Y-69522500D01*
X138832000Y-73022500D02*
X138832000Y-69602500D01*
X139152000Y-73022500D02*
X138832000Y-73022500D01*
X137822000Y-74022500D02*
X137982000Y-74022500D01*
X136972000Y-73022500D02*
X136652000Y-73022500D01*
X136972000Y-69602500D02*
X136972000Y-73022500D01*
X136652000Y-69522500D02*
X136972000Y-69602500D01*
X136332000Y-69602500D02*
X136652000Y-69522500D01*
X136332000Y-73022500D02*
X136332000Y-69602500D01*
X136652000Y-73022500D02*
X136332000Y-73022500D01*
X135262000Y-73022500D02*
X145542000Y-73022500D01*
X145542000Y-74022500D02*
X146762000Y-74022500D01*
X145542000Y-69022500D02*
X145542000Y-74022500D01*
X146762000Y-69022500D02*
X145542000Y-69022500D01*
X135262000Y-74022500D02*
X134042000Y-74022500D01*
X135262000Y-69022500D02*
X135262000Y-74022500D01*
X134042000Y-69022500D02*
X135262000Y-69022500D01*
X145542000Y-76222500D02*
X145542000Y-74022500D01*
X146762000Y-76222500D02*
X145542000Y-76222500D01*
X146762000Y-67802500D02*
X146762000Y-76222500D01*
X134042000Y-67802500D02*
X146762000Y-67802500D01*
X134042000Y-76222500D02*
X134042000Y-67802500D01*
X135262000Y-76222500D02*
X134042000Y-76222500D01*
X135262000Y-74022500D02*
X135262000Y-76222500D01*
X178410000Y-36002064D02*
X178410000Y-34797936D01*
X176590000Y-36002064D02*
X176590000Y-34797936D01*
X213685000Y-65185000D02*
X213685000Y-62500000D01*
X211765000Y-65185000D02*
X213685000Y-65185000D01*
X211765000Y-62500000D02*
X211765000Y-65185000D01*
X175585000Y-65185000D02*
X175585000Y-62500000D01*
X173665000Y-65185000D02*
X175585000Y-65185000D01*
X173665000Y-62500000D02*
X173665000Y-65185000D01*
X194635000Y-65185000D02*
X194635000Y-62500000D01*
X192715000Y-65185000D02*
X194635000Y-65185000D01*
X192715000Y-62500000D02*
X192715000Y-65185000D01*
X194635000Y-46135000D02*
X194635000Y-43450000D01*
X192715000Y-46135000D02*
X194635000Y-46135000D01*
X192715000Y-43450000D02*
X192715000Y-46135000D01*
X195300000Y-35220000D02*
X192350000Y-35220000D01*
X192900000Y-38320000D02*
X195300000Y-38320000D01*
X186801078Y-51720000D02*
X186283922Y-51720000D01*
X186801078Y-53140000D02*
X186283922Y-53140000D01*
D12*
X231000666Y-66112380D02*
X231000666Y-66826666D01*
X230953047Y-66969523D01*
X230857809Y-67064761D01*
X230714952Y-67112380D01*
X230619714Y-67112380D01*
X231429238Y-66207619D02*
X231476857Y-66160000D01*
X231572095Y-66112380D01*
X231810190Y-66112380D01*
X231905428Y-66160000D01*
X231953047Y-66207619D01*
X232000666Y-66302857D01*
X232000666Y-66398095D01*
X231953047Y-66540952D01*
X231381619Y-67112380D01*
X232000666Y-67112380D01*
X183894418Y-28316918D02*
X183894418Y-29126442D01*
X183942037Y-29221680D01*
X183989656Y-29269299D01*
X184084894Y-29316918D01*
X184275371Y-29316918D01*
X184370609Y-29269299D01*
X184418228Y-29221680D01*
X184465847Y-29126442D01*
X184465847Y-28316918D01*
X184894418Y-29269299D02*
X185037275Y-29316918D01*
X185275371Y-29316918D01*
X185370609Y-29269299D01*
X185418228Y-29221680D01*
X185465847Y-29126442D01*
X185465847Y-29031204D01*
X185418228Y-28935966D01*
X185370609Y-28888347D01*
X185275371Y-28840728D01*
X185084894Y-28793109D01*
X184989656Y-28745490D01*
X184942037Y-28697871D01*
X184894418Y-28602633D01*
X184894418Y-28507395D01*
X184942037Y-28412157D01*
X184989656Y-28364538D01*
X185084894Y-28316918D01*
X185322990Y-28316918D01*
X185465847Y-28364538D01*
X186227752Y-28793109D02*
X186370609Y-28840728D01*
X186418228Y-28888347D01*
X186465847Y-28983585D01*
X186465847Y-29126442D01*
X186418228Y-29221680D01*
X186370609Y-29269299D01*
X186275371Y-29316918D01*
X185894418Y-29316918D01*
X185894418Y-28316918D01*
X186227752Y-28316918D01*
X186322990Y-28364538D01*
X186370609Y-28412157D01*
X186418228Y-28507395D01*
X186418228Y-28602633D01*
X186370609Y-28697871D01*
X186322990Y-28745490D01*
X186227752Y-28793109D01*
X185894418Y-28793109D01*
X187418228Y-29316918D02*
X186846799Y-29316918D01*
X187132514Y-29316918D02*
X187132514Y-28316918D01*
X187037275Y-28459776D01*
X186942037Y-28555014D01*
X186846799Y-28602633D01*
X182212380Y-37206666D02*
X181736190Y-37540000D01*
X182212380Y-37778095D02*
X181212380Y-37778095D01*
X181212380Y-37397142D01*
X181260000Y-37301904D01*
X181307619Y-37254285D01*
X181402857Y-37206666D01*
X181545714Y-37206666D01*
X181640952Y-37254285D01*
X181688571Y-37301904D01*
X181736190Y-37397142D01*
X181736190Y-37778095D01*
X181212380Y-36301904D02*
X181212380Y-36778095D01*
X181688571Y-36825714D01*
X181640952Y-36778095D01*
X181593333Y-36682857D01*
X181593333Y-36444761D01*
X181640952Y-36349523D01*
X181688571Y-36301904D01*
X181783809Y-36254285D01*
X182021904Y-36254285D01*
X182117142Y-36301904D01*
X182164761Y-36349523D01*
X182212380Y-36444761D01*
X182212380Y-36682857D01*
X182164761Y-36778095D01*
X182117142Y-36825714D01*
X187452380Y-37166666D02*
X186976190Y-37500000D01*
X187452380Y-37738095D02*
X186452380Y-37738095D01*
X186452380Y-37357142D01*
X186500000Y-37261904D01*
X186547619Y-37214285D01*
X186642857Y-37166666D01*
X186785714Y-37166666D01*
X186880952Y-37214285D01*
X186928571Y-37261904D01*
X186976190Y-37357142D01*
X186976190Y-37738095D01*
X186785714Y-36309523D02*
X187452380Y-36309523D01*
X186404761Y-36547619D02*
X187119047Y-36785714D01*
X187119047Y-36166666D01*
X199802380Y-52229166D02*
X199326190Y-52562500D01*
X199802380Y-52800595D02*
X198802380Y-52800595D01*
X198802380Y-52419642D01*
X198850000Y-52324404D01*
X198897619Y-52276785D01*
X198992857Y-52229166D01*
X199135714Y-52229166D01*
X199230952Y-52276785D01*
X199278571Y-52324404D01*
X199326190Y-52419642D01*
X199326190Y-52800595D01*
X198897619Y-51848214D02*
X198850000Y-51800595D01*
X198802380Y-51705357D01*
X198802380Y-51467261D01*
X198850000Y-51372023D01*
X198897619Y-51324404D01*
X198992857Y-51276785D01*
X199088095Y-51276785D01*
X199230952Y-51324404D01*
X199802380Y-51895833D01*
X199802380Y-51276785D01*
X202802380Y-52166666D02*
X202326190Y-52500000D01*
X202802380Y-52738095D02*
X201802380Y-52738095D01*
X201802380Y-52357142D01*
X201850000Y-52261904D01*
X201897619Y-52214285D01*
X201992857Y-52166666D01*
X202135714Y-52166666D01*
X202230952Y-52214285D01*
X202278571Y-52261904D01*
X202326190Y-52357142D01*
X202326190Y-52738095D01*
X202802380Y-51214285D02*
X202802380Y-51785714D01*
X202802380Y-51500000D02*
X201802380Y-51500000D01*
X201945238Y-51595238D01*
X202040476Y-51690476D01*
X202088095Y-51785714D01*
X140068666Y-66164880D02*
X140068666Y-66879166D01*
X140021047Y-67022023D01*
X139925809Y-67117261D01*
X139782952Y-67164880D01*
X139687714Y-67164880D01*
X141068666Y-67164880D02*
X140497238Y-67164880D01*
X140782952Y-67164880D02*
X140782952Y-66164880D01*
X140687714Y-66307738D01*
X140592476Y-66402976D01*
X140497238Y-66450595D01*
X175608571Y-35733333D02*
X175608571Y-36066666D01*
X176132380Y-36066666D02*
X175132380Y-36066666D01*
X175132380Y-35590476D01*
X176132380Y-34685714D02*
X176132380Y-35257142D01*
X176132380Y-34971428D02*
X175132380Y-34971428D01*
X175275238Y-35066666D01*
X175370476Y-35161904D01*
X175418095Y-35257142D01*
X211527380Y-64238095D02*
X210527380Y-64238095D01*
X210527380Y-64000000D01*
X210575000Y-63857142D01*
X210670238Y-63761904D01*
X210765476Y-63714285D01*
X210955952Y-63666666D01*
X211098809Y-63666666D01*
X211289285Y-63714285D01*
X211384523Y-63761904D01*
X211479761Y-63857142D01*
X211527380Y-64000000D01*
X211527380Y-64238095D01*
X210527380Y-62761904D02*
X210527380Y-63238095D01*
X211003571Y-63285714D01*
X210955952Y-63238095D01*
X210908333Y-63142857D01*
X210908333Y-62904761D01*
X210955952Y-62809523D01*
X211003571Y-62761904D01*
X211098809Y-62714285D01*
X211336904Y-62714285D01*
X211432142Y-62761904D01*
X211479761Y-62809523D01*
X211527380Y-62904761D01*
X211527380Y-63142857D01*
X211479761Y-63238095D01*
X211432142Y-63285714D01*
X173427380Y-64238095D02*
X172427380Y-64238095D01*
X172427380Y-64000000D01*
X172475000Y-63857142D01*
X172570238Y-63761904D01*
X172665476Y-63714285D01*
X172855952Y-63666666D01*
X172998809Y-63666666D01*
X173189285Y-63714285D01*
X173284523Y-63761904D01*
X173379761Y-63857142D01*
X173427380Y-64000000D01*
X173427380Y-64238095D01*
X172760714Y-62809523D02*
X173427380Y-62809523D01*
X172379761Y-63047619D02*
X173094047Y-63285714D01*
X173094047Y-62666666D01*
X192477380Y-64238095D02*
X191477380Y-64238095D01*
X191477380Y-64000000D01*
X191525000Y-63857142D01*
X191620238Y-63761904D01*
X191715476Y-63714285D01*
X191905952Y-63666666D01*
X192048809Y-63666666D01*
X192239285Y-63714285D01*
X192334523Y-63761904D01*
X192429761Y-63857142D01*
X192477380Y-64000000D01*
X192477380Y-64238095D01*
X191477380Y-63333333D02*
X191477380Y-62714285D01*
X191858333Y-63047619D01*
X191858333Y-62904761D01*
X191905952Y-62809523D01*
X191953571Y-62761904D01*
X192048809Y-62714285D01*
X192286904Y-62714285D01*
X192382142Y-62761904D01*
X192429761Y-62809523D01*
X192477380Y-62904761D01*
X192477380Y-63190476D01*
X192429761Y-63285714D01*
X192382142Y-63333333D01*
X192477380Y-45188095D02*
X191477380Y-45188095D01*
X191477380Y-44950000D01*
X191525000Y-44807142D01*
X191620238Y-44711904D01*
X191715476Y-44664285D01*
X191905952Y-44616666D01*
X192048809Y-44616666D01*
X192239285Y-44664285D01*
X192334523Y-44711904D01*
X192429761Y-44807142D01*
X192477380Y-44950000D01*
X192477380Y-45188095D01*
X191572619Y-44235714D02*
X191525000Y-44188095D01*
X191477380Y-44092857D01*
X191477380Y-43854761D01*
X191525000Y-43759523D01*
X191572619Y-43711904D01*
X191667857Y-43664285D01*
X191763095Y-43664285D01*
X191905952Y-43711904D01*
X192477380Y-44283333D01*
X192477380Y-43664285D01*
X193381904Y-34842380D02*
X193381904Y-33842380D01*
X193620000Y-33842380D01*
X193762857Y-33890000D01*
X193858095Y-33985238D01*
X193905714Y-34080476D01*
X193953333Y-34270952D01*
X193953333Y-34413809D01*
X193905714Y-34604285D01*
X193858095Y-34699523D01*
X193762857Y-34794761D01*
X193620000Y-34842380D01*
X193381904Y-34842380D01*
X194905714Y-34842380D02*
X194334285Y-34842380D01*
X194620000Y-34842380D02*
X194620000Y-33842380D01*
X194524761Y-33985238D01*
X194429523Y-34080476D01*
X194334285Y-34128095D01*
X186375833Y-54437142D02*
X186328214Y-54484761D01*
X186185357Y-54532380D01*
X186090119Y-54532380D01*
X185947261Y-54484761D01*
X185852023Y-54389523D01*
X185804404Y-54294285D01*
X185756785Y-54103809D01*
X185756785Y-53960952D01*
X185804404Y-53770476D01*
X185852023Y-53675238D01*
X185947261Y-53580000D01*
X186090119Y-53532380D01*
X186185357Y-53532380D01*
X186328214Y-53580000D01*
X186375833Y-53627619D01*
X186756785Y-53627619D02*
X186804404Y-53580000D01*
X186899642Y-53532380D01*
X187137738Y-53532380D01*
X187232976Y-53580000D01*
X187280595Y-53627619D01*
X187328214Y-53722857D01*
X187328214Y-53818095D01*
X187280595Y-53960952D01*
X186709166Y-54532380D01*
X187328214Y-54532380D01*
%LPC*%
D13*
X235084000Y-74560000D03*
X232584000Y-74560000D03*
X230084000Y-74560000D03*
D10*
G36*
X228245975Y-73535276D02*
G01*
X228271699Y-73539092D01*
X228296925Y-73545411D01*
X228321411Y-73554172D01*
X228344920Y-73565291D01*
X228367226Y-73578661D01*
X228388114Y-73594152D01*
X228407383Y-73611617D01*
X228424848Y-73630886D01*
X228440339Y-73651774D01*
X228453709Y-73674080D01*
X228464828Y-73697589D01*
X228473589Y-73722075D01*
X228479908Y-73747301D01*
X228483724Y-73773025D01*
X228485000Y-73799000D01*
X228485000Y-75321000D01*
X228483724Y-75346975D01*
X228479908Y-75372699D01*
X228473589Y-75397925D01*
X228464828Y-75422411D01*
X228453709Y-75445920D01*
X228440339Y-75468226D01*
X228424848Y-75489114D01*
X228407383Y-75508383D01*
X228388114Y-75525848D01*
X228367226Y-75541339D01*
X228344920Y-75554709D01*
X228321411Y-75565828D01*
X228296925Y-75574589D01*
X228271699Y-75580908D01*
X228245975Y-75584724D01*
X228220000Y-75586000D01*
X226948000Y-75586000D01*
X226922025Y-75584724D01*
X226896301Y-75580908D01*
X226871075Y-75574589D01*
X226846589Y-75565828D01*
X226823080Y-75554709D01*
X226800774Y-75541339D01*
X226779886Y-75525848D01*
X226760617Y-75508383D01*
X226743152Y-75489114D01*
X226727661Y-75468226D01*
X226714291Y-75445920D01*
X226703172Y-75422411D01*
X226694411Y-75397925D01*
X226688092Y-75372699D01*
X226684276Y-75346975D01*
X226683000Y-75321000D01*
X226683000Y-73799000D01*
X226684276Y-73773025D01*
X226688092Y-73747301D01*
X226694411Y-73722075D01*
X226703172Y-73697589D01*
X226714291Y-73674080D01*
X226727661Y-73651774D01*
X226743152Y-73630886D01*
X226760617Y-73611617D01*
X226779886Y-73594152D01*
X226800774Y-73578661D01*
X226823080Y-73565291D01*
X226846589Y-73554172D01*
X226871075Y-73545411D01*
X226896301Y-73539092D01*
X226922025Y-73535276D01*
X226948000Y-73534000D01*
X228220000Y-73534000D01*
X228245975Y-73535276D01*
G37*
D14*
X190817500Y-48418750D03*
X180657500Y-48418750D03*
D15*
X181927500Y-45878750D03*
D16*
X185737500Y-48418750D03*
D15*
X188277500Y-43338750D03*
D14*
X209867500Y-67468750D03*
X199707500Y-67468750D03*
D15*
X200977500Y-64928750D03*
D16*
X204787500Y-67468750D03*
D15*
X207327500Y-62388750D03*
D14*
X171767500Y-67468750D03*
X161607500Y-67468750D03*
D15*
X162877500Y-64928750D03*
D16*
X166687500Y-67468750D03*
D15*
X169227500Y-62388750D03*
D14*
X190817500Y-67468750D03*
X180657500Y-67468750D03*
D15*
X181927500Y-64928750D03*
D16*
X185737500Y-67468750D03*
D15*
X188277500Y-62388750D03*
D17*
X182512500Y-33370000D03*
X188962500Y-33370000D03*
X183287500Y-33370000D03*
X188187500Y-33370000D03*
D18*
X187487500Y-33370000D03*
X183987500Y-33370000D03*
X186987500Y-33370000D03*
X184487500Y-33370000D03*
X186487500Y-33370000D03*
X184987500Y-33370000D03*
X185487500Y-33370000D03*
X185987500Y-33370000D03*
D19*
X182847500Y-31650000D03*
X188627500Y-31650000D03*
D10*
G36*
X183528141Y-37457797D02*
G01*
X183554278Y-37461674D01*
X183579909Y-37468094D01*
X183604788Y-37476995D01*
X183628674Y-37488293D01*
X183651337Y-37501877D01*
X183672560Y-37517617D01*
X183692139Y-37535361D01*
X183709883Y-37554940D01*
X183725623Y-37576163D01*
X183739207Y-37598826D01*
X183750505Y-37622712D01*
X183759406Y-37647591D01*
X183765826Y-37673222D01*
X183769703Y-37699359D01*
X183771000Y-37725750D01*
X183771000Y-38264250D01*
X183769703Y-38290641D01*
X183765826Y-38316778D01*
X183759406Y-38342409D01*
X183750505Y-38367288D01*
X183739207Y-38391174D01*
X183725623Y-38413837D01*
X183709883Y-38435060D01*
X183692139Y-38454639D01*
X183672560Y-38472383D01*
X183651337Y-38488123D01*
X183628674Y-38501707D01*
X183604788Y-38513005D01*
X183579909Y-38521906D01*
X183554278Y-38528326D01*
X183528141Y-38532203D01*
X183501750Y-38533500D01*
X182538250Y-38533500D01*
X182511859Y-38532203D01*
X182485722Y-38528326D01*
X182460091Y-38521906D01*
X182435212Y-38513005D01*
X182411326Y-38501707D01*
X182388663Y-38488123D01*
X182367440Y-38472383D01*
X182347861Y-38454639D01*
X182330117Y-38435060D01*
X182314377Y-38413837D01*
X182300793Y-38391174D01*
X182289495Y-38367288D01*
X182280594Y-38342409D01*
X182274174Y-38316778D01*
X182270297Y-38290641D01*
X182269000Y-38264250D01*
X182269000Y-37725750D01*
X182270297Y-37699359D01*
X182274174Y-37673222D01*
X182280594Y-37647591D01*
X182289495Y-37622712D01*
X182300793Y-37598826D01*
X182314377Y-37576163D01*
X182330117Y-37554940D01*
X182347861Y-37535361D01*
X182367440Y-37517617D01*
X182388663Y-37501877D01*
X182411326Y-37488293D01*
X182435212Y-37476995D01*
X182460091Y-37468094D01*
X182485722Y-37461674D01*
X182511859Y-37457797D01*
X182538250Y-37456500D01*
X183501750Y-37456500D01*
X183528141Y-37457797D01*
G37*
G36*
X183528141Y-35582797D02*
G01*
X183554278Y-35586674D01*
X183579909Y-35593094D01*
X183604788Y-35601995D01*
X183628674Y-35613293D01*
X183651337Y-35626877D01*
X183672560Y-35642617D01*
X183692139Y-35660361D01*
X183709883Y-35679940D01*
X183725623Y-35701163D01*
X183739207Y-35723826D01*
X183750505Y-35747712D01*
X183759406Y-35772591D01*
X183765826Y-35798222D01*
X183769703Y-35824359D01*
X183771000Y-35850750D01*
X183771000Y-36389250D01*
X183769703Y-36415641D01*
X183765826Y-36441778D01*
X183759406Y-36467409D01*
X183750505Y-36492288D01*
X183739207Y-36516174D01*
X183725623Y-36538837D01*
X183709883Y-36560060D01*
X183692139Y-36579639D01*
X183672560Y-36597383D01*
X183651337Y-36613123D01*
X183628674Y-36626707D01*
X183604788Y-36638005D01*
X183579909Y-36646906D01*
X183554278Y-36653326D01*
X183528141Y-36657203D01*
X183501750Y-36658500D01*
X182538250Y-36658500D01*
X182511859Y-36657203D01*
X182485722Y-36653326D01*
X182460091Y-36646906D01*
X182435212Y-36638005D01*
X182411326Y-36626707D01*
X182388663Y-36613123D01*
X182367440Y-36597383D01*
X182347861Y-36579639D01*
X182330117Y-36560060D01*
X182314377Y-36538837D01*
X182300793Y-36516174D01*
X182289495Y-36492288D01*
X182280594Y-36467409D01*
X182274174Y-36441778D01*
X182270297Y-36415641D01*
X182269000Y-36389250D01*
X182269000Y-35850750D01*
X182270297Y-35824359D01*
X182274174Y-35798222D01*
X182280594Y-35772591D01*
X182289495Y-35747712D01*
X182300793Y-35723826D01*
X182314377Y-35701163D01*
X182330117Y-35679940D01*
X182347861Y-35660361D01*
X182367440Y-35642617D01*
X182388663Y-35626877D01*
X182411326Y-35613293D01*
X182435212Y-35601995D01*
X182460091Y-35593094D01*
X182485722Y-35586674D01*
X182511859Y-35582797D01*
X182538250Y-35581500D01*
X183501750Y-35581500D01*
X183528141Y-35582797D01*
G37*
G36*
X186098141Y-35552797D02*
G01*
X186124278Y-35556674D01*
X186149909Y-35563094D01*
X186174788Y-35571995D01*
X186198674Y-35583293D01*
X186221337Y-35596877D01*
X186242560Y-35612617D01*
X186262139Y-35630361D01*
X186279883Y-35649940D01*
X186295623Y-35671163D01*
X186309207Y-35693826D01*
X186320505Y-35717712D01*
X186329406Y-35742591D01*
X186335826Y-35768222D01*
X186339703Y-35794359D01*
X186341000Y-35820750D01*
X186341000Y-36359250D01*
X186339703Y-36385641D01*
X186335826Y-36411778D01*
X186329406Y-36437409D01*
X186320505Y-36462288D01*
X186309207Y-36486174D01*
X186295623Y-36508837D01*
X186279883Y-36530060D01*
X186262139Y-36549639D01*
X186242560Y-36567383D01*
X186221337Y-36583123D01*
X186198674Y-36596707D01*
X186174788Y-36608005D01*
X186149909Y-36616906D01*
X186124278Y-36623326D01*
X186098141Y-36627203D01*
X186071750Y-36628500D01*
X185108250Y-36628500D01*
X185081859Y-36627203D01*
X185055722Y-36623326D01*
X185030091Y-36616906D01*
X185005212Y-36608005D01*
X184981326Y-36596707D01*
X184958663Y-36583123D01*
X184937440Y-36567383D01*
X184917861Y-36549639D01*
X184900117Y-36530060D01*
X184884377Y-36508837D01*
X184870793Y-36486174D01*
X184859495Y-36462288D01*
X184850594Y-36437409D01*
X184844174Y-36411778D01*
X184840297Y-36385641D01*
X184839000Y-36359250D01*
X184839000Y-35820750D01*
X184840297Y-35794359D01*
X184844174Y-35768222D01*
X184850594Y-35742591D01*
X184859495Y-35717712D01*
X184870793Y-35693826D01*
X184884377Y-35671163D01*
X184900117Y-35649940D01*
X184917861Y-35630361D01*
X184937440Y-35612617D01*
X184958663Y-35596877D01*
X184981326Y-35583293D01*
X185005212Y-35571995D01*
X185030091Y-35563094D01*
X185055722Y-35556674D01*
X185081859Y-35552797D01*
X185108250Y-35551500D01*
X186071750Y-35551500D01*
X186098141Y-35552797D01*
G37*
G36*
X186098141Y-37427797D02*
G01*
X186124278Y-37431674D01*
X186149909Y-37438094D01*
X186174788Y-37446995D01*
X186198674Y-37458293D01*
X186221337Y-37471877D01*
X186242560Y-37487617D01*
X186262139Y-37505361D01*
X186279883Y-37524940D01*
X186295623Y-37546163D01*
X186309207Y-37568826D01*
X186320505Y-37592712D01*
X186329406Y-37617591D01*
X186335826Y-37643222D01*
X186339703Y-37669359D01*
X186341000Y-37695750D01*
X186341000Y-38234250D01*
X186339703Y-38260641D01*
X186335826Y-38286778D01*
X186329406Y-38312409D01*
X186320505Y-38337288D01*
X186309207Y-38361174D01*
X186295623Y-38383837D01*
X186279883Y-38405060D01*
X186262139Y-38424639D01*
X186242560Y-38442383D01*
X186221337Y-38458123D01*
X186198674Y-38471707D01*
X186174788Y-38483005D01*
X186149909Y-38491906D01*
X186124278Y-38498326D01*
X186098141Y-38502203D01*
X186071750Y-38503500D01*
X185108250Y-38503500D01*
X185081859Y-38502203D01*
X185055722Y-38498326D01*
X185030091Y-38491906D01*
X185005212Y-38483005D01*
X184981326Y-38471707D01*
X184958663Y-38458123D01*
X184937440Y-38442383D01*
X184917861Y-38424639D01*
X184900117Y-38405060D01*
X184884377Y-38383837D01*
X184870793Y-38361174D01*
X184859495Y-38337288D01*
X184850594Y-38312409D01*
X184844174Y-38286778D01*
X184840297Y-38260641D01*
X184839000Y-38234250D01*
X184839000Y-37695750D01*
X184840297Y-37669359D01*
X184844174Y-37643222D01*
X184850594Y-37617591D01*
X184859495Y-37592712D01*
X184870793Y-37568826D01*
X184884377Y-37546163D01*
X184900117Y-37524940D01*
X184917861Y-37505361D01*
X184937440Y-37487617D01*
X184958663Y-37471877D01*
X184981326Y-37458293D01*
X185005212Y-37446995D01*
X185030091Y-37438094D01*
X185055722Y-37431674D01*
X185081859Y-37427797D01*
X185108250Y-37426500D01*
X186071750Y-37426500D01*
X186098141Y-37427797D01*
G37*
G36*
X201508141Y-50587797D02*
G01*
X201534278Y-50591674D01*
X201559909Y-50598094D01*
X201584788Y-50606995D01*
X201608674Y-50618293D01*
X201631337Y-50631877D01*
X201652560Y-50647617D01*
X201672139Y-50665361D01*
X201689883Y-50684940D01*
X201705623Y-50706163D01*
X201719207Y-50728826D01*
X201730505Y-50752712D01*
X201739406Y-50777591D01*
X201745826Y-50803222D01*
X201749703Y-50829359D01*
X201751000Y-50855750D01*
X201751000Y-51394250D01*
X201749703Y-51420641D01*
X201745826Y-51446778D01*
X201739406Y-51472409D01*
X201730505Y-51497288D01*
X201719207Y-51521174D01*
X201705623Y-51543837D01*
X201689883Y-51565060D01*
X201672139Y-51584639D01*
X201652560Y-51602383D01*
X201631337Y-51618123D01*
X201608674Y-51631707D01*
X201584788Y-51643005D01*
X201559909Y-51651906D01*
X201534278Y-51658326D01*
X201508141Y-51662203D01*
X201481750Y-51663500D01*
X200518250Y-51663500D01*
X200491859Y-51662203D01*
X200465722Y-51658326D01*
X200440091Y-51651906D01*
X200415212Y-51643005D01*
X200391326Y-51631707D01*
X200368663Y-51618123D01*
X200347440Y-51602383D01*
X200327861Y-51584639D01*
X200310117Y-51565060D01*
X200294377Y-51543837D01*
X200280793Y-51521174D01*
X200269495Y-51497288D01*
X200260594Y-51472409D01*
X200254174Y-51446778D01*
X200250297Y-51420641D01*
X200249000Y-51394250D01*
X200249000Y-50855750D01*
X200250297Y-50829359D01*
X200254174Y-50803222D01*
X200260594Y-50777591D01*
X200269495Y-50752712D01*
X200280793Y-50728826D01*
X200294377Y-50706163D01*
X200310117Y-50684940D01*
X200327861Y-50665361D01*
X200347440Y-50647617D01*
X200368663Y-50631877D01*
X200391326Y-50618293D01*
X200415212Y-50606995D01*
X200440091Y-50598094D01*
X200465722Y-50591674D01*
X200491859Y-50587797D01*
X200518250Y-50586500D01*
X201481750Y-50586500D01*
X201508141Y-50587797D01*
G37*
G36*
X201508141Y-52462797D02*
G01*
X201534278Y-52466674D01*
X201559909Y-52473094D01*
X201584788Y-52481995D01*
X201608674Y-52493293D01*
X201631337Y-52506877D01*
X201652560Y-52522617D01*
X201672139Y-52540361D01*
X201689883Y-52559940D01*
X201705623Y-52581163D01*
X201719207Y-52603826D01*
X201730505Y-52627712D01*
X201739406Y-52652591D01*
X201745826Y-52678222D01*
X201749703Y-52704359D01*
X201751000Y-52730750D01*
X201751000Y-53269250D01*
X201749703Y-53295641D01*
X201745826Y-53321778D01*
X201739406Y-53347409D01*
X201730505Y-53372288D01*
X201719207Y-53396174D01*
X201705623Y-53418837D01*
X201689883Y-53440060D01*
X201672139Y-53459639D01*
X201652560Y-53477383D01*
X201631337Y-53493123D01*
X201608674Y-53506707D01*
X201584788Y-53518005D01*
X201559909Y-53526906D01*
X201534278Y-53533326D01*
X201508141Y-53537203D01*
X201481750Y-53538500D01*
X200518250Y-53538500D01*
X200491859Y-53537203D01*
X200465722Y-53533326D01*
X200440091Y-53526906D01*
X200415212Y-53518005D01*
X200391326Y-53506707D01*
X200368663Y-53493123D01*
X200347440Y-53477383D01*
X200327861Y-53459639D01*
X200310117Y-53440060D01*
X200294377Y-53418837D01*
X200280793Y-53396174D01*
X200269495Y-53372288D01*
X200260594Y-53347409D01*
X200254174Y-53321778D01*
X200250297Y-53295641D01*
X200249000Y-53269250D01*
X200249000Y-52730750D01*
X200250297Y-52704359D01*
X200254174Y-52678222D01*
X200260594Y-52652591D01*
X200269495Y-52627712D01*
X200280793Y-52603826D01*
X200294377Y-52581163D01*
X200310117Y-52559940D01*
X200327861Y-52540361D01*
X200347440Y-52522617D01*
X200368663Y-52506877D01*
X200391326Y-52493293D01*
X200415212Y-52481995D01*
X200440091Y-52473094D01*
X200465722Y-52466674D01*
X200491859Y-52462797D01*
X200518250Y-52461500D01*
X201481750Y-52461500D01*
X201508141Y-52462797D01*
G37*
G36*
X204508141Y-50525297D02*
G01*
X204534278Y-50529174D01*
X204559909Y-50535594D01*
X204584788Y-50544495D01*
X204608674Y-50555793D01*
X204631337Y-50569377D01*
X204652560Y-50585117D01*
X204672139Y-50602861D01*
X204689883Y-50622440D01*
X204705623Y-50643663D01*
X204719207Y-50666326D01*
X204730505Y-50690212D01*
X204739406Y-50715091D01*
X204745826Y-50740722D01*
X204749703Y-50766859D01*
X204751000Y-50793250D01*
X204751000Y-51331750D01*
X204749703Y-51358141D01*
X204745826Y-51384278D01*
X204739406Y-51409909D01*
X204730505Y-51434788D01*
X204719207Y-51458674D01*
X204705623Y-51481337D01*
X204689883Y-51502560D01*
X204672139Y-51522139D01*
X204652560Y-51539883D01*
X204631337Y-51555623D01*
X204608674Y-51569207D01*
X204584788Y-51580505D01*
X204559909Y-51589406D01*
X204534278Y-51595826D01*
X204508141Y-51599703D01*
X204481750Y-51601000D01*
X203518250Y-51601000D01*
X203491859Y-51599703D01*
X203465722Y-51595826D01*
X203440091Y-51589406D01*
X203415212Y-51580505D01*
X203391326Y-51569207D01*
X203368663Y-51555623D01*
X203347440Y-51539883D01*
X203327861Y-51522139D01*
X203310117Y-51502560D01*
X203294377Y-51481337D01*
X203280793Y-51458674D01*
X203269495Y-51434788D01*
X203260594Y-51409909D01*
X203254174Y-51384278D01*
X203250297Y-51358141D01*
X203249000Y-51331750D01*
X203249000Y-50793250D01*
X203250297Y-50766859D01*
X203254174Y-50740722D01*
X203260594Y-50715091D01*
X203269495Y-50690212D01*
X203280793Y-50666326D01*
X203294377Y-50643663D01*
X203310117Y-50622440D01*
X203327861Y-50602861D01*
X203347440Y-50585117D01*
X203368663Y-50569377D01*
X203391326Y-50555793D01*
X203415212Y-50544495D01*
X203440091Y-50535594D01*
X203465722Y-50529174D01*
X203491859Y-50525297D01*
X203518250Y-50524000D01*
X204481750Y-50524000D01*
X204508141Y-50525297D01*
G37*
G36*
X204508141Y-52400297D02*
G01*
X204534278Y-52404174D01*
X204559909Y-52410594D01*
X204584788Y-52419495D01*
X204608674Y-52430793D01*
X204631337Y-52444377D01*
X204652560Y-52460117D01*
X204672139Y-52477861D01*
X204689883Y-52497440D01*
X204705623Y-52518663D01*
X204719207Y-52541326D01*
X204730505Y-52565212D01*
X204739406Y-52590091D01*
X204745826Y-52615722D01*
X204749703Y-52641859D01*
X204751000Y-52668250D01*
X204751000Y-53206750D01*
X204749703Y-53233141D01*
X204745826Y-53259278D01*
X204739406Y-53284909D01*
X204730505Y-53309788D01*
X204719207Y-53333674D01*
X204705623Y-53356337D01*
X204689883Y-53377560D01*
X204672139Y-53397139D01*
X204652560Y-53414883D01*
X204631337Y-53430623D01*
X204608674Y-53444207D01*
X204584788Y-53455505D01*
X204559909Y-53464406D01*
X204534278Y-53470826D01*
X204508141Y-53474703D01*
X204481750Y-53476000D01*
X203518250Y-53476000D01*
X203491859Y-53474703D01*
X203465722Y-53470826D01*
X203440091Y-53464406D01*
X203415212Y-53455505D01*
X203391326Y-53444207D01*
X203368663Y-53430623D01*
X203347440Y-53414883D01*
X203327861Y-53397139D01*
X203310117Y-53377560D01*
X203294377Y-53356337D01*
X203280793Y-53333674D01*
X203269495Y-53309788D01*
X203260594Y-53284909D01*
X203254174Y-53259278D01*
X203250297Y-53233141D01*
X203249000Y-53206750D01*
X203249000Y-52668250D01*
X203250297Y-52641859D01*
X203254174Y-52615722D01*
X203260594Y-52590091D01*
X203269495Y-52565212D01*
X203280793Y-52541326D01*
X203294377Y-52518663D01*
X203310117Y-52497440D01*
X203327861Y-52477861D01*
X203347440Y-52460117D01*
X203368663Y-52444377D01*
X203391326Y-52430793D01*
X203415212Y-52419495D01*
X203440091Y-52410594D01*
X203465722Y-52404174D01*
X203491859Y-52400297D01*
X203518250Y-52399000D01*
X204481750Y-52399000D01*
X204508141Y-52400297D01*
G37*
D13*
X144152000Y-74612500D03*
X141652000Y-74612500D03*
X139152000Y-74612500D03*
D10*
G36*
X137313975Y-73587776D02*
G01*
X137339699Y-73591592D01*
X137364925Y-73597911D01*
X137389411Y-73606672D01*
X137412920Y-73617791D01*
X137435226Y-73631161D01*
X137456114Y-73646652D01*
X137475383Y-73664117D01*
X137492848Y-73683386D01*
X137508339Y-73704274D01*
X137521709Y-73726580D01*
X137532828Y-73750089D01*
X137541589Y-73774575D01*
X137547908Y-73799801D01*
X137551724Y-73825525D01*
X137553000Y-73851500D01*
X137553000Y-75373500D01*
X137551724Y-75399475D01*
X137547908Y-75425199D01*
X137541589Y-75450425D01*
X137532828Y-75474911D01*
X137521709Y-75498420D01*
X137508339Y-75520726D01*
X137492848Y-75541614D01*
X137475383Y-75560883D01*
X137456114Y-75578348D01*
X137435226Y-75593839D01*
X137412920Y-75607209D01*
X137389411Y-75618328D01*
X137364925Y-75627089D01*
X137339699Y-75633408D01*
X137313975Y-75637224D01*
X137288000Y-75638500D01*
X136016000Y-75638500D01*
X135990025Y-75637224D01*
X135964301Y-75633408D01*
X135939075Y-75627089D01*
X135914589Y-75618328D01*
X135891080Y-75607209D01*
X135868774Y-75593839D01*
X135847886Y-75578348D01*
X135828617Y-75560883D01*
X135811152Y-75541614D01*
X135795661Y-75520726D01*
X135782291Y-75498420D01*
X135771172Y-75474911D01*
X135762411Y-75450425D01*
X135756092Y-75425199D01*
X135752276Y-75399475D01*
X135751000Y-75373500D01*
X135751000Y-73851500D01*
X135752276Y-73825525D01*
X135756092Y-73799801D01*
X135762411Y-73774575D01*
X135771172Y-73750089D01*
X135782291Y-73726580D01*
X135795661Y-73704274D01*
X135811152Y-73683386D01*
X135828617Y-73664117D01*
X135847886Y-73646652D01*
X135868774Y-73631161D01*
X135891080Y-73617791D01*
X135914589Y-73606672D01*
X135939075Y-73597911D01*
X135964301Y-73591592D01*
X135990025Y-73587776D01*
X136016000Y-73586500D01*
X137288000Y-73586500D01*
X137313975Y-73587776D01*
G37*
G36*
X178182104Y-33325302D02*
G01*
X178208352Y-33329196D01*
X178234093Y-33335643D01*
X178259078Y-33344583D01*
X178283066Y-33355928D01*
X178305826Y-33369571D01*
X178327140Y-33385378D01*
X178346802Y-33403198D01*
X178364622Y-33422860D01*
X178380429Y-33444174D01*
X178394072Y-33466934D01*
X178405417Y-33490922D01*
X178414357Y-33515907D01*
X178420804Y-33541648D01*
X178424698Y-33567896D01*
X178426000Y-33594400D01*
X178426000Y-34405600D01*
X178424698Y-34432104D01*
X178420804Y-34458352D01*
X178414357Y-34484093D01*
X178405417Y-34509078D01*
X178394072Y-34533066D01*
X178380429Y-34555826D01*
X178364622Y-34577140D01*
X178346802Y-34596802D01*
X178327140Y-34614622D01*
X178305826Y-34630429D01*
X178283066Y-34644072D01*
X178259078Y-34655417D01*
X178234093Y-34664357D01*
X178208352Y-34670804D01*
X178182104Y-34674698D01*
X178155600Y-34676000D01*
X176844400Y-34676000D01*
X176817896Y-34674698D01*
X176791648Y-34670804D01*
X176765907Y-34664357D01*
X176740922Y-34655417D01*
X176716934Y-34644072D01*
X176694174Y-34630429D01*
X176672860Y-34614622D01*
X176653198Y-34596802D01*
X176635378Y-34577140D01*
X176619571Y-34555826D01*
X176605928Y-34533066D01*
X176594583Y-34509078D01*
X176585643Y-34484093D01*
X176579196Y-34458352D01*
X176575302Y-34432104D01*
X176574000Y-34405600D01*
X176574000Y-33594400D01*
X176575302Y-33567896D01*
X176579196Y-33541648D01*
X176585643Y-33515907D01*
X176594583Y-33490922D01*
X176605928Y-33466934D01*
X176619571Y-33444174D01*
X176635378Y-33422860D01*
X176653198Y-33403198D01*
X176672860Y-33385378D01*
X176694174Y-33369571D01*
X176716934Y-33355928D01*
X176740922Y-33344583D01*
X176765907Y-33335643D01*
X176791648Y-33329196D01*
X176817896Y-33325302D01*
X176844400Y-33324000D01*
X178155600Y-33324000D01*
X178182104Y-33325302D01*
G37*
G36*
X178182104Y-36125302D02*
G01*
X178208352Y-36129196D01*
X178234093Y-36135643D01*
X178259078Y-36144583D01*
X178283066Y-36155928D01*
X178305826Y-36169571D01*
X178327140Y-36185378D01*
X178346802Y-36203198D01*
X178364622Y-36222860D01*
X178380429Y-36244174D01*
X178394072Y-36266934D01*
X178405417Y-36290922D01*
X178414357Y-36315907D01*
X178420804Y-36341648D01*
X178424698Y-36367896D01*
X178426000Y-36394400D01*
X178426000Y-37205600D01*
X178424698Y-37232104D01*
X178420804Y-37258352D01*
X178414357Y-37284093D01*
X178405417Y-37309078D01*
X178394072Y-37333066D01*
X178380429Y-37355826D01*
X178364622Y-37377140D01*
X178346802Y-37396802D01*
X178327140Y-37414622D01*
X178305826Y-37430429D01*
X178283066Y-37444072D01*
X178259078Y-37455417D01*
X178234093Y-37464357D01*
X178208352Y-37470804D01*
X178182104Y-37474698D01*
X178155600Y-37476000D01*
X176844400Y-37476000D01*
X176817896Y-37474698D01*
X176791648Y-37470804D01*
X176765907Y-37464357D01*
X176740922Y-37455417D01*
X176716934Y-37444072D01*
X176694174Y-37430429D01*
X176672860Y-37414622D01*
X176653198Y-37396802D01*
X176635378Y-37377140D01*
X176619571Y-37355826D01*
X176605928Y-37333066D01*
X176594583Y-37309078D01*
X176585643Y-37284093D01*
X176579196Y-37258352D01*
X176575302Y-37232104D01*
X176574000Y-37205600D01*
X176574000Y-36394400D01*
X176575302Y-36367896D01*
X176579196Y-36341648D01*
X176585643Y-36315907D01*
X176594583Y-36290922D01*
X176605928Y-36266934D01*
X176619571Y-36244174D01*
X176635378Y-36222860D01*
X176653198Y-36203198D01*
X176672860Y-36185378D01*
X176694174Y-36169571D01*
X176716934Y-36155928D01*
X176740922Y-36144583D01*
X176765907Y-36135643D01*
X176791648Y-36129196D01*
X176817896Y-36125302D01*
X176844400Y-36124000D01*
X178155600Y-36124000D01*
X178182104Y-36125302D01*
G37*
G36*
X213233141Y-62025297D02*
G01*
X213259278Y-62029174D01*
X213284909Y-62035594D01*
X213309788Y-62044495D01*
X213333674Y-62055793D01*
X213356337Y-62069377D01*
X213377560Y-62085117D01*
X213397139Y-62102861D01*
X213414883Y-62122440D01*
X213430623Y-62143663D01*
X213444207Y-62166326D01*
X213455505Y-62190212D01*
X213464406Y-62215091D01*
X213470826Y-62240722D01*
X213474703Y-62266859D01*
X213476000Y-62293250D01*
X213476000Y-62831750D01*
X213474703Y-62858141D01*
X213470826Y-62884278D01*
X213464406Y-62909909D01*
X213455505Y-62934788D01*
X213444207Y-62958674D01*
X213430623Y-62981337D01*
X213414883Y-63002560D01*
X213397139Y-63022139D01*
X213377560Y-63039883D01*
X213356337Y-63055623D01*
X213333674Y-63069207D01*
X213309788Y-63080505D01*
X213284909Y-63089406D01*
X213259278Y-63095826D01*
X213233141Y-63099703D01*
X213206750Y-63101000D01*
X212243250Y-63101000D01*
X212216859Y-63099703D01*
X212190722Y-63095826D01*
X212165091Y-63089406D01*
X212140212Y-63080505D01*
X212116326Y-63069207D01*
X212093663Y-63055623D01*
X212072440Y-63039883D01*
X212052861Y-63022139D01*
X212035117Y-63002560D01*
X212019377Y-62981337D01*
X212005793Y-62958674D01*
X211994495Y-62934788D01*
X211985594Y-62909909D01*
X211979174Y-62884278D01*
X211975297Y-62858141D01*
X211974000Y-62831750D01*
X211974000Y-62293250D01*
X211975297Y-62266859D01*
X211979174Y-62240722D01*
X211985594Y-62215091D01*
X211994495Y-62190212D01*
X212005793Y-62166326D01*
X212019377Y-62143663D01*
X212035117Y-62122440D01*
X212052861Y-62102861D01*
X212072440Y-62085117D01*
X212093663Y-62069377D01*
X212116326Y-62055793D01*
X212140212Y-62044495D01*
X212165091Y-62035594D01*
X212190722Y-62029174D01*
X212216859Y-62025297D01*
X212243250Y-62024000D01*
X213206750Y-62024000D01*
X213233141Y-62025297D01*
G37*
G36*
X213233141Y-63900297D02*
G01*
X213259278Y-63904174D01*
X213284909Y-63910594D01*
X213309788Y-63919495D01*
X213333674Y-63930793D01*
X213356337Y-63944377D01*
X213377560Y-63960117D01*
X213397139Y-63977861D01*
X213414883Y-63997440D01*
X213430623Y-64018663D01*
X213444207Y-64041326D01*
X213455505Y-64065212D01*
X213464406Y-64090091D01*
X213470826Y-64115722D01*
X213474703Y-64141859D01*
X213476000Y-64168250D01*
X213476000Y-64706750D01*
X213474703Y-64733141D01*
X213470826Y-64759278D01*
X213464406Y-64784909D01*
X213455505Y-64809788D01*
X213444207Y-64833674D01*
X213430623Y-64856337D01*
X213414883Y-64877560D01*
X213397139Y-64897139D01*
X213377560Y-64914883D01*
X213356337Y-64930623D01*
X213333674Y-64944207D01*
X213309788Y-64955505D01*
X213284909Y-64964406D01*
X213259278Y-64970826D01*
X213233141Y-64974703D01*
X213206750Y-64976000D01*
X212243250Y-64976000D01*
X212216859Y-64974703D01*
X212190722Y-64970826D01*
X212165091Y-64964406D01*
X212140212Y-64955505D01*
X212116326Y-64944207D01*
X212093663Y-64930623D01*
X212072440Y-64914883D01*
X212052861Y-64897139D01*
X212035117Y-64877560D01*
X212019377Y-64856337D01*
X212005793Y-64833674D01*
X211994495Y-64809788D01*
X211985594Y-64784909D01*
X211979174Y-64759278D01*
X211975297Y-64733141D01*
X211974000Y-64706750D01*
X211974000Y-64168250D01*
X211975297Y-64141859D01*
X211979174Y-64115722D01*
X211985594Y-64090091D01*
X211994495Y-64065212D01*
X212005793Y-64041326D01*
X212019377Y-64018663D01*
X212035117Y-63997440D01*
X212052861Y-63977861D01*
X212072440Y-63960117D01*
X212093663Y-63944377D01*
X212116326Y-63930793D01*
X212140212Y-63919495D01*
X212165091Y-63910594D01*
X212190722Y-63904174D01*
X212216859Y-63900297D01*
X212243250Y-63899000D01*
X213206750Y-63899000D01*
X213233141Y-63900297D01*
G37*
G36*
X175133141Y-62025297D02*
G01*
X175159278Y-62029174D01*
X175184909Y-62035594D01*
X175209788Y-62044495D01*
X175233674Y-62055793D01*
X175256337Y-62069377D01*
X175277560Y-62085117D01*
X175297139Y-62102861D01*
X175314883Y-62122440D01*
X175330623Y-62143663D01*
X175344207Y-62166326D01*
X175355505Y-62190212D01*
X175364406Y-62215091D01*
X175370826Y-62240722D01*
X175374703Y-62266859D01*
X175376000Y-62293250D01*
X175376000Y-62831750D01*
X175374703Y-62858141D01*
X175370826Y-62884278D01*
X175364406Y-62909909D01*
X175355505Y-62934788D01*
X175344207Y-62958674D01*
X175330623Y-62981337D01*
X175314883Y-63002560D01*
X175297139Y-63022139D01*
X175277560Y-63039883D01*
X175256337Y-63055623D01*
X175233674Y-63069207D01*
X175209788Y-63080505D01*
X175184909Y-63089406D01*
X175159278Y-63095826D01*
X175133141Y-63099703D01*
X175106750Y-63101000D01*
X174143250Y-63101000D01*
X174116859Y-63099703D01*
X174090722Y-63095826D01*
X174065091Y-63089406D01*
X174040212Y-63080505D01*
X174016326Y-63069207D01*
X173993663Y-63055623D01*
X173972440Y-63039883D01*
X173952861Y-63022139D01*
X173935117Y-63002560D01*
X173919377Y-62981337D01*
X173905793Y-62958674D01*
X173894495Y-62934788D01*
X173885594Y-62909909D01*
X173879174Y-62884278D01*
X173875297Y-62858141D01*
X173874000Y-62831750D01*
X173874000Y-62293250D01*
X173875297Y-62266859D01*
X173879174Y-62240722D01*
X173885594Y-62215091D01*
X173894495Y-62190212D01*
X173905793Y-62166326D01*
X173919377Y-62143663D01*
X173935117Y-62122440D01*
X173952861Y-62102861D01*
X173972440Y-62085117D01*
X173993663Y-62069377D01*
X174016326Y-62055793D01*
X174040212Y-62044495D01*
X174065091Y-62035594D01*
X174090722Y-62029174D01*
X174116859Y-62025297D01*
X174143250Y-62024000D01*
X175106750Y-62024000D01*
X175133141Y-62025297D01*
G37*
G36*
X175133141Y-63900297D02*
G01*
X175159278Y-63904174D01*
X175184909Y-63910594D01*
X175209788Y-63919495D01*
X175233674Y-63930793D01*
X175256337Y-63944377D01*
X175277560Y-63960117D01*
X175297139Y-63977861D01*
X175314883Y-63997440D01*
X175330623Y-64018663D01*
X175344207Y-64041326D01*
X175355505Y-64065212D01*
X175364406Y-64090091D01*
X175370826Y-64115722D01*
X175374703Y-64141859D01*
X175376000Y-64168250D01*
X175376000Y-64706750D01*
X175374703Y-64733141D01*
X175370826Y-64759278D01*
X175364406Y-64784909D01*
X175355505Y-64809788D01*
X175344207Y-64833674D01*
X175330623Y-64856337D01*
X175314883Y-64877560D01*
X175297139Y-64897139D01*
X175277560Y-64914883D01*
X175256337Y-64930623D01*
X175233674Y-64944207D01*
X175209788Y-64955505D01*
X175184909Y-64964406D01*
X175159278Y-64970826D01*
X175133141Y-64974703D01*
X175106750Y-64976000D01*
X174143250Y-64976000D01*
X174116859Y-64974703D01*
X174090722Y-64970826D01*
X174065091Y-64964406D01*
X174040212Y-64955505D01*
X174016326Y-64944207D01*
X173993663Y-64930623D01*
X173972440Y-64914883D01*
X173952861Y-64897139D01*
X173935117Y-64877560D01*
X173919377Y-64856337D01*
X173905793Y-64833674D01*
X173894495Y-64809788D01*
X173885594Y-64784909D01*
X173879174Y-64759278D01*
X173875297Y-64733141D01*
X173874000Y-64706750D01*
X173874000Y-64168250D01*
X173875297Y-64141859D01*
X173879174Y-64115722D01*
X173885594Y-64090091D01*
X173894495Y-64065212D01*
X173905793Y-64041326D01*
X173919377Y-64018663D01*
X173935117Y-63997440D01*
X173952861Y-63977861D01*
X173972440Y-63960117D01*
X173993663Y-63944377D01*
X174016326Y-63930793D01*
X174040212Y-63919495D01*
X174065091Y-63910594D01*
X174090722Y-63904174D01*
X174116859Y-63900297D01*
X174143250Y-63899000D01*
X175106750Y-63899000D01*
X175133141Y-63900297D01*
G37*
G36*
X194183141Y-62025297D02*
G01*
X194209278Y-62029174D01*
X194234909Y-62035594D01*
X194259788Y-62044495D01*
X194283674Y-62055793D01*
X194306337Y-62069377D01*
X194327560Y-62085117D01*
X194347139Y-62102861D01*
X194364883Y-62122440D01*
X194380623Y-62143663D01*
X194394207Y-62166326D01*
X194405505Y-62190212D01*
X194414406Y-62215091D01*
X194420826Y-62240722D01*
X194424703Y-62266859D01*
X194426000Y-62293250D01*
X194426000Y-62831750D01*
X194424703Y-62858141D01*
X194420826Y-62884278D01*
X194414406Y-62909909D01*
X194405505Y-62934788D01*
X194394207Y-62958674D01*
X194380623Y-62981337D01*
X194364883Y-63002560D01*
X194347139Y-63022139D01*
X194327560Y-63039883D01*
X194306337Y-63055623D01*
X194283674Y-63069207D01*
X194259788Y-63080505D01*
X194234909Y-63089406D01*
X194209278Y-63095826D01*
X194183141Y-63099703D01*
X194156750Y-63101000D01*
X193193250Y-63101000D01*
X193166859Y-63099703D01*
X193140722Y-63095826D01*
X193115091Y-63089406D01*
X193090212Y-63080505D01*
X193066326Y-63069207D01*
X193043663Y-63055623D01*
X193022440Y-63039883D01*
X193002861Y-63022139D01*
X192985117Y-63002560D01*
X192969377Y-62981337D01*
X192955793Y-62958674D01*
X192944495Y-62934788D01*
X192935594Y-62909909D01*
X192929174Y-62884278D01*
X192925297Y-62858141D01*
X192924000Y-62831750D01*
X192924000Y-62293250D01*
X192925297Y-62266859D01*
X192929174Y-62240722D01*
X192935594Y-62215091D01*
X192944495Y-62190212D01*
X192955793Y-62166326D01*
X192969377Y-62143663D01*
X192985117Y-62122440D01*
X193002861Y-62102861D01*
X193022440Y-62085117D01*
X193043663Y-62069377D01*
X193066326Y-62055793D01*
X193090212Y-62044495D01*
X193115091Y-62035594D01*
X193140722Y-62029174D01*
X193166859Y-62025297D01*
X193193250Y-62024000D01*
X194156750Y-62024000D01*
X194183141Y-62025297D01*
G37*
G36*
X194183141Y-63900297D02*
G01*
X194209278Y-63904174D01*
X194234909Y-63910594D01*
X194259788Y-63919495D01*
X194283674Y-63930793D01*
X194306337Y-63944377D01*
X194327560Y-63960117D01*
X194347139Y-63977861D01*
X194364883Y-63997440D01*
X194380623Y-64018663D01*
X194394207Y-64041326D01*
X194405505Y-64065212D01*
X194414406Y-64090091D01*
X194420826Y-64115722D01*
X194424703Y-64141859D01*
X194426000Y-64168250D01*
X194426000Y-64706750D01*
X194424703Y-64733141D01*
X194420826Y-64759278D01*
X194414406Y-64784909D01*
X194405505Y-64809788D01*
X194394207Y-64833674D01*
X194380623Y-64856337D01*
X194364883Y-64877560D01*
X194347139Y-64897139D01*
X194327560Y-64914883D01*
X194306337Y-64930623D01*
X194283674Y-64944207D01*
X194259788Y-64955505D01*
X194234909Y-64964406D01*
X194209278Y-64970826D01*
X194183141Y-64974703D01*
X194156750Y-64976000D01*
X193193250Y-64976000D01*
X193166859Y-64974703D01*
X193140722Y-64970826D01*
X193115091Y-64964406D01*
X193090212Y-64955505D01*
X193066326Y-64944207D01*
X193043663Y-64930623D01*
X193022440Y-64914883D01*
X193002861Y-64897139D01*
X192985117Y-64877560D01*
X192969377Y-64856337D01*
X192955793Y-64833674D01*
X192944495Y-64809788D01*
X192935594Y-64784909D01*
X192929174Y-64759278D01*
X192925297Y-64733141D01*
X192924000Y-64706750D01*
X192924000Y-64168250D01*
X192925297Y-64141859D01*
X192929174Y-64115722D01*
X192935594Y-64090091D01*
X192944495Y-64065212D01*
X192955793Y-64041326D01*
X192969377Y-64018663D01*
X192985117Y-63997440D01*
X193002861Y-63977861D01*
X193022440Y-63960117D01*
X193043663Y-63944377D01*
X193066326Y-63930793D01*
X193090212Y-63919495D01*
X193115091Y-63910594D01*
X193140722Y-63904174D01*
X193166859Y-63900297D01*
X193193250Y-63899000D01*
X194156750Y-63899000D01*
X194183141Y-63900297D01*
G37*
G36*
X194183141Y-42975297D02*
G01*
X194209278Y-42979174D01*
X194234909Y-42985594D01*
X194259788Y-42994495D01*
X194283674Y-43005793D01*
X194306337Y-43019377D01*
X194327560Y-43035117D01*
X194347139Y-43052861D01*
X194364883Y-43072440D01*
X194380623Y-43093663D01*
X194394207Y-43116326D01*
X194405505Y-43140212D01*
X194414406Y-43165091D01*
X194420826Y-43190722D01*
X194424703Y-43216859D01*
X194426000Y-43243250D01*
X194426000Y-43781750D01*
X194424703Y-43808141D01*
X194420826Y-43834278D01*
X194414406Y-43859909D01*
X194405505Y-43884788D01*
X194394207Y-43908674D01*
X194380623Y-43931337D01*
X194364883Y-43952560D01*
X194347139Y-43972139D01*
X194327560Y-43989883D01*
X194306337Y-44005623D01*
X194283674Y-44019207D01*
X194259788Y-44030505D01*
X194234909Y-44039406D01*
X194209278Y-44045826D01*
X194183141Y-44049703D01*
X194156750Y-44051000D01*
X193193250Y-44051000D01*
X193166859Y-44049703D01*
X193140722Y-44045826D01*
X193115091Y-44039406D01*
X193090212Y-44030505D01*
X193066326Y-44019207D01*
X193043663Y-44005623D01*
X193022440Y-43989883D01*
X193002861Y-43972139D01*
X192985117Y-43952560D01*
X192969377Y-43931337D01*
X192955793Y-43908674D01*
X192944495Y-43884788D01*
X192935594Y-43859909D01*
X192929174Y-43834278D01*
X192925297Y-43808141D01*
X192924000Y-43781750D01*
X192924000Y-43243250D01*
X192925297Y-43216859D01*
X192929174Y-43190722D01*
X192935594Y-43165091D01*
X192944495Y-43140212D01*
X192955793Y-43116326D01*
X192969377Y-43093663D01*
X192985117Y-43072440D01*
X193002861Y-43052861D01*
X193022440Y-43035117D01*
X193043663Y-43019377D01*
X193066326Y-43005793D01*
X193090212Y-42994495D01*
X193115091Y-42985594D01*
X193140722Y-42979174D01*
X193166859Y-42975297D01*
X193193250Y-42974000D01*
X194156750Y-42974000D01*
X194183141Y-42975297D01*
G37*
G36*
X194183141Y-44850297D02*
G01*
X194209278Y-44854174D01*
X194234909Y-44860594D01*
X194259788Y-44869495D01*
X194283674Y-44880793D01*
X194306337Y-44894377D01*
X194327560Y-44910117D01*
X194347139Y-44927861D01*
X194364883Y-44947440D01*
X194380623Y-44968663D01*
X194394207Y-44991326D01*
X194405505Y-45015212D01*
X194414406Y-45040091D01*
X194420826Y-45065722D01*
X194424703Y-45091859D01*
X194426000Y-45118250D01*
X194426000Y-45656750D01*
X194424703Y-45683141D01*
X194420826Y-45709278D01*
X194414406Y-45734909D01*
X194405505Y-45759788D01*
X194394207Y-45783674D01*
X194380623Y-45806337D01*
X194364883Y-45827560D01*
X194347139Y-45847139D01*
X194327560Y-45864883D01*
X194306337Y-45880623D01*
X194283674Y-45894207D01*
X194259788Y-45905505D01*
X194234909Y-45914406D01*
X194209278Y-45920826D01*
X194183141Y-45924703D01*
X194156750Y-45926000D01*
X193193250Y-45926000D01*
X193166859Y-45924703D01*
X193140722Y-45920826D01*
X193115091Y-45914406D01*
X193090212Y-45905505D01*
X193066326Y-45894207D01*
X193043663Y-45880623D01*
X193022440Y-45864883D01*
X193002861Y-45847139D01*
X192985117Y-45827560D01*
X192969377Y-45806337D01*
X192955793Y-45783674D01*
X192944495Y-45759788D01*
X192935594Y-45734909D01*
X192929174Y-45709278D01*
X192925297Y-45683141D01*
X192924000Y-45656750D01*
X192924000Y-45118250D01*
X192925297Y-45091859D01*
X192929174Y-45065722D01*
X192935594Y-45040091D01*
X192944495Y-45015212D01*
X192955793Y-44991326D01*
X192969377Y-44968663D01*
X192985117Y-44947440D01*
X193002861Y-44927861D01*
X193022440Y-44910117D01*
X193043663Y-44894377D01*
X193066326Y-44880793D01*
X193090212Y-44869495D01*
X193115091Y-44860594D01*
X193140722Y-44854174D01*
X193166859Y-44850297D01*
X193193250Y-44849000D01*
X194156750Y-44849000D01*
X194183141Y-44850297D01*
G37*
D20*
X195200000Y-35820000D03*
X195200000Y-37720000D03*
X193000000Y-37720000D03*
D21*
X193000000Y-36000000D03*
D10*
G36*
X185900641Y-51680297D02*
G01*
X185926778Y-51684174D01*
X185952409Y-51690594D01*
X185977288Y-51699495D01*
X186001174Y-51710793D01*
X186023837Y-51724377D01*
X186045060Y-51740117D01*
X186064639Y-51757861D01*
X186082383Y-51777440D01*
X186098123Y-51798663D01*
X186111707Y-51821326D01*
X186123005Y-51845212D01*
X186131906Y-51870091D01*
X186138326Y-51895722D01*
X186142203Y-51921859D01*
X186143500Y-51948250D01*
X186143500Y-52911750D01*
X186142203Y-52938141D01*
X186138326Y-52964278D01*
X186131906Y-52989909D01*
X186123005Y-53014788D01*
X186111707Y-53038674D01*
X186098123Y-53061337D01*
X186082383Y-53082560D01*
X186064639Y-53102139D01*
X186045060Y-53119883D01*
X186023837Y-53135623D01*
X186001174Y-53149207D01*
X185977288Y-53160505D01*
X185952409Y-53169406D01*
X185926778Y-53175826D01*
X185900641Y-53179703D01*
X185874250Y-53181000D01*
X185335750Y-53181000D01*
X185309359Y-53179703D01*
X185283222Y-53175826D01*
X185257591Y-53169406D01*
X185232712Y-53160505D01*
X185208826Y-53149207D01*
X185186163Y-53135623D01*
X185164940Y-53119883D01*
X185145361Y-53102139D01*
X185127617Y-53082560D01*
X185111877Y-53061337D01*
X185098293Y-53038674D01*
X185086995Y-53014788D01*
X185078094Y-52989909D01*
X185071674Y-52964278D01*
X185067797Y-52938141D01*
X185066500Y-52911750D01*
X185066500Y-51948250D01*
X185067797Y-51921859D01*
X185071674Y-51895722D01*
X185078094Y-51870091D01*
X185086995Y-51845212D01*
X185098293Y-51821326D01*
X185111877Y-51798663D01*
X185127617Y-51777440D01*
X185145361Y-51757861D01*
X185164940Y-51740117D01*
X185186163Y-51724377D01*
X185208826Y-51710793D01*
X185232712Y-51699495D01*
X185257591Y-51690594D01*
X185283222Y-51684174D01*
X185309359Y-51680297D01*
X185335750Y-51679000D01*
X185874250Y-51679000D01*
X185900641Y-51680297D01*
G37*
G36*
X187775641Y-51680297D02*
G01*
X187801778Y-51684174D01*
X187827409Y-51690594D01*
X187852288Y-51699495D01*
X187876174Y-51710793D01*
X187898837Y-51724377D01*
X187920060Y-51740117D01*
X187939639Y-51757861D01*
X187957383Y-51777440D01*
X187973123Y-51798663D01*
X187986707Y-51821326D01*
X187998005Y-51845212D01*
X188006906Y-51870091D01*
X188013326Y-51895722D01*
X188017203Y-51921859D01*
X188018500Y-51948250D01*
X188018500Y-52911750D01*
X188017203Y-52938141D01*
X188013326Y-52964278D01*
X188006906Y-52989909D01*
X187998005Y-53014788D01*
X187986707Y-53038674D01*
X187973123Y-53061337D01*
X187957383Y-53082560D01*
X187939639Y-53102139D01*
X187920060Y-53119883D01*
X187898837Y-53135623D01*
X187876174Y-53149207D01*
X187852288Y-53160505D01*
X187827409Y-53169406D01*
X187801778Y-53175826D01*
X187775641Y-53179703D01*
X187749250Y-53181000D01*
X187210750Y-53181000D01*
X187184359Y-53179703D01*
X187158222Y-53175826D01*
X187132591Y-53169406D01*
X187107712Y-53160505D01*
X187083826Y-53149207D01*
X187061163Y-53135623D01*
X187039940Y-53119883D01*
X187020361Y-53102139D01*
X187002617Y-53082560D01*
X186986877Y-53061337D01*
X186973293Y-53038674D01*
X186961995Y-53014788D01*
X186953094Y-52989909D01*
X186946674Y-52964278D01*
X186942797Y-52938141D01*
X186941500Y-52911750D01*
X186941500Y-51948250D01*
X186942797Y-51921859D01*
X186946674Y-51895722D01*
X186953094Y-51870091D01*
X186961995Y-51845212D01*
X186973293Y-51821326D01*
X186986877Y-51798663D01*
X187002617Y-51777440D01*
X187020361Y-51757861D01*
X187039940Y-51740117D01*
X187061163Y-51724377D01*
X187083826Y-51710793D01*
X187107712Y-51699495D01*
X187132591Y-51690594D01*
X187158222Y-51684174D01*
X187184359Y-51680297D01*
X187210750Y-51679000D01*
X187749250Y-51679000D01*
X187775641Y-51680297D01*
G37*
M02*
