G04 #@! TF.GenerationSoftware,KiCad,Pcbnew,(5.1.5)-3*
G04 #@! TF.CreationDate,2020-03-25T17:20:55+01:00*
G04 #@! TF.ProjectId,4Keys,344b6579-732e-46b6-9963-61645f706362,rev?*
G04 #@! TF.SameCoordinates,Original*
G04 #@! TF.FileFunction,Paste,Bot*
G04 #@! TF.FilePolarity,Positive*
%FSLAX46Y46*%
G04 Gerber Fmt 4.6, Leading zero omitted, Abs format (unit mm)*
G04 Created by KiCad (PCBNEW (5.1.5)-3) date 2020-03-25 17:20:55*
%MOMM*%
%LPD*%
G04 APERTURE LIST*
%ADD10R,2.550000X2.500000*%
%ADD11R,1.200000X1.400000*%
%ADD12R,1.500000X0.550000*%
%ADD13R,0.550000X1.500000*%
%ADD14R,1.800000X1.100000*%
%ADD15C,0.100000*%
G04 APERTURE END LIST*
D10*
X191579500Y-43338750D03*
X178652500Y-45878750D03*
X210629500Y-62388750D03*
X197702500Y-64928750D03*
X172529500Y-62388750D03*
X159602500Y-64928750D03*
X191579500Y-62388750D03*
X178652500Y-64928750D03*
D11*
X185681250Y-54768750D03*
X185681250Y-56968750D03*
X187381250Y-56968750D03*
X187381250Y-54768750D03*
D12*
X206518750Y-57181250D03*
X206518750Y-56381250D03*
X206518750Y-55581250D03*
X206518750Y-54781250D03*
X206518750Y-53981250D03*
X206518750Y-53181250D03*
X206518750Y-52381250D03*
X206518750Y-51581250D03*
X206518750Y-50781250D03*
X206518750Y-49981250D03*
X206518750Y-49181250D03*
D13*
X204818750Y-47481250D03*
X204018750Y-47481250D03*
X203218750Y-47481250D03*
X202418750Y-47481250D03*
X201618750Y-47481250D03*
X200818750Y-47481250D03*
X200018750Y-47481250D03*
X199218750Y-47481250D03*
X198418750Y-47481250D03*
X197618750Y-47481250D03*
X196818750Y-47481250D03*
D12*
X195118750Y-49181250D03*
X195118750Y-49981250D03*
X195118750Y-50781250D03*
X195118750Y-51581250D03*
X195118750Y-52381250D03*
X195118750Y-53181250D03*
X195118750Y-53981250D03*
X195118750Y-54781250D03*
X195118750Y-55581250D03*
X195118750Y-56381250D03*
X195118750Y-57181250D03*
D13*
X196818750Y-58881250D03*
X197618750Y-58881250D03*
X198418750Y-58881250D03*
X199218750Y-58881250D03*
X200018750Y-58881250D03*
X200818750Y-58881250D03*
X201618750Y-58881250D03*
X202418750Y-58881250D03*
X203218750Y-58881250D03*
X204018750Y-58881250D03*
X204818750Y-58881250D03*
D14*
X192900000Y-71150000D03*
X199100000Y-74850000D03*
X192900000Y-74850000D03*
X199100000Y-71150000D03*
D15*
G36*
X202267642Y-43301174D02*
G01*
X202291303Y-43304684D01*
X202314507Y-43310496D01*
X202337029Y-43318554D01*
X202358653Y-43328782D01*
X202379170Y-43341079D01*
X202398383Y-43355329D01*
X202416107Y-43371393D01*
X202432171Y-43389117D01*
X202446421Y-43408330D01*
X202458718Y-43428847D01*
X202468946Y-43450471D01*
X202477004Y-43472993D01*
X202482816Y-43496197D01*
X202486326Y-43519858D01*
X202487500Y-43543750D01*
X202487500Y-44456250D01*
X202486326Y-44480142D01*
X202482816Y-44503803D01*
X202477004Y-44527007D01*
X202468946Y-44549529D01*
X202458718Y-44571153D01*
X202446421Y-44591670D01*
X202432171Y-44610883D01*
X202416107Y-44628607D01*
X202398383Y-44644671D01*
X202379170Y-44658921D01*
X202358653Y-44671218D01*
X202337029Y-44681446D01*
X202314507Y-44689504D01*
X202291303Y-44695316D01*
X202267642Y-44698826D01*
X202243750Y-44700000D01*
X201756250Y-44700000D01*
X201732358Y-44698826D01*
X201708697Y-44695316D01*
X201685493Y-44689504D01*
X201662971Y-44681446D01*
X201641347Y-44671218D01*
X201620830Y-44658921D01*
X201601617Y-44644671D01*
X201583893Y-44628607D01*
X201567829Y-44610883D01*
X201553579Y-44591670D01*
X201541282Y-44571153D01*
X201531054Y-44549529D01*
X201522996Y-44527007D01*
X201517184Y-44503803D01*
X201513674Y-44480142D01*
X201512500Y-44456250D01*
X201512500Y-43543750D01*
X201513674Y-43519858D01*
X201517184Y-43496197D01*
X201522996Y-43472993D01*
X201531054Y-43450471D01*
X201541282Y-43428847D01*
X201553579Y-43408330D01*
X201567829Y-43389117D01*
X201583893Y-43371393D01*
X201601617Y-43355329D01*
X201620830Y-43341079D01*
X201641347Y-43328782D01*
X201662971Y-43318554D01*
X201685493Y-43310496D01*
X201708697Y-43304684D01*
X201732358Y-43301174D01*
X201756250Y-43300000D01*
X202243750Y-43300000D01*
X202267642Y-43301174D01*
G37*
G36*
X204142642Y-43301174D02*
G01*
X204166303Y-43304684D01*
X204189507Y-43310496D01*
X204212029Y-43318554D01*
X204233653Y-43328782D01*
X204254170Y-43341079D01*
X204273383Y-43355329D01*
X204291107Y-43371393D01*
X204307171Y-43389117D01*
X204321421Y-43408330D01*
X204333718Y-43428847D01*
X204343946Y-43450471D01*
X204352004Y-43472993D01*
X204357816Y-43496197D01*
X204361326Y-43519858D01*
X204362500Y-43543750D01*
X204362500Y-44456250D01*
X204361326Y-44480142D01*
X204357816Y-44503803D01*
X204352004Y-44527007D01*
X204343946Y-44549529D01*
X204333718Y-44571153D01*
X204321421Y-44591670D01*
X204307171Y-44610883D01*
X204291107Y-44628607D01*
X204273383Y-44644671D01*
X204254170Y-44658921D01*
X204233653Y-44671218D01*
X204212029Y-44681446D01*
X204189507Y-44689504D01*
X204166303Y-44695316D01*
X204142642Y-44698826D01*
X204118750Y-44700000D01*
X203631250Y-44700000D01*
X203607358Y-44698826D01*
X203583697Y-44695316D01*
X203560493Y-44689504D01*
X203537971Y-44681446D01*
X203516347Y-44671218D01*
X203495830Y-44658921D01*
X203476617Y-44644671D01*
X203458893Y-44628607D01*
X203442829Y-44610883D01*
X203428579Y-44591670D01*
X203416282Y-44571153D01*
X203406054Y-44549529D01*
X203397996Y-44527007D01*
X203392184Y-44503803D01*
X203388674Y-44480142D01*
X203387500Y-44456250D01*
X203387500Y-43543750D01*
X203388674Y-43519858D01*
X203392184Y-43496197D01*
X203397996Y-43472993D01*
X203406054Y-43450471D01*
X203416282Y-43428847D01*
X203428579Y-43408330D01*
X203442829Y-43389117D01*
X203458893Y-43371393D01*
X203476617Y-43355329D01*
X203495830Y-43341079D01*
X203516347Y-43328782D01*
X203537971Y-43318554D01*
X203560493Y-43310496D01*
X203583697Y-43304684D01*
X203607358Y-43301174D01*
X203631250Y-43300000D01*
X204118750Y-43300000D01*
X204142642Y-43301174D01*
G37*
G36*
X196480142Y-66638674D02*
G01*
X196503803Y-66642184D01*
X196527007Y-66647996D01*
X196549529Y-66656054D01*
X196571153Y-66666282D01*
X196591670Y-66678579D01*
X196610883Y-66692829D01*
X196628607Y-66708893D01*
X196644671Y-66726617D01*
X196658921Y-66745830D01*
X196671218Y-66766347D01*
X196681446Y-66787971D01*
X196689504Y-66810493D01*
X196695316Y-66833697D01*
X196698826Y-66857358D01*
X196700000Y-66881250D01*
X196700000Y-67368750D01*
X196698826Y-67392642D01*
X196695316Y-67416303D01*
X196689504Y-67439507D01*
X196681446Y-67462029D01*
X196671218Y-67483653D01*
X196658921Y-67504170D01*
X196644671Y-67523383D01*
X196628607Y-67541107D01*
X196610883Y-67557171D01*
X196591670Y-67571421D01*
X196571153Y-67583718D01*
X196549529Y-67593946D01*
X196527007Y-67602004D01*
X196503803Y-67607816D01*
X196480142Y-67611326D01*
X196456250Y-67612500D01*
X195543750Y-67612500D01*
X195519858Y-67611326D01*
X195496197Y-67607816D01*
X195472993Y-67602004D01*
X195450471Y-67593946D01*
X195428847Y-67583718D01*
X195408330Y-67571421D01*
X195389117Y-67557171D01*
X195371393Y-67541107D01*
X195355329Y-67523383D01*
X195341079Y-67504170D01*
X195328782Y-67483653D01*
X195318554Y-67462029D01*
X195310496Y-67439507D01*
X195304684Y-67416303D01*
X195301174Y-67392642D01*
X195300000Y-67368750D01*
X195300000Y-66881250D01*
X195301174Y-66857358D01*
X195304684Y-66833697D01*
X195310496Y-66810493D01*
X195318554Y-66787971D01*
X195328782Y-66766347D01*
X195341079Y-66745830D01*
X195355329Y-66726617D01*
X195371393Y-66708893D01*
X195389117Y-66692829D01*
X195408330Y-66678579D01*
X195428847Y-66666282D01*
X195450471Y-66656054D01*
X195472993Y-66647996D01*
X195496197Y-66642184D01*
X195519858Y-66638674D01*
X195543750Y-66637500D01*
X196456250Y-66637500D01*
X196480142Y-66638674D01*
G37*
G36*
X196480142Y-68513674D02*
G01*
X196503803Y-68517184D01*
X196527007Y-68522996D01*
X196549529Y-68531054D01*
X196571153Y-68541282D01*
X196591670Y-68553579D01*
X196610883Y-68567829D01*
X196628607Y-68583893D01*
X196644671Y-68601617D01*
X196658921Y-68620830D01*
X196671218Y-68641347D01*
X196681446Y-68662971D01*
X196689504Y-68685493D01*
X196695316Y-68708697D01*
X196698826Y-68732358D01*
X196700000Y-68756250D01*
X196700000Y-69243750D01*
X196698826Y-69267642D01*
X196695316Y-69291303D01*
X196689504Y-69314507D01*
X196681446Y-69337029D01*
X196671218Y-69358653D01*
X196658921Y-69379170D01*
X196644671Y-69398383D01*
X196628607Y-69416107D01*
X196610883Y-69432171D01*
X196591670Y-69446421D01*
X196571153Y-69458718D01*
X196549529Y-69468946D01*
X196527007Y-69477004D01*
X196503803Y-69482816D01*
X196480142Y-69486326D01*
X196456250Y-69487500D01*
X195543750Y-69487500D01*
X195519858Y-69486326D01*
X195496197Y-69482816D01*
X195472993Y-69477004D01*
X195450471Y-69468946D01*
X195428847Y-69458718D01*
X195408330Y-69446421D01*
X195389117Y-69432171D01*
X195371393Y-69416107D01*
X195355329Y-69398383D01*
X195341079Y-69379170D01*
X195328782Y-69358653D01*
X195318554Y-69337029D01*
X195310496Y-69314507D01*
X195304684Y-69291303D01*
X195301174Y-69267642D01*
X195300000Y-69243750D01*
X195300000Y-68756250D01*
X195301174Y-68732358D01*
X195304684Y-68708697D01*
X195310496Y-68685493D01*
X195318554Y-68662971D01*
X195328782Y-68641347D01*
X195341079Y-68620830D01*
X195355329Y-68601617D01*
X195371393Y-68583893D01*
X195389117Y-68567829D01*
X195408330Y-68553579D01*
X195428847Y-68541282D01*
X195450471Y-68531054D01*
X195472993Y-68522996D01*
X195496197Y-68517184D01*
X195519858Y-68513674D01*
X195543750Y-68512500D01*
X196456250Y-68512500D01*
X196480142Y-68513674D01*
G37*
G36*
X196392642Y-43301174D02*
G01*
X196416303Y-43304684D01*
X196439507Y-43310496D01*
X196462029Y-43318554D01*
X196483653Y-43328782D01*
X196504170Y-43341079D01*
X196523383Y-43355329D01*
X196541107Y-43371393D01*
X196557171Y-43389117D01*
X196571421Y-43408330D01*
X196583718Y-43428847D01*
X196593946Y-43450471D01*
X196602004Y-43472993D01*
X196607816Y-43496197D01*
X196611326Y-43519858D01*
X196612500Y-43543750D01*
X196612500Y-44456250D01*
X196611326Y-44480142D01*
X196607816Y-44503803D01*
X196602004Y-44527007D01*
X196593946Y-44549529D01*
X196583718Y-44571153D01*
X196571421Y-44591670D01*
X196557171Y-44610883D01*
X196541107Y-44628607D01*
X196523383Y-44644671D01*
X196504170Y-44658921D01*
X196483653Y-44671218D01*
X196462029Y-44681446D01*
X196439507Y-44689504D01*
X196416303Y-44695316D01*
X196392642Y-44698826D01*
X196368750Y-44700000D01*
X195881250Y-44700000D01*
X195857358Y-44698826D01*
X195833697Y-44695316D01*
X195810493Y-44689504D01*
X195787971Y-44681446D01*
X195766347Y-44671218D01*
X195745830Y-44658921D01*
X195726617Y-44644671D01*
X195708893Y-44628607D01*
X195692829Y-44610883D01*
X195678579Y-44591670D01*
X195666282Y-44571153D01*
X195656054Y-44549529D01*
X195647996Y-44527007D01*
X195642184Y-44503803D01*
X195638674Y-44480142D01*
X195637500Y-44456250D01*
X195637500Y-43543750D01*
X195638674Y-43519858D01*
X195642184Y-43496197D01*
X195647996Y-43472993D01*
X195656054Y-43450471D01*
X195666282Y-43428847D01*
X195678579Y-43408330D01*
X195692829Y-43389117D01*
X195708893Y-43371393D01*
X195726617Y-43355329D01*
X195745830Y-43341079D01*
X195766347Y-43328782D01*
X195787971Y-43318554D01*
X195810493Y-43310496D01*
X195833697Y-43304684D01*
X195857358Y-43301174D01*
X195881250Y-43300000D01*
X196368750Y-43300000D01*
X196392642Y-43301174D01*
G37*
G36*
X198267642Y-43301174D02*
G01*
X198291303Y-43304684D01*
X198314507Y-43310496D01*
X198337029Y-43318554D01*
X198358653Y-43328782D01*
X198379170Y-43341079D01*
X198398383Y-43355329D01*
X198416107Y-43371393D01*
X198432171Y-43389117D01*
X198446421Y-43408330D01*
X198458718Y-43428847D01*
X198468946Y-43450471D01*
X198477004Y-43472993D01*
X198482816Y-43496197D01*
X198486326Y-43519858D01*
X198487500Y-43543750D01*
X198487500Y-44456250D01*
X198486326Y-44480142D01*
X198482816Y-44503803D01*
X198477004Y-44527007D01*
X198468946Y-44549529D01*
X198458718Y-44571153D01*
X198446421Y-44591670D01*
X198432171Y-44610883D01*
X198416107Y-44628607D01*
X198398383Y-44644671D01*
X198379170Y-44658921D01*
X198358653Y-44671218D01*
X198337029Y-44681446D01*
X198314507Y-44689504D01*
X198291303Y-44695316D01*
X198267642Y-44698826D01*
X198243750Y-44700000D01*
X197756250Y-44700000D01*
X197732358Y-44698826D01*
X197708697Y-44695316D01*
X197685493Y-44689504D01*
X197662971Y-44681446D01*
X197641347Y-44671218D01*
X197620830Y-44658921D01*
X197601617Y-44644671D01*
X197583893Y-44628607D01*
X197567829Y-44610883D01*
X197553579Y-44591670D01*
X197541282Y-44571153D01*
X197531054Y-44549529D01*
X197522996Y-44527007D01*
X197517184Y-44503803D01*
X197513674Y-44480142D01*
X197512500Y-44456250D01*
X197512500Y-43543750D01*
X197513674Y-43519858D01*
X197517184Y-43496197D01*
X197522996Y-43472993D01*
X197531054Y-43450471D01*
X197541282Y-43428847D01*
X197553579Y-43408330D01*
X197567829Y-43389117D01*
X197583893Y-43371393D01*
X197601617Y-43355329D01*
X197620830Y-43341079D01*
X197641347Y-43328782D01*
X197662971Y-43318554D01*
X197685493Y-43310496D01*
X197708697Y-43304684D01*
X197732358Y-43301174D01*
X197756250Y-43300000D01*
X198243750Y-43300000D01*
X198267642Y-43301174D01*
G37*
G36*
X192250142Y-54885674D02*
G01*
X192273803Y-54889184D01*
X192297007Y-54894996D01*
X192319529Y-54903054D01*
X192341153Y-54913282D01*
X192361670Y-54925579D01*
X192380883Y-54939829D01*
X192398607Y-54955893D01*
X192414671Y-54973617D01*
X192428921Y-54992830D01*
X192441218Y-55013347D01*
X192451446Y-55034971D01*
X192459504Y-55057493D01*
X192465316Y-55080697D01*
X192468826Y-55104358D01*
X192470000Y-55128250D01*
X192470000Y-55615750D01*
X192468826Y-55639642D01*
X192465316Y-55663303D01*
X192459504Y-55686507D01*
X192451446Y-55709029D01*
X192441218Y-55730653D01*
X192428921Y-55751170D01*
X192414671Y-55770383D01*
X192398607Y-55788107D01*
X192380883Y-55804171D01*
X192361670Y-55818421D01*
X192341153Y-55830718D01*
X192319529Y-55840946D01*
X192297007Y-55849004D01*
X192273803Y-55854816D01*
X192250142Y-55858326D01*
X192226250Y-55859500D01*
X191313750Y-55859500D01*
X191289858Y-55858326D01*
X191266197Y-55854816D01*
X191242993Y-55849004D01*
X191220471Y-55840946D01*
X191198847Y-55830718D01*
X191178330Y-55818421D01*
X191159117Y-55804171D01*
X191141393Y-55788107D01*
X191125329Y-55770383D01*
X191111079Y-55751170D01*
X191098782Y-55730653D01*
X191088554Y-55709029D01*
X191080496Y-55686507D01*
X191074684Y-55663303D01*
X191071174Y-55639642D01*
X191070000Y-55615750D01*
X191070000Y-55128250D01*
X191071174Y-55104358D01*
X191074684Y-55080697D01*
X191080496Y-55057493D01*
X191088554Y-55034971D01*
X191098782Y-55013347D01*
X191111079Y-54992830D01*
X191125329Y-54973617D01*
X191141393Y-54955893D01*
X191159117Y-54939829D01*
X191178330Y-54925579D01*
X191198847Y-54913282D01*
X191220471Y-54903054D01*
X191242993Y-54894996D01*
X191266197Y-54889184D01*
X191289858Y-54885674D01*
X191313750Y-54884500D01*
X192226250Y-54884500D01*
X192250142Y-54885674D01*
G37*
G36*
X192250142Y-56760674D02*
G01*
X192273803Y-56764184D01*
X192297007Y-56769996D01*
X192319529Y-56778054D01*
X192341153Y-56788282D01*
X192361670Y-56800579D01*
X192380883Y-56814829D01*
X192398607Y-56830893D01*
X192414671Y-56848617D01*
X192428921Y-56867830D01*
X192441218Y-56888347D01*
X192451446Y-56909971D01*
X192459504Y-56932493D01*
X192465316Y-56955697D01*
X192468826Y-56979358D01*
X192470000Y-57003250D01*
X192470000Y-57490750D01*
X192468826Y-57514642D01*
X192465316Y-57538303D01*
X192459504Y-57561507D01*
X192451446Y-57584029D01*
X192441218Y-57605653D01*
X192428921Y-57626170D01*
X192414671Y-57645383D01*
X192398607Y-57663107D01*
X192380883Y-57679171D01*
X192361670Y-57693421D01*
X192341153Y-57705718D01*
X192319529Y-57715946D01*
X192297007Y-57724004D01*
X192273803Y-57729816D01*
X192250142Y-57733326D01*
X192226250Y-57734500D01*
X191313750Y-57734500D01*
X191289858Y-57733326D01*
X191266197Y-57729816D01*
X191242993Y-57724004D01*
X191220471Y-57715946D01*
X191198847Y-57705718D01*
X191178330Y-57693421D01*
X191159117Y-57679171D01*
X191141393Y-57663107D01*
X191125329Y-57645383D01*
X191111079Y-57626170D01*
X191098782Y-57605653D01*
X191088554Y-57584029D01*
X191080496Y-57561507D01*
X191074684Y-57538303D01*
X191071174Y-57514642D01*
X191070000Y-57490750D01*
X191070000Y-57003250D01*
X191071174Y-56979358D01*
X191074684Y-56955697D01*
X191080496Y-56932493D01*
X191088554Y-56909971D01*
X191098782Y-56888347D01*
X191111079Y-56867830D01*
X191125329Y-56848617D01*
X191141393Y-56830893D01*
X191159117Y-56814829D01*
X191178330Y-56800579D01*
X191198847Y-56788282D01*
X191220471Y-56778054D01*
X191242993Y-56769996D01*
X191266197Y-56764184D01*
X191289858Y-56760674D01*
X191313750Y-56759500D01*
X192226250Y-56759500D01*
X192250142Y-56760674D01*
G37*
G36*
X211422642Y-58811174D02*
G01*
X211446303Y-58814684D01*
X211469507Y-58820496D01*
X211492029Y-58828554D01*
X211513653Y-58838782D01*
X211534170Y-58851079D01*
X211553383Y-58865329D01*
X211571107Y-58881393D01*
X211587171Y-58899117D01*
X211601421Y-58918330D01*
X211613718Y-58938847D01*
X211623946Y-58960471D01*
X211632004Y-58982993D01*
X211637816Y-59006197D01*
X211641326Y-59029858D01*
X211642500Y-59053750D01*
X211642500Y-59966250D01*
X211641326Y-59990142D01*
X211637816Y-60013803D01*
X211632004Y-60037007D01*
X211623946Y-60059529D01*
X211613718Y-60081153D01*
X211601421Y-60101670D01*
X211587171Y-60120883D01*
X211571107Y-60138607D01*
X211553383Y-60154671D01*
X211534170Y-60168921D01*
X211513653Y-60181218D01*
X211492029Y-60191446D01*
X211469507Y-60199504D01*
X211446303Y-60205316D01*
X211422642Y-60208826D01*
X211398750Y-60210000D01*
X210911250Y-60210000D01*
X210887358Y-60208826D01*
X210863697Y-60205316D01*
X210840493Y-60199504D01*
X210817971Y-60191446D01*
X210796347Y-60181218D01*
X210775830Y-60168921D01*
X210756617Y-60154671D01*
X210738893Y-60138607D01*
X210722829Y-60120883D01*
X210708579Y-60101670D01*
X210696282Y-60081153D01*
X210686054Y-60059529D01*
X210677996Y-60037007D01*
X210672184Y-60013803D01*
X210668674Y-59990142D01*
X210667500Y-59966250D01*
X210667500Y-59053750D01*
X210668674Y-59029858D01*
X210672184Y-59006197D01*
X210677996Y-58982993D01*
X210686054Y-58960471D01*
X210696282Y-58938847D01*
X210708579Y-58918330D01*
X210722829Y-58899117D01*
X210738893Y-58881393D01*
X210756617Y-58865329D01*
X210775830Y-58851079D01*
X210796347Y-58838782D01*
X210817971Y-58828554D01*
X210840493Y-58820496D01*
X210863697Y-58814684D01*
X210887358Y-58811174D01*
X210911250Y-58810000D01*
X211398750Y-58810000D01*
X211422642Y-58811174D01*
G37*
G36*
X209547642Y-58811174D02*
G01*
X209571303Y-58814684D01*
X209594507Y-58820496D01*
X209617029Y-58828554D01*
X209638653Y-58838782D01*
X209659170Y-58851079D01*
X209678383Y-58865329D01*
X209696107Y-58881393D01*
X209712171Y-58899117D01*
X209726421Y-58918330D01*
X209738718Y-58938847D01*
X209748946Y-58960471D01*
X209757004Y-58982993D01*
X209762816Y-59006197D01*
X209766326Y-59029858D01*
X209767500Y-59053750D01*
X209767500Y-59966250D01*
X209766326Y-59990142D01*
X209762816Y-60013803D01*
X209757004Y-60037007D01*
X209748946Y-60059529D01*
X209738718Y-60081153D01*
X209726421Y-60101670D01*
X209712171Y-60120883D01*
X209696107Y-60138607D01*
X209678383Y-60154671D01*
X209659170Y-60168921D01*
X209638653Y-60181218D01*
X209617029Y-60191446D01*
X209594507Y-60199504D01*
X209571303Y-60205316D01*
X209547642Y-60208826D01*
X209523750Y-60210000D01*
X209036250Y-60210000D01*
X209012358Y-60208826D01*
X208988697Y-60205316D01*
X208965493Y-60199504D01*
X208942971Y-60191446D01*
X208921347Y-60181218D01*
X208900830Y-60168921D01*
X208881617Y-60154671D01*
X208863893Y-60138607D01*
X208847829Y-60120883D01*
X208833579Y-60101670D01*
X208821282Y-60081153D01*
X208811054Y-60059529D01*
X208802996Y-60037007D01*
X208797184Y-60013803D01*
X208793674Y-59990142D01*
X208792500Y-59966250D01*
X208792500Y-59053750D01*
X208793674Y-59029858D01*
X208797184Y-59006197D01*
X208802996Y-58982993D01*
X208811054Y-58960471D01*
X208821282Y-58938847D01*
X208833579Y-58918330D01*
X208847829Y-58899117D01*
X208863893Y-58881393D01*
X208881617Y-58865329D01*
X208900830Y-58851079D01*
X208921347Y-58838782D01*
X208942971Y-58828554D01*
X208965493Y-58820496D01*
X208988697Y-58814684D01*
X209012358Y-58811174D01*
X209036250Y-58810000D01*
X209523750Y-58810000D01*
X209547642Y-58811174D01*
G37*
G36*
X210480142Y-50513674D02*
G01*
X210503803Y-50517184D01*
X210527007Y-50522996D01*
X210549529Y-50531054D01*
X210571153Y-50541282D01*
X210591670Y-50553579D01*
X210610883Y-50567829D01*
X210628607Y-50583893D01*
X210644671Y-50601617D01*
X210658921Y-50620830D01*
X210671218Y-50641347D01*
X210681446Y-50662971D01*
X210689504Y-50685493D01*
X210695316Y-50708697D01*
X210698826Y-50732358D01*
X210700000Y-50756250D01*
X210700000Y-51243750D01*
X210698826Y-51267642D01*
X210695316Y-51291303D01*
X210689504Y-51314507D01*
X210681446Y-51337029D01*
X210671218Y-51358653D01*
X210658921Y-51379170D01*
X210644671Y-51398383D01*
X210628607Y-51416107D01*
X210610883Y-51432171D01*
X210591670Y-51446421D01*
X210571153Y-51458718D01*
X210549529Y-51468946D01*
X210527007Y-51477004D01*
X210503803Y-51482816D01*
X210480142Y-51486326D01*
X210456250Y-51487500D01*
X209543750Y-51487500D01*
X209519858Y-51486326D01*
X209496197Y-51482816D01*
X209472993Y-51477004D01*
X209450471Y-51468946D01*
X209428847Y-51458718D01*
X209408330Y-51446421D01*
X209389117Y-51432171D01*
X209371393Y-51416107D01*
X209355329Y-51398383D01*
X209341079Y-51379170D01*
X209328782Y-51358653D01*
X209318554Y-51337029D01*
X209310496Y-51314507D01*
X209304684Y-51291303D01*
X209301174Y-51267642D01*
X209300000Y-51243750D01*
X209300000Y-50756250D01*
X209301174Y-50732358D01*
X209304684Y-50708697D01*
X209310496Y-50685493D01*
X209318554Y-50662971D01*
X209328782Y-50641347D01*
X209341079Y-50620830D01*
X209355329Y-50601617D01*
X209371393Y-50583893D01*
X209389117Y-50567829D01*
X209408330Y-50553579D01*
X209428847Y-50541282D01*
X209450471Y-50531054D01*
X209472993Y-50522996D01*
X209496197Y-50517184D01*
X209519858Y-50513674D01*
X209543750Y-50512500D01*
X210456250Y-50512500D01*
X210480142Y-50513674D01*
G37*
G36*
X210480142Y-48638674D02*
G01*
X210503803Y-48642184D01*
X210527007Y-48647996D01*
X210549529Y-48656054D01*
X210571153Y-48666282D01*
X210591670Y-48678579D01*
X210610883Y-48692829D01*
X210628607Y-48708893D01*
X210644671Y-48726617D01*
X210658921Y-48745830D01*
X210671218Y-48766347D01*
X210681446Y-48787971D01*
X210689504Y-48810493D01*
X210695316Y-48833697D01*
X210698826Y-48857358D01*
X210700000Y-48881250D01*
X210700000Y-49368750D01*
X210698826Y-49392642D01*
X210695316Y-49416303D01*
X210689504Y-49439507D01*
X210681446Y-49462029D01*
X210671218Y-49483653D01*
X210658921Y-49504170D01*
X210644671Y-49523383D01*
X210628607Y-49541107D01*
X210610883Y-49557171D01*
X210591670Y-49571421D01*
X210571153Y-49583718D01*
X210549529Y-49593946D01*
X210527007Y-49602004D01*
X210503803Y-49607816D01*
X210480142Y-49611326D01*
X210456250Y-49612500D01*
X209543750Y-49612500D01*
X209519858Y-49611326D01*
X209496197Y-49607816D01*
X209472993Y-49602004D01*
X209450471Y-49593946D01*
X209428847Y-49583718D01*
X209408330Y-49571421D01*
X209389117Y-49557171D01*
X209371393Y-49541107D01*
X209355329Y-49523383D01*
X209341079Y-49504170D01*
X209328782Y-49483653D01*
X209318554Y-49462029D01*
X209310496Y-49439507D01*
X209304684Y-49416303D01*
X209301174Y-49392642D01*
X209300000Y-49368750D01*
X209300000Y-48881250D01*
X209301174Y-48857358D01*
X209304684Y-48833697D01*
X209310496Y-48810493D01*
X209318554Y-48787971D01*
X209328782Y-48766347D01*
X209341079Y-48745830D01*
X209355329Y-48726617D01*
X209371393Y-48708893D01*
X209389117Y-48692829D01*
X209408330Y-48678579D01*
X209428847Y-48666282D01*
X209450471Y-48656054D01*
X209472993Y-48647996D01*
X209496197Y-48642184D01*
X209519858Y-48638674D01*
X209543750Y-48637500D01*
X210456250Y-48637500D01*
X210480142Y-48638674D01*
G37*
G36*
X210480142Y-54758674D02*
G01*
X210503803Y-54762184D01*
X210527007Y-54767996D01*
X210549529Y-54776054D01*
X210571153Y-54786282D01*
X210591670Y-54798579D01*
X210610883Y-54812829D01*
X210628607Y-54828893D01*
X210644671Y-54846617D01*
X210658921Y-54865830D01*
X210671218Y-54886347D01*
X210681446Y-54907971D01*
X210689504Y-54930493D01*
X210695316Y-54953697D01*
X210698826Y-54977358D01*
X210700000Y-55001250D01*
X210700000Y-55488750D01*
X210698826Y-55512642D01*
X210695316Y-55536303D01*
X210689504Y-55559507D01*
X210681446Y-55582029D01*
X210671218Y-55603653D01*
X210658921Y-55624170D01*
X210644671Y-55643383D01*
X210628607Y-55661107D01*
X210610883Y-55677171D01*
X210591670Y-55691421D01*
X210571153Y-55703718D01*
X210549529Y-55713946D01*
X210527007Y-55722004D01*
X210503803Y-55727816D01*
X210480142Y-55731326D01*
X210456250Y-55732500D01*
X209543750Y-55732500D01*
X209519858Y-55731326D01*
X209496197Y-55727816D01*
X209472993Y-55722004D01*
X209450471Y-55713946D01*
X209428847Y-55703718D01*
X209408330Y-55691421D01*
X209389117Y-55677171D01*
X209371393Y-55661107D01*
X209355329Y-55643383D01*
X209341079Y-55624170D01*
X209328782Y-55603653D01*
X209318554Y-55582029D01*
X209310496Y-55559507D01*
X209304684Y-55536303D01*
X209301174Y-55512642D01*
X209300000Y-55488750D01*
X209300000Y-55001250D01*
X209301174Y-54977358D01*
X209304684Y-54953697D01*
X209310496Y-54930493D01*
X209318554Y-54907971D01*
X209328782Y-54886347D01*
X209341079Y-54865830D01*
X209355329Y-54846617D01*
X209371393Y-54828893D01*
X209389117Y-54812829D01*
X209408330Y-54798579D01*
X209428847Y-54786282D01*
X209450471Y-54776054D01*
X209472993Y-54767996D01*
X209496197Y-54762184D01*
X209519858Y-54758674D01*
X209543750Y-54757500D01*
X210456250Y-54757500D01*
X210480142Y-54758674D01*
G37*
G36*
X210480142Y-56633674D02*
G01*
X210503803Y-56637184D01*
X210527007Y-56642996D01*
X210549529Y-56651054D01*
X210571153Y-56661282D01*
X210591670Y-56673579D01*
X210610883Y-56687829D01*
X210628607Y-56703893D01*
X210644671Y-56721617D01*
X210658921Y-56740830D01*
X210671218Y-56761347D01*
X210681446Y-56782971D01*
X210689504Y-56805493D01*
X210695316Y-56828697D01*
X210698826Y-56852358D01*
X210700000Y-56876250D01*
X210700000Y-57363750D01*
X210698826Y-57387642D01*
X210695316Y-57411303D01*
X210689504Y-57434507D01*
X210681446Y-57457029D01*
X210671218Y-57478653D01*
X210658921Y-57499170D01*
X210644671Y-57518383D01*
X210628607Y-57536107D01*
X210610883Y-57552171D01*
X210591670Y-57566421D01*
X210571153Y-57578718D01*
X210549529Y-57588946D01*
X210527007Y-57597004D01*
X210503803Y-57602816D01*
X210480142Y-57606326D01*
X210456250Y-57607500D01*
X209543750Y-57607500D01*
X209519858Y-57606326D01*
X209496197Y-57602816D01*
X209472993Y-57597004D01*
X209450471Y-57588946D01*
X209428847Y-57578718D01*
X209408330Y-57566421D01*
X209389117Y-57552171D01*
X209371393Y-57536107D01*
X209355329Y-57518383D01*
X209341079Y-57499170D01*
X209328782Y-57478653D01*
X209318554Y-57457029D01*
X209310496Y-57434507D01*
X209304684Y-57411303D01*
X209301174Y-57387642D01*
X209300000Y-57363750D01*
X209300000Y-56876250D01*
X209301174Y-56852358D01*
X209304684Y-56828697D01*
X209310496Y-56805493D01*
X209318554Y-56782971D01*
X209328782Y-56761347D01*
X209341079Y-56740830D01*
X209355329Y-56721617D01*
X209371393Y-56703893D01*
X209389117Y-56687829D01*
X209408330Y-56673579D01*
X209428847Y-56661282D01*
X209450471Y-56651054D01*
X209472993Y-56642996D01*
X209496197Y-56637184D01*
X209519858Y-56633674D01*
X209543750Y-56632500D01*
X210456250Y-56632500D01*
X210480142Y-56633674D01*
G37*
G36*
X185877642Y-58671174D02*
G01*
X185901303Y-58674684D01*
X185924507Y-58680496D01*
X185947029Y-58688554D01*
X185968653Y-58698782D01*
X185989170Y-58711079D01*
X186008383Y-58725329D01*
X186026107Y-58741393D01*
X186042171Y-58759117D01*
X186056421Y-58778330D01*
X186068718Y-58798847D01*
X186078946Y-58820471D01*
X186087004Y-58842993D01*
X186092816Y-58866197D01*
X186096326Y-58889858D01*
X186097500Y-58913750D01*
X186097500Y-59826250D01*
X186096326Y-59850142D01*
X186092816Y-59873803D01*
X186087004Y-59897007D01*
X186078946Y-59919529D01*
X186068718Y-59941153D01*
X186056421Y-59961670D01*
X186042171Y-59980883D01*
X186026107Y-59998607D01*
X186008383Y-60014671D01*
X185989170Y-60028921D01*
X185968653Y-60041218D01*
X185947029Y-60051446D01*
X185924507Y-60059504D01*
X185901303Y-60065316D01*
X185877642Y-60068826D01*
X185853750Y-60070000D01*
X185366250Y-60070000D01*
X185342358Y-60068826D01*
X185318697Y-60065316D01*
X185295493Y-60059504D01*
X185272971Y-60051446D01*
X185251347Y-60041218D01*
X185230830Y-60028921D01*
X185211617Y-60014671D01*
X185193893Y-59998607D01*
X185177829Y-59980883D01*
X185163579Y-59961670D01*
X185151282Y-59941153D01*
X185141054Y-59919529D01*
X185132996Y-59897007D01*
X185127184Y-59873803D01*
X185123674Y-59850142D01*
X185122500Y-59826250D01*
X185122500Y-58913750D01*
X185123674Y-58889858D01*
X185127184Y-58866197D01*
X185132996Y-58842993D01*
X185141054Y-58820471D01*
X185151282Y-58798847D01*
X185163579Y-58778330D01*
X185177829Y-58759117D01*
X185193893Y-58741393D01*
X185211617Y-58725329D01*
X185230830Y-58711079D01*
X185251347Y-58698782D01*
X185272971Y-58688554D01*
X185295493Y-58680496D01*
X185318697Y-58674684D01*
X185342358Y-58671174D01*
X185366250Y-58670000D01*
X185853750Y-58670000D01*
X185877642Y-58671174D01*
G37*
G36*
X187752642Y-58671174D02*
G01*
X187776303Y-58674684D01*
X187799507Y-58680496D01*
X187822029Y-58688554D01*
X187843653Y-58698782D01*
X187864170Y-58711079D01*
X187883383Y-58725329D01*
X187901107Y-58741393D01*
X187917171Y-58759117D01*
X187931421Y-58778330D01*
X187943718Y-58798847D01*
X187953946Y-58820471D01*
X187962004Y-58842993D01*
X187967816Y-58866197D01*
X187971326Y-58889858D01*
X187972500Y-58913750D01*
X187972500Y-59826250D01*
X187971326Y-59850142D01*
X187967816Y-59873803D01*
X187962004Y-59897007D01*
X187953946Y-59919529D01*
X187943718Y-59941153D01*
X187931421Y-59961670D01*
X187917171Y-59980883D01*
X187901107Y-59998607D01*
X187883383Y-60014671D01*
X187864170Y-60028921D01*
X187843653Y-60041218D01*
X187822029Y-60051446D01*
X187799507Y-60059504D01*
X187776303Y-60065316D01*
X187752642Y-60068826D01*
X187728750Y-60070000D01*
X187241250Y-60070000D01*
X187217358Y-60068826D01*
X187193697Y-60065316D01*
X187170493Y-60059504D01*
X187147971Y-60051446D01*
X187126347Y-60041218D01*
X187105830Y-60028921D01*
X187086617Y-60014671D01*
X187068893Y-59998607D01*
X187052829Y-59980883D01*
X187038579Y-59961670D01*
X187026282Y-59941153D01*
X187016054Y-59919529D01*
X187007996Y-59897007D01*
X187002184Y-59873803D01*
X186998674Y-59850142D01*
X186997500Y-59826250D01*
X186997500Y-58913750D01*
X186998674Y-58889858D01*
X187002184Y-58866197D01*
X187007996Y-58842993D01*
X187016054Y-58820471D01*
X187026282Y-58798847D01*
X187038579Y-58778330D01*
X187052829Y-58759117D01*
X187068893Y-58741393D01*
X187086617Y-58725329D01*
X187105830Y-58711079D01*
X187126347Y-58698782D01*
X187147971Y-58688554D01*
X187170493Y-58680496D01*
X187193697Y-58674684D01*
X187217358Y-58671174D01*
X187241250Y-58670000D01*
X187728750Y-58670000D01*
X187752642Y-58671174D01*
G37*
M02*
