G04 #@! TF.GenerationSoftware,KiCad,Pcbnew,(5.1.5)-3*
G04 #@! TF.CreationDate,2020-03-25T17:20:55+01:00*
G04 #@! TF.ProjectId,4Keys,344b6579-732e-46b6-9963-61645f706362,rev?*
G04 #@! TF.SameCoordinates,Original*
G04 #@! TF.FileFunction,Soldermask,Bot*
G04 #@! TF.FilePolarity,Negative*
%FSLAX46Y46*%
G04 Gerber Fmt 4.6, Leading zero omitted, Abs format (unit mm)*
G04 Created by KiCad (PCBNEW (5.1.5)-3) date 2020-03-25 17:20:55*
%MOMM*%
%LPD*%
G04 APERTURE LIST*
%ADD10C,0.100000*%
G04 APERTURE END LIST*
D10*
G36*
X139328626Y-73599537D02*
G01*
X139498465Y-73651057D01*
X139498467Y-73651058D01*
X139654989Y-73734721D01*
X139792186Y-73847314D01*
X139861692Y-73932009D01*
X139904778Y-73984509D01*
X139904779Y-73984511D01*
X139960382Y-74088535D01*
X139988443Y-74141034D01*
X140039963Y-74310873D01*
X140053000Y-74443242D01*
X140053000Y-74781757D01*
X140039963Y-74914126D01*
X139988443Y-75083966D01*
X139904778Y-75240491D01*
X139875448Y-75276229D01*
X139792186Y-75377686D01*
X139718961Y-75437779D01*
X139654991Y-75490278D01*
X139654989Y-75490279D01*
X139500300Y-75572963D01*
X139498466Y-75573943D01*
X139328627Y-75625463D01*
X139152000Y-75642859D01*
X138975374Y-75625463D01*
X138805535Y-75573943D01*
X138803702Y-75572963D01*
X138649012Y-75490279D01*
X138649010Y-75490278D01*
X138511815Y-75377685D01*
X138399222Y-75240491D01*
X138315557Y-75083966D01*
X138264037Y-74914127D01*
X138251000Y-74781758D01*
X138251000Y-74443243D01*
X138264037Y-74310874D01*
X138315557Y-74141035D01*
X138343619Y-74088535D01*
X138399221Y-73984511D01*
X138511814Y-73847314D01*
X138613271Y-73764052D01*
X138649009Y-73734722D01*
X138781101Y-73664117D01*
X138805532Y-73651058D01*
X138805534Y-73651057D01*
X138975373Y-73599537D01*
X139152000Y-73582141D01*
X139328626Y-73599537D01*
G37*
G36*
X141828626Y-73599537D02*
G01*
X141998465Y-73651057D01*
X141998467Y-73651058D01*
X142154989Y-73734721D01*
X142292186Y-73847314D01*
X142361692Y-73932009D01*
X142404778Y-73984509D01*
X142404779Y-73984511D01*
X142460382Y-74088535D01*
X142488443Y-74141034D01*
X142539963Y-74310873D01*
X142553000Y-74443242D01*
X142553000Y-74781757D01*
X142539963Y-74914126D01*
X142488443Y-75083966D01*
X142404778Y-75240491D01*
X142375448Y-75276229D01*
X142292186Y-75377686D01*
X142218961Y-75437779D01*
X142154991Y-75490278D01*
X142154989Y-75490279D01*
X142000300Y-75572963D01*
X141998466Y-75573943D01*
X141828627Y-75625463D01*
X141652000Y-75642859D01*
X141475374Y-75625463D01*
X141305535Y-75573943D01*
X141303702Y-75572963D01*
X141149012Y-75490279D01*
X141149010Y-75490278D01*
X141011815Y-75377685D01*
X140899222Y-75240491D01*
X140815557Y-75083966D01*
X140764037Y-74914127D01*
X140751000Y-74781758D01*
X140751000Y-74443243D01*
X140764037Y-74310874D01*
X140815557Y-74141035D01*
X140843619Y-74088535D01*
X140899221Y-73984511D01*
X141011814Y-73847314D01*
X141113271Y-73764052D01*
X141149009Y-73734722D01*
X141281101Y-73664117D01*
X141305532Y-73651058D01*
X141305534Y-73651057D01*
X141475373Y-73599537D01*
X141652000Y-73582141D01*
X141828626Y-73599537D01*
G37*
G36*
X144328626Y-73599537D02*
G01*
X144498465Y-73651057D01*
X144498467Y-73651058D01*
X144654989Y-73734721D01*
X144792186Y-73847314D01*
X144861692Y-73932009D01*
X144904778Y-73984509D01*
X144904779Y-73984511D01*
X144960382Y-74088535D01*
X144988443Y-74141034D01*
X145039963Y-74310873D01*
X145053000Y-74443242D01*
X145053000Y-74781757D01*
X145039963Y-74914126D01*
X144988443Y-75083966D01*
X144904778Y-75240491D01*
X144875448Y-75276229D01*
X144792186Y-75377686D01*
X144718961Y-75437779D01*
X144654991Y-75490278D01*
X144654989Y-75490279D01*
X144500300Y-75572963D01*
X144498466Y-75573943D01*
X144328627Y-75625463D01*
X144152000Y-75642859D01*
X143975374Y-75625463D01*
X143805535Y-75573943D01*
X143803702Y-75572963D01*
X143649012Y-75490279D01*
X143649010Y-75490278D01*
X143511815Y-75377685D01*
X143399222Y-75240491D01*
X143315557Y-75083966D01*
X143264037Y-74914127D01*
X143251000Y-74781758D01*
X143251000Y-74443243D01*
X143264037Y-74310874D01*
X143315557Y-74141035D01*
X143343619Y-74088535D01*
X143399221Y-73984511D01*
X143511814Y-73847314D01*
X143613271Y-73764052D01*
X143649009Y-73734722D01*
X143781101Y-73664117D01*
X143805532Y-73651058D01*
X143805534Y-73651057D01*
X143975373Y-73599537D01*
X144152000Y-73582141D01*
X144328626Y-73599537D01*
G37*
G36*
X137410600Y-73590489D02*
G01*
X137443652Y-73600515D01*
X137474103Y-73616792D01*
X137500799Y-73638701D01*
X137522708Y-73665397D01*
X137538985Y-73695848D01*
X137549011Y-73728900D01*
X137553000Y-73769403D01*
X137553000Y-75455597D01*
X137549011Y-75496100D01*
X137538985Y-75529152D01*
X137522708Y-75559603D01*
X137500799Y-75586299D01*
X137474103Y-75608208D01*
X137443652Y-75624485D01*
X137410600Y-75634511D01*
X137370097Y-75638500D01*
X135933903Y-75638500D01*
X135893400Y-75634511D01*
X135860348Y-75624485D01*
X135829897Y-75608208D01*
X135803201Y-75586299D01*
X135781292Y-75559603D01*
X135765015Y-75529152D01*
X135754989Y-75496100D01*
X135751000Y-75455597D01*
X135751000Y-73769403D01*
X135754989Y-73728900D01*
X135765015Y-73695848D01*
X135781292Y-73665397D01*
X135803201Y-73638701D01*
X135829897Y-73616792D01*
X135860348Y-73600515D01*
X135893400Y-73590489D01*
X135933903Y-73586500D01*
X137370097Y-73586500D01*
X137410600Y-73590489D01*
G37*
G36*
X235260626Y-73547037D02*
G01*
X235430465Y-73598557D01*
X235430467Y-73598558D01*
X235586989Y-73682221D01*
X235724186Y-73794814D01*
X235770706Y-73851500D01*
X235836778Y-73932009D01*
X235920443Y-74088534D01*
X235971963Y-74258373D01*
X235985000Y-74390742D01*
X235985000Y-74729257D01*
X235971963Y-74861626D01*
X235920443Y-75031466D01*
X235836778Y-75187991D01*
X235807448Y-75223729D01*
X235724186Y-75325186D01*
X235629250Y-75403097D01*
X235586991Y-75437778D01*
X235553654Y-75455597D01*
X235431808Y-75520726D01*
X235430466Y-75521443D01*
X235260627Y-75572963D01*
X235084000Y-75590359D01*
X234907374Y-75572963D01*
X234737535Y-75521443D01*
X234736194Y-75520726D01*
X234614347Y-75455597D01*
X234581010Y-75437778D01*
X234443815Y-75325185D01*
X234331222Y-75187991D01*
X234247557Y-75031466D01*
X234196037Y-74861627D01*
X234183000Y-74729258D01*
X234183000Y-74390743D01*
X234196037Y-74258374D01*
X234247557Y-74088535D01*
X234331222Y-73932010D01*
X234331223Y-73932009D01*
X234443814Y-73794814D01*
X234554139Y-73704274D01*
X234581009Y-73682222D01*
X234733871Y-73600515D01*
X234737532Y-73598558D01*
X234737534Y-73598557D01*
X234907373Y-73547037D01*
X235084000Y-73529641D01*
X235260626Y-73547037D01*
G37*
G36*
X232760626Y-73547037D02*
G01*
X232930465Y-73598557D01*
X232930467Y-73598558D01*
X233086989Y-73682221D01*
X233224186Y-73794814D01*
X233270706Y-73851500D01*
X233336778Y-73932009D01*
X233420443Y-74088534D01*
X233471963Y-74258373D01*
X233485000Y-74390742D01*
X233485000Y-74729257D01*
X233471963Y-74861626D01*
X233420443Y-75031466D01*
X233336778Y-75187991D01*
X233307448Y-75223729D01*
X233224186Y-75325186D01*
X233129250Y-75403097D01*
X233086991Y-75437778D01*
X233053654Y-75455597D01*
X232931808Y-75520726D01*
X232930466Y-75521443D01*
X232760627Y-75572963D01*
X232584000Y-75590359D01*
X232407374Y-75572963D01*
X232237535Y-75521443D01*
X232236194Y-75520726D01*
X232114347Y-75455597D01*
X232081010Y-75437778D01*
X231943815Y-75325185D01*
X231831222Y-75187991D01*
X231747557Y-75031466D01*
X231696037Y-74861627D01*
X231683000Y-74729258D01*
X231683000Y-74390743D01*
X231696037Y-74258374D01*
X231747557Y-74088535D01*
X231831222Y-73932010D01*
X231831223Y-73932009D01*
X231943814Y-73794814D01*
X232054139Y-73704274D01*
X232081009Y-73682222D01*
X232233871Y-73600515D01*
X232237532Y-73598558D01*
X232237534Y-73598557D01*
X232407373Y-73547037D01*
X232584000Y-73529641D01*
X232760626Y-73547037D01*
G37*
G36*
X230260626Y-73547037D02*
G01*
X230430465Y-73598557D01*
X230430467Y-73598558D01*
X230586989Y-73682221D01*
X230724186Y-73794814D01*
X230770706Y-73851500D01*
X230836778Y-73932009D01*
X230920443Y-74088534D01*
X230971963Y-74258373D01*
X230985000Y-74390742D01*
X230985000Y-74729257D01*
X230971963Y-74861626D01*
X230920443Y-75031466D01*
X230836778Y-75187991D01*
X230807448Y-75223729D01*
X230724186Y-75325186D01*
X230629250Y-75403097D01*
X230586991Y-75437778D01*
X230553654Y-75455597D01*
X230431808Y-75520726D01*
X230430466Y-75521443D01*
X230260627Y-75572963D01*
X230084000Y-75590359D01*
X229907374Y-75572963D01*
X229737535Y-75521443D01*
X229736194Y-75520726D01*
X229614347Y-75455597D01*
X229581010Y-75437778D01*
X229443815Y-75325185D01*
X229331222Y-75187991D01*
X229247557Y-75031466D01*
X229196037Y-74861627D01*
X229183000Y-74729258D01*
X229183000Y-74390743D01*
X229196037Y-74258374D01*
X229247557Y-74088535D01*
X229331222Y-73932010D01*
X229331223Y-73932009D01*
X229443814Y-73794814D01*
X229554139Y-73704274D01*
X229581009Y-73682222D01*
X229733871Y-73600515D01*
X229737532Y-73598558D01*
X229737534Y-73598557D01*
X229907373Y-73547037D01*
X230084000Y-73529641D01*
X230260626Y-73547037D01*
G37*
G36*
X228342600Y-73537989D02*
G01*
X228375652Y-73548015D01*
X228406103Y-73564292D01*
X228432799Y-73586201D01*
X228454708Y-73612897D01*
X228470985Y-73643348D01*
X228481011Y-73676400D01*
X228485000Y-73716903D01*
X228485000Y-75403097D01*
X228481011Y-75443600D01*
X228470985Y-75476652D01*
X228454708Y-75507103D01*
X228432799Y-75533799D01*
X228406103Y-75555708D01*
X228375652Y-75571985D01*
X228342600Y-75582011D01*
X228302097Y-75586000D01*
X226865903Y-75586000D01*
X226825400Y-75582011D01*
X226792348Y-75571985D01*
X226761897Y-75555708D01*
X226735201Y-75533799D01*
X226713292Y-75507103D01*
X226697015Y-75476652D01*
X226686989Y-75443600D01*
X226683000Y-75403097D01*
X226683000Y-73716903D01*
X226686989Y-73676400D01*
X226697015Y-73643348D01*
X226713292Y-73612897D01*
X226735201Y-73586201D01*
X226761897Y-73564292D01*
X226792348Y-73548015D01*
X226825400Y-73537989D01*
X226865903Y-73534000D01*
X228302097Y-73534000D01*
X228342600Y-73537989D01*
G37*
G36*
X193851000Y-75451000D02*
G01*
X191949000Y-75451000D01*
X191949000Y-74249000D01*
X193851000Y-74249000D01*
X193851000Y-75451000D01*
G37*
G36*
X200051000Y-75451000D02*
G01*
X198149000Y-75451000D01*
X198149000Y-74249000D01*
X200051000Y-74249000D01*
X200051000Y-75451000D01*
G37*
G36*
X193851000Y-71751000D02*
G01*
X191949000Y-71751000D01*
X191949000Y-70549000D01*
X193851000Y-70549000D01*
X193851000Y-71751000D01*
G37*
G36*
X200051000Y-71751000D02*
G01*
X198149000Y-71751000D01*
X198149000Y-70549000D01*
X200051000Y-70549000D01*
X200051000Y-71751000D01*
G37*
G36*
X196584468Y-68466065D02*
G01*
X196623138Y-68477796D01*
X196658777Y-68496846D01*
X196690017Y-68522483D01*
X196715654Y-68553723D01*
X196734704Y-68589362D01*
X196746435Y-68628032D01*
X196751000Y-68674388D01*
X196751000Y-69325612D01*
X196746435Y-69371968D01*
X196734704Y-69410638D01*
X196715654Y-69446277D01*
X196690017Y-69477517D01*
X196658777Y-69503154D01*
X196623138Y-69522204D01*
X196584468Y-69533935D01*
X196538112Y-69538500D01*
X195461888Y-69538500D01*
X195415532Y-69533935D01*
X195376862Y-69522204D01*
X195341223Y-69503154D01*
X195309983Y-69477517D01*
X195284346Y-69446277D01*
X195265296Y-69410638D01*
X195253565Y-69371968D01*
X195249000Y-69325612D01*
X195249000Y-68674388D01*
X195253565Y-68628032D01*
X195265296Y-68589362D01*
X195284346Y-68553723D01*
X195309983Y-68522483D01*
X195341223Y-68496846D01*
X195376862Y-68477796D01*
X195415532Y-68466065D01*
X195461888Y-68461500D01*
X196538112Y-68461500D01*
X196584468Y-68466065D01*
G37*
G36*
X186333974Y-65502434D02*
G01*
X186551974Y-65592733D01*
X186706123Y-65656583D01*
X187041048Y-65880373D01*
X187325877Y-66165202D01*
X187549667Y-66500127D01*
X187587587Y-66591674D01*
X187703816Y-66872276D01*
X187782400Y-67267344D01*
X187782400Y-67670156D01*
X187703816Y-68065224D01*
X187652951Y-68188022D01*
X187549667Y-68437373D01*
X187325877Y-68772298D01*
X187041048Y-69057127D01*
X186706123Y-69280917D01*
X186607475Y-69321778D01*
X186333974Y-69435066D01*
X185938906Y-69513650D01*
X185536094Y-69513650D01*
X185141026Y-69435066D01*
X184867525Y-69321778D01*
X184768877Y-69280917D01*
X184433952Y-69057127D01*
X184149123Y-68772298D01*
X183925333Y-68437373D01*
X183822049Y-68188022D01*
X183771184Y-68065224D01*
X183692600Y-67670156D01*
X183692600Y-67267344D01*
X183771184Y-66872276D01*
X183887413Y-66591674D01*
X183925333Y-66500127D01*
X184149123Y-66165202D01*
X184433952Y-65880373D01*
X184768877Y-65656583D01*
X184923026Y-65592733D01*
X185141026Y-65502434D01*
X185536094Y-65423850D01*
X185938906Y-65423850D01*
X186333974Y-65502434D01*
G37*
G36*
X205383974Y-65502434D02*
G01*
X205601974Y-65592733D01*
X205756123Y-65656583D01*
X206091048Y-65880373D01*
X206375877Y-66165202D01*
X206599667Y-66500127D01*
X206637587Y-66591674D01*
X206753816Y-66872276D01*
X206832400Y-67267344D01*
X206832400Y-67670156D01*
X206753816Y-68065224D01*
X206702951Y-68188022D01*
X206599667Y-68437373D01*
X206375877Y-68772298D01*
X206091048Y-69057127D01*
X205756123Y-69280917D01*
X205657475Y-69321778D01*
X205383974Y-69435066D01*
X204988906Y-69513650D01*
X204586094Y-69513650D01*
X204191026Y-69435066D01*
X203917525Y-69321778D01*
X203818877Y-69280917D01*
X203483952Y-69057127D01*
X203199123Y-68772298D01*
X202975333Y-68437373D01*
X202872049Y-68188022D01*
X202821184Y-68065224D01*
X202742600Y-67670156D01*
X202742600Y-67267344D01*
X202821184Y-66872276D01*
X202937413Y-66591674D01*
X202975333Y-66500127D01*
X203199123Y-66165202D01*
X203483952Y-65880373D01*
X203818877Y-65656583D01*
X203973026Y-65592733D01*
X204191026Y-65502434D01*
X204586094Y-65423850D01*
X204988906Y-65423850D01*
X205383974Y-65502434D01*
G37*
G36*
X167283974Y-65502434D02*
G01*
X167501974Y-65592733D01*
X167656123Y-65656583D01*
X167991048Y-65880373D01*
X168275877Y-66165202D01*
X168499667Y-66500127D01*
X168537587Y-66591674D01*
X168653816Y-66872276D01*
X168732400Y-67267344D01*
X168732400Y-67670156D01*
X168653816Y-68065224D01*
X168602951Y-68188022D01*
X168499667Y-68437373D01*
X168275877Y-68772298D01*
X167991048Y-69057127D01*
X167656123Y-69280917D01*
X167557475Y-69321778D01*
X167283974Y-69435066D01*
X166888906Y-69513650D01*
X166486094Y-69513650D01*
X166091026Y-69435066D01*
X165817525Y-69321778D01*
X165718877Y-69280917D01*
X165383952Y-69057127D01*
X165099123Y-68772298D01*
X164875333Y-68437373D01*
X164772049Y-68188022D01*
X164721184Y-68065224D01*
X164642600Y-67670156D01*
X164642600Y-67267344D01*
X164721184Y-66872276D01*
X164837413Y-66591674D01*
X164875333Y-66500127D01*
X165099123Y-66165202D01*
X165383952Y-65880373D01*
X165718877Y-65656583D01*
X165873026Y-65592733D01*
X166091026Y-65502434D01*
X166486094Y-65423850D01*
X166888906Y-65423850D01*
X167283974Y-65502434D01*
G37*
G36*
X180927604Y-66578335D02*
G01*
X181096126Y-66648139D01*
X181247791Y-66749478D01*
X181376772Y-66878459D01*
X181478111Y-67030124D01*
X181547915Y-67198646D01*
X181583500Y-67377547D01*
X181583500Y-67559953D01*
X181547915Y-67738854D01*
X181478111Y-67907376D01*
X181376772Y-68059041D01*
X181247791Y-68188022D01*
X181096126Y-68289361D01*
X180927604Y-68359165D01*
X180748703Y-68394750D01*
X180566297Y-68394750D01*
X180387396Y-68359165D01*
X180218874Y-68289361D01*
X180067209Y-68188022D01*
X179938228Y-68059041D01*
X179836889Y-67907376D01*
X179767085Y-67738854D01*
X179731500Y-67559953D01*
X179731500Y-67377547D01*
X179767085Y-67198646D01*
X179836889Y-67030124D01*
X179938228Y-66878459D01*
X180067209Y-66749478D01*
X180218874Y-66648139D01*
X180387396Y-66578335D01*
X180566297Y-66542750D01*
X180748703Y-66542750D01*
X180927604Y-66578335D01*
G37*
G36*
X210137604Y-66578335D02*
G01*
X210306126Y-66648139D01*
X210457791Y-66749478D01*
X210586772Y-66878459D01*
X210688111Y-67030124D01*
X210757915Y-67198646D01*
X210793500Y-67377547D01*
X210793500Y-67559953D01*
X210757915Y-67738854D01*
X210688111Y-67907376D01*
X210586772Y-68059041D01*
X210457791Y-68188022D01*
X210306126Y-68289361D01*
X210137604Y-68359165D01*
X209958703Y-68394750D01*
X209776297Y-68394750D01*
X209597396Y-68359165D01*
X209428874Y-68289361D01*
X209277209Y-68188022D01*
X209148228Y-68059041D01*
X209046889Y-67907376D01*
X208977085Y-67738854D01*
X208941500Y-67559953D01*
X208941500Y-67377547D01*
X208977085Y-67198646D01*
X209046889Y-67030124D01*
X209148228Y-66878459D01*
X209277209Y-66749478D01*
X209428874Y-66648139D01*
X209597396Y-66578335D01*
X209776297Y-66542750D01*
X209958703Y-66542750D01*
X210137604Y-66578335D01*
G37*
G36*
X199977604Y-66578335D02*
G01*
X200146126Y-66648139D01*
X200297791Y-66749478D01*
X200426772Y-66878459D01*
X200528111Y-67030124D01*
X200597915Y-67198646D01*
X200633500Y-67377547D01*
X200633500Y-67559953D01*
X200597915Y-67738854D01*
X200528111Y-67907376D01*
X200426772Y-68059041D01*
X200297791Y-68188022D01*
X200146126Y-68289361D01*
X199977604Y-68359165D01*
X199798703Y-68394750D01*
X199616297Y-68394750D01*
X199437396Y-68359165D01*
X199268874Y-68289361D01*
X199117209Y-68188022D01*
X198988228Y-68059041D01*
X198886889Y-67907376D01*
X198817085Y-67738854D01*
X198781500Y-67559953D01*
X198781500Y-67377547D01*
X198817085Y-67198646D01*
X198886889Y-67030124D01*
X198988228Y-66878459D01*
X199117209Y-66749478D01*
X199268874Y-66648139D01*
X199437396Y-66578335D01*
X199616297Y-66542750D01*
X199798703Y-66542750D01*
X199977604Y-66578335D01*
G37*
G36*
X172037604Y-66578335D02*
G01*
X172206126Y-66648139D01*
X172357791Y-66749478D01*
X172486772Y-66878459D01*
X172588111Y-67030124D01*
X172657915Y-67198646D01*
X172693500Y-67377547D01*
X172693500Y-67559953D01*
X172657915Y-67738854D01*
X172588111Y-67907376D01*
X172486772Y-68059041D01*
X172357791Y-68188022D01*
X172206126Y-68289361D01*
X172037604Y-68359165D01*
X171858703Y-68394750D01*
X171676297Y-68394750D01*
X171497396Y-68359165D01*
X171328874Y-68289361D01*
X171177209Y-68188022D01*
X171048228Y-68059041D01*
X170946889Y-67907376D01*
X170877085Y-67738854D01*
X170841500Y-67559953D01*
X170841500Y-67377547D01*
X170877085Y-67198646D01*
X170946889Y-67030124D01*
X171048228Y-66878459D01*
X171177209Y-66749478D01*
X171328874Y-66648139D01*
X171497396Y-66578335D01*
X171676297Y-66542750D01*
X171858703Y-66542750D01*
X172037604Y-66578335D01*
G37*
G36*
X161877604Y-66578335D02*
G01*
X162046126Y-66648139D01*
X162197791Y-66749478D01*
X162326772Y-66878459D01*
X162428111Y-67030124D01*
X162497915Y-67198646D01*
X162533500Y-67377547D01*
X162533500Y-67559953D01*
X162497915Y-67738854D01*
X162428111Y-67907376D01*
X162326772Y-68059041D01*
X162197791Y-68188022D01*
X162046126Y-68289361D01*
X161877604Y-68359165D01*
X161698703Y-68394750D01*
X161516297Y-68394750D01*
X161337396Y-68359165D01*
X161168874Y-68289361D01*
X161017209Y-68188022D01*
X160888228Y-68059041D01*
X160786889Y-67907376D01*
X160717085Y-67738854D01*
X160681500Y-67559953D01*
X160681500Y-67377547D01*
X160717085Y-67198646D01*
X160786889Y-67030124D01*
X160888228Y-66878459D01*
X161017209Y-66749478D01*
X161168874Y-66648139D01*
X161337396Y-66578335D01*
X161516297Y-66542750D01*
X161698703Y-66542750D01*
X161877604Y-66578335D01*
G37*
G36*
X191087604Y-66578335D02*
G01*
X191256126Y-66648139D01*
X191407791Y-66749478D01*
X191536772Y-66878459D01*
X191638111Y-67030124D01*
X191707915Y-67198646D01*
X191743500Y-67377547D01*
X191743500Y-67559953D01*
X191707915Y-67738854D01*
X191638111Y-67907376D01*
X191536772Y-68059041D01*
X191407791Y-68188022D01*
X191256126Y-68289361D01*
X191087604Y-68359165D01*
X190908703Y-68394750D01*
X190726297Y-68394750D01*
X190547396Y-68359165D01*
X190378874Y-68289361D01*
X190227209Y-68188022D01*
X190098228Y-68059041D01*
X189996889Y-67907376D01*
X189927085Y-67738854D01*
X189891500Y-67559953D01*
X189891500Y-67377547D01*
X189927085Y-67198646D01*
X189996889Y-67030124D01*
X190098228Y-66878459D01*
X190227209Y-66749478D01*
X190378874Y-66648139D01*
X190547396Y-66578335D01*
X190726297Y-66542750D01*
X190908703Y-66542750D01*
X191087604Y-66578335D01*
G37*
G36*
X196584468Y-66591065D02*
G01*
X196623138Y-66602796D01*
X196658777Y-66621846D01*
X196690017Y-66647483D01*
X196715654Y-66678723D01*
X196734704Y-66714362D01*
X196746435Y-66753032D01*
X196751000Y-66799388D01*
X196751000Y-67450612D01*
X196746435Y-67496968D01*
X196734704Y-67535638D01*
X196715654Y-67571277D01*
X196690017Y-67602517D01*
X196658777Y-67628154D01*
X196623138Y-67647204D01*
X196584468Y-67658935D01*
X196538112Y-67663500D01*
X195461888Y-67663500D01*
X195415532Y-67658935D01*
X195376862Y-67647204D01*
X195341223Y-67628154D01*
X195309983Y-67602517D01*
X195284346Y-67571277D01*
X195265296Y-67535638D01*
X195253565Y-67496968D01*
X195249000Y-67450612D01*
X195249000Y-66799388D01*
X195253565Y-66753032D01*
X195265296Y-66714362D01*
X195284346Y-66678723D01*
X195309983Y-66647483D01*
X195341223Y-66621846D01*
X195376862Y-66602796D01*
X195415532Y-66591065D01*
X195461888Y-66586500D01*
X196538112Y-66586500D01*
X196584468Y-66591065D01*
G37*
G36*
X163180085Y-63407552D02*
G01*
X163329910Y-63437354D01*
X163612174Y-63554271D01*
X163866205Y-63724009D01*
X164082241Y-63940045D01*
X164251979Y-64194076D01*
X164368896Y-64476340D01*
X164428500Y-64775990D01*
X164428500Y-65081510D01*
X164368896Y-65381160D01*
X164251979Y-65663424D01*
X164082241Y-65917455D01*
X163866205Y-66133491D01*
X163612174Y-66303229D01*
X163329910Y-66420146D01*
X163180085Y-66449948D01*
X163030261Y-66479750D01*
X162724739Y-66479750D01*
X162574915Y-66449948D01*
X162425090Y-66420146D01*
X162142826Y-66303229D01*
X161888795Y-66133491D01*
X161672759Y-65917455D01*
X161503021Y-65663424D01*
X161386104Y-65381160D01*
X161326500Y-65081510D01*
X161326500Y-64775990D01*
X161386104Y-64476340D01*
X161503021Y-64194076D01*
X161672759Y-63940045D01*
X161888795Y-63724009D01*
X162142826Y-63554271D01*
X162425090Y-63437354D01*
X162574915Y-63407552D01*
X162724739Y-63377750D01*
X163030261Y-63377750D01*
X163180085Y-63407552D01*
G37*
G36*
X201280085Y-63407552D02*
G01*
X201429910Y-63437354D01*
X201712174Y-63554271D01*
X201966205Y-63724009D01*
X202182241Y-63940045D01*
X202351979Y-64194076D01*
X202468896Y-64476340D01*
X202528500Y-64775990D01*
X202528500Y-65081510D01*
X202468896Y-65381160D01*
X202351979Y-65663424D01*
X202182241Y-65917455D01*
X201966205Y-66133491D01*
X201712174Y-66303229D01*
X201429910Y-66420146D01*
X201280085Y-66449948D01*
X201130261Y-66479750D01*
X200824739Y-66479750D01*
X200674915Y-66449948D01*
X200525090Y-66420146D01*
X200242826Y-66303229D01*
X199988795Y-66133491D01*
X199772759Y-65917455D01*
X199603021Y-65663424D01*
X199486104Y-65381160D01*
X199426500Y-65081510D01*
X199426500Y-64775990D01*
X199486104Y-64476340D01*
X199603021Y-64194076D01*
X199772759Y-63940045D01*
X199988795Y-63724009D01*
X200242826Y-63554271D01*
X200525090Y-63437354D01*
X200674915Y-63407552D01*
X200824739Y-63377750D01*
X201130261Y-63377750D01*
X201280085Y-63407552D01*
G37*
G36*
X182230085Y-63407552D02*
G01*
X182379910Y-63437354D01*
X182662174Y-63554271D01*
X182916205Y-63724009D01*
X183132241Y-63940045D01*
X183301979Y-64194076D01*
X183418896Y-64476340D01*
X183478500Y-64775990D01*
X183478500Y-65081510D01*
X183418896Y-65381160D01*
X183301979Y-65663424D01*
X183132241Y-65917455D01*
X182916205Y-66133491D01*
X182662174Y-66303229D01*
X182379910Y-66420146D01*
X182230085Y-66449948D01*
X182080261Y-66479750D01*
X181774739Y-66479750D01*
X181624915Y-66449948D01*
X181475090Y-66420146D01*
X181192826Y-66303229D01*
X180938795Y-66133491D01*
X180722759Y-65917455D01*
X180553021Y-65663424D01*
X180436104Y-65381160D01*
X180376500Y-65081510D01*
X180376500Y-64775990D01*
X180436104Y-64476340D01*
X180553021Y-64194076D01*
X180722759Y-63940045D01*
X180938795Y-63724009D01*
X181192826Y-63554271D01*
X181475090Y-63437354D01*
X181624915Y-63407552D01*
X181774739Y-63377750D01*
X182080261Y-63377750D01*
X182230085Y-63407552D01*
G37*
G36*
X160928500Y-66229750D02*
G01*
X158276500Y-66229750D01*
X158276500Y-63627750D01*
X160928500Y-63627750D01*
X160928500Y-66229750D01*
G37*
G36*
X179978500Y-66229750D02*
G01*
X177326500Y-66229750D01*
X177326500Y-63627750D01*
X179978500Y-63627750D01*
X179978500Y-66229750D01*
G37*
G36*
X199028500Y-66229750D02*
G01*
X196376500Y-66229750D01*
X196376500Y-63627750D01*
X199028500Y-63627750D01*
X199028500Y-66229750D01*
G37*
G36*
X188580085Y-60867552D02*
G01*
X188729910Y-60897354D01*
X189012174Y-61014271D01*
X189266205Y-61184009D01*
X189482241Y-61400045D01*
X189651979Y-61654076D01*
X189768896Y-61936340D01*
X189828500Y-62235990D01*
X189828500Y-62541510D01*
X189768896Y-62841160D01*
X189651979Y-63123424D01*
X189482241Y-63377455D01*
X189266205Y-63593491D01*
X189012174Y-63763229D01*
X188729910Y-63880146D01*
X188580085Y-63909948D01*
X188430261Y-63939750D01*
X188124739Y-63939750D01*
X187974915Y-63909948D01*
X187825090Y-63880146D01*
X187542826Y-63763229D01*
X187288795Y-63593491D01*
X187072759Y-63377455D01*
X186903021Y-63123424D01*
X186786104Y-62841160D01*
X186726500Y-62541510D01*
X186726500Y-62235990D01*
X186786104Y-61936340D01*
X186903021Y-61654076D01*
X187072759Y-61400045D01*
X187288795Y-61184009D01*
X187542826Y-61014271D01*
X187825090Y-60897354D01*
X187974915Y-60867552D01*
X188124739Y-60837750D01*
X188430261Y-60837750D01*
X188580085Y-60867552D01*
G37*
G36*
X207630085Y-60867552D02*
G01*
X207779910Y-60897354D01*
X208062174Y-61014271D01*
X208316205Y-61184009D01*
X208532241Y-61400045D01*
X208701979Y-61654076D01*
X208818896Y-61936340D01*
X208878500Y-62235990D01*
X208878500Y-62541510D01*
X208818896Y-62841160D01*
X208701979Y-63123424D01*
X208532241Y-63377455D01*
X208316205Y-63593491D01*
X208062174Y-63763229D01*
X207779910Y-63880146D01*
X207630085Y-63909948D01*
X207480261Y-63939750D01*
X207174739Y-63939750D01*
X207024915Y-63909948D01*
X206875090Y-63880146D01*
X206592826Y-63763229D01*
X206338795Y-63593491D01*
X206122759Y-63377455D01*
X205953021Y-63123424D01*
X205836104Y-62841160D01*
X205776500Y-62541510D01*
X205776500Y-62235990D01*
X205836104Y-61936340D01*
X205953021Y-61654076D01*
X206122759Y-61400045D01*
X206338795Y-61184009D01*
X206592826Y-61014271D01*
X206875090Y-60897354D01*
X207024915Y-60867552D01*
X207174739Y-60837750D01*
X207480261Y-60837750D01*
X207630085Y-60867552D01*
G37*
G36*
X169530085Y-60867552D02*
G01*
X169679910Y-60897354D01*
X169962174Y-61014271D01*
X170216205Y-61184009D01*
X170432241Y-61400045D01*
X170601979Y-61654076D01*
X170718896Y-61936340D01*
X170778500Y-62235990D01*
X170778500Y-62541510D01*
X170718896Y-62841160D01*
X170601979Y-63123424D01*
X170432241Y-63377455D01*
X170216205Y-63593491D01*
X169962174Y-63763229D01*
X169679910Y-63880146D01*
X169530085Y-63909948D01*
X169380261Y-63939750D01*
X169074739Y-63939750D01*
X168924915Y-63909948D01*
X168775090Y-63880146D01*
X168492826Y-63763229D01*
X168238795Y-63593491D01*
X168022759Y-63377455D01*
X167853021Y-63123424D01*
X167736104Y-62841160D01*
X167676500Y-62541510D01*
X167676500Y-62235990D01*
X167736104Y-61936340D01*
X167853021Y-61654076D01*
X168022759Y-61400045D01*
X168238795Y-61184009D01*
X168492826Y-61014271D01*
X168775090Y-60897354D01*
X168924915Y-60867552D01*
X169074739Y-60837750D01*
X169380261Y-60837750D01*
X169530085Y-60867552D01*
G37*
G36*
X211955500Y-63689750D02*
G01*
X209303500Y-63689750D01*
X209303500Y-61087750D01*
X211955500Y-61087750D01*
X211955500Y-63689750D01*
G37*
G36*
X192905500Y-63689750D02*
G01*
X190253500Y-63689750D01*
X190253500Y-61087750D01*
X192905500Y-61087750D01*
X192905500Y-63689750D01*
G37*
G36*
X173855500Y-63689750D02*
G01*
X171203500Y-63689750D01*
X171203500Y-61087750D01*
X173855500Y-61087750D01*
X173855500Y-63689750D01*
G37*
G36*
X211526968Y-58763565D02*
G01*
X211565638Y-58775296D01*
X211601277Y-58794346D01*
X211632517Y-58819983D01*
X211658154Y-58851223D01*
X211677204Y-58886862D01*
X211688935Y-58925532D01*
X211693500Y-58971888D01*
X211693500Y-60048112D01*
X211688935Y-60094468D01*
X211677204Y-60133138D01*
X211658154Y-60168777D01*
X211632517Y-60200017D01*
X211601277Y-60225654D01*
X211565638Y-60244704D01*
X211526968Y-60256435D01*
X211480612Y-60261000D01*
X210829388Y-60261000D01*
X210783032Y-60256435D01*
X210744362Y-60244704D01*
X210708723Y-60225654D01*
X210677483Y-60200017D01*
X210651846Y-60168777D01*
X210632796Y-60133138D01*
X210621065Y-60094468D01*
X210616500Y-60048112D01*
X210616500Y-58971888D01*
X210621065Y-58925532D01*
X210632796Y-58886862D01*
X210651846Y-58851223D01*
X210677483Y-58819983D01*
X210708723Y-58794346D01*
X210744362Y-58775296D01*
X210783032Y-58763565D01*
X210829388Y-58759000D01*
X211480612Y-58759000D01*
X211526968Y-58763565D01*
G37*
G36*
X209651968Y-58763565D02*
G01*
X209690638Y-58775296D01*
X209726277Y-58794346D01*
X209757517Y-58819983D01*
X209783154Y-58851223D01*
X209802204Y-58886862D01*
X209813935Y-58925532D01*
X209818500Y-58971888D01*
X209818500Y-60048112D01*
X209813935Y-60094468D01*
X209802204Y-60133138D01*
X209783154Y-60168777D01*
X209757517Y-60200017D01*
X209726277Y-60225654D01*
X209690638Y-60244704D01*
X209651968Y-60256435D01*
X209605612Y-60261000D01*
X208954388Y-60261000D01*
X208908032Y-60256435D01*
X208869362Y-60244704D01*
X208833723Y-60225654D01*
X208802483Y-60200017D01*
X208776846Y-60168777D01*
X208757796Y-60133138D01*
X208746065Y-60094468D01*
X208741500Y-60048112D01*
X208741500Y-58971888D01*
X208746065Y-58925532D01*
X208757796Y-58886862D01*
X208776846Y-58851223D01*
X208802483Y-58819983D01*
X208833723Y-58794346D01*
X208869362Y-58775296D01*
X208908032Y-58763565D01*
X208954388Y-58759000D01*
X209605612Y-58759000D01*
X209651968Y-58763565D01*
G37*
G36*
X185981968Y-58623565D02*
G01*
X186020638Y-58635296D01*
X186056277Y-58654346D01*
X186087517Y-58679983D01*
X186113154Y-58711223D01*
X186132204Y-58746862D01*
X186143935Y-58785532D01*
X186148500Y-58831888D01*
X186148500Y-59908112D01*
X186143935Y-59954468D01*
X186132204Y-59993138D01*
X186113154Y-60028777D01*
X186087517Y-60060017D01*
X186056277Y-60085654D01*
X186020638Y-60104704D01*
X185981968Y-60116435D01*
X185935612Y-60121000D01*
X185284388Y-60121000D01*
X185238032Y-60116435D01*
X185199362Y-60104704D01*
X185163723Y-60085654D01*
X185132483Y-60060017D01*
X185106846Y-60028777D01*
X185087796Y-59993138D01*
X185076065Y-59954468D01*
X185071500Y-59908112D01*
X185071500Y-58831888D01*
X185076065Y-58785532D01*
X185087796Y-58746862D01*
X185106846Y-58711223D01*
X185132483Y-58679983D01*
X185163723Y-58654346D01*
X185199362Y-58635296D01*
X185238032Y-58623565D01*
X185284388Y-58619000D01*
X185935612Y-58619000D01*
X185981968Y-58623565D01*
G37*
G36*
X187856968Y-58623565D02*
G01*
X187895638Y-58635296D01*
X187931277Y-58654346D01*
X187962517Y-58679983D01*
X187988154Y-58711223D01*
X188007204Y-58746862D01*
X188018935Y-58785532D01*
X188023500Y-58831888D01*
X188023500Y-59908112D01*
X188018935Y-59954468D01*
X188007204Y-59993138D01*
X187988154Y-60028777D01*
X187962517Y-60060017D01*
X187931277Y-60085654D01*
X187895638Y-60104704D01*
X187856968Y-60116435D01*
X187810612Y-60121000D01*
X187159388Y-60121000D01*
X187113032Y-60116435D01*
X187074362Y-60104704D01*
X187038723Y-60085654D01*
X187007483Y-60060017D01*
X186981846Y-60028777D01*
X186962796Y-59993138D01*
X186951065Y-59954468D01*
X186946500Y-59908112D01*
X186946500Y-58831888D01*
X186951065Y-58785532D01*
X186962796Y-58746862D01*
X186981846Y-58711223D01*
X187007483Y-58679983D01*
X187038723Y-58654346D01*
X187074362Y-58635296D01*
X187113032Y-58623565D01*
X187159388Y-58619000D01*
X187810612Y-58619000D01*
X187856968Y-58623565D01*
G37*
G36*
X205144750Y-59682250D02*
G01*
X196492750Y-59682250D01*
X196492750Y-58080250D01*
X205144750Y-58080250D01*
X205144750Y-59682250D01*
G37*
G36*
X192354468Y-56713065D02*
G01*
X192393138Y-56724796D01*
X192428777Y-56743846D01*
X192460017Y-56769483D01*
X192485654Y-56800723D01*
X192504704Y-56836362D01*
X192516435Y-56875032D01*
X192521000Y-56921388D01*
X192521000Y-57572612D01*
X192516435Y-57618968D01*
X192504704Y-57657638D01*
X192485654Y-57693277D01*
X192460017Y-57724517D01*
X192428777Y-57750154D01*
X192393138Y-57769204D01*
X192354468Y-57780935D01*
X192308112Y-57785500D01*
X191231888Y-57785500D01*
X191185532Y-57780935D01*
X191146862Y-57769204D01*
X191111223Y-57750154D01*
X191079983Y-57724517D01*
X191054346Y-57693277D01*
X191035296Y-57657638D01*
X191023565Y-57618968D01*
X191019000Y-57572612D01*
X191019000Y-56921388D01*
X191023565Y-56875032D01*
X191035296Y-56836362D01*
X191054346Y-56800723D01*
X191079983Y-56769483D01*
X191111223Y-56743846D01*
X191146862Y-56724796D01*
X191185532Y-56713065D01*
X191231888Y-56708500D01*
X192308112Y-56708500D01*
X192354468Y-56713065D01*
G37*
G36*
X188032250Y-57719750D02*
G01*
X186730250Y-57719750D01*
X186730250Y-56217750D01*
X188032250Y-56217750D01*
X188032250Y-57719750D01*
G37*
G36*
X186332250Y-57719750D02*
G01*
X185030250Y-57719750D01*
X185030250Y-56217750D01*
X186332250Y-56217750D01*
X186332250Y-57719750D01*
G37*
G36*
X210584468Y-56586065D02*
G01*
X210623138Y-56597796D01*
X210658777Y-56616846D01*
X210690017Y-56642483D01*
X210715654Y-56673723D01*
X210734704Y-56709362D01*
X210746435Y-56748032D01*
X210751000Y-56794388D01*
X210751000Y-57445612D01*
X210746435Y-57491968D01*
X210734704Y-57530638D01*
X210715654Y-57566277D01*
X210690017Y-57597517D01*
X210658777Y-57623154D01*
X210623138Y-57642204D01*
X210584468Y-57653935D01*
X210538112Y-57658500D01*
X209461888Y-57658500D01*
X209415532Y-57653935D01*
X209376862Y-57642204D01*
X209341223Y-57623154D01*
X209309983Y-57597517D01*
X209284346Y-57566277D01*
X209265296Y-57530638D01*
X209253565Y-57491968D01*
X209249000Y-57445612D01*
X209249000Y-56794388D01*
X209253565Y-56748032D01*
X209265296Y-56709362D01*
X209284346Y-56673723D01*
X209309983Y-56642483D01*
X209341223Y-56616846D01*
X209376862Y-56597796D01*
X209415532Y-56586065D01*
X209461888Y-56581500D01*
X210538112Y-56581500D01*
X210584468Y-56586065D01*
G37*
G36*
X207319750Y-57507250D02*
G01*
X205717750Y-57507250D01*
X205717750Y-48855250D01*
X207319750Y-48855250D01*
X207319750Y-57507250D01*
G37*
G36*
X195919750Y-57507250D02*
G01*
X194317750Y-57507250D01*
X194317750Y-48855250D01*
X195919750Y-48855250D01*
X195919750Y-57507250D01*
G37*
G36*
X192354468Y-54838065D02*
G01*
X192393138Y-54849796D01*
X192428777Y-54868846D01*
X192460017Y-54894483D01*
X192485654Y-54925723D01*
X192504704Y-54961362D01*
X192516435Y-55000032D01*
X192521000Y-55046388D01*
X192521000Y-55697612D01*
X192516435Y-55743968D01*
X192504704Y-55782638D01*
X192485654Y-55818277D01*
X192460017Y-55849517D01*
X192428777Y-55875154D01*
X192393138Y-55894204D01*
X192354468Y-55905935D01*
X192308112Y-55910500D01*
X191231888Y-55910500D01*
X191185532Y-55905935D01*
X191146862Y-55894204D01*
X191111223Y-55875154D01*
X191079983Y-55849517D01*
X191054346Y-55818277D01*
X191035296Y-55782638D01*
X191023565Y-55743968D01*
X191019000Y-55697612D01*
X191019000Y-55046388D01*
X191023565Y-55000032D01*
X191035296Y-54961362D01*
X191054346Y-54925723D01*
X191079983Y-54894483D01*
X191111223Y-54868846D01*
X191146862Y-54849796D01*
X191185532Y-54838065D01*
X191231888Y-54833500D01*
X192308112Y-54833500D01*
X192354468Y-54838065D01*
G37*
G36*
X210584468Y-54711065D02*
G01*
X210623138Y-54722796D01*
X210658777Y-54741846D01*
X210690017Y-54767483D01*
X210715654Y-54798723D01*
X210734704Y-54834362D01*
X210746435Y-54873032D01*
X210751000Y-54919388D01*
X210751000Y-55570612D01*
X210746435Y-55616968D01*
X210734704Y-55655638D01*
X210715654Y-55691277D01*
X210690017Y-55722517D01*
X210658777Y-55748154D01*
X210623138Y-55767204D01*
X210584468Y-55778935D01*
X210538112Y-55783500D01*
X209461888Y-55783500D01*
X209415532Y-55778935D01*
X209376862Y-55767204D01*
X209341223Y-55748154D01*
X209309983Y-55722517D01*
X209284346Y-55691277D01*
X209265296Y-55655638D01*
X209253565Y-55616968D01*
X209249000Y-55570612D01*
X209249000Y-54919388D01*
X209253565Y-54873032D01*
X209265296Y-54834362D01*
X209284346Y-54798723D01*
X209309983Y-54767483D01*
X209341223Y-54741846D01*
X209376862Y-54722796D01*
X209415532Y-54711065D01*
X209461888Y-54706500D01*
X210538112Y-54706500D01*
X210584468Y-54711065D01*
G37*
G36*
X186332250Y-55519750D02*
G01*
X185030250Y-55519750D01*
X185030250Y-54017750D01*
X186332250Y-54017750D01*
X186332250Y-55519750D01*
G37*
G36*
X188032250Y-55519750D02*
G01*
X186730250Y-55519750D01*
X186730250Y-54017750D01*
X188032250Y-54017750D01*
X188032250Y-55519750D01*
G37*
G36*
X210584468Y-50466065D02*
G01*
X210623138Y-50477796D01*
X210658777Y-50496846D01*
X210690017Y-50522483D01*
X210715654Y-50553723D01*
X210734704Y-50589362D01*
X210746435Y-50628032D01*
X210751000Y-50674388D01*
X210751000Y-51325612D01*
X210746435Y-51371968D01*
X210734704Y-51410638D01*
X210715654Y-51446277D01*
X210690017Y-51477517D01*
X210658777Y-51503154D01*
X210623138Y-51522204D01*
X210584468Y-51533935D01*
X210538112Y-51538500D01*
X209461888Y-51538500D01*
X209415532Y-51533935D01*
X209376862Y-51522204D01*
X209341223Y-51503154D01*
X209309983Y-51477517D01*
X209284346Y-51446277D01*
X209265296Y-51410638D01*
X209253565Y-51371968D01*
X209249000Y-51325612D01*
X209249000Y-50674388D01*
X209253565Y-50628032D01*
X209265296Y-50589362D01*
X209284346Y-50553723D01*
X209309983Y-50522483D01*
X209341223Y-50496846D01*
X209376862Y-50477796D01*
X209415532Y-50466065D01*
X209461888Y-50461500D01*
X210538112Y-50461500D01*
X210584468Y-50466065D01*
G37*
G36*
X186333974Y-46452434D02*
G01*
X186551974Y-46542733D01*
X186706123Y-46606583D01*
X187041048Y-46830373D01*
X187325877Y-47115202D01*
X187549667Y-47450127D01*
X187582062Y-47528336D01*
X187703816Y-47822276D01*
X187782400Y-48217344D01*
X187782400Y-48620156D01*
X187703816Y-49015224D01*
X187652951Y-49138022D01*
X187549667Y-49387373D01*
X187325877Y-49722298D01*
X187041048Y-50007127D01*
X186706123Y-50230917D01*
X186551974Y-50294767D01*
X186333974Y-50385066D01*
X185938906Y-50463650D01*
X185536094Y-50463650D01*
X185141026Y-50385066D01*
X184923026Y-50294767D01*
X184768877Y-50230917D01*
X184433952Y-50007127D01*
X184149123Y-49722298D01*
X183925333Y-49387373D01*
X183822049Y-49138022D01*
X183771184Y-49015224D01*
X183692600Y-48620156D01*
X183692600Y-48217344D01*
X183771184Y-47822276D01*
X183892938Y-47528336D01*
X183925333Y-47450127D01*
X184149123Y-47115202D01*
X184433952Y-46830373D01*
X184768877Y-46606583D01*
X184923026Y-46542733D01*
X185141026Y-46452434D01*
X185536094Y-46373850D01*
X185938906Y-46373850D01*
X186333974Y-46452434D01*
G37*
G36*
X210584468Y-48591065D02*
G01*
X210623138Y-48602796D01*
X210658777Y-48621846D01*
X210690017Y-48647483D01*
X210715654Y-48678723D01*
X210734704Y-48714362D01*
X210746435Y-48753032D01*
X210751000Y-48799388D01*
X210751000Y-49450612D01*
X210746435Y-49496968D01*
X210734704Y-49535638D01*
X210715654Y-49571277D01*
X210690017Y-49602517D01*
X210658777Y-49628154D01*
X210623138Y-49647204D01*
X210584468Y-49658935D01*
X210538112Y-49663500D01*
X209461888Y-49663500D01*
X209415532Y-49658935D01*
X209376862Y-49647204D01*
X209341223Y-49628154D01*
X209309983Y-49602517D01*
X209284346Y-49571277D01*
X209265296Y-49535638D01*
X209253565Y-49496968D01*
X209249000Y-49450612D01*
X209249000Y-48799388D01*
X209253565Y-48753032D01*
X209265296Y-48714362D01*
X209284346Y-48678723D01*
X209309983Y-48647483D01*
X209341223Y-48621846D01*
X209376862Y-48602796D01*
X209415532Y-48591065D01*
X209461888Y-48586500D01*
X210538112Y-48586500D01*
X210584468Y-48591065D01*
G37*
G36*
X180927604Y-47528335D02*
G01*
X181096126Y-47598139D01*
X181247791Y-47699478D01*
X181376772Y-47828459D01*
X181478111Y-47980124D01*
X181547915Y-48148646D01*
X181583500Y-48327547D01*
X181583500Y-48509953D01*
X181547915Y-48688854D01*
X181478111Y-48857376D01*
X181376772Y-49009041D01*
X181247791Y-49138022D01*
X181096126Y-49239361D01*
X180927604Y-49309165D01*
X180748703Y-49344750D01*
X180566297Y-49344750D01*
X180387396Y-49309165D01*
X180218874Y-49239361D01*
X180067209Y-49138022D01*
X179938228Y-49009041D01*
X179836889Y-48857376D01*
X179767085Y-48688854D01*
X179731500Y-48509953D01*
X179731500Y-48327547D01*
X179767085Y-48148646D01*
X179836889Y-47980124D01*
X179938228Y-47828459D01*
X180067209Y-47699478D01*
X180218874Y-47598139D01*
X180387396Y-47528335D01*
X180566297Y-47492750D01*
X180748703Y-47492750D01*
X180927604Y-47528335D01*
G37*
G36*
X191087604Y-47528335D02*
G01*
X191256126Y-47598139D01*
X191407791Y-47699478D01*
X191536772Y-47828459D01*
X191638111Y-47980124D01*
X191707915Y-48148646D01*
X191743500Y-48327547D01*
X191743500Y-48509953D01*
X191707915Y-48688854D01*
X191638111Y-48857376D01*
X191536772Y-49009041D01*
X191407791Y-49138022D01*
X191256126Y-49239361D01*
X191087604Y-49309165D01*
X190908703Y-49344750D01*
X190726297Y-49344750D01*
X190547396Y-49309165D01*
X190378874Y-49239361D01*
X190227209Y-49138022D01*
X190098228Y-49009041D01*
X189996889Y-48857376D01*
X189927085Y-48688854D01*
X189891500Y-48509953D01*
X189891500Y-48327547D01*
X189927085Y-48148646D01*
X189996889Y-47980124D01*
X190098228Y-47828459D01*
X190227209Y-47699478D01*
X190378874Y-47598139D01*
X190547396Y-47528335D01*
X190726297Y-47492750D01*
X190908703Y-47492750D01*
X191087604Y-47528335D01*
G37*
G36*
X205144750Y-48282250D02*
G01*
X196492750Y-48282250D01*
X196492750Y-46680250D01*
X205144750Y-46680250D01*
X205144750Y-48282250D01*
G37*
G36*
X182230085Y-44357552D02*
G01*
X182379910Y-44387354D01*
X182662174Y-44504271D01*
X182916205Y-44674009D01*
X183132241Y-44890045D01*
X183301979Y-45144076D01*
X183418896Y-45426340D01*
X183478500Y-45725990D01*
X183478500Y-46031510D01*
X183418896Y-46331160D01*
X183301979Y-46613424D01*
X183132241Y-46867455D01*
X182916205Y-47083491D01*
X182662174Y-47253229D01*
X182379910Y-47370146D01*
X182230085Y-47399948D01*
X182080261Y-47429750D01*
X181774739Y-47429750D01*
X181624915Y-47399948D01*
X181475090Y-47370146D01*
X181192826Y-47253229D01*
X180938795Y-47083491D01*
X180722759Y-46867455D01*
X180553021Y-46613424D01*
X180436104Y-46331160D01*
X180376500Y-46031510D01*
X180376500Y-45725990D01*
X180436104Y-45426340D01*
X180553021Y-45144076D01*
X180722759Y-44890045D01*
X180938795Y-44674009D01*
X181192826Y-44504271D01*
X181475090Y-44387354D01*
X181624915Y-44357552D01*
X181774739Y-44327750D01*
X182080261Y-44327750D01*
X182230085Y-44357552D01*
G37*
G36*
X179978500Y-47179750D02*
G01*
X177326500Y-47179750D01*
X177326500Y-44577750D01*
X179978500Y-44577750D01*
X179978500Y-47179750D01*
G37*
G36*
X188580085Y-41817552D02*
G01*
X188729910Y-41847354D01*
X189012174Y-41964271D01*
X189266205Y-42134009D01*
X189482241Y-42350045D01*
X189651979Y-42604076D01*
X189768896Y-42886340D01*
X189828500Y-43185990D01*
X189828500Y-43491510D01*
X189768896Y-43791160D01*
X189651979Y-44073424D01*
X189482241Y-44327455D01*
X189266205Y-44543491D01*
X189012174Y-44713229D01*
X188729910Y-44830146D01*
X188580085Y-44859948D01*
X188430261Y-44889750D01*
X188124739Y-44889750D01*
X187974915Y-44859948D01*
X187825090Y-44830146D01*
X187542826Y-44713229D01*
X187288795Y-44543491D01*
X187072759Y-44327455D01*
X186903021Y-44073424D01*
X186786104Y-43791160D01*
X186726500Y-43491510D01*
X186726500Y-43185990D01*
X186786104Y-42886340D01*
X186903021Y-42604076D01*
X187072759Y-42350045D01*
X187288795Y-42134009D01*
X187542826Y-41964271D01*
X187825090Y-41847354D01*
X187974915Y-41817552D01*
X188124739Y-41787750D01*
X188430261Y-41787750D01*
X188580085Y-41817552D01*
G37*
G36*
X202371968Y-43253565D02*
G01*
X202410638Y-43265296D01*
X202446277Y-43284346D01*
X202477517Y-43309983D01*
X202503154Y-43341223D01*
X202522204Y-43376862D01*
X202533935Y-43415532D01*
X202538500Y-43461888D01*
X202538500Y-44538112D01*
X202533935Y-44584468D01*
X202522204Y-44623138D01*
X202503154Y-44658777D01*
X202477517Y-44690017D01*
X202446277Y-44715654D01*
X202410638Y-44734704D01*
X202371968Y-44746435D01*
X202325612Y-44751000D01*
X201674388Y-44751000D01*
X201628032Y-44746435D01*
X201589362Y-44734704D01*
X201553723Y-44715654D01*
X201522483Y-44690017D01*
X201496846Y-44658777D01*
X201477796Y-44623138D01*
X201466065Y-44584468D01*
X201461500Y-44538112D01*
X201461500Y-43461888D01*
X201466065Y-43415532D01*
X201477796Y-43376862D01*
X201496846Y-43341223D01*
X201522483Y-43309983D01*
X201553723Y-43284346D01*
X201589362Y-43265296D01*
X201628032Y-43253565D01*
X201674388Y-43249000D01*
X202325612Y-43249000D01*
X202371968Y-43253565D01*
G37*
G36*
X204246968Y-43253565D02*
G01*
X204285638Y-43265296D01*
X204321277Y-43284346D01*
X204352517Y-43309983D01*
X204378154Y-43341223D01*
X204397204Y-43376862D01*
X204408935Y-43415532D01*
X204413500Y-43461888D01*
X204413500Y-44538112D01*
X204408935Y-44584468D01*
X204397204Y-44623138D01*
X204378154Y-44658777D01*
X204352517Y-44690017D01*
X204321277Y-44715654D01*
X204285638Y-44734704D01*
X204246968Y-44746435D01*
X204200612Y-44751000D01*
X203549388Y-44751000D01*
X203503032Y-44746435D01*
X203464362Y-44734704D01*
X203428723Y-44715654D01*
X203397483Y-44690017D01*
X203371846Y-44658777D01*
X203352796Y-44623138D01*
X203341065Y-44584468D01*
X203336500Y-44538112D01*
X203336500Y-43461888D01*
X203341065Y-43415532D01*
X203352796Y-43376862D01*
X203371846Y-43341223D01*
X203397483Y-43309983D01*
X203428723Y-43284346D01*
X203464362Y-43265296D01*
X203503032Y-43253565D01*
X203549388Y-43249000D01*
X204200612Y-43249000D01*
X204246968Y-43253565D01*
G37*
G36*
X196496968Y-43253565D02*
G01*
X196535638Y-43265296D01*
X196571277Y-43284346D01*
X196602517Y-43309983D01*
X196628154Y-43341223D01*
X196647204Y-43376862D01*
X196658935Y-43415532D01*
X196663500Y-43461888D01*
X196663500Y-44538112D01*
X196658935Y-44584468D01*
X196647204Y-44623138D01*
X196628154Y-44658777D01*
X196602517Y-44690017D01*
X196571277Y-44715654D01*
X196535638Y-44734704D01*
X196496968Y-44746435D01*
X196450612Y-44751000D01*
X195799388Y-44751000D01*
X195753032Y-44746435D01*
X195714362Y-44734704D01*
X195678723Y-44715654D01*
X195647483Y-44690017D01*
X195621846Y-44658777D01*
X195602796Y-44623138D01*
X195591065Y-44584468D01*
X195586500Y-44538112D01*
X195586500Y-43461888D01*
X195591065Y-43415532D01*
X195602796Y-43376862D01*
X195621846Y-43341223D01*
X195647483Y-43309983D01*
X195678723Y-43284346D01*
X195714362Y-43265296D01*
X195753032Y-43253565D01*
X195799388Y-43249000D01*
X196450612Y-43249000D01*
X196496968Y-43253565D01*
G37*
G36*
X198371968Y-43253565D02*
G01*
X198410638Y-43265296D01*
X198446277Y-43284346D01*
X198477517Y-43309983D01*
X198503154Y-43341223D01*
X198522204Y-43376862D01*
X198533935Y-43415532D01*
X198538500Y-43461888D01*
X198538500Y-44538112D01*
X198533935Y-44584468D01*
X198522204Y-44623138D01*
X198503154Y-44658777D01*
X198477517Y-44690017D01*
X198446277Y-44715654D01*
X198410638Y-44734704D01*
X198371968Y-44746435D01*
X198325612Y-44751000D01*
X197674388Y-44751000D01*
X197628032Y-44746435D01*
X197589362Y-44734704D01*
X197553723Y-44715654D01*
X197522483Y-44690017D01*
X197496846Y-44658777D01*
X197477796Y-44623138D01*
X197466065Y-44584468D01*
X197461500Y-44538112D01*
X197461500Y-43461888D01*
X197466065Y-43415532D01*
X197477796Y-43376862D01*
X197496846Y-43341223D01*
X197522483Y-43309983D01*
X197553723Y-43284346D01*
X197589362Y-43265296D01*
X197628032Y-43253565D01*
X197674388Y-43249000D01*
X198325612Y-43249000D01*
X198371968Y-43253565D01*
G37*
G36*
X192905500Y-44639750D02*
G01*
X190253500Y-44639750D01*
X190253500Y-42037750D01*
X192905500Y-42037750D01*
X192905500Y-44639750D01*
G37*
G36*
X181525515Y-31086973D02*
G01*
X181629379Y-31118479D01*
X181656555Y-31133005D01*
X181725100Y-31169643D01*
X181809001Y-31238499D01*
X181877857Y-31322400D01*
X181896854Y-31357942D01*
X181929021Y-31418121D01*
X181960527Y-31521985D01*
X181968500Y-31602933D01*
X181968500Y-32757067D01*
X181960527Y-32838015D01*
X181929021Y-32941879D01*
X181877856Y-33037600D01*
X181809001Y-33121501D01*
X181740145Y-33178009D01*
X181725099Y-33190357D01*
X181673407Y-33217987D01*
X181629378Y-33241521D01*
X181525514Y-33273027D01*
X181417500Y-33283666D01*
X181309485Y-33273027D01*
X181205621Y-33241521D01*
X181161593Y-33217987D01*
X181109901Y-33190357D01*
X181097143Y-33179887D01*
X181025999Y-33121501D01*
X180957144Y-33037600D01*
X180905979Y-32941878D01*
X180874473Y-32838014D01*
X180866500Y-32757066D01*
X180866501Y-31602933D01*
X180874474Y-31521985D01*
X180905980Y-31418121D01*
X180938147Y-31357942D01*
X180957144Y-31322400D01*
X181026000Y-31238499D01*
X181109901Y-31169643D01*
X181178446Y-31133005D01*
X181205622Y-31118479D01*
X181309486Y-31086973D01*
X181417500Y-31076334D01*
X181525515Y-31086973D01*
G37*
G36*
X190165515Y-31086973D02*
G01*
X190269379Y-31118479D01*
X190296555Y-31133005D01*
X190365100Y-31169643D01*
X190449001Y-31238499D01*
X190517857Y-31322400D01*
X190536854Y-31357942D01*
X190569021Y-31418121D01*
X190600527Y-31521985D01*
X190608500Y-31602933D01*
X190608500Y-32757067D01*
X190600527Y-32838015D01*
X190569021Y-32941879D01*
X190517856Y-33037600D01*
X190449001Y-33121501D01*
X190380145Y-33178009D01*
X190365099Y-33190357D01*
X190313407Y-33217987D01*
X190269378Y-33241521D01*
X190165514Y-33273027D01*
X190057500Y-33283666D01*
X189949485Y-33273027D01*
X189845621Y-33241521D01*
X189801593Y-33217987D01*
X189749901Y-33190357D01*
X189737143Y-33179887D01*
X189665999Y-33121501D01*
X189597144Y-33037600D01*
X189545979Y-32941878D01*
X189514473Y-32838014D01*
X189506500Y-32757066D01*
X189506501Y-31602933D01*
X189514474Y-31521985D01*
X189545980Y-31418121D01*
X189578147Y-31357942D01*
X189597144Y-31322400D01*
X189666000Y-31238499D01*
X189749901Y-31169643D01*
X189818446Y-31133005D01*
X189845622Y-31118479D01*
X189949486Y-31086973D01*
X190057500Y-31076334D01*
X190165515Y-31086973D01*
G37*
G36*
X182957172Y-31288449D02*
G01*
X182957174Y-31288450D01*
X182957175Y-31288450D01*
X183025603Y-31316793D01*
X183087186Y-31357942D01*
X183139558Y-31410314D01*
X183180707Y-31471897D01*
X183209050Y-31540325D01*
X183223500Y-31612967D01*
X183223500Y-31687033D01*
X183209050Y-31759675D01*
X183180707Y-31828103D01*
X183139558Y-31889686D01*
X183087186Y-31942058D01*
X183025603Y-31983207D01*
X182957175Y-32011550D01*
X182957174Y-32011550D01*
X182957172Y-32011551D01*
X182884534Y-32026000D01*
X182810466Y-32026000D01*
X182737828Y-32011551D01*
X182737826Y-32011550D01*
X182737825Y-32011550D01*
X182669397Y-31983207D01*
X182607814Y-31942058D01*
X182555442Y-31889686D01*
X182514293Y-31828103D01*
X182485950Y-31759675D01*
X182471500Y-31687033D01*
X182471500Y-31612967D01*
X182485950Y-31540325D01*
X182514293Y-31471897D01*
X182555442Y-31410314D01*
X182607814Y-31357942D01*
X182669397Y-31316793D01*
X182737825Y-31288450D01*
X182737826Y-31288450D01*
X182737828Y-31288449D01*
X182810466Y-31274000D01*
X182884534Y-31274000D01*
X182957172Y-31288449D01*
G37*
G36*
X188737172Y-31288449D02*
G01*
X188737174Y-31288450D01*
X188737175Y-31288450D01*
X188805603Y-31316793D01*
X188867186Y-31357942D01*
X188919558Y-31410314D01*
X188960707Y-31471897D01*
X188989050Y-31540325D01*
X189003500Y-31612967D01*
X189003500Y-31687033D01*
X188989050Y-31759675D01*
X188960707Y-31828103D01*
X188919558Y-31889686D01*
X188867186Y-31942058D01*
X188805603Y-31983207D01*
X188737175Y-32011550D01*
X188737174Y-32011550D01*
X188737172Y-32011551D01*
X188664534Y-32026000D01*
X188590466Y-32026000D01*
X188517828Y-32011551D01*
X188517826Y-32011550D01*
X188517825Y-32011550D01*
X188449397Y-31983207D01*
X188387814Y-31942058D01*
X188335442Y-31889686D01*
X188294293Y-31828103D01*
X188265950Y-31759675D01*
X188251500Y-31687033D01*
X188251500Y-31612967D01*
X188265950Y-31540325D01*
X188294293Y-31471897D01*
X188335442Y-31410314D01*
X188387814Y-31357942D01*
X188449397Y-31316793D01*
X188517825Y-31288450D01*
X188517826Y-31288450D01*
X188517828Y-31288449D01*
X188590466Y-31274000D01*
X188664534Y-31274000D01*
X188737172Y-31288449D01*
G37*
G36*
X190165515Y-27156973D02*
G01*
X190269379Y-27188479D01*
X190296555Y-27203005D01*
X190365100Y-27239643D01*
X190449001Y-27308499D01*
X190517857Y-27392400D01*
X190554495Y-27460945D01*
X190569021Y-27488121D01*
X190600527Y-27591985D01*
X190608500Y-27672933D01*
X190608500Y-28327067D01*
X190600527Y-28408015D01*
X190569021Y-28511879D01*
X190517856Y-28607600D01*
X190449001Y-28691501D01*
X190380145Y-28748009D01*
X190365099Y-28760357D01*
X190313407Y-28787987D01*
X190269378Y-28811521D01*
X190165514Y-28843027D01*
X190057500Y-28853666D01*
X189949485Y-28843027D01*
X189845621Y-28811521D01*
X189801593Y-28787987D01*
X189749901Y-28760357D01*
X189737143Y-28749887D01*
X189665999Y-28691501D01*
X189597144Y-28607600D01*
X189545979Y-28511878D01*
X189514473Y-28408014D01*
X189506500Y-28327066D01*
X189506500Y-27672933D01*
X189514473Y-27591985D01*
X189545980Y-27488121D01*
X189545982Y-27488118D01*
X189597145Y-27392399D01*
X189666000Y-27308499D01*
X189749901Y-27239643D01*
X189818446Y-27203005D01*
X189845622Y-27188479D01*
X189949486Y-27156973D01*
X190057500Y-27146334D01*
X190165515Y-27156973D01*
G37*
G36*
X181525515Y-27156973D02*
G01*
X181629379Y-27188479D01*
X181656555Y-27203005D01*
X181725100Y-27239643D01*
X181809001Y-27308499D01*
X181877857Y-27392400D01*
X181914495Y-27460945D01*
X181929021Y-27488121D01*
X181960527Y-27591985D01*
X181968500Y-27672933D01*
X181968500Y-28327067D01*
X181960527Y-28408015D01*
X181929021Y-28511879D01*
X181877856Y-28607600D01*
X181809001Y-28691501D01*
X181740145Y-28748009D01*
X181725099Y-28760357D01*
X181673407Y-28787987D01*
X181629378Y-28811521D01*
X181525514Y-28843027D01*
X181417500Y-28853666D01*
X181309485Y-28843027D01*
X181205621Y-28811521D01*
X181161593Y-28787987D01*
X181109901Y-28760357D01*
X181097143Y-28749887D01*
X181025999Y-28691501D01*
X180957144Y-28607600D01*
X180905979Y-28511878D01*
X180874473Y-28408014D01*
X180866500Y-28327066D01*
X180866500Y-27672933D01*
X180874473Y-27591985D01*
X180905980Y-27488121D01*
X180905982Y-27488118D01*
X180957145Y-27392399D01*
X181026000Y-27308499D01*
X181109901Y-27239643D01*
X181178446Y-27203005D01*
X181205622Y-27188479D01*
X181309486Y-27156973D01*
X181417500Y-27146334D01*
X181525515Y-27156973D01*
G37*
M02*
