G04 #@! TF.GenerationSoftware,KiCad,Pcbnew,(5.1.5)-3*
G04 #@! TF.CreationDate,2020-03-25T17:20:55+01:00*
G04 #@! TF.ProjectId,4Keys,344b6579-732e-46b6-9963-61645f706362,rev?*
G04 #@! TF.SameCoordinates,Original*
G04 #@! TF.FileFunction,Copper,L1,Top*
G04 #@! TF.FilePolarity,Positive*
%FSLAX46Y46*%
G04 Gerber Fmt 4.6, Leading zero omitted, Abs format (unit mm)*
G04 Created by KiCad (PCBNEW (5.1.5)-3) date 2020-03-25 17:20:55*
%MOMM*%
%LPD*%
G04 APERTURE LIST*
%ADD10O,1.700000X1.950000*%
%ADD11C,0.100000*%
%ADD12R,0.600000X2.000000*%
%ADD13R,0.300000X2.000000*%
%ADD14O,1.000000X2.100000*%
%ADD15O,1.000000X1.600000*%
%ADD16R,1.400000X1.000000*%
%ADD17R,1.400000X1.200000*%
%ADD18C,0.800000*%
%ADD19C,0.381000*%
%ADD20C,0.254000*%
G04 APERTURE END LIST*
D10*
X235084000Y-74560000D03*
X232584000Y-74560000D03*
X230084000Y-74560000D03*
G04 #@! TA.AperFunction,ComponentPad*
D11*
G36*
X228208504Y-73586204D02*
G01*
X228232773Y-73589804D01*
X228256571Y-73595765D01*
X228279671Y-73604030D01*
X228301849Y-73614520D01*
X228322893Y-73627133D01*
X228342598Y-73641747D01*
X228360777Y-73658223D01*
X228377253Y-73676402D01*
X228391867Y-73696107D01*
X228404480Y-73717151D01*
X228414970Y-73739329D01*
X228423235Y-73762429D01*
X228429196Y-73786227D01*
X228432796Y-73810496D01*
X228434000Y-73835000D01*
X228434000Y-75285000D01*
X228432796Y-75309504D01*
X228429196Y-75333773D01*
X228423235Y-75357571D01*
X228414970Y-75380671D01*
X228404480Y-75402849D01*
X228391867Y-75423893D01*
X228377253Y-75443598D01*
X228360777Y-75461777D01*
X228342598Y-75478253D01*
X228322893Y-75492867D01*
X228301849Y-75505480D01*
X228279671Y-75515970D01*
X228256571Y-75524235D01*
X228232773Y-75530196D01*
X228208504Y-75533796D01*
X228184000Y-75535000D01*
X226984000Y-75535000D01*
X226959496Y-75533796D01*
X226935227Y-75530196D01*
X226911429Y-75524235D01*
X226888329Y-75515970D01*
X226866151Y-75505480D01*
X226845107Y-75492867D01*
X226825402Y-75478253D01*
X226807223Y-75461777D01*
X226790747Y-75443598D01*
X226776133Y-75423893D01*
X226763520Y-75402849D01*
X226753030Y-75380671D01*
X226744765Y-75357571D01*
X226738804Y-75333773D01*
X226735204Y-75309504D01*
X226734000Y-75285000D01*
X226734000Y-73835000D01*
X226735204Y-73810496D01*
X226738804Y-73786227D01*
X226744765Y-73762429D01*
X226753030Y-73739329D01*
X226763520Y-73717151D01*
X226776133Y-73696107D01*
X226790747Y-73676402D01*
X226807223Y-73658223D01*
X226825402Y-73641747D01*
X226845107Y-73627133D01*
X226866151Y-73614520D01*
X226888329Y-73604030D01*
X226911429Y-73595765D01*
X226935227Y-73589804D01*
X226959496Y-73586204D01*
X226984000Y-73585000D01*
X228184000Y-73585000D01*
X228208504Y-73586204D01*
G37*
G04 #@! TD.AperFunction*
D12*
X182512500Y-33370000D03*
X188962500Y-33370000D03*
X183287500Y-33370000D03*
X188187500Y-33370000D03*
D13*
X187487500Y-33370000D03*
X183987500Y-33370000D03*
X186987500Y-33370000D03*
X184487500Y-33370000D03*
X186487500Y-33370000D03*
X184987500Y-33370000D03*
X185487500Y-33370000D03*
X185987500Y-33370000D03*
D14*
X190057500Y-32180000D03*
X181417500Y-32180000D03*
D15*
X190057500Y-28000000D03*
X181417500Y-28000000D03*
G04 #@! TA.AperFunction,SMDPad,CuDef*
D11*
G36*
X183500142Y-37508674D02*
G01*
X183523803Y-37512184D01*
X183547007Y-37517996D01*
X183569529Y-37526054D01*
X183591153Y-37536282D01*
X183611670Y-37548579D01*
X183630883Y-37562829D01*
X183648607Y-37578893D01*
X183664671Y-37596617D01*
X183678921Y-37615830D01*
X183691218Y-37636347D01*
X183701446Y-37657971D01*
X183709504Y-37680493D01*
X183715316Y-37703697D01*
X183718826Y-37727358D01*
X183720000Y-37751250D01*
X183720000Y-38238750D01*
X183718826Y-38262642D01*
X183715316Y-38286303D01*
X183709504Y-38309507D01*
X183701446Y-38332029D01*
X183691218Y-38353653D01*
X183678921Y-38374170D01*
X183664671Y-38393383D01*
X183648607Y-38411107D01*
X183630883Y-38427171D01*
X183611670Y-38441421D01*
X183591153Y-38453718D01*
X183569529Y-38463946D01*
X183547007Y-38472004D01*
X183523803Y-38477816D01*
X183500142Y-38481326D01*
X183476250Y-38482500D01*
X182563750Y-38482500D01*
X182539858Y-38481326D01*
X182516197Y-38477816D01*
X182492993Y-38472004D01*
X182470471Y-38463946D01*
X182448847Y-38453718D01*
X182428330Y-38441421D01*
X182409117Y-38427171D01*
X182391393Y-38411107D01*
X182375329Y-38393383D01*
X182361079Y-38374170D01*
X182348782Y-38353653D01*
X182338554Y-38332029D01*
X182330496Y-38309507D01*
X182324684Y-38286303D01*
X182321174Y-38262642D01*
X182320000Y-38238750D01*
X182320000Y-37751250D01*
X182321174Y-37727358D01*
X182324684Y-37703697D01*
X182330496Y-37680493D01*
X182338554Y-37657971D01*
X182348782Y-37636347D01*
X182361079Y-37615830D01*
X182375329Y-37596617D01*
X182391393Y-37578893D01*
X182409117Y-37562829D01*
X182428330Y-37548579D01*
X182448847Y-37536282D01*
X182470471Y-37526054D01*
X182492993Y-37517996D01*
X182516197Y-37512184D01*
X182539858Y-37508674D01*
X182563750Y-37507500D01*
X183476250Y-37507500D01*
X183500142Y-37508674D01*
G37*
G04 #@! TD.AperFunction*
G04 #@! TA.AperFunction,SMDPad,CuDef*
G36*
X183500142Y-35633674D02*
G01*
X183523803Y-35637184D01*
X183547007Y-35642996D01*
X183569529Y-35651054D01*
X183591153Y-35661282D01*
X183611670Y-35673579D01*
X183630883Y-35687829D01*
X183648607Y-35703893D01*
X183664671Y-35721617D01*
X183678921Y-35740830D01*
X183691218Y-35761347D01*
X183701446Y-35782971D01*
X183709504Y-35805493D01*
X183715316Y-35828697D01*
X183718826Y-35852358D01*
X183720000Y-35876250D01*
X183720000Y-36363750D01*
X183718826Y-36387642D01*
X183715316Y-36411303D01*
X183709504Y-36434507D01*
X183701446Y-36457029D01*
X183691218Y-36478653D01*
X183678921Y-36499170D01*
X183664671Y-36518383D01*
X183648607Y-36536107D01*
X183630883Y-36552171D01*
X183611670Y-36566421D01*
X183591153Y-36578718D01*
X183569529Y-36588946D01*
X183547007Y-36597004D01*
X183523803Y-36602816D01*
X183500142Y-36606326D01*
X183476250Y-36607500D01*
X182563750Y-36607500D01*
X182539858Y-36606326D01*
X182516197Y-36602816D01*
X182492993Y-36597004D01*
X182470471Y-36588946D01*
X182448847Y-36578718D01*
X182428330Y-36566421D01*
X182409117Y-36552171D01*
X182391393Y-36536107D01*
X182375329Y-36518383D01*
X182361079Y-36499170D01*
X182348782Y-36478653D01*
X182338554Y-36457029D01*
X182330496Y-36434507D01*
X182324684Y-36411303D01*
X182321174Y-36387642D01*
X182320000Y-36363750D01*
X182320000Y-35876250D01*
X182321174Y-35852358D01*
X182324684Y-35828697D01*
X182330496Y-35805493D01*
X182338554Y-35782971D01*
X182348782Y-35761347D01*
X182361079Y-35740830D01*
X182375329Y-35721617D01*
X182391393Y-35703893D01*
X182409117Y-35687829D01*
X182428330Y-35673579D01*
X182448847Y-35661282D01*
X182470471Y-35651054D01*
X182492993Y-35642996D01*
X182516197Y-35637184D01*
X182539858Y-35633674D01*
X182563750Y-35632500D01*
X183476250Y-35632500D01*
X183500142Y-35633674D01*
G37*
G04 #@! TD.AperFunction*
G04 #@! TA.AperFunction,SMDPad,CuDef*
G36*
X186070142Y-35603674D02*
G01*
X186093803Y-35607184D01*
X186117007Y-35612996D01*
X186139529Y-35621054D01*
X186161153Y-35631282D01*
X186181670Y-35643579D01*
X186200883Y-35657829D01*
X186218607Y-35673893D01*
X186234671Y-35691617D01*
X186248921Y-35710830D01*
X186261218Y-35731347D01*
X186271446Y-35752971D01*
X186279504Y-35775493D01*
X186285316Y-35798697D01*
X186288826Y-35822358D01*
X186290000Y-35846250D01*
X186290000Y-36333750D01*
X186288826Y-36357642D01*
X186285316Y-36381303D01*
X186279504Y-36404507D01*
X186271446Y-36427029D01*
X186261218Y-36448653D01*
X186248921Y-36469170D01*
X186234671Y-36488383D01*
X186218607Y-36506107D01*
X186200883Y-36522171D01*
X186181670Y-36536421D01*
X186161153Y-36548718D01*
X186139529Y-36558946D01*
X186117007Y-36567004D01*
X186093803Y-36572816D01*
X186070142Y-36576326D01*
X186046250Y-36577500D01*
X185133750Y-36577500D01*
X185109858Y-36576326D01*
X185086197Y-36572816D01*
X185062993Y-36567004D01*
X185040471Y-36558946D01*
X185018847Y-36548718D01*
X184998330Y-36536421D01*
X184979117Y-36522171D01*
X184961393Y-36506107D01*
X184945329Y-36488383D01*
X184931079Y-36469170D01*
X184918782Y-36448653D01*
X184908554Y-36427029D01*
X184900496Y-36404507D01*
X184894684Y-36381303D01*
X184891174Y-36357642D01*
X184890000Y-36333750D01*
X184890000Y-35846250D01*
X184891174Y-35822358D01*
X184894684Y-35798697D01*
X184900496Y-35775493D01*
X184908554Y-35752971D01*
X184918782Y-35731347D01*
X184931079Y-35710830D01*
X184945329Y-35691617D01*
X184961393Y-35673893D01*
X184979117Y-35657829D01*
X184998330Y-35643579D01*
X185018847Y-35631282D01*
X185040471Y-35621054D01*
X185062993Y-35612996D01*
X185086197Y-35607184D01*
X185109858Y-35603674D01*
X185133750Y-35602500D01*
X186046250Y-35602500D01*
X186070142Y-35603674D01*
G37*
G04 #@! TD.AperFunction*
G04 #@! TA.AperFunction,SMDPad,CuDef*
G36*
X186070142Y-37478674D02*
G01*
X186093803Y-37482184D01*
X186117007Y-37487996D01*
X186139529Y-37496054D01*
X186161153Y-37506282D01*
X186181670Y-37518579D01*
X186200883Y-37532829D01*
X186218607Y-37548893D01*
X186234671Y-37566617D01*
X186248921Y-37585830D01*
X186261218Y-37606347D01*
X186271446Y-37627971D01*
X186279504Y-37650493D01*
X186285316Y-37673697D01*
X186288826Y-37697358D01*
X186290000Y-37721250D01*
X186290000Y-38208750D01*
X186288826Y-38232642D01*
X186285316Y-38256303D01*
X186279504Y-38279507D01*
X186271446Y-38302029D01*
X186261218Y-38323653D01*
X186248921Y-38344170D01*
X186234671Y-38363383D01*
X186218607Y-38381107D01*
X186200883Y-38397171D01*
X186181670Y-38411421D01*
X186161153Y-38423718D01*
X186139529Y-38433946D01*
X186117007Y-38442004D01*
X186093803Y-38447816D01*
X186070142Y-38451326D01*
X186046250Y-38452500D01*
X185133750Y-38452500D01*
X185109858Y-38451326D01*
X185086197Y-38447816D01*
X185062993Y-38442004D01*
X185040471Y-38433946D01*
X185018847Y-38423718D01*
X184998330Y-38411421D01*
X184979117Y-38397171D01*
X184961393Y-38381107D01*
X184945329Y-38363383D01*
X184931079Y-38344170D01*
X184918782Y-38323653D01*
X184908554Y-38302029D01*
X184900496Y-38279507D01*
X184894684Y-38256303D01*
X184891174Y-38232642D01*
X184890000Y-38208750D01*
X184890000Y-37721250D01*
X184891174Y-37697358D01*
X184894684Y-37673697D01*
X184900496Y-37650493D01*
X184908554Y-37627971D01*
X184918782Y-37606347D01*
X184931079Y-37585830D01*
X184945329Y-37566617D01*
X184961393Y-37548893D01*
X184979117Y-37532829D01*
X184998330Y-37518579D01*
X185018847Y-37506282D01*
X185040471Y-37496054D01*
X185062993Y-37487996D01*
X185086197Y-37482184D01*
X185109858Y-37478674D01*
X185133750Y-37477500D01*
X186046250Y-37477500D01*
X186070142Y-37478674D01*
G37*
G04 #@! TD.AperFunction*
G04 #@! TA.AperFunction,SMDPad,CuDef*
G36*
X201480142Y-50638674D02*
G01*
X201503803Y-50642184D01*
X201527007Y-50647996D01*
X201549529Y-50656054D01*
X201571153Y-50666282D01*
X201591670Y-50678579D01*
X201610883Y-50692829D01*
X201628607Y-50708893D01*
X201644671Y-50726617D01*
X201658921Y-50745830D01*
X201671218Y-50766347D01*
X201681446Y-50787971D01*
X201689504Y-50810493D01*
X201695316Y-50833697D01*
X201698826Y-50857358D01*
X201700000Y-50881250D01*
X201700000Y-51368750D01*
X201698826Y-51392642D01*
X201695316Y-51416303D01*
X201689504Y-51439507D01*
X201681446Y-51462029D01*
X201671218Y-51483653D01*
X201658921Y-51504170D01*
X201644671Y-51523383D01*
X201628607Y-51541107D01*
X201610883Y-51557171D01*
X201591670Y-51571421D01*
X201571153Y-51583718D01*
X201549529Y-51593946D01*
X201527007Y-51602004D01*
X201503803Y-51607816D01*
X201480142Y-51611326D01*
X201456250Y-51612500D01*
X200543750Y-51612500D01*
X200519858Y-51611326D01*
X200496197Y-51607816D01*
X200472993Y-51602004D01*
X200450471Y-51593946D01*
X200428847Y-51583718D01*
X200408330Y-51571421D01*
X200389117Y-51557171D01*
X200371393Y-51541107D01*
X200355329Y-51523383D01*
X200341079Y-51504170D01*
X200328782Y-51483653D01*
X200318554Y-51462029D01*
X200310496Y-51439507D01*
X200304684Y-51416303D01*
X200301174Y-51392642D01*
X200300000Y-51368750D01*
X200300000Y-50881250D01*
X200301174Y-50857358D01*
X200304684Y-50833697D01*
X200310496Y-50810493D01*
X200318554Y-50787971D01*
X200328782Y-50766347D01*
X200341079Y-50745830D01*
X200355329Y-50726617D01*
X200371393Y-50708893D01*
X200389117Y-50692829D01*
X200408330Y-50678579D01*
X200428847Y-50666282D01*
X200450471Y-50656054D01*
X200472993Y-50647996D01*
X200496197Y-50642184D01*
X200519858Y-50638674D01*
X200543750Y-50637500D01*
X201456250Y-50637500D01*
X201480142Y-50638674D01*
G37*
G04 #@! TD.AperFunction*
G04 #@! TA.AperFunction,SMDPad,CuDef*
G36*
X201480142Y-52513674D02*
G01*
X201503803Y-52517184D01*
X201527007Y-52522996D01*
X201549529Y-52531054D01*
X201571153Y-52541282D01*
X201591670Y-52553579D01*
X201610883Y-52567829D01*
X201628607Y-52583893D01*
X201644671Y-52601617D01*
X201658921Y-52620830D01*
X201671218Y-52641347D01*
X201681446Y-52662971D01*
X201689504Y-52685493D01*
X201695316Y-52708697D01*
X201698826Y-52732358D01*
X201700000Y-52756250D01*
X201700000Y-53243750D01*
X201698826Y-53267642D01*
X201695316Y-53291303D01*
X201689504Y-53314507D01*
X201681446Y-53337029D01*
X201671218Y-53358653D01*
X201658921Y-53379170D01*
X201644671Y-53398383D01*
X201628607Y-53416107D01*
X201610883Y-53432171D01*
X201591670Y-53446421D01*
X201571153Y-53458718D01*
X201549529Y-53468946D01*
X201527007Y-53477004D01*
X201503803Y-53482816D01*
X201480142Y-53486326D01*
X201456250Y-53487500D01*
X200543750Y-53487500D01*
X200519858Y-53486326D01*
X200496197Y-53482816D01*
X200472993Y-53477004D01*
X200450471Y-53468946D01*
X200428847Y-53458718D01*
X200408330Y-53446421D01*
X200389117Y-53432171D01*
X200371393Y-53416107D01*
X200355329Y-53398383D01*
X200341079Y-53379170D01*
X200328782Y-53358653D01*
X200318554Y-53337029D01*
X200310496Y-53314507D01*
X200304684Y-53291303D01*
X200301174Y-53267642D01*
X200300000Y-53243750D01*
X200300000Y-52756250D01*
X200301174Y-52732358D01*
X200304684Y-52708697D01*
X200310496Y-52685493D01*
X200318554Y-52662971D01*
X200328782Y-52641347D01*
X200341079Y-52620830D01*
X200355329Y-52601617D01*
X200371393Y-52583893D01*
X200389117Y-52567829D01*
X200408330Y-52553579D01*
X200428847Y-52541282D01*
X200450471Y-52531054D01*
X200472993Y-52522996D01*
X200496197Y-52517184D01*
X200519858Y-52513674D01*
X200543750Y-52512500D01*
X201456250Y-52512500D01*
X201480142Y-52513674D01*
G37*
G04 #@! TD.AperFunction*
G04 #@! TA.AperFunction,SMDPad,CuDef*
G36*
X204480142Y-50576174D02*
G01*
X204503803Y-50579684D01*
X204527007Y-50585496D01*
X204549529Y-50593554D01*
X204571153Y-50603782D01*
X204591670Y-50616079D01*
X204610883Y-50630329D01*
X204628607Y-50646393D01*
X204644671Y-50664117D01*
X204658921Y-50683330D01*
X204671218Y-50703847D01*
X204681446Y-50725471D01*
X204689504Y-50747993D01*
X204695316Y-50771197D01*
X204698826Y-50794858D01*
X204700000Y-50818750D01*
X204700000Y-51306250D01*
X204698826Y-51330142D01*
X204695316Y-51353803D01*
X204689504Y-51377007D01*
X204681446Y-51399529D01*
X204671218Y-51421153D01*
X204658921Y-51441670D01*
X204644671Y-51460883D01*
X204628607Y-51478607D01*
X204610883Y-51494671D01*
X204591670Y-51508921D01*
X204571153Y-51521218D01*
X204549529Y-51531446D01*
X204527007Y-51539504D01*
X204503803Y-51545316D01*
X204480142Y-51548826D01*
X204456250Y-51550000D01*
X203543750Y-51550000D01*
X203519858Y-51548826D01*
X203496197Y-51545316D01*
X203472993Y-51539504D01*
X203450471Y-51531446D01*
X203428847Y-51521218D01*
X203408330Y-51508921D01*
X203389117Y-51494671D01*
X203371393Y-51478607D01*
X203355329Y-51460883D01*
X203341079Y-51441670D01*
X203328782Y-51421153D01*
X203318554Y-51399529D01*
X203310496Y-51377007D01*
X203304684Y-51353803D01*
X203301174Y-51330142D01*
X203300000Y-51306250D01*
X203300000Y-50818750D01*
X203301174Y-50794858D01*
X203304684Y-50771197D01*
X203310496Y-50747993D01*
X203318554Y-50725471D01*
X203328782Y-50703847D01*
X203341079Y-50683330D01*
X203355329Y-50664117D01*
X203371393Y-50646393D01*
X203389117Y-50630329D01*
X203408330Y-50616079D01*
X203428847Y-50603782D01*
X203450471Y-50593554D01*
X203472993Y-50585496D01*
X203496197Y-50579684D01*
X203519858Y-50576174D01*
X203543750Y-50575000D01*
X204456250Y-50575000D01*
X204480142Y-50576174D01*
G37*
G04 #@! TD.AperFunction*
G04 #@! TA.AperFunction,SMDPad,CuDef*
G36*
X204480142Y-52451174D02*
G01*
X204503803Y-52454684D01*
X204527007Y-52460496D01*
X204549529Y-52468554D01*
X204571153Y-52478782D01*
X204591670Y-52491079D01*
X204610883Y-52505329D01*
X204628607Y-52521393D01*
X204644671Y-52539117D01*
X204658921Y-52558330D01*
X204671218Y-52578847D01*
X204681446Y-52600471D01*
X204689504Y-52622993D01*
X204695316Y-52646197D01*
X204698826Y-52669858D01*
X204700000Y-52693750D01*
X204700000Y-53181250D01*
X204698826Y-53205142D01*
X204695316Y-53228803D01*
X204689504Y-53252007D01*
X204681446Y-53274529D01*
X204671218Y-53296153D01*
X204658921Y-53316670D01*
X204644671Y-53335883D01*
X204628607Y-53353607D01*
X204610883Y-53369671D01*
X204591670Y-53383921D01*
X204571153Y-53396218D01*
X204549529Y-53406446D01*
X204527007Y-53414504D01*
X204503803Y-53420316D01*
X204480142Y-53423826D01*
X204456250Y-53425000D01*
X203543750Y-53425000D01*
X203519858Y-53423826D01*
X203496197Y-53420316D01*
X203472993Y-53414504D01*
X203450471Y-53406446D01*
X203428847Y-53396218D01*
X203408330Y-53383921D01*
X203389117Y-53369671D01*
X203371393Y-53353607D01*
X203355329Y-53335883D01*
X203341079Y-53316670D01*
X203328782Y-53296153D01*
X203318554Y-53274529D01*
X203310496Y-53252007D01*
X203304684Y-53228803D01*
X203301174Y-53205142D01*
X203300000Y-53181250D01*
X203300000Y-52693750D01*
X203301174Y-52669858D01*
X203304684Y-52646197D01*
X203310496Y-52622993D01*
X203318554Y-52600471D01*
X203328782Y-52578847D01*
X203341079Y-52558330D01*
X203355329Y-52539117D01*
X203371393Y-52521393D01*
X203389117Y-52505329D01*
X203408330Y-52491079D01*
X203428847Y-52478782D01*
X203450471Y-52468554D01*
X203472993Y-52460496D01*
X203496197Y-52454684D01*
X203519858Y-52451174D01*
X203543750Y-52450000D01*
X204456250Y-52450000D01*
X204480142Y-52451174D01*
G37*
G04 #@! TD.AperFunction*
D10*
X144152000Y-74612500D03*
X141652000Y-74612500D03*
X139152000Y-74612500D03*
G04 #@! TA.AperFunction,ComponentPad*
D11*
G36*
X137276504Y-73638704D02*
G01*
X137300773Y-73642304D01*
X137324571Y-73648265D01*
X137347671Y-73656530D01*
X137369849Y-73667020D01*
X137390893Y-73679633D01*
X137410598Y-73694247D01*
X137428777Y-73710723D01*
X137445253Y-73728902D01*
X137459867Y-73748607D01*
X137472480Y-73769651D01*
X137482970Y-73791829D01*
X137491235Y-73814929D01*
X137497196Y-73838727D01*
X137500796Y-73862996D01*
X137502000Y-73887500D01*
X137502000Y-75337500D01*
X137500796Y-75362004D01*
X137497196Y-75386273D01*
X137491235Y-75410071D01*
X137482970Y-75433171D01*
X137472480Y-75455349D01*
X137459867Y-75476393D01*
X137445253Y-75496098D01*
X137428777Y-75514277D01*
X137410598Y-75530753D01*
X137390893Y-75545367D01*
X137369849Y-75557980D01*
X137347671Y-75568470D01*
X137324571Y-75576735D01*
X137300773Y-75582696D01*
X137276504Y-75586296D01*
X137252000Y-75587500D01*
X136052000Y-75587500D01*
X136027496Y-75586296D01*
X136003227Y-75582696D01*
X135979429Y-75576735D01*
X135956329Y-75568470D01*
X135934151Y-75557980D01*
X135913107Y-75545367D01*
X135893402Y-75530753D01*
X135875223Y-75514277D01*
X135858747Y-75496098D01*
X135844133Y-75476393D01*
X135831520Y-75455349D01*
X135821030Y-75433171D01*
X135812765Y-75410071D01*
X135806804Y-75386273D01*
X135803204Y-75362004D01*
X135802000Y-75337500D01*
X135802000Y-73887500D01*
X135803204Y-73862996D01*
X135806804Y-73838727D01*
X135812765Y-73814929D01*
X135821030Y-73791829D01*
X135831520Y-73769651D01*
X135844133Y-73748607D01*
X135858747Y-73728902D01*
X135875223Y-73710723D01*
X135893402Y-73694247D01*
X135913107Y-73679633D01*
X135934151Y-73667020D01*
X135956329Y-73656530D01*
X135979429Y-73648265D01*
X136003227Y-73642304D01*
X136027496Y-73638704D01*
X136052000Y-73637500D01*
X137252000Y-73637500D01*
X137276504Y-73638704D01*
G37*
G04 #@! TD.AperFunction*
G04 #@! TA.AperFunction,SMDPad,CuDef*
G36*
X178149504Y-33376204D02*
G01*
X178173773Y-33379804D01*
X178197571Y-33385765D01*
X178220671Y-33394030D01*
X178242849Y-33404520D01*
X178263893Y-33417133D01*
X178283598Y-33431747D01*
X178301777Y-33448223D01*
X178318253Y-33466402D01*
X178332867Y-33486107D01*
X178345480Y-33507151D01*
X178355970Y-33529329D01*
X178364235Y-33552429D01*
X178370196Y-33576227D01*
X178373796Y-33600496D01*
X178375000Y-33625000D01*
X178375000Y-34375000D01*
X178373796Y-34399504D01*
X178370196Y-34423773D01*
X178364235Y-34447571D01*
X178355970Y-34470671D01*
X178345480Y-34492849D01*
X178332867Y-34513893D01*
X178318253Y-34533598D01*
X178301777Y-34551777D01*
X178283598Y-34568253D01*
X178263893Y-34582867D01*
X178242849Y-34595480D01*
X178220671Y-34605970D01*
X178197571Y-34614235D01*
X178173773Y-34620196D01*
X178149504Y-34623796D01*
X178125000Y-34625000D01*
X176875000Y-34625000D01*
X176850496Y-34623796D01*
X176826227Y-34620196D01*
X176802429Y-34614235D01*
X176779329Y-34605970D01*
X176757151Y-34595480D01*
X176736107Y-34582867D01*
X176716402Y-34568253D01*
X176698223Y-34551777D01*
X176681747Y-34533598D01*
X176667133Y-34513893D01*
X176654520Y-34492849D01*
X176644030Y-34470671D01*
X176635765Y-34447571D01*
X176629804Y-34423773D01*
X176626204Y-34399504D01*
X176625000Y-34375000D01*
X176625000Y-33625000D01*
X176626204Y-33600496D01*
X176629804Y-33576227D01*
X176635765Y-33552429D01*
X176644030Y-33529329D01*
X176654520Y-33507151D01*
X176667133Y-33486107D01*
X176681747Y-33466402D01*
X176698223Y-33448223D01*
X176716402Y-33431747D01*
X176736107Y-33417133D01*
X176757151Y-33404520D01*
X176779329Y-33394030D01*
X176802429Y-33385765D01*
X176826227Y-33379804D01*
X176850496Y-33376204D01*
X176875000Y-33375000D01*
X178125000Y-33375000D01*
X178149504Y-33376204D01*
G37*
G04 #@! TD.AperFunction*
G04 #@! TA.AperFunction,SMDPad,CuDef*
G36*
X178149504Y-36176204D02*
G01*
X178173773Y-36179804D01*
X178197571Y-36185765D01*
X178220671Y-36194030D01*
X178242849Y-36204520D01*
X178263893Y-36217133D01*
X178283598Y-36231747D01*
X178301777Y-36248223D01*
X178318253Y-36266402D01*
X178332867Y-36286107D01*
X178345480Y-36307151D01*
X178355970Y-36329329D01*
X178364235Y-36352429D01*
X178370196Y-36376227D01*
X178373796Y-36400496D01*
X178375000Y-36425000D01*
X178375000Y-37175000D01*
X178373796Y-37199504D01*
X178370196Y-37223773D01*
X178364235Y-37247571D01*
X178355970Y-37270671D01*
X178345480Y-37292849D01*
X178332867Y-37313893D01*
X178318253Y-37333598D01*
X178301777Y-37351777D01*
X178283598Y-37368253D01*
X178263893Y-37382867D01*
X178242849Y-37395480D01*
X178220671Y-37405970D01*
X178197571Y-37414235D01*
X178173773Y-37420196D01*
X178149504Y-37423796D01*
X178125000Y-37425000D01*
X176875000Y-37425000D01*
X176850496Y-37423796D01*
X176826227Y-37420196D01*
X176802429Y-37414235D01*
X176779329Y-37405970D01*
X176757151Y-37395480D01*
X176736107Y-37382867D01*
X176716402Y-37368253D01*
X176698223Y-37351777D01*
X176681747Y-37333598D01*
X176667133Y-37313893D01*
X176654520Y-37292849D01*
X176644030Y-37270671D01*
X176635765Y-37247571D01*
X176629804Y-37223773D01*
X176626204Y-37199504D01*
X176625000Y-37175000D01*
X176625000Y-36425000D01*
X176626204Y-36400496D01*
X176629804Y-36376227D01*
X176635765Y-36352429D01*
X176644030Y-36329329D01*
X176654520Y-36307151D01*
X176667133Y-36286107D01*
X176681747Y-36266402D01*
X176698223Y-36248223D01*
X176716402Y-36231747D01*
X176736107Y-36217133D01*
X176757151Y-36204520D01*
X176779329Y-36194030D01*
X176802429Y-36185765D01*
X176826227Y-36179804D01*
X176850496Y-36176204D01*
X176875000Y-36175000D01*
X178125000Y-36175000D01*
X178149504Y-36176204D01*
G37*
G04 #@! TD.AperFunction*
G04 #@! TA.AperFunction,SMDPad,CuDef*
G36*
X213205142Y-62076174D02*
G01*
X213228803Y-62079684D01*
X213252007Y-62085496D01*
X213274529Y-62093554D01*
X213296153Y-62103782D01*
X213316670Y-62116079D01*
X213335883Y-62130329D01*
X213353607Y-62146393D01*
X213369671Y-62164117D01*
X213383921Y-62183330D01*
X213396218Y-62203847D01*
X213406446Y-62225471D01*
X213414504Y-62247993D01*
X213420316Y-62271197D01*
X213423826Y-62294858D01*
X213425000Y-62318750D01*
X213425000Y-62806250D01*
X213423826Y-62830142D01*
X213420316Y-62853803D01*
X213414504Y-62877007D01*
X213406446Y-62899529D01*
X213396218Y-62921153D01*
X213383921Y-62941670D01*
X213369671Y-62960883D01*
X213353607Y-62978607D01*
X213335883Y-62994671D01*
X213316670Y-63008921D01*
X213296153Y-63021218D01*
X213274529Y-63031446D01*
X213252007Y-63039504D01*
X213228803Y-63045316D01*
X213205142Y-63048826D01*
X213181250Y-63050000D01*
X212268750Y-63050000D01*
X212244858Y-63048826D01*
X212221197Y-63045316D01*
X212197993Y-63039504D01*
X212175471Y-63031446D01*
X212153847Y-63021218D01*
X212133330Y-63008921D01*
X212114117Y-62994671D01*
X212096393Y-62978607D01*
X212080329Y-62960883D01*
X212066079Y-62941670D01*
X212053782Y-62921153D01*
X212043554Y-62899529D01*
X212035496Y-62877007D01*
X212029684Y-62853803D01*
X212026174Y-62830142D01*
X212025000Y-62806250D01*
X212025000Y-62318750D01*
X212026174Y-62294858D01*
X212029684Y-62271197D01*
X212035496Y-62247993D01*
X212043554Y-62225471D01*
X212053782Y-62203847D01*
X212066079Y-62183330D01*
X212080329Y-62164117D01*
X212096393Y-62146393D01*
X212114117Y-62130329D01*
X212133330Y-62116079D01*
X212153847Y-62103782D01*
X212175471Y-62093554D01*
X212197993Y-62085496D01*
X212221197Y-62079684D01*
X212244858Y-62076174D01*
X212268750Y-62075000D01*
X213181250Y-62075000D01*
X213205142Y-62076174D01*
G37*
G04 #@! TD.AperFunction*
G04 #@! TA.AperFunction,SMDPad,CuDef*
G36*
X213205142Y-63951174D02*
G01*
X213228803Y-63954684D01*
X213252007Y-63960496D01*
X213274529Y-63968554D01*
X213296153Y-63978782D01*
X213316670Y-63991079D01*
X213335883Y-64005329D01*
X213353607Y-64021393D01*
X213369671Y-64039117D01*
X213383921Y-64058330D01*
X213396218Y-64078847D01*
X213406446Y-64100471D01*
X213414504Y-64122993D01*
X213420316Y-64146197D01*
X213423826Y-64169858D01*
X213425000Y-64193750D01*
X213425000Y-64681250D01*
X213423826Y-64705142D01*
X213420316Y-64728803D01*
X213414504Y-64752007D01*
X213406446Y-64774529D01*
X213396218Y-64796153D01*
X213383921Y-64816670D01*
X213369671Y-64835883D01*
X213353607Y-64853607D01*
X213335883Y-64869671D01*
X213316670Y-64883921D01*
X213296153Y-64896218D01*
X213274529Y-64906446D01*
X213252007Y-64914504D01*
X213228803Y-64920316D01*
X213205142Y-64923826D01*
X213181250Y-64925000D01*
X212268750Y-64925000D01*
X212244858Y-64923826D01*
X212221197Y-64920316D01*
X212197993Y-64914504D01*
X212175471Y-64906446D01*
X212153847Y-64896218D01*
X212133330Y-64883921D01*
X212114117Y-64869671D01*
X212096393Y-64853607D01*
X212080329Y-64835883D01*
X212066079Y-64816670D01*
X212053782Y-64796153D01*
X212043554Y-64774529D01*
X212035496Y-64752007D01*
X212029684Y-64728803D01*
X212026174Y-64705142D01*
X212025000Y-64681250D01*
X212025000Y-64193750D01*
X212026174Y-64169858D01*
X212029684Y-64146197D01*
X212035496Y-64122993D01*
X212043554Y-64100471D01*
X212053782Y-64078847D01*
X212066079Y-64058330D01*
X212080329Y-64039117D01*
X212096393Y-64021393D01*
X212114117Y-64005329D01*
X212133330Y-63991079D01*
X212153847Y-63978782D01*
X212175471Y-63968554D01*
X212197993Y-63960496D01*
X212221197Y-63954684D01*
X212244858Y-63951174D01*
X212268750Y-63950000D01*
X213181250Y-63950000D01*
X213205142Y-63951174D01*
G37*
G04 #@! TD.AperFunction*
G04 #@! TA.AperFunction,SMDPad,CuDef*
G36*
X175105142Y-62076174D02*
G01*
X175128803Y-62079684D01*
X175152007Y-62085496D01*
X175174529Y-62093554D01*
X175196153Y-62103782D01*
X175216670Y-62116079D01*
X175235883Y-62130329D01*
X175253607Y-62146393D01*
X175269671Y-62164117D01*
X175283921Y-62183330D01*
X175296218Y-62203847D01*
X175306446Y-62225471D01*
X175314504Y-62247993D01*
X175320316Y-62271197D01*
X175323826Y-62294858D01*
X175325000Y-62318750D01*
X175325000Y-62806250D01*
X175323826Y-62830142D01*
X175320316Y-62853803D01*
X175314504Y-62877007D01*
X175306446Y-62899529D01*
X175296218Y-62921153D01*
X175283921Y-62941670D01*
X175269671Y-62960883D01*
X175253607Y-62978607D01*
X175235883Y-62994671D01*
X175216670Y-63008921D01*
X175196153Y-63021218D01*
X175174529Y-63031446D01*
X175152007Y-63039504D01*
X175128803Y-63045316D01*
X175105142Y-63048826D01*
X175081250Y-63050000D01*
X174168750Y-63050000D01*
X174144858Y-63048826D01*
X174121197Y-63045316D01*
X174097993Y-63039504D01*
X174075471Y-63031446D01*
X174053847Y-63021218D01*
X174033330Y-63008921D01*
X174014117Y-62994671D01*
X173996393Y-62978607D01*
X173980329Y-62960883D01*
X173966079Y-62941670D01*
X173953782Y-62921153D01*
X173943554Y-62899529D01*
X173935496Y-62877007D01*
X173929684Y-62853803D01*
X173926174Y-62830142D01*
X173925000Y-62806250D01*
X173925000Y-62318750D01*
X173926174Y-62294858D01*
X173929684Y-62271197D01*
X173935496Y-62247993D01*
X173943554Y-62225471D01*
X173953782Y-62203847D01*
X173966079Y-62183330D01*
X173980329Y-62164117D01*
X173996393Y-62146393D01*
X174014117Y-62130329D01*
X174033330Y-62116079D01*
X174053847Y-62103782D01*
X174075471Y-62093554D01*
X174097993Y-62085496D01*
X174121197Y-62079684D01*
X174144858Y-62076174D01*
X174168750Y-62075000D01*
X175081250Y-62075000D01*
X175105142Y-62076174D01*
G37*
G04 #@! TD.AperFunction*
G04 #@! TA.AperFunction,SMDPad,CuDef*
G36*
X175105142Y-63951174D02*
G01*
X175128803Y-63954684D01*
X175152007Y-63960496D01*
X175174529Y-63968554D01*
X175196153Y-63978782D01*
X175216670Y-63991079D01*
X175235883Y-64005329D01*
X175253607Y-64021393D01*
X175269671Y-64039117D01*
X175283921Y-64058330D01*
X175296218Y-64078847D01*
X175306446Y-64100471D01*
X175314504Y-64122993D01*
X175320316Y-64146197D01*
X175323826Y-64169858D01*
X175325000Y-64193750D01*
X175325000Y-64681250D01*
X175323826Y-64705142D01*
X175320316Y-64728803D01*
X175314504Y-64752007D01*
X175306446Y-64774529D01*
X175296218Y-64796153D01*
X175283921Y-64816670D01*
X175269671Y-64835883D01*
X175253607Y-64853607D01*
X175235883Y-64869671D01*
X175216670Y-64883921D01*
X175196153Y-64896218D01*
X175174529Y-64906446D01*
X175152007Y-64914504D01*
X175128803Y-64920316D01*
X175105142Y-64923826D01*
X175081250Y-64925000D01*
X174168750Y-64925000D01*
X174144858Y-64923826D01*
X174121197Y-64920316D01*
X174097993Y-64914504D01*
X174075471Y-64906446D01*
X174053847Y-64896218D01*
X174033330Y-64883921D01*
X174014117Y-64869671D01*
X173996393Y-64853607D01*
X173980329Y-64835883D01*
X173966079Y-64816670D01*
X173953782Y-64796153D01*
X173943554Y-64774529D01*
X173935496Y-64752007D01*
X173929684Y-64728803D01*
X173926174Y-64705142D01*
X173925000Y-64681250D01*
X173925000Y-64193750D01*
X173926174Y-64169858D01*
X173929684Y-64146197D01*
X173935496Y-64122993D01*
X173943554Y-64100471D01*
X173953782Y-64078847D01*
X173966079Y-64058330D01*
X173980329Y-64039117D01*
X173996393Y-64021393D01*
X174014117Y-64005329D01*
X174033330Y-63991079D01*
X174053847Y-63978782D01*
X174075471Y-63968554D01*
X174097993Y-63960496D01*
X174121197Y-63954684D01*
X174144858Y-63951174D01*
X174168750Y-63950000D01*
X175081250Y-63950000D01*
X175105142Y-63951174D01*
G37*
G04 #@! TD.AperFunction*
G04 #@! TA.AperFunction,SMDPad,CuDef*
G36*
X194155142Y-62076174D02*
G01*
X194178803Y-62079684D01*
X194202007Y-62085496D01*
X194224529Y-62093554D01*
X194246153Y-62103782D01*
X194266670Y-62116079D01*
X194285883Y-62130329D01*
X194303607Y-62146393D01*
X194319671Y-62164117D01*
X194333921Y-62183330D01*
X194346218Y-62203847D01*
X194356446Y-62225471D01*
X194364504Y-62247993D01*
X194370316Y-62271197D01*
X194373826Y-62294858D01*
X194375000Y-62318750D01*
X194375000Y-62806250D01*
X194373826Y-62830142D01*
X194370316Y-62853803D01*
X194364504Y-62877007D01*
X194356446Y-62899529D01*
X194346218Y-62921153D01*
X194333921Y-62941670D01*
X194319671Y-62960883D01*
X194303607Y-62978607D01*
X194285883Y-62994671D01*
X194266670Y-63008921D01*
X194246153Y-63021218D01*
X194224529Y-63031446D01*
X194202007Y-63039504D01*
X194178803Y-63045316D01*
X194155142Y-63048826D01*
X194131250Y-63050000D01*
X193218750Y-63050000D01*
X193194858Y-63048826D01*
X193171197Y-63045316D01*
X193147993Y-63039504D01*
X193125471Y-63031446D01*
X193103847Y-63021218D01*
X193083330Y-63008921D01*
X193064117Y-62994671D01*
X193046393Y-62978607D01*
X193030329Y-62960883D01*
X193016079Y-62941670D01*
X193003782Y-62921153D01*
X192993554Y-62899529D01*
X192985496Y-62877007D01*
X192979684Y-62853803D01*
X192976174Y-62830142D01*
X192975000Y-62806250D01*
X192975000Y-62318750D01*
X192976174Y-62294858D01*
X192979684Y-62271197D01*
X192985496Y-62247993D01*
X192993554Y-62225471D01*
X193003782Y-62203847D01*
X193016079Y-62183330D01*
X193030329Y-62164117D01*
X193046393Y-62146393D01*
X193064117Y-62130329D01*
X193083330Y-62116079D01*
X193103847Y-62103782D01*
X193125471Y-62093554D01*
X193147993Y-62085496D01*
X193171197Y-62079684D01*
X193194858Y-62076174D01*
X193218750Y-62075000D01*
X194131250Y-62075000D01*
X194155142Y-62076174D01*
G37*
G04 #@! TD.AperFunction*
G04 #@! TA.AperFunction,SMDPad,CuDef*
G36*
X194155142Y-63951174D02*
G01*
X194178803Y-63954684D01*
X194202007Y-63960496D01*
X194224529Y-63968554D01*
X194246153Y-63978782D01*
X194266670Y-63991079D01*
X194285883Y-64005329D01*
X194303607Y-64021393D01*
X194319671Y-64039117D01*
X194333921Y-64058330D01*
X194346218Y-64078847D01*
X194356446Y-64100471D01*
X194364504Y-64122993D01*
X194370316Y-64146197D01*
X194373826Y-64169858D01*
X194375000Y-64193750D01*
X194375000Y-64681250D01*
X194373826Y-64705142D01*
X194370316Y-64728803D01*
X194364504Y-64752007D01*
X194356446Y-64774529D01*
X194346218Y-64796153D01*
X194333921Y-64816670D01*
X194319671Y-64835883D01*
X194303607Y-64853607D01*
X194285883Y-64869671D01*
X194266670Y-64883921D01*
X194246153Y-64896218D01*
X194224529Y-64906446D01*
X194202007Y-64914504D01*
X194178803Y-64920316D01*
X194155142Y-64923826D01*
X194131250Y-64925000D01*
X193218750Y-64925000D01*
X193194858Y-64923826D01*
X193171197Y-64920316D01*
X193147993Y-64914504D01*
X193125471Y-64906446D01*
X193103847Y-64896218D01*
X193083330Y-64883921D01*
X193064117Y-64869671D01*
X193046393Y-64853607D01*
X193030329Y-64835883D01*
X193016079Y-64816670D01*
X193003782Y-64796153D01*
X192993554Y-64774529D01*
X192985496Y-64752007D01*
X192979684Y-64728803D01*
X192976174Y-64705142D01*
X192975000Y-64681250D01*
X192975000Y-64193750D01*
X192976174Y-64169858D01*
X192979684Y-64146197D01*
X192985496Y-64122993D01*
X192993554Y-64100471D01*
X193003782Y-64078847D01*
X193016079Y-64058330D01*
X193030329Y-64039117D01*
X193046393Y-64021393D01*
X193064117Y-64005329D01*
X193083330Y-63991079D01*
X193103847Y-63978782D01*
X193125471Y-63968554D01*
X193147993Y-63960496D01*
X193171197Y-63954684D01*
X193194858Y-63951174D01*
X193218750Y-63950000D01*
X194131250Y-63950000D01*
X194155142Y-63951174D01*
G37*
G04 #@! TD.AperFunction*
G04 #@! TA.AperFunction,SMDPad,CuDef*
G36*
X194155142Y-43026174D02*
G01*
X194178803Y-43029684D01*
X194202007Y-43035496D01*
X194224529Y-43043554D01*
X194246153Y-43053782D01*
X194266670Y-43066079D01*
X194285883Y-43080329D01*
X194303607Y-43096393D01*
X194319671Y-43114117D01*
X194333921Y-43133330D01*
X194346218Y-43153847D01*
X194356446Y-43175471D01*
X194364504Y-43197993D01*
X194370316Y-43221197D01*
X194373826Y-43244858D01*
X194375000Y-43268750D01*
X194375000Y-43756250D01*
X194373826Y-43780142D01*
X194370316Y-43803803D01*
X194364504Y-43827007D01*
X194356446Y-43849529D01*
X194346218Y-43871153D01*
X194333921Y-43891670D01*
X194319671Y-43910883D01*
X194303607Y-43928607D01*
X194285883Y-43944671D01*
X194266670Y-43958921D01*
X194246153Y-43971218D01*
X194224529Y-43981446D01*
X194202007Y-43989504D01*
X194178803Y-43995316D01*
X194155142Y-43998826D01*
X194131250Y-44000000D01*
X193218750Y-44000000D01*
X193194858Y-43998826D01*
X193171197Y-43995316D01*
X193147993Y-43989504D01*
X193125471Y-43981446D01*
X193103847Y-43971218D01*
X193083330Y-43958921D01*
X193064117Y-43944671D01*
X193046393Y-43928607D01*
X193030329Y-43910883D01*
X193016079Y-43891670D01*
X193003782Y-43871153D01*
X192993554Y-43849529D01*
X192985496Y-43827007D01*
X192979684Y-43803803D01*
X192976174Y-43780142D01*
X192975000Y-43756250D01*
X192975000Y-43268750D01*
X192976174Y-43244858D01*
X192979684Y-43221197D01*
X192985496Y-43197993D01*
X192993554Y-43175471D01*
X193003782Y-43153847D01*
X193016079Y-43133330D01*
X193030329Y-43114117D01*
X193046393Y-43096393D01*
X193064117Y-43080329D01*
X193083330Y-43066079D01*
X193103847Y-43053782D01*
X193125471Y-43043554D01*
X193147993Y-43035496D01*
X193171197Y-43029684D01*
X193194858Y-43026174D01*
X193218750Y-43025000D01*
X194131250Y-43025000D01*
X194155142Y-43026174D01*
G37*
G04 #@! TD.AperFunction*
G04 #@! TA.AperFunction,SMDPad,CuDef*
G36*
X194155142Y-44901174D02*
G01*
X194178803Y-44904684D01*
X194202007Y-44910496D01*
X194224529Y-44918554D01*
X194246153Y-44928782D01*
X194266670Y-44941079D01*
X194285883Y-44955329D01*
X194303607Y-44971393D01*
X194319671Y-44989117D01*
X194333921Y-45008330D01*
X194346218Y-45028847D01*
X194356446Y-45050471D01*
X194364504Y-45072993D01*
X194370316Y-45096197D01*
X194373826Y-45119858D01*
X194375000Y-45143750D01*
X194375000Y-45631250D01*
X194373826Y-45655142D01*
X194370316Y-45678803D01*
X194364504Y-45702007D01*
X194356446Y-45724529D01*
X194346218Y-45746153D01*
X194333921Y-45766670D01*
X194319671Y-45785883D01*
X194303607Y-45803607D01*
X194285883Y-45819671D01*
X194266670Y-45833921D01*
X194246153Y-45846218D01*
X194224529Y-45856446D01*
X194202007Y-45864504D01*
X194178803Y-45870316D01*
X194155142Y-45873826D01*
X194131250Y-45875000D01*
X193218750Y-45875000D01*
X193194858Y-45873826D01*
X193171197Y-45870316D01*
X193147993Y-45864504D01*
X193125471Y-45856446D01*
X193103847Y-45846218D01*
X193083330Y-45833921D01*
X193064117Y-45819671D01*
X193046393Y-45803607D01*
X193030329Y-45785883D01*
X193016079Y-45766670D01*
X193003782Y-45746153D01*
X192993554Y-45724529D01*
X192985496Y-45702007D01*
X192979684Y-45678803D01*
X192976174Y-45655142D01*
X192975000Y-45631250D01*
X192975000Y-45143750D01*
X192976174Y-45119858D01*
X192979684Y-45096197D01*
X192985496Y-45072993D01*
X192993554Y-45050471D01*
X193003782Y-45028847D01*
X193016079Y-45008330D01*
X193030329Y-44989117D01*
X193046393Y-44971393D01*
X193064117Y-44955329D01*
X193083330Y-44941079D01*
X193103847Y-44928782D01*
X193125471Y-44918554D01*
X193147993Y-44910496D01*
X193171197Y-44904684D01*
X193194858Y-44901174D01*
X193218750Y-44900000D01*
X194131250Y-44900000D01*
X194155142Y-44901174D01*
G37*
G04 #@! TD.AperFunction*
D16*
X195200000Y-35820000D03*
X195200000Y-37720000D03*
X193000000Y-37720000D03*
D17*
X193000000Y-36000000D03*
G04 #@! TA.AperFunction,SMDPad,CuDef*
D11*
G36*
X185872642Y-51731174D02*
G01*
X185896303Y-51734684D01*
X185919507Y-51740496D01*
X185942029Y-51748554D01*
X185963653Y-51758782D01*
X185984170Y-51771079D01*
X186003383Y-51785329D01*
X186021107Y-51801393D01*
X186037171Y-51819117D01*
X186051421Y-51838330D01*
X186063718Y-51858847D01*
X186073946Y-51880471D01*
X186082004Y-51902993D01*
X186087816Y-51926197D01*
X186091326Y-51949858D01*
X186092500Y-51973750D01*
X186092500Y-52886250D01*
X186091326Y-52910142D01*
X186087816Y-52933803D01*
X186082004Y-52957007D01*
X186073946Y-52979529D01*
X186063718Y-53001153D01*
X186051421Y-53021670D01*
X186037171Y-53040883D01*
X186021107Y-53058607D01*
X186003383Y-53074671D01*
X185984170Y-53088921D01*
X185963653Y-53101218D01*
X185942029Y-53111446D01*
X185919507Y-53119504D01*
X185896303Y-53125316D01*
X185872642Y-53128826D01*
X185848750Y-53130000D01*
X185361250Y-53130000D01*
X185337358Y-53128826D01*
X185313697Y-53125316D01*
X185290493Y-53119504D01*
X185267971Y-53111446D01*
X185246347Y-53101218D01*
X185225830Y-53088921D01*
X185206617Y-53074671D01*
X185188893Y-53058607D01*
X185172829Y-53040883D01*
X185158579Y-53021670D01*
X185146282Y-53001153D01*
X185136054Y-52979529D01*
X185127996Y-52957007D01*
X185122184Y-52933803D01*
X185118674Y-52910142D01*
X185117500Y-52886250D01*
X185117500Y-51973750D01*
X185118674Y-51949858D01*
X185122184Y-51926197D01*
X185127996Y-51902993D01*
X185136054Y-51880471D01*
X185146282Y-51858847D01*
X185158579Y-51838330D01*
X185172829Y-51819117D01*
X185188893Y-51801393D01*
X185206617Y-51785329D01*
X185225830Y-51771079D01*
X185246347Y-51758782D01*
X185267971Y-51748554D01*
X185290493Y-51740496D01*
X185313697Y-51734684D01*
X185337358Y-51731174D01*
X185361250Y-51730000D01*
X185848750Y-51730000D01*
X185872642Y-51731174D01*
G37*
G04 #@! TD.AperFunction*
G04 #@! TA.AperFunction,SMDPad,CuDef*
G36*
X187747642Y-51731174D02*
G01*
X187771303Y-51734684D01*
X187794507Y-51740496D01*
X187817029Y-51748554D01*
X187838653Y-51758782D01*
X187859170Y-51771079D01*
X187878383Y-51785329D01*
X187896107Y-51801393D01*
X187912171Y-51819117D01*
X187926421Y-51838330D01*
X187938718Y-51858847D01*
X187948946Y-51880471D01*
X187957004Y-51902993D01*
X187962816Y-51926197D01*
X187966326Y-51949858D01*
X187967500Y-51973750D01*
X187967500Y-52886250D01*
X187966326Y-52910142D01*
X187962816Y-52933803D01*
X187957004Y-52957007D01*
X187948946Y-52979529D01*
X187938718Y-53001153D01*
X187926421Y-53021670D01*
X187912171Y-53040883D01*
X187896107Y-53058607D01*
X187878383Y-53074671D01*
X187859170Y-53088921D01*
X187838653Y-53101218D01*
X187817029Y-53111446D01*
X187794507Y-53119504D01*
X187771303Y-53125316D01*
X187747642Y-53128826D01*
X187723750Y-53130000D01*
X187236250Y-53130000D01*
X187212358Y-53128826D01*
X187188697Y-53125316D01*
X187165493Y-53119504D01*
X187142971Y-53111446D01*
X187121347Y-53101218D01*
X187100830Y-53088921D01*
X187081617Y-53074671D01*
X187063893Y-53058607D01*
X187047829Y-53040883D01*
X187033579Y-53021670D01*
X187021282Y-53001153D01*
X187011054Y-52979529D01*
X187002996Y-52957007D01*
X186997184Y-52933803D01*
X186993674Y-52910142D01*
X186992500Y-52886250D01*
X186992500Y-51973750D01*
X186993674Y-51949858D01*
X186997184Y-51926197D01*
X187002996Y-51902993D01*
X187011054Y-51880471D01*
X187021282Y-51858847D01*
X187033579Y-51838330D01*
X187047829Y-51819117D01*
X187063893Y-51801393D01*
X187081617Y-51785329D01*
X187100830Y-51771079D01*
X187121347Y-51758782D01*
X187142971Y-51748554D01*
X187165493Y-51740496D01*
X187188697Y-51734684D01*
X187212358Y-51731174D01*
X187236250Y-51730000D01*
X187723750Y-51730000D01*
X187747642Y-51731174D01*
G37*
G04 #@! TD.AperFunction*
D18*
X211070000Y-59480000D03*
X208880000Y-56270000D03*
X191770000Y-55372000D03*
X187381250Y-56968750D03*
X196840000Y-49260000D03*
X192800000Y-54050000D03*
X184300000Y-56800000D03*
X177450000Y-38700000D03*
X177450000Y-38700000D03*
X211328000Y-57404000D03*
X204216000Y-64770000D03*
X198120000Y-49022000D03*
X197612000Y-56642000D03*
X228854000Y-78550000D03*
X191570000Y-37720000D03*
X186260500Y-35000000D03*
X196500000Y-36850000D03*
X192750000Y-39050000D03*
X193802000Y-42227000D03*
X199644000Y-45974000D03*
X193548000Y-60452000D03*
X198882000Y-62484000D03*
X174498000Y-60452000D03*
X212598000Y-60706000D03*
X204727000Y-55372000D03*
X227330000Y-66294000D03*
X231648000Y-66294000D03*
X204727000Y-54356000D03*
X199750000Y-43150000D03*
X182626000Y-43434000D03*
X203400000Y-57250000D03*
X202350000Y-57300000D03*
D19*
X193000000Y-35019000D02*
X193000000Y-36000000D01*
X191351000Y-33370000D02*
X193000000Y-35019000D01*
X188962500Y-33370000D02*
X191351000Y-33370000D01*
X182512500Y-33275000D02*
X181417500Y-32180000D01*
X182512500Y-33370000D02*
X182512500Y-33275000D01*
X188962500Y-33275000D02*
X190057500Y-32180000D01*
X188962500Y-33370000D02*
X188962500Y-33275000D01*
X191919000Y-36000000D02*
X193000000Y-36000000D01*
X188255000Y-36000000D02*
X191919000Y-36000000D01*
X186290000Y-37965000D02*
X188255000Y-36000000D01*
X185590000Y-37965000D02*
X186290000Y-37965000D01*
X211070000Y-59480000D02*
X211070000Y-58460000D01*
X211070000Y-58460000D02*
X208880000Y-56270000D01*
D20*
X187480000Y-52430000D02*
X191180000Y-52430000D01*
X191180000Y-52430000D02*
X192800000Y-54050000D01*
X187480000Y-51368118D02*
X187211882Y-51100000D01*
X187480000Y-52430000D02*
X187480000Y-51368118D01*
X187211882Y-51100000D02*
X185427822Y-51100000D01*
X185427822Y-51100000D02*
X184300000Y-51100000D01*
X184300000Y-51100000D02*
X184300000Y-56800000D01*
D19*
X176625000Y-36800000D02*
X142200000Y-71225000D01*
X177500000Y-36800000D02*
X176625000Y-36800000D01*
X177500000Y-38650000D02*
X177450000Y-38700000D01*
X177500000Y-36800000D02*
X177500000Y-38650000D01*
X198120000Y-49022000D02*
X198120000Y-56134000D01*
X198120000Y-56134000D02*
X197612000Y-56642000D01*
X230084000Y-77320000D02*
X228854000Y-78550000D01*
X230084000Y-74560000D02*
X230084000Y-77320000D01*
X142200000Y-71225000D02*
X141183500Y-71225000D01*
X141183500Y-71225000D02*
X139152000Y-73256500D01*
X139152000Y-74612500D02*
X139152000Y-73256500D01*
X211727999Y-57004001D02*
X211328000Y-57404000D01*
X213976001Y-57004001D02*
X211727999Y-57004001D01*
X214972000Y-58000000D02*
X213976001Y-57004001D01*
X215000000Y-58000000D02*
X214972000Y-58000000D01*
X215000000Y-65000000D02*
X215000000Y-58000000D01*
X214214000Y-65786000D02*
X215000000Y-65000000D01*
X204781685Y-64770000D02*
X205035685Y-65024000D01*
X204216000Y-64770000D02*
X204781685Y-64770000D01*
X205035685Y-65024000D02*
X205871664Y-65024000D01*
X205871664Y-65024000D02*
X206633664Y-65786000D01*
X206633664Y-65786000D02*
X214214000Y-65786000D01*
D20*
X188187500Y-32331398D02*
X188187500Y-33370000D01*
X187445091Y-31588989D02*
X188187500Y-32331398D01*
X184029909Y-31588989D02*
X187445091Y-31588989D01*
X183287500Y-32331398D02*
X184029909Y-31588989D01*
X183287500Y-33370000D02*
X183287500Y-32331398D01*
X177500000Y-34625000D02*
X177500000Y-34000000D01*
X177572001Y-34697001D02*
X177500000Y-34625000D01*
X183124851Y-34697001D02*
X177572001Y-34697001D01*
X183287500Y-34534352D02*
X183124851Y-34697001D01*
X183287500Y-33370000D02*
X183287500Y-34534352D01*
X177500000Y-33375000D02*
X177500000Y-34000000D01*
X180072010Y-30802990D02*
X177500000Y-33375000D01*
X190936990Y-30802990D02*
X180072010Y-30802990D01*
X195200000Y-35066000D02*
X190936990Y-30802990D01*
X195200000Y-35820000D02*
X195200000Y-35066000D01*
X185987500Y-32116000D02*
X185987500Y-33370000D01*
X185914499Y-32042999D02*
X185987500Y-32116000D01*
X185060501Y-32042999D02*
X185914499Y-32042999D01*
X184987500Y-32116000D02*
X185060501Y-32042999D01*
X184987500Y-33370000D02*
X184987500Y-32116000D01*
X184562990Y-38445168D02*
X186217822Y-40100000D01*
X184562990Y-35033112D02*
X184562990Y-38445168D01*
X184987500Y-33370000D02*
X184987500Y-34608602D01*
X184987500Y-34608602D02*
X184562990Y-35033112D01*
X195200000Y-38474000D02*
X195200000Y-37720000D01*
X193574000Y-40100000D02*
X195200000Y-38474000D01*
X186217822Y-40100000D02*
X193574000Y-40100000D01*
X196154000Y-37720000D02*
X195200000Y-37720000D01*
X201000000Y-42566000D02*
X196154000Y-37720000D01*
X201000000Y-51125000D02*
X201000000Y-42566000D01*
X193000000Y-37720000D02*
X191570000Y-37720000D01*
X186487500Y-34773000D02*
X186487500Y-33370000D01*
X186260500Y-35000000D02*
X186487500Y-34773000D01*
X185487500Y-34624000D02*
X185487500Y-33370000D01*
X185863500Y-35000000D02*
X185487500Y-34624000D01*
X186260500Y-35000000D02*
X185863500Y-35000000D01*
X204000000Y-51062500D02*
X202287500Y-49350000D01*
X202287500Y-49350000D02*
X202287500Y-42637500D01*
X202287500Y-42637500D02*
X196500000Y-36850000D01*
X192750000Y-37970000D02*
X193000000Y-37720000D01*
X192750000Y-39050000D02*
X192750000Y-37970000D01*
X193802000Y-42227000D02*
X193802000Y-42164000D01*
X193675000Y-42291000D02*
X193675000Y-43512500D01*
X193802000Y-42164000D02*
X193675000Y-42291000D01*
X194737500Y-45387500D02*
X195100000Y-45750000D01*
X193675000Y-45387500D02*
X194737500Y-45387500D01*
X195100000Y-45750000D02*
X199420000Y-45750000D01*
X199420000Y-45750000D02*
X199644000Y-45974000D01*
X193548000Y-62435500D02*
X193675000Y-62562500D01*
X193548000Y-60452000D02*
X193548000Y-62435500D01*
X174625000Y-64437500D02*
X175110527Y-64923027D01*
X178858251Y-68670751D02*
X174625000Y-64437500D01*
X185333816Y-64437500D02*
X183391175Y-66380141D01*
X193675000Y-64437500D02*
X185333816Y-64437500D01*
X183391175Y-66380141D02*
X183391175Y-66544825D01*
X183391175Y-66544825D02*
X181610000Y-68670751D01*
X181610000Y-68670751D02*
X178858251Y-68670751D01*
X212025000Y-64437500D02*
X212725000Y-64437500D01*
X206625000Y-64450000D02*
X212025000Y-64437500D01*
X204216000Y-63246000D02*
X206625000Y-64450000D01*
X204171000Y-63246000D02*
X204216000Y-63246000D01*
X194160527Y-63951973D02*
X194874027Y-63951973D01*
X193675000Y-64437500D02*
X194160527Y-63951973D01*
X194874027Y-63951973D02*
X196342000Y-62484000D01*
X196342000Y-62484000D02*
X203400000Y-62475000D01*
X203400000Y-62475000D02*
X204171000Y-63246000D01*
X174498000Y-62435500D02*
X174625000Y-62562500D01*
X174498000Y-60452000D02*
X174498000Y-62435500D01*
X212725000Y-62562500D02*
X212712500Y-62562500D01*
X212712500Y-62562500D02*
X212538750Y-62388750D01*
X212725000Y-60833000D02*
X212598000Y-60706000D01*
X212725000Y-62562500D02*
X212725000Y-60833000D01*
X205126999Y-54972001D02*
X216008001Y-54972001D01*
X204727000Y-55372000D02*
X205126999Y-54972001D01*
X216008001Y-54972001D02*
X227330000Y-66294000D01*
X231648000Y-66294000D02*
X233172000Y-66294000D01*
X235084000Y-68206000D02*
X235084000Y-74560000D01*
X233172000Y-66294000D02*
X235084000Y-68206000D01*
X232584000Y-69770000D02*
X232584000Y-74560000D01*
X204727000Y-54356000D02*
X205126999Y-53956001D01*
X216770001Y-53956001D02*
X232584000Y-69770000D01*
X205126999Y-53956001D02*
X216770001Y-53956001D01*
X141652000Y-73383500D02*
X141652000Y-74612500D01*
X144016485Y-71019015D02*
X141652000Y-73383500D01*
X230272015Y-71019015D02*
X144016485Y-71019015D01*
X232584000Y-73331000D02*
X230272015Y-71019015D01*
X232584000Y-74560000D02*
X232584000Y-73331000D01*
X198100000Y-41500000D02*
X199750000Y-43150000D01*
X187706000Y-41148000D02*
X198100000Y-41500000D01*
X182626000Y-43434000D02*
X183642000Y-43434000D01*
X183642000Y-43434000D02*
X187706000Y-41148000D01*
X204000000Y-52937500D02*
X204000000Y-56650000D01*
X204000000Y-56650000D02*
X203400000Y-57250000D01*
X201000000Y-53000000D02*
X201000000Y-55950000D01*
X201000000Y-55950000D02*
X202350000Y-57300000D01*
X186335000Y-36090000D02*
X187000000Y-35425000D01*
X187000000Y-35425000D02*
X186987500Y-33370000D01*
X186330000Y-36050000D02*
X186350000Y-36050000D01*
X186290000Y-36090000D02*
X186330000Y-36050000D01*
X185590000Y-36090000D02*
X186290000Y-36090000D01*
X185590000Y-36090000D02*
X186350000Y-36050000D01*
X183020000Y-37995000D02*
X183995000Y-37995000D01*
X183987500Y-34624000D02*
X183987500Y-33370000D01*
X184047010Y-34683510D02*
X183987500Y-34624000D01*
X184047010Y-37942990D02*
X184047010Y-34683510D01*
X183995000Y-37995000D02*
X184047010Y-37942990D01*
G36*
X180282500Y-27873000D02*
G01*
X181290500Y-27873000D01*
X181290500Y-27853000D01*
X181544500Y-27853000D01*
X181544500Y-27873000D01*
X182552500Y-27873000D01*
X182552500Y-27647500D01*
X188922500Y-27647500D01*
X188922500Y-27873000D01*
X189930500Y-27873000D01*
X189930500Y-27853000D01*
X190184500Y-27853000D01*
X190184500Y-27873000D01*
X191192500Y-27873000D01*
X191192500Y-27647500D01*
X191887999Y-27647500D01*
X203577847Y-35425287D01*
X203190719Y-35348282D01*
X202609281Y-35348282D01*
X202039016Y-35461715D01*
X201501837Y-35684222D01*
X201018390Y-36007251D01*
X200607251Y-36418390D01*
X200284222Y-36901837D01*
X200061715Y-37439016D01*
X199948282Y-38009281D01*
X199948282Y-38590719D01*
X200061715Y-39160984D01*
X200184116Y-39456485D01*
X197535000Y-36807370D01*
X197535000Y-36748061D01*
X197495226Y-36548102D01*
X197417205Y-36359744D01*
X197303937Y-36190226D01*
X197159774Y-36046063D01*
X196990256Y-35932795D01*
X196801898Y-35854774D01*
X196601939Y-35815000D01*
X196538072Y-35815000D01*
X196538072Y-35320000D01*
X196525812Y-35195518D01*
X196489502Y-35075820D01*
X196430537Y-34965506D01*
X196351185Y-34868815D01*
X196254494Y-34789463D01*
X196144180Y-34730498D01*
X196024482Y-34694188D01*
X195900000Y-34681928D01*
X195858731Y-34681928D01*
X195848307Y-34662426D01*
X195836645Y-34640607D01*
X195782480Y-34574608D01*
X195741422Y-34524578D01*
X195712346Y-34500716D01*
X191502274Y-30290644D01*
X191478412Y-30261568D01*
X191362382Y-30166345D01*
X191230005Y-30095588D01*
X191086368Y-30052016D01*
X190974416Y-30040990D01*
X190974413Y-30040990D01*
X190936990Y-30037304D01*
X190899567Y-30040990D01*
X180109432Y-30040990D01*
X180072009Y-30037304D01*
X180034586Y-30040990D01*
X180034584Y-30040990D01*
X179922632Y-30052016D01*
X179778995Y-30095588D01*
X179646618Y-30166345D01*
X179530588Y-30261568D01*
X179506731Y-30290638D01*
X177060442Y-32736928D01*
X176875000Y-32736928D01*
X176701746Y-32753992D01*
X176535150Y-32804528D01*
X176381614Y-32886595D01*
X176247038Y-32997038D01*
X176136595Y-33131614D01*
X176054528Y-33285150D01*
X176003992Y-33451746D01*
X175986928Y-33625000D01*
X175986928Y-34375000D01*
X176003992Y-34548254D01*
X176054528Y-34714850D01*
X176136595Y-34868386D01*
X176247038Y-35002962D01*
X176381614Y-35113405D01*
X176535150Y-35195472D01*
X176701746Y-35246008D01*
X176875000Y-35263072D01*
X177060614Y-35263072D01*
X177146609Y-35333646D01*
X177278986Y-35404403D01*
X177422623Y-35447975D01*
X177534575Y-35459001D01*
X177534578Y-35459001D01*
X177572001Y-35462687D01*
X177609424Y-35459001D01*
X181709057Y-35459001D01*
X181694188Y-35508018D01*
X181681928Y-35632500D01*
X181685000Y-35834250D01*
X181843750Y-35993000D01*
X182893000Y-35993000D01*
X182893000Y-35973000D01*
X183147000Y-35973000D01*
X183147000Y-35993000D01*
X183167000Y-35993000D01*
X183167000Y-36247000D01*
X183147000Y-36247000D01*
X183147000Y-36267000D01*
X182893000Y-36267000D01*
X182893000Y-36247000D01*
X181843750Y-36247000D01*
X181685000Y-36405750D01*
X181681928Y-36607500D01*
X181694188Y-36731982D01*
X181730498Y-36851680D01*
X181789463Y-36961994D01*
X181868815Y-37058685D01*
X181946564Y-37122492D01*
X181940208Y-37127708D01*
X181830542Y-37261336D01*
X181749053Y-37413791D01*
X181698872Y-37579215D01*
X181681928Y-37751250D01*
X181681928Y-38238750D01*
X181698872Y-38410785D01*
X181749053Y-38576209D01*
X181830542Y-38728664D01*
X181940208Y-38862292D01*
X182073836Y-38971958D01*
X182226291Y-39053447D01*
X182391715Y-39103628D01*
X182563750Y-39120572D01*
X183476250Y-39120572D01*
X183648285Y-39103628D01*
X183813709Y-39053447D01*
X183966164Y-38971958D01*
X183992096Y-38950676D01*
X184021569Y-38986590D01*
X184050639Y-39010447D01*
X185652543Y-40612352D01*
X185676400Y-40641422D01*
X185705470Y-40665279D01*
X185792429Y-40736645D01*
X185859723Y-40772614D01*
X185924807Y-40807402D01*
X186068444Y-40850974D01*
X186180396Y-40862000D01*
X186180399Y-40862000D01*
X186217822Y-40865686D01*
X186255245Y-40862000D01*
X186660172Y-40862000D01*
X183442394Y-42672000D01*
X183327711Y-42672000D01*
X183285774Y-42630063D01*
X183116256Y-42516795D01*
X182927898Y-42438774D01*
X182727939Y-42399000D01*
X182524061Y-42399000D01*
X182324102Y-42438774D01*
X182135744Y-42516795D01*
X181966226Y-42630063D01*
X181822063Y-42774226D01*
X181708795Y-42943744D01*
X181630774Y-43132102D01*
X181591000Y-43332061D01*
X181591000Y-43535939D01*
X181630774Y-43735898D01*
X181640359Y-43759039D01*
X181304744Y-43825797D01*
X180916198Y-43986738D01*
X180566517Y-44220387D01*
X180269137Y-44517767D01*
X180035488Y-44867448D01*
X179874547Y-45255994D01*
X179792500Y-45668471D01*
X179792500Y-46089029D01*
X179874547Y-46501506D01*
X180035488Y-46890052D01*
X180114999Y-47009049D01*
X179942247Y-47080606D01*
X179694931Y-47245857D01*
X179484607Y-47456181D01*
X179319356Y-47703497D01*
X179205529Y-47978299D01*
X179147500Y-48270028D01*
X179147500Y-48567472D01*
X179205529Y-48859201D01*
X179319356Y-49134003D01*
X179484607Y-49381319D01*
X179694931Y-49591643D01*
X179942247Y-49756894D01*
X180217049Y-49870721D01*
X180508778Y-49928750D01*
X180806222Y-49928750D01*
X181097951Y-49870721D01*
X181372753Y-49756894D01*
X181620069Y-49591643D01*
X181830393Y-49381319D01*
X181995644Y-49134003D01*
X182109471Y-48859201D01*
X182167500Y-48567472D01*
X182167500Y-48270028D01*
X182116523Y-48013750D01*
X182137779Y-48013750D01*
X182550256Y-47931703D01*
X182938802Y-47770762D01*
X183245208Y-47566029D01*
X183209627Y-47651928D01*
X183108600Y-48159826D01*
X183108600Y-48677674D01*
X183209627Y-49185572D01*
X183407799Y-49664001D01*
X183695500Y-50094576D01*
X183998212Y-50397288D01*
X183874608Y-50463355D01*
X183758578Y-50558578D01*
X183663355Y-50674608D01*
X183592598Y-50806985D01*
X183549026Y-50950622D01*
X183534314Y-51100000D01*
X183538000Y-51137426D01*
X183538001Y-56098288D01*
X183496063Y-56140226D01*
X183382795Y-56309744D01*
X183304774Y-56498102D01*
X183265000Y-56698061D01*
X183265000Y-56901939D01*
X183304774Y-57101898D01*
X183382795Y-57290256D01*
X183496063Y-57459774D01*
X183640226Y-57603937D01*
X183809744Y-57717205D01*
X183998102Y-57795226D01*
X184198061Y-57835000D01*
X184401939Y-57835000D01*
X184601898Y-57795226D01*
X184790256Y-57717205D01*
X184959774Y-57603937D01*
X185103937Y-57459774D01*
X185217205Y-57290256D01*
X185295226Y-57101898D01*
X185335000Y-56901939D01*
X185335000Y-56698061D01*
X185303573Y-56540061D01*
X196577000Y-56540061D01*
X196577000Y-56743939D01*
X196616774Y-56943898D01*
X196694795Y-57132256D01*
X196808063Y-57301774D01*
X196952226Y-57445937D01*
X197121744Y-57559205D01*
X197310102Y-57637226D01*
X197510061Y-57677000D01*
X197713939Y-57677000D01*
X197913898Y-57637226D01*
X198102256Y-57559205D01*
X198271774Y-57445937D01*
X198415937Y-57301774D01*
X198529205Y-57132256D01*
X198607226Y-56943898D01*
X198639429Y-56782003D01*
X198675034Y-56746398D01*
X198706541Y-56720541D01*
X198783563Y-56626689D01*
X198809698Y-56594844D01*
X198862498Y-56496063D01*
X198886353Y-56451434D01*
X198933556Y-56295826D01*
X198945500Y-56174553D01*
X198945500Y-56174541D01*
X198949493Y-56134001D01*
X198945500Y-56093461D01*
X198945500Y-49649503D01*
X199037205Y-49512256D01*
X199115226Y-49323898D01*
X199155000Y-49123939D01*
X199155000Y-48920061D01*
X199115226Y-48720102D01*
X199037205Y-48531744D01*
X198923937Y-48362226D01*
X198779774Y-48218063D01*
X198610256Y-48104795D01*
X198421898Y-48026774D01*
X198221939Y-47987000D01*
X198018061Y-47987000D01*
X197818102Y-48026774D01*
X197629744Y-48104795D01*
X197460226Y-48218063D01*
X197316063Y-48362226D01*
X197202795Y-48531744D01*
X197124774Y-48720102D01*
X197085000Y-48920061D01*
X197085000Y-49123939D01*
X197124774Y-49323898D01*
X197202795Y-49512256D01*
X197294500Y-49649503D01*
X197294501Y-55653236D01*
X197121744Y-55724795D01*
X196952226Y-55838063D01*
X196808063Y-55982226D01*
X196694795Y-56151744D01*
X196616774Y-56340102D01*
X196577000Y-56540061D01*
X185303573Y-56540061D01*
X185295226Y-56498102D01*
X185217205Y-56309744D01*
X185103937Y-56140226D01*
X185062000Y-56098289D01*
X185062000Y-53762606D01*
X185117500Y-53768072D01*
X185319250Y-53765000D01*
X185478000Y-53606250D01*
X185478000Y-52557000D01*
X185458000Y-52557000D01*
X185458000Y-52303000D01*
X185478000Y-52303000D01*
X185478000Y-52283000D01*
X185732000Y-52283000D01*
X185732000Y-52303000D01*
X185752000Y-52303000D01*
X185752000Y-52557000D01*
X185732000Y-52557000D01*
X185732000Y-53606250D01*
X185890750Y-53765000D01*
X186092500Y-53768072D01*
X186216982Y-53755812D01*
X186336680Y-53719502D01*
X186446994Y-53660537D01*
X186543685Y-53581185D01*
X186607492Y-53503436D01*
X186612708Y-53509792D01*
X186746336Y-53619458D01*
X186898791Y-53700947D01*
X187064215Y-53751128D01*
X187236250Y-53768072D01*
X187723750Y-53768072D01*
X187895785Y-53751128D01*
X188061209Y-53700947D01*
X188213664Y-53619458D01*
X188347292Y-53509792D01*
X188456958Y-53376164D01*
X188538447Y-53223709D01*
X188548066Y-53192000D01*
X190864370Y-53192000D01*
X191765000Y-54092631D01*
X191765000Y-54151939D01*
X191804774Y-54351898D01*
X191882795Y-54540256D01*
X191996063Y-54709774D01*
X192140226Y-54853937D01*
X192309744Y-54967205D01*
X192498102Y-55045226D01*
X192698061Y-55085000D01*
X192901939Y-55085000D01*
X193101898Y-55045226D01*
X193290256Y-54967205D01*
X193459774Y-54853937D01*
X193603937Y-54709774D01*
X193717205Y-54540256D01*
X193795226Y-54351898D01*
X193835000Y-54151939D01*
X193835000Y-53948061D01*
X193795226Y-53748102D01*
X193717205Y-53559744D01*
X193603937Y-53390226D01*
X193459774Y-53246063D01*
X193290256Y-53132795D01*
X193101898Y-53054774D01*
X192901939Y-53015000D01*
X192842631Y-53015000D01*
X191745284Y-51917654D01*
X191721422Y-51888578D01*
X191605392Y-51793355D01*
X191473015Y-51722598D01*
X191329378Y-51679026D01*
X191217426Y-51668000D01*
X191217423Y-51668000D01*
X191180000Y-51664314D01*
X191142577Y-51668000D01*
X188548066Y-51668000D01*
X188538447Y-51636291D01*
X188456958Y-51483836D01*
X188347292Y-51350208D01*
X188234832Y-51257914D01*
X188230974Y-51218740D01*
X188187402Y-51075103D01*
X188116645Y-50942726D01*
X188021422Y-50826696D01*
X187992346Y-50802834D01*
X187777166Y-50587654D01*
X187753304Y-50558578D01*
X187637274Y-50463355D01*
X187504897Y-50392598D01*
X187486929Y-50387147D01*
X187779500Y-50094576D01*
X188067201Y-49664001D01*
X188265373Y-49185572D01*
X188366400Y-48677674D01*
X188366400Y-48270028D01*
X189307500Y-48270028D01*
X189307500Y-48567472D01*
X189365529Y-48859201D01*
X189479356Y-49134003D01*
X189644607Y-49381319D01*
X189854931Y-49591643D01*
X190102247Y-49756894D01*
X190377049Y-49870721D01*
X190668778Y-49928750D01*
X190966222Y-49928750D01*
X191257951Y-49870721D01*
X191532753Y-49756894D01*
X191780069Y-49591643D01*
X191990393Y-49381319D01*
X192155644Y-49134003D01*
X192269471Y-48859201D01*
X192327500Y-48567472D01*
X192327500Y-48270028D01*
X192269471Y-47978299D01*
X192155644Y-47703497D01*
X191990393Y-47456181D01*
X191780069Y-47245857D01*
X191532753Y-47080606D01*
X191257951Y-46966779D01*
X190966222Y-46908750D01*
X190668778Y-46908750D01*
X190377049Y-46966779D01*
X190102247Y-47080606D01*
X189854931Y-47245857D01*
X189644607Y-47456181D01*
X189479356Y-47703497D01*
X189365529Y-47978299D01*
X189307500Y-48270028D01*
X188366400Y-48270028D01*
X188366400Y-48159826D01*
X188265373Y-47651928D01*
X188067201Y-47173499D01*
X187779500Y-46742924D01*
X187413326Y-46376750D01*
X186982751Y-46089049D01*
X186504322Y-45890877D01*
X185996424Y-45789850D01*
X185478576Y-45789850D01*
X184970678Y-45890877D01*
X184492249Y-46089049D01*
X184061674Y-46376750D01*
X183991263Y-46447161D01*
X184062500Y-46089029D01*
X184062500Y-45668471D01*
X183980453Y-45255994D01*
X183819512Y-44867448D01*
X183585863Y-44517767D01*
X183295904Y-44227808D01*
X183327711Y-44196000D01*
X183575227Y-44196000D01*
X183583362Y-44197437D01*
X183650145Y-44196000D01*
X183679426Y-44196000D01*
X183687611Y-44195194D01*
X183733427Y-44194208D01*
X183762122Y-44187855D01*
X183791378Y-44184974D01*
X183835242Y-44171668D01*
X183879979Y-44161764D01*
X183906882Y-44149936D01*
X183935015Y-44141402D01*
X183975436Y-44119796D01*
X183982959Y-44116489D01*
X184008456Y-44102147D01*
X184067392Y-44070645D01*
X184073781Y-44065402D01*
X186193280Y-42873184D01*
X186142500Y-43128471D01*
X186142500Y-43549029D01*
X186224547Y-43961506D01*
X186385488Y-44350052D01*
X186619137Y-44699733D01*
X186916517Y-44997113D01*
X187266198Y-45230762D01*
X187654744Y-45391703D01*
X188067221Y-45473750D01*
X188487779Y-45473750D01*
X188900256Y-45391703D01*
X189288802Y-45230762D01*
X189638483Y-44997113D01*
X189935863Y-44699733D01*
X190169512Y-44350052D01*
X190330453Y-43961506D01*
X190412500Y-43549029D01*
X190412500Y-43128471D01*
X190330453Y-42715994D01*
X190169512Y-42327448D01*
X189941459Y-41986142D01*
X192775541Y-42082120D01*
X192767000Y-42125061D01*
X192767000Y-42328939D01*
X192800479Y-42497248D01*
X192728836Y-42535542D01*
X192595208Y-42645208D01*
X192485542Y-42778836D01*
X192404053Y-42931291D01*
X192353872Y-43096715D01*
X192336928Y-43268750D01*
X192336928Y-43756250D01*
X192353872Y-43928285D01*
X192404053Y-44093709D01*
X192485542Y-44246164D01*
X192595208Y-44379792D01*
X192680756Y-44450000D01*
X192595208Y-44520208D01*
X192485542Y-44653836D01*
X192404053Y-44806291D01*
X192353872Y-44971715D01*
X192336928Y-45143750D01*
X192336928Y-45631250D01*
X192353872Y-45803285D01*
X192404053Y-45968709D01*
X192485542Y-46121164D01*
X192595208Y-46254792D01*
X192728836Y-46364458D01*
X192881291Y-46445947D01*
X193046715Y-46496128D01*
X193218750Y-46513072D01*
X194131250Y-46513072D01*
X194303285Y-46496128D01*
X194468709Y-46445947D01*
X194621164Y-46364458D01*
X194634368Y-46353621D01*
X194674608Y-46386645D01*
X194806985Y-46457402D01*
X194950622Y-46500974D01*
X195062574Y-46512000D01*
X195062576Y-46512000D01*
X195099999Y-46515686D01*
X195137422Y-46512000D01*
X198758696Y-46512000D01*
X198840063Y-46633774D01*
X198984226Y-46777937D01*
X199153744Y-46891205D01*
X199342102Y-46969226D01*
X199542061Y-47009000D01*
X199745939Y-47009000D01*
X199945898Y-46969226D01*
X200134256Y-46891205D01*
X200238001Y-46821885D01*
X200238000Y-50056934D01*
X200206291Y-50066553D01*
X200053836Y-50148042D01*
X199920208Y-50257708D01*
X199810542Y-50391336D01*
X199729053Y-50543791D01*
X199678872Y-50709215D01*
X199661928Y-50881250D01*
X199661928Y-51368750D01*
X199678872Y-51540785D01*
X199729053Y-51706209D01*
X199810542Y-51858664D01*
X199920208Y-51992292D01*
X200005756Y-52062500D01*
X199920208Y-52132708D01*
X199810542Y-52266336D01*
X199729053Y-52418791D01*
X199678872Y-52584215D01*
X199661928Y-52756250D01*
X199661928Y-53243750D01*
X199678872Y-53415785D01*
X199729053Y-53581209D01*
X199810542Y-53733664D01*
X199920208Y-53867292D01*
X200053836Y-53976958D01*
X200206291Y-54058447D01*
X200238000Y-54068066D01*
X200238001Y-55912567D01*
X200234314Y-55950000D01*
X200249027Y-56099378D01*
X200292599Y-56243015D01*
X200363355Y-56375392D01*
X200434721Y-56462351D01*
X200458579Y-56491422D01*
X200487649Y-56515279D01*
X201315000Y-57342631D01*
X201315000Y-57401939D01*
X201354774Y-57601898D01*
X201432795Y-57790256D01*
X201546063Y-57959774D01*
X201690226Y-58103937D01*
X201859744Y-58217205D01*
X202048102Y-58295226D01*
X202248061Y-58335000D01*
X202451939Y-58335000D01*
X202651898Y-58295226D01*
X202840256Y-58217205D01*
X202913042Y-58168571D01*
X203098102Y-58245226D01*
X203298061Y-58285000D01*
X203501939Y-58285000D01*
X203701898Y-58245226D01*
X203890256Y-58167205D01*
X204059774Y-58053937D01*
X204203937Y-57909774D01*
X204317205Y-57740256D01*
X204395226Y-57551898D01*
X204435000Y-57351939D01*
X204435000Y-57292631D01*
X204512351Y-57215280D01*
X204541422Y-57191422D01*
X204636645Y-57075392D01*
X204707402Y-56943015D01*
X204750974Y-56799378D01*
X204762000Y-56687426D01*
X204762000Y-56687424D01*
X204765686Y-56650001D01*
X204762000Y-56612578D01*
X204762000Y-56407000D01*
X204828939Y-56407000D01*
X205028898Y-56367226D01*
X205217256Y-56289205D01*
X205386774Y-56175937D01*
X205530937Y-56031774D01*
X205644205Y-55862256D01*
X205697330Y-55734001D01*
X215692371Y-55734001D01*
X226295000Y-66336630D01*
X226295000Y-66395939D01*
X226334774Y-66595898D01*
X226412795Y-66784256D01*
X226526063Y-66953774D01*
X226670226Y-67097937D01*
X226839744Y-67211205D01*
X227028102Y-67289226D01*
X227228061Y-67329000D01*
X227431939Y-67329000D01*
X227631898Y-67289226D01*
X227820256Y-67211205D01*
X227989774Y-67097937D01*
X228133937Y-66953774D01*
X228247205Y-66784256D01*
X228325226Y-66595898D01*
X228326394Y-66590025D01*
X231822000Y-70085631D01*
X231822000Y-71491370D01*
X230837299Y-70506669D01*
X230813437Y-70477593D01*
X230697407Y-70382370D01*
X230565030Y-70311613D01*
X230421393Y-70268041D01*
X230309441Y-70257015D01*
X230309438Y-70257015D01*
X230272015Y-70253329D01*
X230234592Y-70257015D01*
X144335417Y-70257015D01*
X147272404Y-67320028D01*
X160097500Y-67320028D01*
X160097500Y-67617472D01*
X160155529Y-67909201D01*
X160269356Y-68184003D01*
X160434607Y-68431319D01*
X160644931Y-68641643D01*
X160892247Y-68806894D01*
X161167049Y-68920721D01*
X161458778Y-68978750D01*
X161756222Y-68978750D01*
X162047951Y-68920721D01*
X162322753Y-68806894D01*
X162570069Y-68641643D01*
X162780393Y-68431319D01*
X162945644Y-68184003D01*
X163059471Y-67909201D01*
X163117500Y-67617472D01*
X163117500Y-67320028D01*
X163066523Y-67063750D01*
X163087779Y-67063750D01*
X163500256Y-66981703D01*
X163888802Y-66820762D01*
X164195208Y-66616029D01*
X164159627Y-66701928D01*
X164058600Y-67209826D01*
X164058600Y-67727674D01*
X164159627Y-68235572D01*
X164357799Y-68714001D01*
X164645500Y-69144576D01*
X165011674Y-69510750D01*
X165442249Y-69798451D01*
X165920678Y-69996623D01*
X166428576Y-70097650D01*
X166946424Y-70097650D01*
X167454322Y-69996623D01*
X167932751Y-69798451D01*
X168363326Y-69510750D01*
X168729500Y-69144576D01*
X169017201Y-68714001D01*
X169215373Y-68235572D01*
X169316400Y-67727674D01*
X169316400Y-67320028D01*
X170257500Y-67320028D01*
X170257500Y-67617472D01*
X170315529Y-67909201D01*
X170429356Y-68184003D01*
X170594607Y-68431319D01*
X170804931Y-68641643D01*
X171052247Y-68806894D01*
X171327049Y-68920721D01*
X171618778Y-68978750D01*
X171916222Y-68978750D01*
X172207951Y-68920721D01*
X172482753Y-68806894D01*
X172730069Y-68641643D01*
X172940393Y-68431319D01*
X173105644Y-68184003D01*
X173219471Y-67909201D01*
X173277500Y-67617472D01*
X173277500Y-67320028D01*
X173219471Y-67028299D01*
X173105644Y-66753497D01*
X172940393Y-66506181D01*
X172730069Y-66295857D01*
X172482753Y-66130606D01*
X172207951Y-66016779D01*
X171916222Y-65958750D01*
X171618778Y-65958750D01*
X171327049Y-66016779D01*
X171052247Y-66130606D01*
X170804931Y-66295857D01*
X170594607Y-66506181D01*
X170429356Y-66753497D01*
X170315529Y-67028299D01*
X170257500Y-67320028D01*
X169316400Y-67320028D01*
X169316400Y-67209826D01*
X169215373Y-66701928D01*
X169017201Y-66223499D01*
X168729500Y-65792924D01*
X168363326Y-65426750D01*
X167932751Y-65139049D01*
X167454322Y-64940877D01*
X166946424Y-64839850D01*
X166428576Y-64839850D01*
X165920678Y-64940877D01*
X165442249Y-65139049D01*
X165011674Y-65426750D01*
X164941263Y-65497161D01*
X165012500Y-65139029D01*
X165012500Y-64718471D01*
X164930453Y-64305994D01*
X164769512Y-63917448D01*
X164535863Y-63567767D01*
X164238483Y-63270387D01*
X163888802Y-63036738D01*
X163500256Y-62875797D01*
X163087779Y-62793750D01*
X162667221Y-62793750D01*
X162254744Y-62875797D01*
X161866198Y-63036738D01*
X161516517Y-63270387D01*
X161219137Y-63567767D01*
X160985488Y-63917448D01*
X160824547Y-64305994D01*
X160742500Y-64718471D01*
X160742500Y-65139029D01*
X160824547Y-65551506D01*
X160985488Y-65940052D01*
X161064999Y-66059049D01*
X160892247Y-66130606D01*
X160644931Y-66295857D01*
X160434607Y-66506181D01*
X160269356Y-66753497D01*
X160155529Y-67028299D01*
X160097500Y-67320028D01*
X147272404Y-67320028D01*
X152413961Y-62178471D01*
X167092500Y-62178471D01*
X167092500Y-62599029D01*
X167174547Y-63011506D01*
X167335488Y-63400052D01*
X167569137Y-63749733D01*
X167866517Y-64047113D01*
X168216198Y-64280762D01*
X168604744Y-64441703D01*
X169017221Y-64523750D01*
X169437779Y-64523750D01*
X169850256Y-64441703D01*
X170238802Y-64280762D01*
X170588483Y-64047113D01*
X170885863Y-63749733D01*
X171119512Y-63400052D01*
X171280453Y-63011506D01*
X171362500Y-62599029D01*
X171362500Y-62318750D01*
X173286928Y-62318750D01*
X173286928Y-62806250D01*
X173303872Y-62978285D01*
X173354053Y-63143709D01*
X173435542Y-63296164D01*
X173545208Y-63429792D01*
X173630756Y-63500000D01*
X173545208Y-63570208D01*
X173435542Y-63703836D01*
X173354053Y-63856291D01*
X173303872Y-64021715D01*
X173286928Y-64193750D01*
X173286928Y-64681250D01*
X173303872Y-64853285D01*
X173354053Y-65018709D01*
X173435542Y-65171164D01*
X173545208Y-65304792D01*
X173678836Y-65414458D01*
X173831291Y-65495947D01*
X173996715Y-65546128D01*
X174168750Y-65563072D01*
X174672942Y-65563072D01*
X178292972Y-69183103D01*
X178316829Y-69212173D01*
X178345899Y-69236030D01*
X178432858Y-69307396D01*
X178498201Y-69342322D01*
X178565236Y-69378153D01*
X178708873Y-69421725D01*
X178820825Y-69432751D01*
X178820828Y-69432751D01*
X178858251Y-69436437D01*
X178895674Y-69432751D01*
X181606286Y-69432751D01*
X181677300Y-69433473D01*
X181718070Y-69425793D01*
X181759378Y-69421725D01*
X181791665Y-69411931D01*
X181824807Y-69405688D01*
X181863299Y-69390201D01*
X181903015Y-69378153D01*
X181932766Y-69362251D01*
X181964059Y-69349660D01*
X181998793Y-69326959D01*
X182035392Y-69307396D01*
X182061472Y-69285993D01*
X182089704Y-69267541D01*
X182119337Y-69238505D01*
X182151422Y-69212173D01*
X182196578Y-69157150D01*
X183163404Y-68003193D01*
X183209627Y-68235572D01*
X183407799Y-68714001D01*
X183695500Y-69144576D01*
X184061674Y-69510750D01*
X184492249Y-69798451D01*
X184970678Y-69996623D01*
X185478576Y-70097650D01*
X185996424Y-70097650D01*
X186504322Y-69996623D01*
X186982751Y-69798451D01*
X187413326Y-69510750D01*
X187779500Y-69144576D01*
X188067201Y-68714001D01*
X188265373Y-68235572D01*
X188366400Y-67727674D01*
X188366400Y-67320028D01*
X189307500Y-67320028D01*
X189307500Y-67617472D01*
X189365529Y-67909201D01*
X189479356Y-68184003D01*
X189644607Y-68431319D01*
X189854931Y-68641643D01*
X190102247Y-68806894D01*
X190377049Y-68920721D01*
X190668778Y-68978750D01*
X190966222Y-68978750D01*
X191257951Y-68920721D01*
X191532753Y-68806894D01*
X191780069Y-68641643D01*
X191990393Y-68431319D01*
X192155644Y-68184003D01*
X192269471Y-67909201D01*
X192327500Y-67617472D01*
X192327500Y-67320028D01*
X192269471Y-67028299D01*
X192155644Y-66753497D01*
X191990393Y-66506181D01*
X191780069Y-66295857D01*
X191532753Y-66130606D01*
X191257951Y-66016779D01*
X190966222Y-65958750D01*
X190668778Y-65958750D01*
X190377049Y-66016779D01*
X190102247Y-66130606D01*
X189854931Y-66295857D01*
X189644607Y-66506181D01*
X189479356Y-66753497D01*
X189365529Y-67028299D01*
X189307500Y-67320028D01*
X188366400Y-67320028D01*
X188366400Y-67209826D01*
X188265373Y-66701928D01*
X188067201Y-66223499D01*
X187779500Y-65792924D01*
X187413326Y-65426750D01*
X187073222Y-65199500D01*
X192508797Y-65199500D01*
X192595208Y-65304792D01*
X192728836Y-65414458D01*
X192881291Y-65495947D01*
X193046715Y-65546128D01*
X193218750Y-65563072D01*
X194131250Y-65563072D01*
X194303285Y-65546128D01*
X194468709Y-65495947D01*
X194621164Y-65414458D01*
X194754792Y-65304792D01*
X194864458Y-65171164D01*
X194945947Y-65018709D01*
X194996128Y-64853285D01*
X195010813Y-64704187D01*
X195023405Y-64702947D01*
X195167042Y-64659375D01*
X195299419Y-64588618D01*
X195415449Y-64493395D01*
X195439311Y-64464319D01*
X196658033Y-63245597D01*
X198177948Y-63243659D01*
X198222226Y-63287937D01*
X198391744Y-63401205D01*
X198580102Y-63479226D01*
X198780061Y-63519000D01*
X198983939Y-63519000D01*
X199183898Y-63479226D01*
X199372256Y-63401205D01*
X199541774Y-63287937D01*
X199587850Y-63241861D01*
X199659345Y-63241770D01*
X199616517Y-63270387D01*
X199319137Y-63567767D01*
X199085488Y-63917448D01*
X198924547Y-64305994D01*
X198842500Y-64718471D01*
X198842500Y-65139029D01*
X198924547Y-65551506D01*
X199085488Y-65940052D01*
X199164999Y-66059049D01*
X198992247Y-66130606D01*
X198744931Y-66295857D01*
X198534607Y-66506181D01*
X198369356Y-66753497D01*
X198255529Y-67028299D01*
X198197500Y-67320028D01*
X198197500Y-67617472D01*
X198255529Y-67909201D01*
X198369356Y-68184003D01*
X198534607Y-68431319D01*
X198744931Y-68641643D01*
X198992247Y-68806894D01*
X199267049Y-68920721D01*
X199558778Y-68978750D01*
X199856222Y-68978750D01*
X200147951Y-68920721D01*
X200422753Y-68806894D01*
X200670069Y-68641643D01*
X200880393Y-68431319D01*
X201045644Y-68184003D01*
X201159471Y-67909201D01*
X201217500Y-67617472D01*
X201217500Y-67320028D01*
X201166523Y-67063750D01*
X201187779Y-67063750D01*
X201600256Y-66981703D01*
X201988802Y-66820762D01*
X202295208Y-66616029D01*
X202259627Y-66701928D01*
X202158600Y-67209826D01*
X202158600Y-67727674D01*
X202259627Y-68235572D01*
X202457799Y-68714001D01*
X202745500Y-69144576D01*
X203111674Y-69510750D01*
X203542249Y-69798451D01*
X204020678Y-69996623D01*
X204528576Y-70097650D01*
X205046424Y-70097650D01*
X205554322Y-69996623D01*
X206032751Y-69798451D01*
X206463326Y-69510750D01*
X206829500Y-69144576D01*
X207117201Y-68714001D01*
X207315373Y-68235572D01*
X207416400Y-67727674D01*
X207416400Y-67209826D01*
X207315373Y-66701928D01*
X207277916Y-66611500D01*
X208624235Y-66611500D01*
X208529356Y-66753497D01*
X208415529Y-67028299D01*
X208357500Y-67320028D01*
X208357500Y-67617472D01*
X208415529Y-67909201D01*
X208529356Y-68184003D01*
X208694607Y-68431319D01*
X208904931Y-68641643D01*
X209152247Y-68806894D01*
X209427049Y-68920721D01*
X209718778Y-68978750D01*
X210016222Y-68978750D01*
X210307951Y-68920721D01*
X210582753Y-68806894D01*
X210830069Y-68641643D01*
X211040393Y-68431319D01*
X211205644Y-68184003D01*
X211319471Y-67909201D01*
X211377500Y-67617472D01*
X211377500Y-67320028D01*
X211319471Y-67028299D01*
X211205644Y-66753497D01*
X211110765Y-66611500D01*
X214173450Y-66611500D01*
X214214000Y-66615494D01*
X214254550Y-66611500D01*
X214254553Y-66611500D01*
X214375826Y-66599556D01*
X214531434Y-66552353D01*
X214674842Y-66475699D01*
X214800541Y-66372541D01*
X214826397Y-66341035D01*
X215555046Y-65612388D01*
X215586541Y-65586541D01*
X215612389Y-65555045D01*
X215612392Y-65555042D01*
X215689699Y-65460843D01*
X215766353Y-65317434D01*
X215772013Y-65298774D01*
X215813556Y-65161826D01*
X215825500Y-65040553D01*
X215825500Y-65040551D01*
X215829494Y-65000000D01*
X215825500Y-64959450D01*
X215825500Y-58040553D01*
X215829494Y-58000000D01*
X215813556Y-57838174D01*
X215766353Y-57682566D01*
X215689699Y-57539158D01*
X215586541Y-57413459D01*
X215460842Y-57310301D01*
X215436978Y-57297545D01*
X214588399Y-56448967D01*
X214562542Y-56417460D01*
X214436843Y-56314302D01*
X214293435Y-56237648D01*
X214137827Y-56190445D01*
X214016554Y-56178501D01*
X214016551Y-56178501D01*
X213976001Y-56174507D01*
X213935451Y-56178501D01*
X211768549Y-56178501D01*
X211727998Y-56174507D01*
X211687448Y-56178501D01*
X211687446Y-56178501D01*
X211566173Y-56190445D01*
X211410565Y-56237648D01*
X211267157Y-56314302D01*
X211192332Y-56375709D01*
X211026102Y-56408774D01*
X210837744Y-56486795D01*
X210668226Y-56600063D01*
X210524063Y-56744226D01*
X210410795Y-56913744D01*
X210332774Y-57102102D01*
X210293000Y-57302061D01*
X210293000Y-57505939D01*
X210332774Y-57705898D01*
X210410795Y-57894256D01*
X210524063Y-58063774D01*
X210668226Y-58207937D01*
X210837744Y-58321205D01*
X211026102Y-58399226D01*
X211226061Y-58439000D01*
X211429939Y-58439000D01*
X211629898Y-58399226D01*
X211818256Y-58321205D01*
X211987774Y-58207937D01*
X212131937Y-58063774D01*
X212245205Y-57894256D01*
X212272028Y-57829501D01*
X213634069Y-57829501D01*
X214174501Y-58369934D01*
X214174500Y-64658067D01*
X214053431Y-64779136D01*
X214063072Y-64681250D01*
X214063072Y-64193750D01*
X214046128Y-64021715D01*
X213995947Y-63856291D01*
X213914458Y-63703836D01*
X213804792Y-63570208D01*
X213719244Y-63500000D01*
X213804792Y-63429792D01*
X213914458Y-63296164D01*
X213995947Y-63143709D01*
X214046128Y-62978285D01*
X214063072Y-62806250D01*
X214063072Y-62318750D01*
X214046128Y-62146715D01*
X213995947Y-61981291D01*
X213914458Y-61828836D01*
X213804792Y-61695208D01*
X213671164Y-61585542D01*
X213518709Y-61504053D01*
X213487000Y-61494434D01*
X213487000Y-61238468D01*
X213515205Y-61196256D01*
X213593226Y-61007898D01*
X213633000Y-60807939D01*
X213633000Y-60604061D01*
X213593226Y-60404102D01*
X213515205Y-60215744D01*
X213401937Y-60046226D01*
X213257774Y-59902063D01*
X213088256Y-59788795D01*
X212899898Y-59710774D01*
X212699939Y-59671000D01*
X212496061Y-59671000D01*
X212296102Y-59710774D01*
X212107744Y-59788795D01*
X211938226Y-59902063D01*
X211794063Y-60046226D01*
X211680795Y-60215744D01*
X211602774Y-60404102D01*
X211563000Y-60604061D01*
X211563000Y-60807939D01*
X211602774Y-61007898D01*
X211680795Y-61196256D01*
X211794063Y-61365774D01*
X211932097Y-61503808D01*
X211931291Y-61504053D01*
X211778836Y-61585542D01*
X211645208Y-61695208D01*
X211535542Y-61828836D01*
X211454053Y-61981291D01*
X211403872Y-62146715D01*
X211386928Y-62318750D01*
X211386928Y-62806250D01*
X211403872Y-62978285D01*
X211454053Y-63143709D01*
X211535542Y-63296164D01*
X211645208Y-63429792D01*
X211730756Y-63500000D01*
X211645208Y-63570208D01*
X211557911Y-63676580D01*
X209030834Y-63682429D01*
X209219512Y-63400052D01*
X209380453Y-63011506D01*
X209462500Y-62599029D01*
X209462500Y-62178471D01*
X209380453Y-61765994D01*
X209219512Y-61377448D01*
X208985863Y-61027767D01*
X208688483Y-60730387D01*
X208338802Y-60496738D01*
X207950256Y-60335797D01*
X207537779Y-60253750D01*
X207117221Y-60253750D01*
X206704744Y-60335797D01*
X206316198Y-60496738D01*
X205966517Y-60730387D01*
X205669137Y-61027767D01*
X205435488Y-61377448D01*
X205274547Y-61765994D01*
X205192500Y-62178471D01*
X205192500Y-62599029D01*
X205255039Y-62913434D01*
X204577370Y-62574740D01*
X203964935Y-61962305D01*
X203940731Y-61932889D01*
X203883202Y-61885799D01*
X203825392Y-61838355D01*
X203824957Y-61838122D01*
X203824580Y-61837814D01*
X203758860Y-61802793D01*
X203693015Y-61767599D01*
X203692548Y-61767457D01*
X203692112Y-61767225D01*
X203620456Y-61745588D01*
X203549378Y-61724027D01*
X203548890Y-61723979D01*
X203548420Y-61723837D01*
X203474107Y-61716613D01*
X203400000Y-61709314D01*
X203362091Y-61713048D01*
X199579582Y-61717871D01*
X199541774Y-61680063D01*
X199372256Y-61566795D01*
X199183898Y-61488774D01*
X198983939Y-61449000D01*
X198780061Y-61449000D01*
X198580102Y-61488774D01*
X198391744Y-61566795D01*
X198222226Y-61680063D01*
X198182636Y-61719653D01*
X196378944Y-61721953D01*
X196341999Y-61718314D01*
X196304085Y-61722048D01*
X196303603Y-61722049D01*
X196267122Y-61725689D01*
X196192621Y-61733027D01*
X196192151Y-61733169D01*
X196191665Y-61733218D01*
X196120697Y-61754845D01*
X196048983Y-61776599D01*
X196048548Y-61776832D01*
X196048084Y-61776973D01*
X195982712Y-61812022D01*
X195916607Y-61847356D01*
X195916228Y-61847667D01*
X195915797Y-61847898D01*
X195858500Y-61895043D01*
X195829648Y-61918721D01*
X195829299Y-61919070D01*
X195799889Y-61943269D01*
X195776383Y-61971986D01*
X195013072Y-62735298D01*
X195013072Y-62318750D01*
X194996128Y-62146715D01*
X194945947Y-61981291D01*
X194864458Y-61828836D01*
X194754792Y-61695208D01*
X194621164Y-61585542D01*
X194468709Y-61504053D01*
X194310000Y-61455909D01*
X194310000Y-61153711D01*
X194351937Y-61111774D01*
X194465205Y-60942256D01*
X194543226Y-60753898D01*
X194583000Y-60553939D01*
X194583000Y-60350061D01*
X194543226Y-60150102D01*
X194465205Y-59961744D01*
X194351937Y-59792226D01*
X194207774Y-59648063D01*
X194038256Y-59534795D01*
X193849898Y-59456774D01*
X193649939Y-59417000D01*
X193446061Y-59417000D01*
X193246102Y-59456774D01*
X193057744Y-59534795D01*
X192888226Y-59648063D01*
X192744063Y-59792226D01*
X192630795Y-59961744D01*
X192552774Y-60150102D01*
X192513000Y-60350061D01*
X192513000Y-60553939D01*
X192552774Y-60753898D01*
X192630795Y-60942256D01*
X192744063Y-61111774D01*
X192786000Y-61153711D01*
X192786001Y-61554987D01*
X192728836Y-61585542D01*
X192595208Y-61695208D01*
X192485542Y-61828836D01*
X192404053Y-61981291D01*
X192353872Y-62146715D01*
X192336928Y-62318750D01*
X192336928Y-62806250D01*
X192353872Y-62978285D01*
X192404053Y-63143709D01*
X192485542Y-63296164D01*
X192595208Y-63429792D01*
X192680756Y-63500000D01*
X192595208Y-63570208D01*
X192508797Y-63675500D01*
X189985464Y-63675500D01*
X190169512Y-63400052D01*
X190330453Y-63011506D01*
X190412500Y-62599029D01*
X190412500Y-62178471D01*
X190330453Y-61765994D01*
X190169512Y-61377448D01*
X189935863Y-61027767D01*
X189638483Y-60730387D01*
X189288802Y-60496738D01*
X188900256Y-60335797D01*
X188487779Y-60253750D01*
X188067221Y-60253750D01*
X187654744Y-60335797D01*
X187266198Y-60496738D01*
X186916517Y-60730387D01*
X186619137Y-61027767D01*
X186385488Y-61377448D01*
X186224547Y-61765994D01*
X186142500Y-62178471D01*
X186142500Y-62599029D01*
X186224547Y-63011506D01*
X186385488Y-63400052D01*
X186569536Y-63675500D01*
X185371238Y-63675500D01*
X185333815Y-63671814D01*
X185296392Y-63675500D01*
X185296390Y-63675500D01*
X185184438Y-63686526D01*
X185040801Y-63730098D01*
X184908424Y-63800855D01*
X184792394Y-63896078D01*
X184768537Y-63925148D01*
X184048018Y-64645667D01*
X183980453Y-64305994D01*
X183819512Y-63917448D01*
X183585863Y-63567767D01*
X183288483Y-63270387D01*
X182938802Y-63036738D01*
X182550256Y-62875797D01*
X182137779Y-62793750D01*
X181717221Y-62793750D01*
X181304744Y-62875797D01*
X180916198Y-63036738D01*
X180566517Y-63270387D01*
X180269137Y-63567767D01*
X180035488Y-63917448D01*
X179874547Y-64305994D01*
X179792500Y-64718471D01*
X179792500Y-65139029D01*
X179874547Y-65551506D01*
X180035488Y-65940052D01*
X180114999Y-66059049D01*
X179942247Y-66130606D01*
X179694931Y-66295857D01*
X179484607Y-66506181D01*
X179319356Y-66753497D01*
X179205529Y-67028299D01*
X179147500Y-67320028D01*
X179147500Y-67617472D01*
X179205439Y-67908751D01*
X179173882Y-67908751D01*
X175961575Y-64696445D01*
X175963072Y-64681250D01*
X175963072Y-64193750D01*
X175946128Y-64021715D01*
X175895947Y-63856291D01*
X175814458Y-63703836D01*
X175704792Y-63570208D01*
X175619244Y-63500000D01*
X175704792Y-63429792D01*
X175814458Y-63296164D01*
X175895947Y-63143709D01*
X175946128Y-62978285D01*
X175963072Y-62806250D01*
X175963072Y-62318750D01*
X175946128Y-62146715D01*
X175895947Y-61981291D01*
X175814458Y-61828836D01*
X175704792Y-61695208D01*
X175571164Y-61585542D01*
X175418709Y-61504053D01*
X175260000Y-61455909D01*
X175260000Y-61153711D01*
X175301937Y-61111774D01*
X175415205Y-60942256D01*
X175493226Y-60753898D01*
X175533000Y-60553939D01*
X175533000Y-60350061D01*
X175493226Y-60150102D01*
X175415205Y-59961744D01*
X175301937Y-59792226D01*
X175157774Y-59648063D01*
X174988256Y-59534795D01*
X174799898Y-59456774D01*
X174599939Y-59417000D01*
X174396061Y-59417000D01*
X174196102Y-59456774D01*
X174007744Y-59534795D01*
X173838226Y-59648063D01*
X173694063Y-59792226D01*
X173580795Y-59961744D01*
X173502774Y-60150102D01*
X173463000Y-60350061D01*
X173463000Y-60553939D01*
X173502774Y-60753898D01*
X173580795Y-60942256D01*
X173694063Y-61111774D01*
X173736000Y-61153711D01*
X173736001Y-61554987D01*
X173678836Y-61585542D01*
X173545208Y-61695208D01*
X173435542Y-61828836D01*
X173354053Y-61981291D01*
X173303872Y-62146715D01*
X173286928Y-62318750D01*
X171362500Y-62318750D01*
X171362500Y-62178471D01*
X171280453Y-61765994D01*
X171119512Y-61377448D01*
X170885863Y-61027767D01*
X170588483Y-60730387D01*
X170238802Y-60496738D01*
X169850256Y-60335797D01*
X169437779Y-60253750D01*
X169017221Y-60253750D01*
X168604744Y-60335797D01*
X168216198Y-60496738D01*
X167866517Y-60730387D01*
X167569137Y-61027767D01*
X167335488Y-61377448D01*
X167174547Y-61765994D01*
X167092500Y-62178471D01*
X152413961Y-62178471D01*
X176582576Y-38009858D01*
X176654587Y-38031702D01*
X176646063Y-38040226D01*
X176532795Y-38209744D01*
X176454774Y-38398102D01*
X176415000Y-38598061D01*
X176415000Y-38801939D01*
X176454774Y-39001898D01*
X176532795Y-39190256D01*
X176646063Y-39359774D01*
X176790226Y-39503937D01*
X176959744Y-39617205D01*
X177148102Y-39695226D01*
X177348061Y-39735000D01*
X177551939Y-39735000D01*
X177751898Y-39695226D01*
X177940256Y-39617205D01*
X178109774Y-39503937D01*
X178253937Y-39359774D01*
X178367205Y-39190256D01*
X178445226Y-39001898D01*
X178485000Y-38801939D01*
X178485000Y-38598061D01*
X178445226Y-38398102D01*
X178367205Y-38209744D01*
X178325500Y-38147328D01*
X178325500Y-38037743D01*
X178464850Y-37995472D01*
X178618386Y-37913405D01*
X178752962Y-37802962D01*
X178863405Y-37668386D01*
X178945472Y-37514850D01*
X178996008Y-37348254D01*
X179013072Y-37175000D01*
X179013072Y-36425000D01*
X178996008Y-36251746D01*
X178945472Y-36085150D01*
X178863405Y-35931614D01*
X178752962Y-35797038D01*
X178618386Y-35686595D01*
X178464850Y-35604528D01*
X178298254Y-35553992D01*
X178125000Y-35536928D01*
X176875000Y-35536928D01*
X176701746Y-35553992D01*
X176535150Y-35604528D01*
X176381614Y-35686595D01*
X176247038Y-35797038D01*
X176136595Y-35931614D01*
X176054528Y-36085150D01*
X176003992Y-36251746D01*
X176003792Y-36253774D01*
X141858068Y-70399500D01*
X141224050Y-70399500D01*
X141183500Y-70395506D01*
X141142949Y-70399500D01*
X141142947Y-70399500D01*
X141021674Y-70411444D01*
X140866066Y-70458647D01*
X140722657Y-70535301D01*
X140628458Y-70612608D01*
X140628455Y-70612611D01*
X140596959Y-70638459D01*
X140571111Y-70669955D01*
X138596961Y-72644107D01*
X138565460Y-72669959D01*
X138539609Y-72701459D01*
X138462301Y-72795658D01*
X138385647Y-72939067D01*
X138338445Y-73094674D01*
X138323488Y-73246525D01*
X138322986Y-73246794D01*
X138102055Y-73428108D01*
X138091502Y-73393320D01*
X138032537Y-73283006D01*
X137953185Y-73186315D01*
X137856494Y-73106963D01*
X137746180Y-73047998D01*
X137626482Y-73011688D01*
X137502000Y-72999428D01*
X136937750Y-73002500D01*
X136779000Y-73161250D01*
X136779000Y-74485500D01*
X136799000Y-74485500D01*
X136799000Y-74739500D01*
X136779000Y-74739500D01*
X136779000Y-76063750D01*
X136937750Y-76222500D01*
X137502000Y-76225572D01*
X137626482Y-76213312D01*
X137746180Y-76177002D01*
X137856494Y-76118037D01*
X137953185Y-76038685D01*
X138032537Y-75941994D01*
X138091502Y-75831680D01*
X138102055Y-75796892D01*
X138322987Y-75978206D01*
X138580967Y-76116099D01*
X138860890Y-76201013D01*
X139152000Y-76229685D01*
X139443111Y-76201013D01*
X139723034Y-76116099D01*
X139981014Y-75978206D01*
X140207134Y-75792634D01*
X140392706Y-75566514D01*
X140402000Y-75549126D01*
X140411294Y-75566514D01*
X140596866Y-75792634D01*
X140822987Y-75978206D01*
X141080967Y-76116099D01*
X141360890Y-76201013D01*
X141652000Y-76229685D01*
X141943111Y-76201013D01*
X142223034Y-76116099D01*
X142481014Y-75978206D01*
X142707134Y-75792634D01*
X142892706Y-75566514D01*
X142902000Y-75549126D01*
X142911294Y-75566514D01*
X143096866Y-75792634D01*
X143322987Y-75978206D01*
X143580967Y-76116099D01*
X143860890Y-76201013D01*
X144152000Y-76229685D01*
X144443111Y-76201013D01*
X144723034Y-76116099D01*
X144981014Y-75978206D01*
X145207134Y-75792634D01*
X145392706Y-75566514D01*
X145530599Y-75308533D01*
X145615513Y-75028610D01*
X145637000Y-74810449D01*
X145637000Y-74414550D01*
X145615513Y-74196389D01*
X145530599Y-73916466D01*
X145392706Y-73658486D01*
X145207134Y-73432366D01*
X144981013Y-73246794D01*
X144723033Y-73108901D01*
X144443110Y-73023987D01*
X144152000Y-72995315D01*
X143860889Y-73023987D01*
X143580966Y-73108901D01*
X143322986Y-73246794D01*
X143096866Y-73432366D01*
X142911294Y-73658487D01*
X142902000Y-73675874D01*
X142892706Y-73658486D01*
X142707134Y-73432366D01*
X142692650Y-73420480D01*
X144332116Y-71781015D01*
X149851497Y-71781015D01*
X149530222Y-72261837D01*
X149307715Y-72799016D01*
X149194282Y-73369281D01*
X149194282Y-73950719D01*
X149307715Y-74520984D01*
X149530222Y-75058163D01*
X149853251Y-75541610D01*
X150264390Y-75952749D01*
X150747837Y-76275778D01*
X151285016Y-76498285D01*
X151855281Y-76611718D01*
X152436719Y-76611718D01*
X153006984Y-76498285D01*
X153544163Y-76275778D01*
X154027610Y-75952749D01*
X154438749Y-75541610D01*
X154761778Y-75058163D01*
X154984285Y-74520984D01*
X155097718Y-73950719D01*
X155097718Y-73369281D01*
X154984285Y-72799016D01*
X154761778Y-72261837D01*
X154440503Y-71781015D01*
X217161497Y-71781015D01*
X216840222Y-72261837D01*
X216617715Y-72799016D01*
X216504282Y-73369281D01*
X216504282Y-73950719D01*
X216617715Y-74520984D01*
X216840222Y-75058163D01*
X217163251Y-75541610D01*
X217574390Y-75952749D01*
X218057837Y-76275778D01*
X218595016Y-76498285D01*
X219165281Y-76611718D01*
X219746719Y-76611718D01*
X220316984Y-76498285D01*
X220854163Y-76275778D01*
X221337610Y-75952749D01*
X221748749Y-75541610D01*
X221753165Y-75535000D01*
X226095928Y-75535000D01*
X226108188Y-75659482D01*
X226144498Y-75779180D01*
X226203463Y-75889494D01*
X226282815Y-75986185D01*
X226379506Y-76065537D01*
X226489820Y-76124502D01*
X226609518Y-76160812D01*
X226734000Y-76173072D01*
X227298250Y-76170000D01*
X227457000Y-76011250D01*
X227457000Y-74687000D01*
X226257750Y-74687000D01*
X226099000Y-74845750D01*
X226095928Y-75535000D01*
X221753165Y-75535000D01*
X222071778Y-75058163D01*
X222294285Y-74520984D01*
X222407718Y-73950719D01*
X222407718Y-73585000D01*
X226095928Y-73585000D01*
X226099000Y-74274250D01*
X226257750Y-74433000D01*
X227457000Y-74433000D01*
X227457000Y-73108750D01*
X227298250Y-72950000D01*
X226734000Y-72946928D01*
X226609518Y-72959188D01*
X226489820Y-72995498D01*
X226379506Y-73054463D01*
X226282815Y-73133815D01*
X226203463Y-73230506D01*
X226144498Y-73340820D01*
X226108188Y-73460518D01*
X226095928Y-73585000D01*
X222407718Y-73585000D01*
X222407718Y-73369281D01*
X222294285Y-72799016D01*
X222071778Y-72261837D01*
X221750503Y-71781015D01*
X229956385Y-71781015D01*
X231543350Y-73367980D01*
X231528866Y-73379866D01*
X231343294Y-73605987D01*
X231334000Y-73623374D01*
X231324706Y-73605986D01*
X231139134Y-73379866D01*
X230913013Y-73194294D01*
X230655033Y-73056401D01*
X230375110Y-72971487D01*
X230084000Y-72942815D01*
X229792889Y-72971487D01*
X229512966Y-73056401D01*
X229254986Y-73194294D01*
X229034055Y-73375608D01*
X229023502Y-73340820D01*
X228964537Y-73230506D01*
X228885185Y-73133815D01*
X228788494Y-73054463D01*
X228678180Y-72995498D01*
X228558482Y-72959188D01*
X228434000Y-72946928D01*
X227869750Y-72950000D01*
X227711000Y-73108750D01*
X227711000Y-74433000D01*
X227731000Y-74433000D01*
X227731000Y-74687000D01*
X227711000Y-74687000D01*
X227711000Y-76011250D01*
X227869750Y-76170000D01*
X228434000Y-76173072D01*
X228558482Y-76160812D01*
X228678180Y-76124502D01*
X228788494Y-76065537D01*
X228885185Y-75986185D01*
X228964537Y-75889494D01*
X229023502Y-75779180D01*
X229034055Y-75744392D01*
X229254987Y-75925706D01*
X229258500Y-75927584D01*
X229258501Y-76978066D01*
X228713996Y-77522572D01*
X228552102Y-77554774D01*
X228363744Y-77632795D01*
X228194226Y-77746063D01*
X228050063Y-77890226D01*
X227936795Y-78059744D01*
X227858774Y-78248102D01*
X227819000Y-78448061D01*
X227819000Y-78651939D01*
X227831544Y-78715000D01*
X125000280Y-78715000D01*
X124788462Y-78694231D01*
X124615764Y-78642091D01*
X124456482Y-78557399D01*
X124316679Y-78443378D01*
X124201694Y-78304385D01*
X124115890Y-78145695D01*
X124062545Y-77973365D01*
X124040446Y-77763104D01*
X124030511Y-73369281D01*
X125572282Y-73369281D01*
X125572282Y-73950719D01*
X125685715Y-74520984D01*
X125908222Y-75058163D01*
X126231251Y-75541610D01*
X126642390Y-75952749D01*
X127125837Y-76275778D01*
X127663016Y-76498285D01*
X128233281Y-76611718D01*
X128814719Y-76611718D01*
X129384984Y-76498285D01*
X129922163Y-76275778D01*
X130405610Y-75952749D01*
X130770859Y-75587500D01*
X135163928Y-75587500D01*
X135176188Y-75711982D01*
X135212498Y-75831680D01*
X135271463Y-75941994D01*
X135350815Y-76038685D01*
X135447506Y-76118037D01*
X135557820Y-76177002D01*
X135677518Y-76213312D01*
X135802000Y-76225572D01*
X136366250Y-76222500D01*
X136525000Y-76063750D01*
X136525000Y-74739500D01*
X135325750Y-74739500D01*
X135167000Y-74898250D01*
X135163928Y-75587500D01*
X130770859Y-75587500D01*
X130816749Y-75541610D01*
X131139778Y-75058163D01*
X131362285Y-74520984D01*
X131475718Y-73950719D01*
X131475718Y-73637500D01*
X135163928Y-73637500D01*
X135167000Y-74326750D01*
X135325750Y-74485500D01*
X136525000Y-74485500D01*
X136525000Y-73161250D01*
X136366250Y-73002500D01*
X135802000Y-72999428D01*
X135677518Y-73011688D01*
X135557820Y-73047998D01*
X135447506Y-73106963D01*
X135350815Y-73186315D01*
X135271463Y-73283006D01*
X135212498Y-73393320D01*
X135176188Y-73513018D01*
X135163928Y-73637500D01*
X131475718Y-73637500D01*
X131475718Y-73369281D01*
X131362285Y-72799016D01*
X131139778Y-72261837D01*
X130816749Y-71778390D01*
X130405610Y-71367251D01*
X129922163Y-71044222D01*
X129384984Y-70821715D01*
X128814719Y-70708282D01*
X128233281Y-70708282D01*
X127663016Y-70821715D01*
X127125837Y-71044222D01*
X126642390Y-71367251D01*
X126231251Y-71778390D01*
X125908222Y-72261837D01*
X125685715Y-72799016D01*
X125572282Y-73369281D01*
X124030511Y-73369281D01*
X124010800Y-64652929D01*
X165187425Y-37235525D01*
X165061715Y-37539016D01*
X164948282Y-38109281D01*
X164948282Y-38690719D01*
X165061715Y-39260984D01*
X165284222Y-39798163D01*
X165607251Y-40281610D01*
X166018390Y-40692749D01*
X166501837Y-41015778D01*
X167039016Y-41238285D01*
X167609281Y-41351718D01*
X168190719Y-41351718D01*
X168760984Y-41238285D01*
X169298163Y-41015778D01*
X169781610Y-40692749D01*
X170192749Y-40281610D01*
X170515778Y-39798163D01*
X170738285Y-39260984D01*
X170851718Y-38690719D01*
X170851718Y-38109281D01*
X170738285Y-37539016D01*
X170515778Y-37001837D01*
X170192749Y-36518390D01*
X169781610Y-36107251D01*
X169298163Y-35784222D01*
X168760984Y-35561715D01*
X168190719Y-35448282D01*
X167871582Y-35448282D01*
X178866995Y-28127000D01*
X180282500Y-28127000D01*
X180282500Y-28427000D01*
X180329085Y-28645987D01*
X180417497Y-28851678D01*
X180544339Y-29036169D01*
X180704736Y-29192369D01*
X180892524Y-29314276D01*
X181115626Y-29394119D01*
X181290500Y-29267954D01*
X181290500Y-28127000D01*
X181544500Y-28127000D01*
X181544500Y-29267954D01*
X181719374Y-29394119D01*
X181942476Y-29314276D01*
X182130264Y-29192369D01*
X182290661Y-29036169D01*
X182417503Y-28851678D01*
X182505915Y-28645987D01*
X182552500Y-28427000D01*
X182552500Y-28127000D01*
X188922500Y-28127000D01*
X188922500Y-28427000D01*
X188969085Y-28645987D01*
X189057497Y-28851678D01*
X189184339Y-29036169D01*
X189344736Y-29192369D01*
X189532524Y-29314276D01*
X189755626Y-29394119D01*
X189930500Y-29267954D01*
X189930500Y-28127000D01*
X190184500Y-28127000D01*
X190184500Y-29267954D01*
X190359374Y-29394119D01*
X190582476Y-29314276D01*
X190770264Y-29192369D01*
X190930661Y-29036169D01*
X191057503Y-28851678D01*
X191145915Y-28645987D01*
X191192500Y-28427000D01*
X191192500Y-28127000D01*
X190184500Y-28127000D01*
X189930500Y-28127000D01*
X188922500Y-28127000D01*
X182552500Y-28127000D01*
X181544500Y-28127000D01*
X181290500Y-28127000D01*
X180282500Y-28127000D01*
X178866995Y-28127000D01*
X179587129Y-27647500D01*
X180282500Y-27647500D01*
X180282500Y-27873000D01*
G37*
X180282500Y-27873000D02*
X181290500Y-27873000D01*
X181290500Y-27853000D01*
X181544500Y-27853000D01*
X181544500Y-27873000D01*
X182552500Y-27873000D01*
X182552500Y-27647500D01*
X188922500Y-27647500D01*
X188922500Y-27873000D01*
X189930500Y-27873000D01*
X189930500Y-27853000D01*
X190184500Y-27853000D01*
X190184500Y-27873000D01*
X191192500Y-27873000D01*
X191192500Y-27647500D01*
X191887999Y-27647500D01*
X203577847Y-35425287D01*
X203190719Y-35348282D01*
X202609281Y-35348282D01*
X202039016Y-35461715D01*
X201501837Y-35684222D01*
X201018390Y-36007251D01*
X200607251Y-36418390D01*
X200284222Y-36901837D01*
X200061715Y-37439016D01*
X199948282Y-38009281D01*
X199948282Y-38590719D01*
X200061715Y-39160984D01*
X200184116Y-39456485D01*
X197535000Y-36807370D01*
X197535000Y-36748061D01*
X197495226Y-36548102D01*
X197417205Y-36359744D01*
X197303937Y-36190226D01*
X197159774Y-36046063D01*
X196990256Y-35932795D01*
X196801898Y-35854774D01*
X196601939Y-35815000D01*
X196538072Y-35815000D01*
X196538072Y-35320000D01*
X196525812Y-35195518D01*
X196489502Y-35075820D01*
X196430537Y-34965506D01*
X196351185Y-34868815D01*
X196254494Y-34789463D01*
X196144180Y-34730498D01*
X196024482Y-34694188D01*
X195900000Y-34681928D01*
X195858731Y-34681928D01*
X195848307Y-34662426D01*
X195836645Y-34640607D01*
X195782480Y-34574608D01*
X195741422Y-34524578D01*
X195712346Y-34500716D01*
X191502274Y-30290644D01*
X191478412Y-30261568D01*
X191362382Y-30166345D01*
X191230005Y-30095588D01*
X191086368Y-30052016D01*
X190974416Y-30040990D01*
X190974413Y-30040990D01*
X190936990Y-30037304D01*
X190899567Y-30040990D01*
X180109432Y-30040990D01*
X180072009Y-30037304D01*
X180034586Y-30040990D01*
X180034584Y-30040990D01*
X179922632Y-30052016D01*
X179778995Y-30095588D01*
X179646618Y-30166345D01*
X179530588Y-30261568D01*
X179506731Y-30290638D01*
X177060442Y-32736928D01*
X176875000Y-32736928D01*
X176701746Y-32753992D01*
X176535150Y-32804528D01*
X176381614Y-32886595D01*
X176247038Y-32997038D01*
X176136595Y-33131614D01*
X176054528Y-33285150D01*
X176003992Y-33451746D01*
X175986928Y-33625000D01*
X175986928Y-34375000D01*
X176003992Y-34548254D01*
X176054528Y-34714850D01*
X176136595Y-34868386D01*
X176247038Y-35002962D01*
X176381614Y-35113405D01*
X176535150Y-35195472D01*
X176701746Y-35246008D01*
X176875000Y-35263072D01*
X177060614Y-35263072D01*
X177146609Y-35333646D01*
X177278986Y-35404403D01*
X177422623Y-35447975D01*
X177534575Y-35459001D01*
X177534578Y-35459001D01*
X177572001Y-35462687D01*
X177609424Y-35459001D01*
X181709057Y-35459001D01*
X181694188Y-35508018D01*
X181681928Y-35632500D01*
X181685000Y-35834250D01*
X181843750Y-35993000D01*
X182893000Y-35993000D01*
X182893000Y-35973000D01*
X183147000Y-35973000D01*
X183147000Y-35993000D01*
X183167000Y-35993000D01*
X183167000Y-36247000D01*
X183147000Y-36247000D01*
X183147000Y-36267000D01*
X182893000Y-36267000D01*
X182893000Y-36247000D01*
X181843750Y-36247000D01*
X181685000Y-36405750D01*
X181681928Y-36607500D01*
X181694188Y-36731982D01*
X181730498Y-36851680D01*
X181789463Y-36961994D01*
X181868815Y-37058685D01*
X181946564Y-37122492D01*
X181940208Y-37127708D01*
X181830542Y-37261336D01*
X181749053Y-37413791D01*
X181698872Y-37579215D01*
X181681928Y-37751250D01*
X181681928Y-38238750D01*
X181698872Y-38410785D01*
X181749053Y-38576209D01*
X181830542Y-38728664D01*
X181940208Y-38862292D01*
X182073836Y-38971958D01*
X182226291Y-39053447D01*
X182391715Y-39103628D01*
X182563750Y-39120572D01*
X183476250Y-39120572D01*
X183648285Y-39103628D01*
X183813709Y-39053447D01*
X183966164Y-38971958D01*
X183992096Y-38950676D01*
X184021569Y-38986590D01*
X184050639Y-39010447D01*
X185652543Y-40612352D01*
X185676400Y-40641422D01*
X185705470Y-40665279D01*
X185792429Y-40736645D01*
X185859723Y-40772614D01*
X185924807Y-40807402D01*
X186068444Y-40850974D01*
X186180396Y-40862000D01*
X186180399Y-40862000D01*
X186217822Y-40865686D01*
X186255245Y-40862000D01*
X186660172Y-40862000D01*
X183442394Y-42672000D01*
X183327711Y-42672000D01*
X183285774Y-42630063D01*
X183116256Y-42516795D01*
X182927898Y-42438774D01*
X182727939Y-42399000D01*
X182524061Y-42399000D01*
X182324102Y-42438774D01*
X182135744Y-42516795D01*
X181966226Y-42630063D01*
X181822063Y-42774226D01*
X181708795Y-42943744D01*
X181630774Y-43132102D01*
X181591000Y-43332061D01*
X181591000Y-43535939D01*
X181630774Y-43735898D01*
X181640359Y-43759039D01*
X181304744Y-43825797D01*
X180916198Y-43986738D01*
X180566517Y-44220387D01*
X180269137Y-44517767D01*
X180035488Y-44867448D01*
X179874547Y-45255994D01*
X179792500Y-45668471D01*
X179792500Y-46089029D01*
X179874547Y-46501506D01*
X180035488Y-46890052D01*
X180114999Y-47009049D01*
X179942247Y-47080606D01*
X179694931Y-47245857D01*
X179484607Y-47456181D01*
X179319356Y-47703497D01*
X179205529Y-47978299D01*
X179147500Y-48270028D01*
X179147500Y-48567472D01*
X179205529Y-48859201D01*
X179319356Y-49134003D01*
X179484607Y-49381319D01*
X179694931Y-49591643D01*
X179942247Y-49756894D01*
X180217049Y-49870721D01*
X180508778Y-49928750D01*
X180806222Y-49928750D01*
X181097951Y-49870721D01*
X181372753Y-49756894D01*
X181620069Y-49591643D01*
X181830393Y-49381319D01*
X181995644Y-49134003D01*
X182109471Y-48859201D01*
X182167500Y-48567472D01*
X182167500Y-48270028D01*
X182116523Y-48013750D01*
X182137779Y-48013750D01*
X182550256Y-47931703D01*
X182938802Y-47770762D01*
X183245208Y-47566029D01*
X183209627Y-47651928D01*
X183108600Y-48159826D01*
X183108600Y-48677674D01*
X183209627Y-49185572D01*
X183407799Y-49664001D01*
X183695500Y-50094576D01*
X183998212Y-50397288D01*
X183874608Y-50463355D01*
X183758578Y-50558578D01*
X183663355Y-50674608D01*
X183592598Y-50806985D01*
X183549026Y-50950622D01*
X183534314Y-51100000D01*
X183538000Y-51137426D01*
X183538001Y-56098288D01*
X183496063Y-56140226D01*
X183382795Y-56309744D01*
X183304774Y-56498102D01*
X183265000Y-56698061D01*
X183265000Y-56901939D01*
X183304774Y-57101898D01*
X183382795Y-57290256D01*
X183496063Y-57459774D01*
X183640226Y-57603937D01*
X183809744Y-57717205D01*
X183998102Y-57795226D01*
X184198061Y-57835000D01*
X184401939Y-57835000D01*
X184601898Y-57795226D01*
X184790256Y-57717205D01*
X184959774Y-57603937D01*
X185103937Y-57459774D01*
X185217205Y-57290256D01*
X185295226Y-57101898D01*
X185335000Y-56901939D01*
X185335000Y-56698061D01*
X185303573Y-56540061D01*
X196577000Y-56540061D01*
X196577000Y-56743939D01*
X196616774Y-56943898D01*
X196694795Y-57132256D01*
X196808063Y-57301774D01*
X196952226Y-57445937D01*
X197121744Y-57559205D01*
X197310102Y-57637226D01*
X197510061Y-57677000D01*
X197713939Y-57677000D01*
X197913898Y-57637226D01*
X198102256Y-57559205D01*
X198271774Y-57445937D01*
X198415937Y-57301774D01*
X198529205Y-57132256D01*
X198607226Y-56943898D01*
X198639429Y-56782003D01*
X198675034Y-56746398D01*
X198706541Y-56720541D01*
X198783563Y-56626689D01*
X198809698Y-56594844D01*
X198862498Y-56496063D01*
X198886353Y-56451434D01*
X198933556Y-56295826D01*
X198945500Y-56174553D01*
X198945500Y-56174541D01*
X198949493Y-56134001D01*
X198945500Y-56093461D01*
X198945500Y-49649503D01*
X199037205Y-49512256D01*
X199115226Y-49323898D01*
X199155000Y-49123939D01*
X199155000Y-48920061D01*
X199115226Y-48720102D01*
X199037205Y-48531744D01*
X198923937Y-48362226D01*
X198779774Y-48218063D01*
X198610256Y-48104795D01*
X198421898Y-48026774D01*
X198221939Y-47987000D01*
X198018061Y-47987000D01*
X197818102Y-48026774D01*
X197629744Y-48104795D01*
X197460226Y-48218063D01*
X197316063Y-48362226D01*
X197202795Y-48531744D01*
X197124774Y-48720102D01*
X197085000Y-48920061D01*
X197085000Y-49123939D01*
X197124774Y-49323898D01*
X197202795Y-49512256D01*
X197294500Y-49649503D01*
X197294501Y-55653236D01*
X197121744Y-55724795D01*
X196952226Y-55838063D01*
X196808063Y-55982226D01*
X196694795Y-56151744D01*
X196616774Y-56340102D01*
X196577000Y-56540061D01*
X185303573Y-56540061D01*
X185295226Y-56498102D01*
X185217205Y-56309744D01*
X185103937Y-56140226D01*
X185062000Y-56098289D01*
X185062000Y-53762606D01*
X185117500Y-53768072D01*
X185319250Y-53765000D01*
X185478000Y-53606250D01*
X185478000Y-52557000D01*
X185458000Y-52557000D01*
X185458000Y-52303000D01*
X185478000Y-52303000D01*
X185478000Y-52283000D01*
X185732000Y-52283000D01*
X185732000Y-52303000D01*
X185752000Y-52303000D01*
X185752000Y-52557000D01*
X185732000Y-52557000D01*
X185732000Y-53606250D01*
X185890750Y-53765000D01*
X186092500Y-53768072D01*
X186216982Y-53755812D01*
X186336680Y-53719502D01*
X186446994Y-53660537D01*
X186543685Y-53581185D01*
X186607492Y-53503436D01*
X186612708Y-53509792D01*
X186746336Y-53619458D01*
X186898791Y-53700947D01*
X187064215Y-53751128D01*
X187236250Y-53768072D01*
X187723750Y-53768072D01*
X187895785Y-53751128D01*
X188061209Y-53700947D01*
X188213664Y-53619458D01*
X188347292Y-53509792D01*
X188456958Y-53376164D01*
X188538447Y-53223709D01*
X188548066Y-53192000D01*
X190864370Y-53192000D01*
X191765000Y-54092631D01*
X191765000Y-54151939D01*
X191804774Y-54351898D01*
X191882795Y-54540256D01*
X191996063Y-54709774D01*
X192140226Y-54853937D01*
X192309744Y-54967205D01*
X192498102Y-55045226D01*
X192698061Y-55085000D01*
X192901939Y-55085000D01*
X193101898Y-55045226D01*
X193290256Y-54967205D01*
X193459774Y-54853937D01*
X193603937Y-54709774D01*
X193717205Y-54540256D01*
X193795226Y-54351898D01*
X193835000Y-54151939D01*
X193835000Y-53948061D01*
X193795226Y-53748102D01*
X193717205Y-53559744D01*
X193603937Y-53390226D01*
X193459774Y-53246063D01*
X193290256Y-53132795D01*
X193101898Y-53054774D01*
X192901939Y-53015000D01*
X192842631Y-53015000D01*
X191745284Y-51917654D01*
X191721422Y-51888578D01*
X191605392Y-51793355D01*
X191473015Y-51722598D01*
X191329378Y-51679026D01*
X191217426Y-51668000D01*
X191217423Y-51668000D01*
X191180000Y-51664314D01*
X191142577Y-51668000D01*
X188548066Y-51668000D01*
X188538447Y-51636291D01*
X188456958Y-51483836D01*
X188347292Y-51350208D01*
X188234832Y-51257914D01*
X188230974Y-51218740D01*
X188187402Y-51075103D01*
X188116645Y-50942726D01*
X188021422Y-50826696D01*
X187992346Y-50802834D01*
X187777166Y-50587654D01*
X187753304Y-50558578D01*
X187637274Y-50463355D01*
X187504897Y-50392598D01*
X187486929Y-50387147D01*
X187779500Y-50094576D01*
X188067201Y-49664001D01*
X188265373Y-49185572D01*
X188366400Y-48677674D01*
X188366400Y-48270028D01*
X189307500Y-48270028D01*
X189307500Y-48567472D01*
X189365529Y-48859201D01*
X189479356Y-49134003D01*
X189644607Y-49381319D01*
X189854931Y-49591643D01*
X190102247Y-49756894D01*
X190377049Y-49870721D01*
X190668778Y-49928750D01*
X190966222Y-49928750D01*
X191257951Y-49870721D01*
X191532753Y-49756894D01*
X191780069Y-49591643D01*
X191990393Y-49381319D01*
X192155644Y-49134003D01*
X192269471Y-48859201D01*
X192327500Y-48567472D01*
X192327500Y-48270028D01*
X192269471Y-47978299D01*
X192155644Y-47703497D01*
X191990393Y-47456181D01*
X191780069Y-47245857D01*
X191532753Y-47080606D01*
X191257951Y-46966779D01*
X190966222Y-46908750D01*
X190668778Y-46908750D01*
X190377049Y-46966779D01*
X190102247Y-47080606D01*
X189854931Y-47245857D01*
X189644607Y-47456181D01*
X189479356Y-47703497D01*
X189365529Y-47978299D01*
X189307500Y-48270028D01*
X188366400Y-48270028D01*
X188366400Y-48159826D01*
X188265373Y-47651928D01*
X188067201Y-47173499D01*
X187779500Y-46742924D01*
X187413326Y-46376750D01*
X186982751Y-46089049D01*
X186504322Y-45890877D01*
X185996424Y-45789850D01*
X185478576Y-45789850D01*
X184970678Y-45890877D01*
X184492249Y-46089049D01*
X184061674Y-46376750D01*
X183991263Y-46447161D01*
X184062500Y-46089029D01*
X184062500Y-45668471D01*
X183980453Y-45255994D01*
X183819512Y-44867448D01*
X183585863Y-44517767D01*
X183295904Y-44227808D01*
X183327711Y-44196000D01*
X183575227Y-44196000D01*
X183583362Y-44197437D01*
X183650145Y-44196000D01*
X183679426Y-44196000D01*
X183687611Y-44195194D01*
X183733427Y-44194208D01*
X183762122Y-44187855D01*
X183791378Y-44184974D01*
X183835242Y-44171668D01*
X183879979Y-44161764D01*
X183906882Y-44149936D01*
X183935015Y-44141402D01*
X183975436Y-44119796D01*
X183982959Y-44116489D01*
X184008456Y-44102147D01*
X184067392Y-44070645D01*
X184073781Y-44065402D01*
X186193280Y-42873184D01*
X186142500Y-43128471D01*
X186142500Y-43549029D01*
X186224547Y-43961506D01*
X186385488Y-44350052D01*
X186619137Y-44699733D01*
X186916517Y-44997113D01*
X187266198Y-45230762D01*
X187654744Y-45391703D01*
X188067221Y-45473750D01*
X188487779Y-45473750D01*
X188900256Y-45391703D01*
X189288802Y-45230762D01*
X189638483Y-44997113D01*
X189935863Y-44699733D01*
X190169512Y-44350052D01*
X190330453Y-43961506D01*
X190412500Y-43549029D01*
X190412500Y-43128471D01*
X190330453Y-42715994D01*
X190169512Y-42327448D01*
X189941459Y-41986142D01*
X192775541Y-42082120D01*
X192767000Y-42125061D01*
X192767000Y-42328939D01*
X192800479Y-42497248D01*
X192728836Y-42535542D01*
X192595208Y-42645208D01*
X192485542Y-42778836D01*
X192404053Y-42931291D01*
X192353872Y-43096715D01*
X192336928Y-43268750D01*
X192336928Y-43756250D01*
X192353872Y-43928285D01*
X192404053Y-44093709D01*
X192485542Y-44246164D01*
X192595208Y-44379792D01*
X192680756Y-44450000D01*
X192595208Y-44520208D01*
X192485542Y-44653836D01*
X192404053Y-44806291D01*
X192353872Y-44971715D01*
X192336928Y-45143750D01*
X192336928Y-45631250D01*
X192353872Y-45803285D01*
X192404053Y-45968709D01*
X192485542Y-46121164D01*
X192595208Y-46254792D01*
X192728836Y-46364458D01*
X192881291Y-46445947D01*
X193046715Y-46496128D01*
X193218750Y-46513072D01*
X194131250Y-46513072D01*
X194303285Y-46496128D01*
X194468709Y-46445947D01*
X194621164Y-46364458D01*
X194634368Y-46353621D01*
X194674608Y-46386645D01*
X194806985Y-46457402D01*
X194950622Y-46500974D01*
X195062574Y-46512000D01*
X195062576Y-46512000D01*
X195099999Y-46515686D01*
X195137422Y-46512000D01*
X198758696Y-46512000D01*
X198840063Y-46633774D01*
X198984226Y-46777937D01*
X199153744Y-46891205D01*
X199342102Y-46969226D01*
X199542061Y-47009000D01*
X199745939Y-47009000D01*
X199945898Y-46969226D01*
X200134256Y-46891205D01*
X200238001Y-46821885D01*
X200238000Y-50056934D01*
X200206291Y-50066553D01*
X200053836Y-50148042D01*
X199920208Y-50257708D01*
X199810542Y-50391336D01*
X199729053Y-50543791D01*
X199678872Y-50709215D01*
X199661928Y-50881250D01*
X199661928Y-51368750D01*
X199678872Y-51540785D01*
X199729053Y-51706209D01*
X199810542Y-51858664D01*
X199920208Y-51992292D01*
X200005756Y-52062500D01*
X199920208Y-52132708D01*
X199810542Y-52266336D01*
X199729053Y-52418791D01*
X199678872Y-52584215D01*
X199661928Y-52756250D01*
X199661928Y-53243750D01*
X199678872Y-53415785D01*
X199729053Y-53581209D01*
X199810542Y-53733664D01*
X199920208Y-53867292D01*
X200053836Y-53976958D01*
X200206291Y-54058447D01*
X200238000Y-54068066D01*
X200238001Y-55912567D01*
X200234314Y-55950000D01*
X200249027Y-56099378D01*
X200292599Y-56243015D01*
X200363355Y-56375392D01*
X200434721Y-56462351D01*
X200458579Y-56491422D01*
X200487649Y-56515279D01*
X201315000Y-57342631D01*
X201315000Y-57401939D01*
X201354774Y-57601898D01*
X201432795Y-57790256D01*
X201546063Y-57959774D01*
X201690226Y-58103937D01*
X201859744Y-58217205D01*
X202048102Y-58295226D01*
X202248061Y-58335000D01*
X202451939Y-58335000D01*
X202651898Y-58295226D01*
X202840256Y-58217205D01*
X202913042Y-58168571D01*
X203098102Y-58245226D01*
X203298061Y-58285000D01*
X203501939Y-58285000D01*
X203701898Y-58245226D01*
X203890256Y-58167205D01*
X204059774Y-58053937D01*
X204203937Y-57909774D01*
X204317205Y-57740256D01*
X204395226Y-57551898D01*
X204435000Y-57351939D01*
X204435000Y-57292631D01*
X204512351Y-57215280D01*
X204541422Y-57191422D01*
X204636645Y-57075392D01*
X204707402Y-56943015D01*
X204750974Y-56799378D01*
X204762000Y-56687426D01*
X204762000Y-56687424D01*
X204765686Y-56650001D01*
X204762000Y-56612578D01*
X204762000Y-56407000D01*
X204828939Y-56407000D01*
X205028898Y-56367226D01*
X205217256Y-56289205D01*
X205386774Y-56175937D01*
X205530937Y-56031774D01*
X205644205Y-55862256D01*
X205697330Y-55734001D01*
X215692371Y-55734001D01*
X226295000Y-66336630D01*
X226295000Y-66395939D01*
X226334774Y-66595898D01*
X226412795Y-66784256D01*
X226526063Y-66953774D01*
X226670226Y-67097937D01*
X226839744Y-67211205D01*
X227028102Y-67289226D01*
X227228061Y-67329000D01*
X227431939Y-67329000D01*
X227631898Y-67289226D01*
X227820256Y-67211205D01*
X227989774Y-67097937D01*
X228133937Y-66953774D01*
X228247205Y-66784256D01*
X228325226Y-66595898D01*
X228326394Y-66590025D01*
X231822000Y-70085631D01*
X231822000Y-71491370D01*
X230837299Y-70506669D01*
X230813437Y-70477593D01*
X230697407Y-70382370D01*
X230565030Y-70311613D01*
X230421393Y-70268041D01*
X230309441Y-70257015D01*
X230309438Y-70257015D01*
X230272015Y-70253329D01*
X230234592Y-70257015D01*
X144335417Y-70257015D01*
X147272404Y-67320028D01*
X160097500Y-67320028D01*
X160097500Y-67617472D01*
X160155529Y-67909201D01*
X160269356Y-68184003D01*
X160434607Y-68431319D01*
X160644931Y-68641643D01*
X160892247Y-68806894D01*
X161167049Y-68920721D01*
X161458778Y-68978750D01*
X161756222Y-68978750D01*
X162047951Y-68920721D01*
X162322753Y-68806894D01*
X162570069Y-68641643D01*
X162780393Y-68431319D01*
X162945644Y-68184003D01*
X163059471Y-67909201D01*
X163117500Y-67617472D01*
X163117500Y-67320028D01*
X163066523Y-67063750D01*
X163087779Y-67063750D01*
X163500256Y-66981703D01*
X163888802Y-66820762D01*
X164195208Y-66616029D01*
X164159627Y-66701928D01*
X164058600Y-67209826D01*
X164058600Y-67727674D01*
X164159627Y-68235572D01*
X164357799Y-68714001D01*
X164645500Y-69144576D01*
X165011674Y-69510750D01*
X165442249Y-69798451D01*
X165920678Y-69996623D01*
X166428576Y-70097650D01*
X166946424Y-70097650D01*
X167454322Y-69996623D01*
X167932751Y-69798451D01*
X168363326Y-69510750D01*
X168729500Y-69144576D01*
X169017201Y-68714001D01*
X169215373Y-68235572D01*
X169316400Y-67727674D01*
X169316400Y-67320028D01*
X170257500Y-67320028D01*
X170257500Y-67617472D01*
X170315529Y-67909201D01*
X170429356Y-68184003D01*
X170594607Y-68431319D01*
X170804931Y-68641643D01*
X171052247Y-68806894D01*
X171327049Y-68920721D01*
X171618778Y-68978750D01*
X171916222Y-68978750D01*
X172207951Y-68920721D01*
X172482753Y-68806894D01*
X172730069Y-68641643D01*
X172940393Y-68431319D01*
X173105644Y-68184003D01*
X173219471Y-67909201D01*
X173277500Y-67617472D01*
X173277500Y-67320028D01*
X173219471Y-67028299D01*
X173105644Y-66753497D01*
X172940393Y-66506181D01*
X172730069Y-66295857D01*
X172482753Y-66130606D01*
X172207951Y-66016779D01*
X171916222Y-65958750D01*
X171618778Y-65958750D01*
X171327049Y-66016779D01*
X171052247Y-66130606D01*
X170804931Y-66295857D01*
X170594607Y-66506181D01*
X170429356Y-66753497D01*
X170315529Y-67028299D01*
X170257500Y-67320028D01*
X169316400Y-67320028D01*
X169316400Y-67209826D01*
X169215373Y-66701928D01*
X169017201Y-66223499D01*
X168729500Y-65792924D01*
X168363326Y-65426750D01*
X167932751Y-65139049D01*
X167454322Y-64940877D01*
X166946424Y-64839850D01*
X166428576Y-64839850D01*
X165920678Y-64940877D01*
X165442249Y-65139049D01*
X165011674Y-65426750D01*
X164941263Y-65497161D01*
X165012500Y-65139029D01*
X165012500Y-64718471D01*
X164930453Y-64305994D01*
X164769512Y-63917448D01*
X164535863Y-63567767D01*
X164238483Y-63270387D01*
X163888802Y-63036738D01*
X163500256Y-62875797D01*
X163087779Y-62793750D01*
X162667221Y-62793750D01*
X162254744Y-62875797D01*
X161866198Y-63036738D01*
X161516517Y-63270387D01*
X161219137Y-63567767D01*
X160985488Y-63917448D01*
X160824547Y-64305994D01*
X160742500Y-64718471D01*
X160742500Y-65139029D01*
X160824547Y-65551506D01*
X160985488Y-65940052D01*
X161064999Y-66059049D01*
X160892247Y-66130606D01*
X160644931Y-66295857D01*
X160434607Y-66506181D01*
X160269356Y-66753497D01*
X160155529Y-67028299D01*
X160097500Y-67320028D01*
X147272404Y-67320028D01*
X152413961Y-62178471D01*
X167092500Y-62178471D01*
X167092500Y-62599029D01*
X167174547Y-63011506D01*
X167335488Y-63400052D01*
X167569137Y-63749733D01*
X167866517Y-64047113D01*
X168216198Y-64280762D01*
X168604744Y-64441703D01*
X169017221Y-64523750D01*
X169437779Y-64523750D01*
X169850256Y-64441703D01*
X170238802Y-64280762D01*
X170588483Y-64047113D01*
X170885863Y-63749733D01*
X171119512Y-63400052D01*
X171280453Y-63011506D01*
X171362500Y-62599029D01*
X171362500Y-62318750D01*
X173286928Y-62318750D01*
X173286928Y-62806250D01*
X173303872Y-62978285D01*
X173354053Y-63143709D01*
X173435542Y-63296164D01*
X173545208Y-63429792D01*
X173630756Y-63500000D01*
X173545208Y-63570208D01*
X173435542Y-63703836D01*
X173354053Y-63856291D01*
X173303872Y-64021715D01*
X173286928Y-64193750D01*
X173286928Y-64681250D01*
X173303872Y-64853285D01*
X173354053Y-65018709D01*
X173435542Y-65171164D01*
X173545208Y-65304792D01*
X173678836Y-65414458D01*
X173831291Y-65495947D01*
X173996715Y-65546128D01*
X174168750Y-65563072D01*
X174672942Y-65563072D01*
X178292972Y-69183103D01*
X178316829Y-69212173D01*
X178345899Y-69236030D01*
X178432858Y-69307396D01*
X178498201Y-69342322D01*
X178565236Y-69378153D01*
X178708873Y-69421725D01*
X178820825Y-69432751D01*
X178820828Y-69432751D01*
X178858251Y-69436437D01*
X178895674Y-69432751D01*
X181606286Y-69432751D01*
X181677300Y-69433473D01*
X181718070Y-69425793D01*
X181759378Y-69421725D01*
X181791665Y-69411931D01*
X181824807Y-69405688D01*
X181863299Y-69390201D01*
X181903015Y-69378153D01*
X181932766Y-69362251D01*
X181964059Y-69349660D01*
X181998793Y-69326959D01*
X182035392Y-69307396D01*
X182061472Y-69285993D01*
X182089704Y-69267541D01*
X182119337Y-69238505D01*
X182151422Y-69212173D01*
X182196578Y-69157150D01*
X183163404Y-68003193D01*
X183209627Y-68235572D01*
X183407799Y-68714001D01*
X183695500Y-69144576D01*
X184061674Y-69510750D01*
X184492249Y-69798451D01*
X184970678Y-69996623D01*
X185478576Y-70097650D01*
X185996424Y-70097650D01*
X186504322Y-69996623D01*
X186982751Y-69798451D01*
X187413326Y-69510750D01*
X187779500Y-69144576D01*
X188067201Y-68714001D01*
X188265373Y-68235572D01*
X188366400Y-67727674D01*
X188366400Y-67320028D01*
X189307500Y-67320028D01*
X189307500Y-67617472D01*
X189365529Y-67909201D01*
X189479356Y-68184003D01*
X189644607Y-68431319D01*
X189854931Y-68641643D01*
X190102247Y-68806894D01*
X190377049Y-68920721D01*
X190668778Y-68978750D01*
X190966222Y-68978750D01*
X191257951Y-68920721D01*
X191532753Y-68806894D01*
X191780069Y-68641643D01*
X191990393Y-68431319D01*
X192155644Y-68184003D01*
X192269471Y-67909201D01*
X192327500Y-67617472D01*
X192327500Y-67320028D01*
X192269471Y-67028299D01*
X192155644Y-66753497D01*
X191990393Y-66506181D01*
X191780069Y-66295857D01*
X191532753Y-66130606D01*
X191257951Y-66016779D01*
X190966222Y-65958750D01*
X190668778Y-65958750D01*
X190377049Y-66016779D01*
X190102247Y-66130606D01*
X189854931Y-66295857D01*
X189644607Y-66506181D01*
X189479356Y-66753497D01*
X189365529Y-67028299D01*
X189307500Y-67320028D01*
X188366400Y-67320028D01*
X188366400Y-67209826D01*
X188265373Y-66701928D01*
X188067201Y-66223499D01*
X187779500Y-65792924D01*
X187413326Y-65426750D01*
X187073222Y-65199500D01*
X192508797Y-65199500D01*
X192595208Y-65304792D01*
X192728836Y-65414458D01*
X192881291Y-65495947D01*
X193046715Y-65546128D01*
X193218750Y-65563072D01*
X194131250Y-65563072D01*
X194303285Y-65546128D01*
X194468709Y-65495947D01*
X194621164Y-65414458D01*
X194754792Y-65304792D01*
X194864458Y-65171164D01*
X194945947Y-65018709D01*
X194996128Y-64853285D01*
X195010813Y-64704187D01*
X195023405Y-64702947D01*
X195167042Y-64659375D01*
X195299419Y-64588618D01*
X195415449Y-64493395D01*
X195439311Y-64464319D01*
X196658033Y-63245597D01*
X198177948Y-63243659D01*
X198222226Y-63287937D01*
X198391744Y-63401205D01*
X198580102Y-63479226D01*
X198780061Y-63519000D01*
X198983939Y-63519000D01*
X199183898Y-63479226D01*
X199372256Y-63401205D01*
X199541774Y-63287937D01*
X199587850Y-63241861D01*
X199659345Y-63241770D01*
X199616517Y-63270387D01*
X199319137Y-63567767D01*
X199085488Y-63917448D01*
X198924547Y-64305994D01*
X198842500Y-64718471D01*
X198842500Y-65139029D01*
X198924547Y-65551506D01*
X199085488Y-65940052D01*
X199164999Y-66059049D01*
X198992247Y-66130606D01*
X198744931Y-66295857D01*
X198534607Y-66506181D01*
X198369356Y-66753497D01*
X198255529Y-67028299D01*
X198197500Y-67320028D01*
X198197500Y-67617472D01*
X198255529Y-67909201D01*
X198369356Y-68184003D01*
X198534607Y-68431319D01*
X198744931Y-68641643D01*
X198992247Y-68806894D01*
X199267049Y-68920721D01*
X199558778Y-68978750D01*
X199856222Y-68978750D01*
X200147951Y-68920721D01*
X200422753Y-68806894D01*
X200670069Y-68641643D01*
X200880393Y-68431319D01*
X201045644Y-68184003D01*
X201159471Y-67909201D01*
X201217500Y-67617472D01*
X201217500Y-67320028D01*
X201166523Y-67063750D01*
X201187779Y-67063750D01*
X201600256Y-66981703D01*
X201988802Y-66820762D01*
X202295208Y-66616029D01*
X202259627Y-66701928D01*
X202158600Y-67209826D01*
X202158600Y-67727674D01*
X202259627Y-68235572D01*
X202457799Y-68714001D01*
X202745500Y-69144576D01*
X203111674Y-69510750D01*
X203542249Y-69798451D01*
X204020678Y-69996623D01*
X204528576Y-70097650D01*
X205046424Y-70097650D01*
X205554322Y-69996623D01*
X206032751Y-69798451D01*
X206463326Y-69510750D01*
X206829500Y-69144576D01*
X207117201Y-68714001D01*
X207315373Y-68235572D01*
X207416400Y-67727674D01*
X207416400Y-67209826D01*
X207315373Y-66701928D01*
X207277916Y-66611500D01*
X208624235Y-66611500D01*
X208529356Y-66753497D01*
X208415529Y-67028299D01*
X208357500Y-67320028D01*
X208357500Y-67617472D01*
X208415529Y-67909201D01*
X208529356Y-68184003D01*
X208694607Y-68431319D01*
X208904931Y-68641643D01*
X209152247Y-68806894D01*
X209427049Y-68920721D01*
X209718778Y-68978750D01*
X210016222Y-68978750D01*
X210307951Y-68920721D01*
X210582753Y-68806894D01*
X210830069Y-68641643D01*
X211040393Y-68431319D01*
X211205644Y-68184003D01*
X211319471Y-67909201D01*
X211377500Y-67617472D01*
X211377500Y-67320028D01*
X211319471Y-67028299D01*
X211205644Y-66753497D01*
X211110765Y-66611500D01*
X214173450Y-66611500D01*
X214214000Y-66615494D01*
X214254550Y-66611500D01*
X214254553Y-66611500D01*
X214375826Y-66599556D01*
X214531434Y-66552353D01*
X214674842Y-66475699D01*
X214800541Y-66372541D01*
X214826397Y-66341035D01*
X215555046Y-65612388D01*
X215586541Y-65586541D01*
X215612389Y-65555045D01*
X215612392Y-65555042D01*
X215689699Y-65460843D01*
X215766353Y-65317434D01*
X215772013Y-65298774D01*
X215813556Y-65161826D01*
X215825500Y-65040553D01*
X215825500Y-65040551D01*
X215829494Y-65000000D01*
X215825500Y-64959450D01*
X215825500Y-58040553D01*
X215829494Y-58000000D01*
X215813556Y-57838174D01*
X215766353Y-57682566D01*
X215689699Y-57539158D01*
X215586541Y-57413459D01*
X215460842Y-57310301D01*
X215436978Y-57297545D01*
X214588399Y-56448967D01*
X214562542Y-56417460D01*
X214436843Y-56314302D01*
X214293435Y-56237648D01*
X214137827Y-56190445D01*
X214016554Y-56178501D01*
X214016551Y-56178501D01*
X213976001Y-56174507D01*
X213935451Y-56178501D01*
X211768549Y-56178501D01*
X211727998Y-56174507D01*
X211687448Y-56178501D01*
X211687446Y-56178501D01*
X211566173Y-56190445D01*
X211410565Y-56237648D01*
X211267157Y-56314302D01*
X211192332Y-56375709D01*
X211026102Y-56408774D01*
X210837744Y-56486795D01*
X210668226Y-56600063D01*
X210524063Y-56744226D01*
X210410795Y-56913744D01*
X210332774Y-57102102D01*
X210293000Y-57302061D01*
X210293000Y-57505939D01*
X210332774Y-57705898D01*
X210410795Y-57894256D01*
X210524063Y-58063774D01*
X210668226Y-58207937D01*
X210837744Y-58321205D01*
X211026102Y-58399226D01*
X211226061Y-58439000D01*
X211429939Y-58439000D01*
X211629898Y-58399226D01*
X211818256Y-58321205D01*
X211987774Y-58207937D01*
X212131937Y-58063774D01*
X212245205Y-57894256D01*
X212272028Y-57829501D01*
X213634069Y-57829501D01*
X214174501Y-58369934D01*
X214174500Y-64658067D01*
X214053431Y-64779136D01*
X214063072Y-64681250D01*
X214063072Y-64193750D01*
X214046128Y-64021715D01*
X213995947Y-63856291D01*
X213914458Y-63703836D01*
X213804792Y-63570208D01*
X213719244Y-63500000D01*
X213804792Y-63429792D01*
X213914458Y-63296164D01*
X213995947Y-63143709D01*
X214046128Y-62978285D01*
X214063072Y-62806250D01*
X214063072Y-62318750D01*
X214046128Y-62146715D01*
X213995947Y-61981291D01*
X213914458Y-61828836D01*
X213804792Y-61695208D01*
X213671164Y-61585542D01*
X213518709Y-61504053D01*
X213487000Y-61494434D01*
X213487000Y-61238468D01*
X213515205Y-61196256D01*
X213593226Y-61007898D01*
X213633000Y-60807939D01*
X213633000Y-60604061D01*
X213593226Y-60404102D01*
X213515205Y-60215744D01*
X213401937Y-60046226D01*
X213257774Y-59902063D01*
X213088256Y-59788795D01*
X212899898Y-59710774D01*
X212699939Y-59671000D01*
X212496061Y-59671000D01*
X212296102Y-59710774D01*
X212107744Y-59788795D01*
X211938226Y-59902063D01*
X211794063Y-60046226D01*
X211680795Y-60215744D01*
X211602774Y-60404102D01*
X211563000Y-60604061D01*
X211563000Y-60807939D01*
X211602774Y-61007898D01*
X211680795Y-61196256D01*
X211794063Y-61365774D01*
X211932097Y-61503808D01*
X211931291Y-61504053D01*
X211778836Y-61585542D01*
X211645208Y-61695208D01*
X211535542Y-61828836D01*
X211454053Y-61981291D01*
X211403872Y-62146715D01*
X211386928Y-62318750D01*
X211386928Y-62806250D01*
X211403872Y-62978285D01*
X211454053Y-63143709D01*
X211535542Y-63296164D01*
X211645208Y-63429792D01*
X211730756Y-63500000D01*
X211645208Y-63570208D01*
X211557911Y-63676580D01*
X209030834Y-63682429D01*
X209219512Y-63400052D01*
X209380453Y-63011506D01*
X209462500Y-62599029D01*
X209462500Y-62178471D01*
X209380453Y-61765994D01*
X209219512Y-61377448D01*
X208985863Y-61027767D01*
X208688483Y-60730387D01*
X208338802Y-60496738D01*
X207950256Y-60335797D01*
X207537779Y-60253750D01*
X207117221Y-60253750D01*
X206704744Y-60335797D01*
X206316198Y-60496738D01*
X205966517Y-60730387D01*
X205669137Y-61027767D01*
X205435488Y-61377448D01*
X205274547Y-61765994D01*
X205192500Y-62178471D01*
X205192500Y-62599029D01*
X205255039Y-62913434D01*
X204577370Y-62574740D01*
X203964935Y-61962305D01*
X203940731Y-61932889D01*
X203883202Y-61885799D01*
X203825392Y-61838355D01*
X203824957Y-61838122D01*
X203824580Y-61837814D01*
X203758860Y-61802793D01*
X203693015Y-61767599D01*
X203692548Y-61767457D01*
X203692112Y-61767225D01*
X203620456Y-61745588D01*
X203549378Y-61724027D01*
X203548890Y-61723979D01*
X203548420Y-61723837D01*
X203474107Y-61716613D01*
X203400000Y-61709314D01*
X203362091Y-61713048D01*
X199579582Y-61717871D01*
X199541774Y-61680063D01*
X199372256Y-61566795D01*
X199183898Y-61488774D01*
X198983939Y-61449000D01*
X198780061Y-61449000D01*
X198580102Y-61488774D01*
X198391744Y-61566795D01*
X198222226Y-61680063D01*
X198182636Y-61719653D01*
X196378944Y-61721953D01*
X196341999Y-61718314D01*
X196304085Y-61722048D01*
X196303603Y-61722049D01*
X196267122Y-61725689D01*
X196192621Y-61733027D01*
X196192151Y-61733169D01*
X196191665Y-61733218D01*
X196120697Y-61754845D01*
X196048983Y-61776599D01*
X196048548Y-61776832D01*
X196048084Y-61776973D01*
X195982712Y-61812022D01*
X195916607Y-61847356D01*
X195916228Y-61847667D01*
X195915797Y-61847898D01*
X195858500Y-61895043D01*
X195829648Y-61918721D01*
X195829299Y-61919070D01*
X195799889Y-61943269D01*
X195776383Y-61971986D01*
X195013072Y-62735298D01*
X195013072Y-62318750D01*
X194996128Y-62146715D01*
X194945947Y-61981291D01*
X194864458Y-61828836D01*
X194754792Y-61695208D01*
X194621164Y-61585542D01*
X194468709Y-61504053D01*
X194310000Y-61455909D01*
X194310000Y-61153711D01*
X194351937Y-61111774D01*
X194465205Y-60942256D01*
X194543226Y-60753898D01*
X194583000Y-60553939D01*
X194583000Y-60350061D01*
X194543226Y-60150102D01*
X194465205Y-59961744D01*
X194351937Y-59792226D01*
X194207774Y-59648063D01*
X194038256Y-59534795D01*
X193849898Y-59456774D01*
X193649939Y-59417000D01*
X193446061Y-59417000D01*
X193246102Y-59456774D01*
X193057744Y-59534795D01*
X192888226Y-59648063D01*
X192744063Y-59792226D01*
X192630795Y-59961744D01*
X192552774Y-60150102D01*
X192513000Y-60350061D01*
X192513000Y-60553939D01*
X192552774Y-60753898D01*
X192630795Y-60942256D01*
X192744063Y-61111774D01*
X192786000Y-61153711D01*
X192786001Y-61554987D01*
X192728836Y-61585542D01*
X192595208Y-61695208D01*
X192485542Y-61828836D01*
X192404053Y-61981291D01*
X192353872Y-62146715D01*
X192336928Y-62318750D01*
X192336928Y-62806250D01*
X192353872Y-62978285D01*
X192404053Y-63143709D01*
X192485542Y-63296164D01*
X192595208Y-63429792D01*
X192680756Y-63500000D01*
X192595208Y-63570208D01*
X192508797Y-63675500D01*
X189985464Y-63675500D01*
X190169512Y-63400052D01*
X190330453Y-63011506D01*
X190412500Y-62599029D01*
X190412500Y-62178471D01*
X190330453Y-61765994D01*
X190169512Y-61377448D01*
X189935863Y-61027767D01*
X189638483Y-60730387D01*
X189288802Y-60496738D01*
X188900256Y-60335797D01*
X188487779Y-60253750D01*
X188067221Y-60253750D01*
X187654744Y-60335797D01*
X187266198Y-60496738D01*
X186916517Y-60730387D01*
X186619137Y-61027767D01*
X186385488Y-61377448D01*
X186224547Y-61765994D01*
X186142500Y-62178471D01*
X186142500Y-62599029D01*
X186224547Y-63011506D01*
X186385488Y-63400052D01*
X186569536Y-63675500D01*
X185371238Y-63675500D01*
X185333815Y-63671814D01*
X185296392Y-63675500D01*
X185296390Y-63675500D01*
X185184438Y-63686526D01*
X185040801Y-63730098D01*
X184908424Y-63800855D01*
X184792394Y-63896078D01*
X184768537Y-63925148D01*
X184048018Y-64645667D01*
X183980453Y-64305994D01*
X183819512Y-63917448D01*
X183585863Y-63567767D01*
X183288483Y-63270387D01*
X182938802Y-63036738D01*
X182550256Y-62875797D01*
X182137779Y-62793750D01*
X181717221Y-62793750D01*
X181304744Y-62875797D01*
X180916198Y-63036738D01*
X180566517Y-63270387D01*
X180269137Y-63567767D01*
X180035488Y-63917448D01*
X179874547Y-64305994D01*
X179792500Y-64718471D01*
X179792500Y-65139029D01*
X179874547Y-65551506D01*
X180035488Y-65940052D01*
X180114999Y-66059049D01*
X179942247Y-66130606D01*
X179694931Y-66295857D01*
X179484607Y-66506181D01*
X179319356Y-66753497D01*
X179205529Y-67028299D01*
X179147500Y-67320028D01*
X179147500Y-67617472D01*
X179205439Y-67908751D01*
X179173882Y-67908751D01*
X175961575Y-64696445D01*
X175963072Y-64681250D01*
X175963072Y-64193750D01*
X175946128Y-64021715D01*
X175895947Y-63856291D01*
X175814458Y-63703836D01*
X175704792Y-63570208D01*
X175619244Y-63500000D01*
X175704792Y-63429792D01*
X175814458Y-63296164D01*
X175895947Y-63143709D01*
X175946128Y-62978285D01*
X175963072Y-62806250D01*
X175963072Y-62318750D01*
X175946128Y-62146715D01*
X175895947Y-61981291D01*
X175814458Y-61828836D01*
X175704792Y-61695208D01*
X175571164Y-61585542D01*
X175418709Y-61504053D01*
X175260000Y-61455909D01*
X175260000Y-61153711D01*
X175301937Y-61111774D01*
X175415205Y-60942256D01*
X175493226Y-60753898D01*
X175533000Y-60553939D01*
X175533000Y-60350061D01*
X175493226Y-60150102D01*
X175415205Y-59961744D01*
X175301937Y-59792226D01*
X175157774Y-59648063D01*
X174988256Y-59534795D01*
X174799898Y-59456774D01*
X174599939Y-59417000D01*
X174396061Y-59417000D01*
X174196102Y-59456774D01*
X174007744Y-59534795D01*
X173838226Y-59648063D01*
X173694063Y-59792226D01*
X173580795Y-59961744D01*
X173502774Y-60150102D01*
X173463000Y-60350061D01*
X173463000Y-60553939D01*
X173502774Y-60753898D01*
X173580795Y-60942256D01*
X173694063Y-61111774D01*
X173736000Y-61153711D01*
X173736001Y-61554987D01*
X173678836Y-61585542D01*
X173545208Y-61695208D01*
X173435542Y-61828836D01*
X173354053Y-61981291D01*
X173303872Y-62146715D01*
X173286928Y-62318750D01*
X171362500Y-62318750D01*
X171362500Y-62178471D01*
X171280453Y-61765994D01*
X171119512Y-61377448D01*
X170885863Y-61027767D01*
X170588483Y-60730387D01*
X170238802Y-60496738D01*
X169850256Y-60335797D01*
X169437779Y-60253750D01*
X169017221Y-60253750D01*
X168604744Y-60335797D01*
X168216198Y-60496738D01*
X167866517Y-60730387D01*
X167569137Y-61027767D01*
X167335488Y-61377448D01*
X167174547Y-61765994D01*
X167092500Y-62178471D01*
X152413961Y-62178471D01*
X176582576Y-38009858D01*
X176654587Y-38031702D01*
X176646063Y-38040226D01*
X176532795Y-38209744D01*
X176454774Y-38398102D01*
X176415000Y-38598061D01*
X176415000Y-38801939D01*
X176454774Y-39001898D01*
X176532795Y-39190256D01*
X176646063Y-39359774D01*
X176790226Y-39503937D01*
X176959744Y-39617205D01*
X177148102Y-39695226D01*
X177348061Y-39735000D01*
X177551939Y-39735000D01*
X177751898Y-39695226D01*
X177940256Y-39617205D01*
X178109774Y-39503937D01*
X178253937Y-39359774D01*
X178367205Y-39190256D01*
X178445226Y-39001898D01*
X178485000Y-38801939D01*
X178485000Y-38598061D01*
X178445226Y-38398102D01*
X178367205Y-38209744D01*
X178325500Y-38147328D01*
X178325500Y-38037743D01*
X178464850Y-37995472D01*
X178618386Y-37913405D01*
X178752962Y-37802962D01*
X178863405Y-37668386D01*
X178945472Y-37514850D01*
X178996008Y-37348254D01*
X179013072Y-37175000D01*
X179013072Y-36425000D01*
X178996008Y-36251746D01*
X178945472Y-36085150D01*
X178863405Y-35931614D01*
X178752962Y-35797038D01*
X178618386Y-35686595D01*
X178464850Y-35604528D01*
X178298254Y-35553992D01*
X178125000Y-35536928D01*
X176875000Y-35536928D01*
X176701746Y-35553992D01*
X176535150Y-35604528D01*
X176381614Y-35686595D01*
X176247038Y-35797038D01*
X176136595Y-35931614D01*
X176054528Y-36085150D01*
X176003992Y-36251746D01*
X176003792Y-36253774D01*
X141858068Y-70399500D01*
X141224050Y-70399500D01*
X141183500Y-70395506D01*
X141142949Y-70399500D01*
X141142947Y-70399500D01*
X141021674Y-70411444D01*
X140866066Y-70458647D01*
X140722657Y-70535301D01*
X140628458Y-70612608D01*
X140628455Y-70612611D01*
X140596959Y-70638459D01*
X140571111Y-70669955D01*
X138596961Y-72644107D01*
X138565460Y-72669959D01*
X138539609Y-72701459D01*
X138462301Y-72795658D01*
X138385647Y-72939067D01*
X138338445Y-73094674D01*
X138323488Y-73246525D01*
X138322986Y-73246794D01*
X138102055Y-73428108D01*
X138091502Y-73393320D01*
X138032537Y-73283006D01*
X137953185Y-73186315D01*
X137856494Y-73106963D01*
X137746180Y-73047998D01*
X137626482Y-73011688D01*
X137502000Y-72999428D01*
X136937750Y-73002500D01*
X136779000Y-73161250D01*
X136779000Y-74485500D01*
X136799000Y-74485500D01*
X136799000Y-74739500D01*
X136779000Y-74739500D01*
X136779000Y-76063750D01*
X136937750Y-76222500D01*
X137502000Y-76225572D01*
X137626482Y-76213312D01*
X137746180Y-76177002D01*
X137856494Y-76118037D01*
X137953185Y-76038685D01*
X138032537Y-75941994D01*
X138091502Y-75831680D01*
X138102055Y-75796892D01*
X138322987Y-75978206D01*
X138580967Y-76116099D01*
X138860890Y-76201013D01*
X139152000Y-76229685D01*
X139443111Y-76201013D01*
X139723034Y-76116099D01*
X139981014Y-75978206D01*
X140207134Y-75792634D01*
X140392706Y-75566514D01*
X140402000Y-75549126D01*
X140411294Y-75566514D01*
X140596866Y-75792634D01*
X140822987Y-75978206D01*
X141080967Y-76116099D01*
X141360890Y-76201013D01*
X141652000Y-76229685D01*
X141943111Y-76201013D01*
X142223034Y-76116099D01*
X142481014Y-75978206D01*
X142707134Y-75792634D01*
X142892706Y-75566514D01*
X142902000Y-75549126D01*
X142911294Y-75566514D01*
X143096866Y-75792634D01*
X143322987Y-75978206D01*
X143580967Y-76116099D01*
X143860890Y-76201013D01*
X144152000Y-76229685D01*
X144443111Y-76201013D01*
X144723034Y-76116099D01*
X144981014Y-75978206D01*
X145207134Y-75792634D01*
X145392706Y-75566514D01*
X145530599Y-75308533D01*
X145615513Y-75028610D01*
X145637000Y-74810449D01*
X145637000Y-74414550D01*
X145615513Y-74196389D01*
X145530599Y-73916466D01*
X145392706Y-73658486D01*
X145207134Y-73432366D01*
X144981013Y-73246794D01*
X144723033Y-73108901D01*
X144443110Y-73023987D01*
X144152000Y-72995315D01*
X143860889Y-73023987D01*
X143580966Y-73108901D01*
X143322986Y-73246794D01*
X143096866Y-73432366D01*
X142911294Y-73658487D01*
X142902000Y-73675874D01*
X142892706Y-73658486D01*
X142707134Y-73432366D01*
X142692650Y-73420480D01*
X144332116Y-71781015D01*
X149851497Y-71781015D01*
X149530222Y-72261837D01*
X149307715Y-72799016D01*
X149194282Y-73369281D01*
X149194282Y-73950719D01*
X149307715Y-74520984D01*
X149530222Y-75058163D01*
X149853251Y-75541610D01*
X150264390Y-75952749D01*
X150747837Y-76275778D01*
X151285016Y-76498285D01*
X151855281Y-76611718D01*
X152436719Y-76611718D01*
X153006984Y-76498285D01*
X153544163Y-76275778D01*
X154027610Y-75952749D01*
X154438749Y-75541610D01*
X154761778Y-75058163D01*
X154984285Y-74520984D01*
X155097718Y-73950719D01*
X155097718Y-73369281D01*
X154984285Y-72799016D01*
X154761778Y-72261837D01*
X154440503Y-71781015D01*
X217161497Y-71781015D01*
X216840222Y-72261837D01*
X216617715Y-72799016D01*
X216504282Y-73369281D01*
X216504282Y-73950719D01*
X216617715Y-74520984D01*
X216840222Y-75058163D01*
X217163251Y-75541610D01*
X217574390Y-75952749D01*
X218057837Y-76275778D01*
X218595016Y-76498285D01*
X219165281Y-76611718D01*
X219746719Y-76611718D01*
X220316984Y-76498285D01*
X220854163Y-76275778D01*
X221337610Y-75952749D01*
X221748749Y-75541610D01*
X221753165Y-75535000D01*
X226095928Y-75535000D01*
X226108188Y-75659482D01*
X226144498Y-75779180D01*
X226203463Y-75889494D01*
X226282815Y-75986185D01*
X226379506Y-76065537D01*
X226489820Y-76124502D01*
X226609518Y-76160812D01*
X226734000Y-76173072D01*
X227298250Y-76170000D01*
X227457000Y-76011250D01*
X227457000Y-74687000D01*
X226257750Y-74687000D01*
X226099000Y-74845750D01*
X226095928Y-75535000D01*
X221753165Y-75535000D01*
X222071778Y-75058163D01*
X222294285Y-74520984D01*
X222407718Y-73950719D01*
X222407718Y-73585000D01*
X226095928Y-73585000D01*
X226099000Y-74274250D01*
X226257750Y-74433000D01*
X227457000Y-74433000D01*
X227457000Y-73108750D01*
X227298250Y-72950000D01*
X226734000Y-72946928D01*
X226609518Y-72959188D01*
X226489820Y-72995498D01*
X226379506Y-73054463D01*
X226282815Y-73133815D01*
X226203463Y-73230506D01*
X226144498Y-73340820D01*
X226108188Y-73460518D01*
X226095928Y-73585000D01*
X222407718Y-73585000D01*
X222407718Y-73369281D01*
X222294285Y-72799016D01*
X222071778Y-72261837D01*
X221750503Y-71781015D01*
X229956385Y-71781015D01*
X231543350Y-73367980D01*
X231528866Y-73379866D01*
X231343294Y-73605987D01*
X231334000Y-73623374D01*
X231324706Y-73605986D01*
X231139134Y-73379866D01*
X230913013Y-73194294D01*
X230655033Y-73056401D01*
X230375110Y-72971487D01*
X230084000Y-72942815D01*
X229792889Y-72971487D01*
X229512966Y-73056401D01*
X229254986Y-73194294D01*
X229034055Y-73375608D01*
X229023502Y-73340820D01*
X228964537Y-73230506D01*
X228885185Y-73133815D01*
X228788494Y-73054463D01*
X228678180Y-72995498D01*
X228558482Y-72959188D01*
X228434000Y-72946928D01*
X227869750Y-72950000D01*
X227711000Y-73108750D01*
X227711000Y-74433000D01*
X227731000Y-74433000D01*
X227731000Y-74687000D01*
X227711000Y-74687000D01*
X227711000Y-76011250D01*
X227869750Y-76170000D01*
X228434000Y-76173072D01*
X228558482Y-76160812D01*
X228678180Y-76124502D01*
X228788494Y-76065537D01*
X228885185Y-75986185D01*
X228964537Y-75889494D01*
X229023502Y-75779180D01*
X229034055Y-75744392D01*
X229254987Y-75925706D01*
X229258500Y-75927584D01*
X229258501Y-76978066D01*
X228713996Y-77522572D01*
X228552102Y-77554774D01*
X228363744Y-77632795D01*
X228194226Y-77746063D01*
X228050063Y-77890226D01*
X227936795Y-78059744D01*
X227858774Y-78248102D01*
X227819000Y-78448061D01*
X227819000Y-78651939D01*
X227831544Y-78715000D01*
X125000280Y-78715000D01*
X124788462Y-78694231D01*
X124615764Y-78642091D01*
X124456482Y-78557399D01*
X124316679Y-78443378D01*
X124201694Y-78304385D01*
X124115890Y-78145695D01*
X124062545Y-77973365D01*
X124040446Y-77763104D01*
X124030511Y-73369281D01*
X125572282Y-73369281D01*
X125572282Y-73950719D01*
X125685715Y-74520984D01*
X125908222Y-75058163D01*
X126231251Y-75541610D01*
X126642390Y-75952749D01*
X127125837Y-76275778D01*
X127663016Y-76498285D01*
X128233281Y-76611718D01*
X128814719Y-76611718D01*
X129384984Y-76498285D01*
X129922163Y-76275778D01*
X130405610Y-75952749D01*
X130770859Y-75587500D01*
X135163928Y-75587500D01*
X135176188Y-75711982D01*
X135212498Y-75831680D01*
X135271463Y-75941994D01*
X135350815Y-76038685D01*
X135447506Y-76118037D01*
X135557820Y-76177002D01*
X135677518Y-76213312D01*
X135802000Y-76225572D01*
X136366250Y-76222500D01*
X136525000Y-76063750D01*
X136525000Y-74739500D01*
X135325750Y-74739500D01*
X135167000Y-74898250D01*
X135163928Y-75587500D01*
X130770859Y-75587500D01*
X130816749Y-75541610D01*
X131139778Y-75058163D01*
X131362285Y-74520984D01*
X131475718Y-73950719D01*
X131475718Y-73637500D01*
X135163928Y-73637500D01*
X135167000Y-74326750D01*
X135325750Y-74485500D01*
X136525000Y-74485500D01*
X136525000Y-73161250D01*
X136366250Y-73002500D01*
X135802000Y-72999428D01*
X135677518Y-73011688D01*
X135557820Y-73047998D01*
X135447506Y-73106963D01*
X135350815Y-73186315D01*
X135271463Y-73283006D01*
X135212498Y-73393320D01*
X135176188Y-73513018D01*
X135163928Y-73637500D01*
X131475718Y-73637500D01*
X131475718Y-73369281D01*
X131362285Y-72799016D01*
X131139778Y-72261837D01*
X130816749Y-71778390D01*
X130405610Y-71367251D01*
X129922163Y-71044222D01*
X129384984Y-70821715D01*
X128814719Y-70708282D01*
X128233281Y-70708282D01*
X127663016Y-70821715D01*
X127125837Y-71044222D01*
X126642390Y-71367251D01*
X126231251Y-71778390D01*
X125908222Y-72261837D01*
X125685715Y-72799016D01*
X125572282Y-73369281D01*
X124030511Y-73369281D01*
X124010800Y-64652929D01*
X165187425Y-37235525D01*
X165061715Y-37539016D01*
X164948282Y-38109281D01*
X164948282Y-38690719D01*
X165061715Y-39260984D01*
X165284222Y-39798163D01*
X165607251Y-40281610D01*
X166018390Y-40692749D01*
X166501837Y-41015778D01*
X167039016Y-41238285D01*
X167609281Y-41351718D01*
X168190719Y-41351718D01*
X168760984Y-41238285D01*
X169298163Y-41015778D01*
X169781610Y-40692749D01*
X170192749Y-40281610D01*
X170515778Y-39798163D01*
X170738285Y-39260984D01*
X170851718Y-38690719D01*
X170851718Y-38109281D01*
X170738285Y-37539016D01*
X170515778Y-37001837D01*
X170192749Y-36518390D01*
X169781610Y-36107251D01*
X169298163Y-35784222D01*
X168760984Y-35561715D01*
X168190719Y-35448282D01*
X167871582Y-35448282D01*
X178866995Y-28127000D01*
X180282500Y-28127000D01*
X180282500Y-28427000D01*
X180329085Y-28645987D01*
X180417497Y-28851678D01*
X180544339Y-29036169D01*
X180704736Y-29192369D01*
X180892524Y-29314276D01*
X181115626Y-29394119D01*
X181290500Y-29267954D01*
X181290500Y-28127000D01*
X181544500Y-28127000D01*
X181544500Y-29267954D01*
X181719374Y-29394119D01*
X181942476Y-29314276D01*
X182130264Y-29192369D01*
X182290661Y-29036169D01*
X182417503Y-28851678D01*
X182505915Y-28645987D01*
X182552500Y-28427000D01*
X182552500Y-28127000D01*
X188922500Y-28127000D01*
X188922500Y-28427000D01*
X188969085Y-28645987D01*
X189057497Y-28851678D01*
X189184339Y-29036169D01*
X189344736Y-29192369D01*
X189532524Y-29314276D01*
X189755626Y-29394119D01*
X189930500Y-29267954D01*
X189930500Y-28127000D01*
X190184500Y-28127000D01*
X190184500Y-29267954D01*
X190359374Y-29394119D01*
X190582476Y-29314276D01*
X190770264Y-29192369D01*
X190930661Y-29036169D01*
X191057503Y-28851678D01*
X191145915Y-28645987D01*
X191192500Y-28427000D01*
X191192500Y-28127000D01*
X190184500Y-28127000D01*
X189930500Y-28127000D01*
X188922500Y-28127000D01*
X182552500Y-28127000D01*
X181544500Y-28127000D01*
X181290500Y-28127000D01*
X180282500Y-28127000D01*
X178866995Y-28127000D01*
X179587129Y-27647500D01*
X180282500Y-27647500D01*
X180282500Y-27873000D01*
G36*
X190184500Y-32053000D02*
G01*
X191109370Y-32053000D01*
X193833204Y-34776834D01*
X193824482Y-34774188D01*
X193700000Y-34761928D01*
X193285750Y-34765000D01*
X193127000Y-34923750D01*
X193127000Y-35873000D01*
X193147000Y-35873000D01*
X193147000Y-36127000D01*
X193127000Y-36127000D01*
X193127000Y-36147000D01*
X192873000Y-36147000D01*
X192873000Y-36127000D01*
X191823750Y-36127000D01*
X191665000Y-36285750D01*
X191661928Y-36600000D01*
X191670299Y-36685000D01*
X191468061Y-36685000D01*
X191268102Y-36724774D01*
X191079744Y-36802795D01*
X190910226Y-36916063D01*
X190766063Y-37060226D01*
X190652795Y-37229744D01*
X190574774Y-37418102D01*
X190535000Y-37618061D01*
X190535000Y-37821939D01*
X190574774Y-38021898D01*
X190652795Y-38210256D01*
X190766063Y-38379774D01*
X190910226Y-38523937D01*
X191079744Y-38637205D01*
X191268102Y-38715226D01*
X191468061Y-38755000D01*
X191671939Y-38755000D01*
X191759098Y-38737663D01*
X191754774Y-38748102D01*
X191715000Y-38948061D01*
X191715000Y-39151939D01*
X191752010Y-39338000D01*
X186533453Y-39338000D01*
X186285995Y-39090542D01*
X186290000Y-39090572D01*
X186414482Y-39078312D01*
X186534180Y-39042002D01*
X186644494Y-38983037D01*
X186741185Y-38903685D01*
X186820537Y-38806994D01*
X186879502Y-38696680D01*
X186915812Y-38576982D01*
X186928072Y-38452500D01*
X186925000Y-38250750D01*
X186766250Y-38092000D01*
X185717000Y-38092000D01*
X185717000Y-38112000D01*
X185463000Y-38112000D01*
X185463000Y-38092000D01*
X185443000Y-38092000D01*
X185443000Y-37838000D01*
X185463000Y-37838000D01*
X185463000Y-37818000D01*
X185717000Y-37818000D01*
X185717000Y-37838000D01*
X186766250Y-37838000D01*
X186925000Y-37679250D01*
X186928072Y-37477500D01*
X186915812Y-37353018D01*
X186879502Y-37233320D01*
X186820537Y-37123006D01*
X186741185Y-37026315D01*
X186663436Y-36962508D01*
X186669792Y-36957292D01*
X186779458Y-36823664D01*
X186860947Y-36671209D01*
X186873804Y-36628826D01*
X187514000Y-35988631D01*
X187544705Y-35963118D01*
X187590428Y-35906708D01*
X187636644Y-35850393D01*
X187637749Y-35848326D01*
X187639220Y-35846511D01*
X187673090Y-35782208D01*
X187707401Y-35718016D01*
X187708080Y-35715777D01*
X187709171Y-35713706D01*
X187729863Y-35643968D01*
X187750973Y-35574379D01*
X187751202Y-35572050D01*
X187751868Y-35569807D01*
X187758553Y-35497419D01*
X187765686Y-35425001D01*
X187763224Y-35400000D01*
X191661928Y-35400000D01*
X191665000Y-35714250D01*
X191823750Y-35873000D01*
X192873000Y-35873000D01*
X192873000Y-34923750D01*
X192714250Y-34765000D01*
X192300000Y-34761928D01*
X192175518Y-34774188D01*
X192055820Y-34810498D01*
X191945506Y-34869463D01*
X191848815Y-34948815D01*
X191769463Y-35045506D01*
X191710498Y-35155820D01*
X191674188Y-35275518D01*
X191661928Y-35400000D01*
X187763224Y-35400000D01*
X187761772Y-35385261D01*
X187759405Y-34996066D01*
X187761982Y-34995812D01*
X187762500Y-34995655D01*
X187763018Y-34995812D01*
X187887500Y-35008072D01*
X188487500Y-35008072D01*
X188575000Y-34999454D01*
X188662500Y-35008072D01*
X188676750Y-35005000D01*
X188718141Y-34963609D01*
X188731680Y-34959502D01*
X188841994Y-34900537D01*
X188938685Y-34821185D01*
X189018037Y-34724494D01*
X189077002Y-34614180D01*
X189089500Y-34572980D01*
X189089500Y-34846250D01*
X189248250Y-35005000D01*
X189262500Y-35008072D01*
X189386982Y-34995812D01*
X189506680Y-34959502D01*
X189616994Y-34900537D01*
X189713685Y-34821185D01*
X189793037Y-34724494D01*
X189852002Y-34614180D01*
X189888312Y-34494482D01*
X189900572Y-34370000D01*
X189897783Y-33721558D01*
X189930500Y-33697954D01*
X189930500Y-32307000D01*
X190184500Y-32307000D01*
X190184500Y-33697954D01*
X190359374Y-33824119D01*
X190582476Y-33744276D01*
X190770264Y-33622369D01*
X190930661Y-33466169D01*
X191057503Y-33281678D01*
X191145915Y-33075987D01*
X191192500Y-32857000D01*
X191192500Y-32307000D01*
X190184500Y-32307000D01*
X189930500Y-32307000D01*
X189910500Y-32307000D01*
X189910500Y-32053000D01*
X189930500Y-32053000D01*
X189930500Y-32033000D01*
X190184500Y-32033000D01*
X190184500Y-32053000D01*
G37*
X190184500Y-32053000D02*
X191109370Y-32053000D01*
X193833204Y-34776834D01*
X193824482Y-34774188D01*
X193700000Y-34761928D01*
X193285750Y-34765000D01*
X193127000Y-34923750D01*
X193127000Y-35873000D01*
X193147000Y-35873000D01*
X193147000Y-36127000D01*
X193127000Y-36127000D01*
X193127000Y-36147000D01*
X192873000Y-36147000D01*
X192873000Y-36127000D01*
X191823750Y-36127000D01*
X191665000Y-36285750D01*
X191661928Y-36600000D01*
X191670299Y-36685000D01*
X191468061Y-36685000D01*
X191268102Y-36724774D01*
X191079744Y-36802795D01*
X190910226Y-36916063D01*
X190766063Y-37060226D01*
X190652795Y-37229744D01*
X190574774Y-37418102D01*
X190535000Y-37618061D01*
X190535000Y-37821939D01*
X190574774Y-38021898D01*
X190652795Y-38210256D01*
X190766063Y-38379774D01*
X190910226Y-38523937D01*
X191079744Y-38637205D01*
X191268102Y-38715226D01*
X191468061Y-38755000D01*
X191671939Y-38755000D01*
X191759098Y-38737663D01*
X191754774Y-38748102D01*
X191715000Y-38948061D01*
X191715000Y-39151939D01*
X191752010Y-39338000D01*
X186533453Y-39338000D01*
X186285995Y-39090542D01*
X186290000Y-39090572D01*
X186414482Y-39078312D01*
X186534180Y-39042002D01*
X186644494Y-38983037D01*
X186741185Y-38903685D01*
X186820537Y-38806994D01*
X186879502Y-38696680D01*
X186915812Y-38576982D01*
X186928072Y-38452500D01*
X186925000Y-38250750D01*
X186766250Y-38092000D01*
X185717000Y-38092000D01*
X185717000Y-38112000D01*
X185463000Y-38112000D01*
X185463000Y-38092000D01*
X185443000Y-38092000D01*
X185443000Y-37838000D01*
X185463000Y-37838000D01*
X185463000Y-37818000D01*
X185717000Y-37818000D01*
X185717000Y-37838000D01*
X186766250Y-37838000D01*
X186925000Y-37679250D01*
X186928072Y-37477500D01*
X186915812Y-37353018D01*
X186879502Y-37233320D01*
X186820537Y-37123006D01*
X186741185Y-37026315D01*
X186663436Y-36962508D01*
X186669792Y-36957292D01*
X186779458Y-36823664D01*
X186860947Y-36671209D01*
X186873804Y-36628826D01*
X187514000Y-35988631D01*
X187544705Y-35963118D01*
X187590428Y-35906708D01*
X187636644Y-35850393D01*
X187637749Y-35848326D01*
X187639220Y-35846511D01*
X187673090Y-35782208D01*
X187707401Y-35718016D01*
X187708080Y-35715777D01*
X187709171Y-35713706D01*
X187729863Y-35643968D01*
X187750973Y-35574379D01*
X187751202Y-35572050D01*
X187751868Y-35569807D01*
X187758553Y-35497419D01*
X187765686Y-35425001D01*
X187763224Y-35400000D01*
X191661928Y-35400000D01*
X191665000Y-35714250D01*
X191823750Y-35873000D01*
X192873000Y-35873000D01*
X192873000Y-34923750D01*
X192714250Y-34765000D01*
X192300000Y-34761928D01*
X192175518Y-34774188D01*
X192055820Y-34810498D01*
X191945506Y-34869463D01*
X191848815Y-34948815D01*
X191769463Y-35045506D01*
X191710498Y-35155820D01*
X191674188Y-35275518D01*
X191661928Y-35400000D01*
X187763224Y-35400000D01*
X187761772Y-35385261D01*
X187759405Y-34996066D01*
X187761982Y-34995812D01*
X187762500Y-34995655D01*
X187763018Y-34995812D01*
X187887500Y-35008072D01*
X188487500Y-35008072D01*
X188575000Y-34999454D01*
X188662500Y-35008072D01*
X188676750Y-35005000D01*
X188718141Y-34963609D01*
X188731680Y-34959502D01*
X188841994Y-34900537D01*
X188938685Y-34821185D01*
X189018037Y-34724494D01*
X189077002Y-34614180D01*
X189089500Y-34572980D01*
X189089500Y-34846250D01*
X189248250Y-35005000D01*
X189262500Y-35008072D01*
X189386982Y-34995812D01*
X189506680Y-34959502D01*
X189616994Y-34900537D01*
X189713685Y-34821185D01*
X189793037Y-34724494D01*
X189852002Y-34614180D01*
X189888312Y-34494482D01*
X189900572Y-34370000D01*
X189897783Y-33721558D01*
X189930500Y-33697954D01*
X189930500Y-32307000D01*
X190184500Y-32307000D01*
X190184500Y-33697954D01*
X190359374Y-33824119D01*
X190582476Y-33744276D01*
X190770264Y-33622369D01*
X190930661Y-33466169D01*
X191057503Y-33281678D01*
X191145915Y-33075987D01*
X191192500Y-32857000D01*
X191192500Y-32307000D01*
X190184500Y-32307000D01*
X189930500Y-32307000D01*
X189910500Y-32307000D01*
X189910500Y-32053000D01*
X189930500Y-32053000D01*
X189930500Y-32033000D01*
X190184500Y-32033000D01*
X190184500Y-32053000D01*
G36*
X180282500Y-32053000D02*
G01*
X181290500Y-32053000D01*
X181290500Y-32033000D01*
X181544500Y-32033000D01*
X181544500Y-32053000D01*
X181564500Y-32053000D01*
X181564500Y-32307000D01*
X181544500Y-32307000D01*
X181544500Y-33697954D01*
X181577217Y-33721558D01*
X181576299Y-33935001D01*
X179013072Y-33935001D01*
X179013072Y-33625000D01*
X178996008Y-33451746D01*
X178945472Y-33285150D01*
X178863405Y-33131614D01*
X178844298Y-33108332D01*
X179645630Y-32307000D01*
X180282500Y-32307000D01*
X180282500Y-32857000D01*
X180329085Y-33075987D01*
X180417497Y-33281678D01*
X180544339Y-33466169D01*
X180704736Y-33622369D01*
X180892524Y-33744276D01*
X181115626Y-33824119D01*
X181290500Y-33697954D01*
X181290500Y-32307000D01*
X180282500Y-32307000D01*
X179645630Y-32307000D01*
X180282500Y-31670131D01*
X180282500Y-32053000D01*
G37*
X180282500Y-32053000D02*
X181290500Y-32053000D01*
X181290500Y-32033000D01*
X181544500Y-32033000D01*
X181544500Y-32053000D01*
X181564500Y-32053000D01*
X181564500Y-32307000D01*
X181544500Y-32307000D01*
X181544500Y-33697954D01*
X181577217Y-33721558D01*
X181576299Y-33935001D01*
X179013072Y-33935001D01*
X179013072Y-33625000D01*
X178996008Y-33451746D01*
X178945472Y-33285150D01*
X178863405Y-33131614D01*
X178844298Y-33108332D01*
X179645630Y-32307000D01*
X180282500Y-32307000D01*
X180282500Y-32857000D01*
X180329085Y-33075987D01*
X180417497Y-33281678D01*
X180544339Y-33466169D01*
X180704736Y-33622369D01*
X180892524Y-33744276D01*
X181115626Y-33824119D01*
X181290500Y-33697954D01*
X181290500Y-32307000D01*
X180282500Y-32307000D01*
X179645630Y-32307000D01*
X180282500Y-31670131D01*
X180282500Y-32053000D01*
M02*
